<svg xmlns="http://www.w3.org/2000/svg" width="32" height="618" fill="none"><path stroke="#B6D4F7" stroke-width="8" d="M16 30v576"/><rect width="32" height="32" fill="#1574E5" rx="16"/><rect width="18.286" height="18.286" x="6.857" y="6.857" fill="#E8F1FC" rx="9.143"/><path fill="#093160" d="m20.409 12.743-5.003 7.503a.73.73 0 0 1-.494.318.7.7 0 0 1-.551-.166l-3.572-3.157a.864.864 0 0 1-.114-1.135c.252-.349.712-.405 1.027-.126l2.98 2.633 4.55-6.825a.71.71 0 0 1 .678-.356c.267.028.5.216.604.49a.88.88 0 0 1-.105.821"/><rect width="32" height="32" y="77" fill="#1574E5" rx="16"/><rect width="18.286" height="18.286" x="6.857" y="83.857" fill="#E8F1FC" rx="9.143"/><path fill="#093160" d="m20.409 89.744-5.003 7.502a.73.73 0 0 1-.494.318.7.7 0 0 1-.551-.166l-3.572-3.156a.866.866 0 0 1-.114-1.136c.252-.348.712-.405 1.027-.126l2.98 2.634 4.55-6.826a.71.71 0 0 1 .678-.356c.267.028.5.217.604.491a.88.88 0 0 1-.105.82"/><rect width="32" height="32" y="154" fill="#1574E5" rx="16"/><rect width="18.286" height="18.286" x="6.857" y="160.857" fill="#E8F1FC" rx="9.143"/><path fill="#093160" d="m20.409 166.744-5.003 7.503a.73.73 0 0 1-.494.318.7.7 0 0 1-.551-.166l-3.572-3.157a.866.866 0 0 1-.114-1.135c.252-.349.712-.405 1.027-.126l2.98 2.633 4.55-6.825a.71.71 0 0 1 .678-.356c.267.028.5.216.604.49a.88.88 0 0 1-.105.821"/><rect width="32" height="32" y="226" fill="#1574E5" rx="16"/><rect width="18.286" height="18.286" x="6.857" y="232.857" fill="#E8F1FC" rx="9.143"/><path fill="#093160" d="m20.409 238.744-5.003 7.502a.73.73 0 0 1-.494.318.7.7 0 0 1-.551-.166l-3.572-3.156a.87.87 0 0 1-.114-1.136c.252-.348.712-.405 1.027-.126l2.98 2.634 4.55-6.826a.71.71 0 0 1 .678-.356c.267.028.5.217.604.491a.88.88 0 0 1-.105.821"/><rect width="32" height="32" y="298" fill="#1574E5" rx="16"/><rect width="18.286" height="18.286" x="6.856" y="304.857" fill="#E8F1FC" rx="9.143"/><path fill="#093160" d="m20.408 310.744-5.002 7.502a.73.73 0 0 1-.494.319.7.7 0 0 1-.552-.167l-3.572-3.156c-.315-.279-.366-.787-.114-1.136s.712-.404 1.028-.126l2.979 2.634 4.55-6.825a.71.71 0 0 1 .678-.357c.268.028.5.217.605.491a.88.88 0 0 1-.106.821"/><rect width="32" height="32" y="370" fill="#1574E5" rx="16"/><rect width="18.286" height="18.286" x="6.857" y="376.856" fill="#E8F1FC" rx="9.143"/><path fill="#093160" d="m20.41 382.744-5.003 7.502a.73.73 0 0 1-.494.319.7.7 0 0 1-.552-.167l-3.572-3.156c-.315-.279-.366-.787-.114-1.136s.712-.404 1.028-.126l2.979 2.634 4.55-6.825a.71.71 0 0 1 .678-.357c.268.028.5.217.605.491a.88.88 0 0 1-.106.821"/><rect width="32" height="32" y="442" fill="#1574E5" rx="16"/><rect width="18.286" height="18.286" x="6.857" y="448.856" fill="#E8F1FC" rx="9.143"/><path fill="#093160" d="m20.409 454.744-5.003 7.502a.73.73 0 0 1-.494.319.7.7 0 0 1-.551-.167l-3.572-3.156a.866.866 0 0 1-.114-1.136c.252-.348.712-.404 1.027-.126l2.98 2.634 4.55-6.825a.71.71 0 0 1 .678-.357c.267.028.5.217.604.491a.88.88 0 0 1-.105.821"/><rect width="32" height="32" y="514" fill="#1574E5" rx="16"/><rect width="18.286" height="18.286" x="6.857" y="520.856" fill="#E8F1FC" rx="9.143"/><path fill="#093160" d="m20.409 526.744-5.003 7.502a.73.73 0 0 1-.494.319.7.7 0 0 1-.551-.167l-3.572-3.156a.866.866 0 0 1-.114-1.136c.252-.348.712-.404 1.027-.126l2.98 2.634 4.55-6.825a.71.71 0 0 1 .678-.357c.267.028.5.217.604.491a.88.88 0 0 1-.105.821"/><rect width="32" height="32" y="586" fill="#1574E5" rx="16"/><rect width="18.286" height="18.286" x="6.857" y="592.856" fill="#E8F1FC" rx="9.143"/><path fill="#093160" d="m20.409 598.744-5.003 7.502a.73.73 0 0 1-.494.319.7.7 0 0 1-.551-.167l-3.572-3.156a.866.866 0 0 1-.114-1.136c.252-.348.712-.404 1.027-.126l2.98 2.634 4.55-6.825a.71.71 0 0 1 .678-.357c.267.028.5.217.604.491a.88.88 0 0 1-.105.821"/></svg>