<svg xmlns="http://www.w3.org/2000/svg" width="1216" height="378" fill="none"><path stroke="#B6D4F7" stroke-width="24" d="M82.95 92h1032.48c13.26 0 24 10.745 24 24v209c0 13.255-10.74 24-24 24H211.478"/><rect width="56" height="56" x="580" y="66" fill="#1574E5" rx="28"/><rect width="32" height="32" x="592" y="78" fill="#E8F1FC" rx="16"/><path fill="#093160" d="m615.716 88.302-8.755 13.129c-.209.306-.52.507-.864.557a1.2 1.2 0 0 1-.965-.291l-6.252-5.524c-.552-.488-.641-1.377-.2-1.987.442-.61 1.247-.709 1.799-.22l5.213 4.609 7.965-11.945c.261-.433.716-.673 1.185-.624s.875.38 1.058.86c.182.48.112 1.03-.184 1.436"/><rect width="56" height="56" x="1094.11" y="66" fill="#1574E5" rx="28"/><rect width="32" height="32" x="1106.11" y="78" fill="#E8F1FC" rx="16"/><path fill="#093160" d="m1129.83 88.302-8.76 13.129c-.21.306-.52.507-.86.557-.35.05-.69-.055-.97-.291l-6.25-5.524c-.55-.488-.64-1.377-.2-1.987s1.25-.709 1.8-.22l5.21 4.609 7.97-11.945c.26-.433.71-.673 1.18-.624s.88.38 1.06.86.11 1.03-.18 1.436"/><rect width="56" height="56" x="456.031" y="322" fill="#1574E5" rx="28"/><rect width="32" height="32" x="468.031" y="334" fill="#E8F1FC" rx="16"/><path fill="#093160" d="m491.747 344.302-8.755 13.129c-.209.306-.52.507-.864.557a1.2 1.2 0 0 1-.965-.291l-6.252-5.524c-.551-.488-.641-1.377-.199-1.987.441-.61 1.246-.709 1.798-.221l5.213 4.61 7.965-11.945c.261-.433.716-.673 1.185-.624s.875.38 1.058.859c.183.48.112 1.032-.184 1.437"/><rect width="56" height="56" x="713.086" y="317" fill="#1574E5" rx="28"/><rect width="32" height="32" x="725.086" y="329" fill="#E8F1FC" rx="16"/><path fill="#093160" d="m748.802 339.302-8.755 13.129c-.209.306-.52.507-.864.557a1.2 1.2 0 0 1-.965-.291l-6.252-5.524c-.552-.488-.641-1.377-.2-1.987.442-.61 1.247-.709 1.799-.221l5.213 4.61 7.964-11.945c.262-.433.717-.673 1.186-.624s.875.38 1.058.859c.182.48.112 1.032-.184 1.437"/><rect width="56" height="56" x="969.975" y="322" fill="#1574E5" rx="28"/><rect width="32" height="32" x="981.975" y="334" fill="#E8F1FC" rx="16"/><path fill="#093160" d="m1005.69 344.302-8.754 13.129c-.209.306-.52.507-.864.557a1.2 1.2 0 0 1-.965-.291l-6.252-5.524c-.552-.488-.641-1.377-.199-1.987.441-.61 1.246-.709 1.798-.221l5.213 4.61 7.963-11.945c.26-.433.72-.673 1.19-.624s.87.38 1.05.859c.19.48.12 1.032-.18 1.437"/><rect width="56" height="56" x="65.889" y="61" fill="#1574E5" rx="28"/><rect width="32" height="32" x="77.889" y="73" fill="#E8F1FC" rx="16"/><path fill="#093160" d="m101.605 83.302-8.755 13.13c-.209.305-.52.506-.864.556a1.2 1.2 0 0 1-.965-.291l-6.252-5.524c-.552-.488-.64-1.377-.2-1.987.442-.61 1.247-.709 1.799-.22l5.213 4.609 7.965-11.945c.26-.433.716-.673 1.185-.624s.875.38 1.058.86.112 1.03-.184 1.436"/><rect width="56" height="56" x="322.944" y="61" fill="#1574E5" rx="28"/><rect width="32" height="32" x="334.944" y="73" fill="#E8F1FC" rx="16"/><path fill="#093160" d="m358.66 83.302-8.755 13.13c-.209.305-.52.506-.864.556a1.2 1.2 0 0 1-.965-.291l-6.252-5.524c-.551-.488-.641-1.377-.199-1.987.441-.61 1.246-.709 1.798-.22l5.213 4.609 7.965-11.945c.261-.433.716-.673 1.185-.624s.876.38 1.058.86.112 1.03-.184 1.436"/><rect width="56" height="56" x="199.142" y="317" fill="#1574E5" rx="28"/><rect width="32" height="32" x="211.142" y="329" fill="#E8F1FC" rx="16"/><path fill="#093160" d="m234.857 339.302-8.755 13.129c-.208.306-.52.507-.864.557a1.2 1.2 0 0 1-.965-.291l-6.251-5.524c-.552-.488-.641-1.377-.2-1.987.442-.61 1.247-.709 1.798-.221l5.214 4.61 7.964-11.945c.261-.433.717-.673 1.186-.624s.875.38 1.057.859c.183.48.112 1.032-.184 1.437"/><rect width="56" height="56" x="837.056" y="61" fill="#1574E5" rx="28"/><rect width="32" height="32" x="849.056" y="73" fill="#E8F1FC" rx="16"/><path fill="#093160" d="m872.771 83.302-8.755 13.13c-.208.305-.52.506-.864.556a1.2 1.2 0 0 1-.965-.291l-6.251-5.524c-.552-.488-.641-1.377-.2-1.987.442-.61 1.247-.709 1.798-.22l5.214 4.609 7.964-11.945c.261-.433.717-.673 1.186-.624s.875.38 1.057.86c.183.48.112 1.03-.184 1.436"/></svg>