<svg xmlns="http://www.w3.org/2000/svg" width="336" height="103" fill="none"><rect width="335" height="102" x="1" fill="#E8F1FC" rx="4"/><path stroke="#093160" stroke-width=".365" d="M.879 40.284 44.678 1.229M.88 32.982l36.5-31.755M.882 26.046l29.2-24.82M.879 20.572l21.9-19.345M.876 14.736l14.6-13.505M.871 8.536l7.3-7.3M.882 4.328l3.65-3.103M335.386 63.55l-44.126 38.687M335.323 70.852l-36.765 31.447M335.263 77.787l-29.407 24.575M335.22 83.26l-22.062 19.16M335.174 89.097l-14.713 13.382M335.127 95.296l-7.361 7.239M335.081 99.504l-3.676 3.071"/><path fill="#1574E5" d="M305.129 76.593c-1.215-.685-2.803-1.425-3.554-2.663-.706-1.161.732-2.292 1.523-2.921.118-.094.023-.315-.124-.3-.952.09-2.096.129-2.792-.643-.76-.84-.413-2.372-.191-3.338.05-.22-.261-.303-.336-.093-.411 1.15-.897 2.544-1.852 3.365-1.383 1.189-2.118-2.567-2.263-3.238-.035-.158-.302-.168-.328 0-.17 1.064-.294 2.494-1.104 3.296-.845.836-2.425-.047-3.245-.475-.061-.057-.138-.04-.188.011-.066.058-.089.169-.009.232.6.748 1.487 1.996.17 2.491-1.007.38-2.242.283-3.298.266-.213-.004-.222.277-.047.347.837.333 1.649.755 2.302 1.384.951.917.43 1.87-.51 2.527-.172.12-.064.367.14.331.943-.165 1.889-.03 2.013 1.078.136 1.23-.507 2.598-1 3.68-.098.216.171.367.313.183.92-1.192 1.949-2.67 3.315-3.395 1.125-.597 1.356.965 1.44 1.731.022.197.292.254.356.048.253-.83.538-1.745 1.203-2.345.841-.76 2.038.141 2.708.688.143.117.33.007.3-.175-.119-.718-.266-1.687.485-2.11.444-.25 1.038-.217 1.527-.189.984.056 1.96.305 2.909.553.194.05.315-.225.137-.326m-4.828-.306c-.708.398-.732 1.262-.644 2.008-.683-.517-1.568-1.032-2.392-.677-.804.347-1.225 1.208-1.516 2.04-.155-.752-.492-1.535-1.333-1.43-.599.074-1.122.54-1.552.924-.565.504-1.072 1.075-1.553 1.667.376-.963.645-2 .423-2.97-.202-.88-.991-1.11-1.771-1.089.609-.562.959-1.264.528-2.127-.381-.763-1.217-1.289-2.037-1.673 1.05.022 2.234-.018 3.022-.604.762-.567.325-1.493-.163-2.19.898.442 1.981.834 2.843.279.803-.517 1.082-1.686 1.247-2.7.308 1.3.934 3.215 2.219 2.76.572-.204.965-.822 1.264-1.312q.282-.469.508-.966c-.042.697.049 1.39.444 1.964.565.82 1.647.945 2.599.906-.825.699-1.691 1.639-1.289 2.754.208.58.727 1.024 1.192 1.396.456.364.947.684 1.449.985-1.181-.288-2.52-.488-3.488.055"/><path fill="#1574E5" d="M302.241 74.168c-.313-.344-.4-.743-.586-1.15-.003-.009-.014-.004-.015.003-.063.796.745 1.68 1.419 1.99a.03.03 0 0 0 .019.004.03.03 0 0 0 .022-.029.03.03 0 0 0-.008-.017c-.248-.3-.588-.513-.851-.801M303.38 75.255c.069.048.126.091.211.092l.008-.002.007-.007.002-.008-.002-.009c-.039-.066-.094-.091-.159-.131s-.121-.082-.181-.122c-.025-.017-.053.015-.039.039a.46.46 0 0 0 .153.148M289.735 74.792c.119.158.13.333.157.52l.006.01.008.004h.01l.009-.005c.457-.59-1.059-1.487-1.483-1.603h-.008l-.006.005-.003.007.001.008c.164.242.523.391.76.554.204.14.4.3.549.5M294.561 68.474c.004-.034-.044-.035-.056-.007-.204.507-.406 1.016-.875 1.336-.447.306-.884.133-1.339-.02h-.01q-.005 0-.007.006-.002.004-.002.01l.007.007c.965 1.006 2.182-.35 2.282-1.332M294.629 68.236c.122-.1.126-.329.136-.473.002-.018-.023-.022-.032-.009a.7.7 0 0 0-.091.22c-.017.08-.047.168-.039.251l.003.008.007.006h.008zM294.793 79.074c-.511-.178-1.024.199-1.411.493-.485.368-1.006.836-1.352 1.34-.008.013.008.028.02.02.97-.592 1.512-1.648 2.737-1.808q.01 0 .017-.005a.02.02 0 0 0 .008-.015.02.02 0 0 0-.004-.016.02.02 0 0 0-.015-.01M291.93 81.06c-.036.008-.044.001-.074.028-.039.034-.07.089-.1.13-.054.074-.134.162-.14.257l.002.01.007.007.008.004h.009c.079-.032.124-.117.168-.185a3 3 0 0 1 .089-.129q.023-.028.041-.058c.011-.018 0-.033.004-.051v-.006l-.003-.005-.005-.002zM297.885 78.114c-.495.052-1.166.619-1.246 1.124-.003.022.026.048.045.025.159-.194.286-.402.469-.578.225-.215.5-.337.747-.518.02-.015.017-.056-.015-.053M301.405 76.663c-.516.034-1.255.677-1.106 1.247l.006.008.009.004.009-.001.008-.007c.143-.24.209-.481.404-.695.194-.214.469-.327.687-.515q.005-.005.006-.012a.02.02 0 0 0-.001-.014l-.009-.01a.02.02 0 0 0-.013-.005M301.88 70.361a.02.02 0 0 0 .009-.006.02.02 0 0 0 .004-.011.02.02 0 0 0-.004-.011.01.01 0 0 0-.009-.007c-.332-.075-.67-.127-.979-.276-.353-.171-.543-.443-.73-.772l-.006-.005h-.008l-.007.004-.002.007c.056.76 1.066 1.217 1.732 1.077M298.571 68.43a.03.03 0 0 0 0-.017.03.03 0 0 0-.013-.012.022.022 0 0 0-.029.012c-.378.572-.621 1.44-1.427 1.493l-.005.001-.003.005.002.006q.001.003.004.003c.762.258 1.307-.934 1.471-1.49M290.891 71.913q-.002.006-.002.012l.006.011a.02.02 0 0 0 .011.006l.012-.002c.347-.218.505-.725.231-1.072-.009-.011-.029-.001-.029.013.004.186.074.35.033.54-.039.178-.173.337-.262.492M291.005 78.995c.202-.434.21-1.313-.378-1.47h-.008l-.005.006q-.002.004-.002.007l.003.008c.16.195.297.347.356.601.06.264.016.56-.021.825-.003.03.04.056.055.023M300.663 72.815a.2.2 0 0 0 .02-.08.3.3 0 0 0 .013-.076l.007-.065a.1.1 0 0 0 0-.037v-.005l.002-.005c.004-.001.004-.012.002-.023a1 1 0 0 1-.003-.124c0-.01-.002-.02-.006-.021q-.005-.004-.002-.006a.14.14 0 0 0-.013-.06l-.001-.004-.001-.004.002-.003.002-.003c.008-.004.003-.028-.01-.06l-.001-.009-.012-.029-.016-.039-.024-.047-.041-.07q-.039-.066-.039-.042.002.012-.007 0-.007-.01 0-.015t-.002-.013l-.032-.033a1.2 1.2 0 0 0-.217-.18l-.061-.041a1.6 1.6 0 0 0-.431-.224l-.073-.025-.008-.027a1 1 0 0 1-.013-.063l-.009-.042q-.002-.003-.002-.006t.002-.007l.002-.008-.003-.008-.003-.006-.001-.008a.05.05 0 0 0-.007-.025.1.1 0 0 1-.006-.044q.005-.038-.006-.029l-.002.001h-.004l-.002-.002q-.002-.004.004-.01.002 0 .002-.002l.001-.003v-.003l-.001-.003a.04.04 0 0 1-.005-.022q0-.016-.007-.02-.004-.001.003-.004.01-.002.003-.008a.04.04 0 0 1-.002-.026.04.04 0 0 0-.003-.032.04.04 0 0 1-.005-.022.04.04 0 0 0-.003-.02q-.005-.007 0-.01.004-.004 0-.019a.3.3 0 0 1-.005-.051.1.1 0 0 0-.006-.043c-.007-.011-.011-.04-.006-.044a.06.06 0 0 0-.005-.048.1.1 0 0 1-.004-.038.2.2 0 0 0-.004-.05c-.009-.022-.013-.047-.009-.05.004-.002 0-.005-.001-.008q-.004-.012-.003-.025c.001-.016 0-.02-.012-.025-.011-.006-.013-.01-.015-.026a.1.1 0 0 0-.007-.026l-.002-.003-.001-.003.001-.003.002-.002q.019-.016.001-.027l-.01-.008-.005-.013c-.003-.012-.007-.015-.028-.018s-.026-.002-.048.015l-.024.019.012.031q.013.03.022.063c.004.017.01.04.014.05q.006.023.007.045c0 .016.002.035.003.046q.002.015.002.03a.5.5 0 0 0 .005.148l-.001.003a.3.3 0 0 0 .003.078v.013a.1.1 0 0 0 0 .039 1 1 0 0 1 .009.115q.006.015.004.03a.1.1 0 0 0 .007.034.1.1 0 0 1 .008.041l.007.074a.1.1 0 0 1 0 .044 1 1 0 0 1-.161-.073l-.094-.049a.5.5 0 0 1-.158-.126.55.55 0 0 1-.136-.2c-.013-.017-.022-.097-.012-.104a.1.1 0 0 0 .009-.032.4.4 0 0 1 .062-.149.1.1 0 0 0 .022-.028.1.1 0 0 1 .016-.02.3.3 0 0 0 .034-.041c.022-.032.03-.038.094-.08.066-.045.101-.063.121-.062a.2.2 0 0 0 .041-.013c.029-.012.032-.015.034-.027.006-.032-.03-.067-.086-.086a.26.26 0 0 0-.13-.015l-.084.009-.052.004a.3.3 0 0 0-.055.008l-.046.007a.6.6 0 0 0-.127.084.4.4 0 0 0-.048.051.4.4 0 0 1-.043.048.58.58 0 0 0-.143.31.35.35 0 0 0 .02.16c.046.124.083.179.202.303a1 1 0 0 0 .271.19c.018.007.048.022.069.033l.06.028.047.022q.087.04.178.07l.073.025.064.024.033.012.008.047.01.059.007.038.008.032.009.052a.2.2 0 0 0 .019.07.06.06 0 0 1 .01.038q-.005.033.012.036.009.002.003.005l-.002.003v.006l.002.002a.1.1 0 0 1 .007.027.1.1 0 0 0 .007.024q.003.004 0 .014a.04.04 0 0 0 .009.03.1.1 0 0 1 .012.038q.001.016.01.03a.1.1 0 0 1 .014.041.2.2 0 0 0 .015.046q.02.037.031.076l.01.023a.5.5 0 0 1 .038.088q0 .007.01.014.01.008.01.013a.7.7 0 0 0 .078.143l.01.02c.045.083.164.256.177.259q.008.003.013.01a.1.1 0 0 0 .019.014q.018.007.004-.004-.01-.008-.005-.012a.1.1 0 0 1 .063.003c.009.014.036.018.066.01a.1.1 0 0 1 .045-.005q.017.002.033-.005a.3.3 0 0 1 .053-.015.2.2 0 0 0 .048-.016q.014-.009.02-.006.004.004.058-.032a1 1 0 0 1 .062-.04q.012-.002.028-.045zm-.228.02a.1.1 0 0 0-.032.01.1.1 0 0 1-.066.01l-.009-.002h-.008c-.003.003-.015-.001-.027-.008a.04.04 0 0 0-.032-.008q-.021.005-.015-.007c.006-.008-.047-.057-.063-.064l-.009-.007-.003-.01a.14.14 0 0 0-.033-.05q-.057-.069-.055-.085a.3.3 0 0 0-.032-.062 1 1 0 0 1-.038-.07c-.031-.09-.042-.11-.059-.113q-.01-.001-.003-.006.005-.005-.001-.009-.007-.005-.002-.01c.008-.004-.015-.061-.029-.072q-.012-.008-.003-.016c.005-.007-.005-.063-.024-.101a.1.1 0 0 1-.01-.031.2.2 0 0 0-.019-.041c-.024-.039-.029-.048-.03-.064l-.013-.042a.1.1 0 0 1-.011-.04q0-.006-.002-.01l-.006-.01q-.01-.007-.004-.011.003-.004-.002-.014a.1.1 0 0 1-.007-.022.1.1 0 0 0-.009-.034c-.013-.027-.022-.076-.016-.08s.054.023.076.041a1.97 1.97 0 0 1 .174.111l.084.058q.1.077.182.172a.3.3 0 0 0 .045.045q.005.002.008.017 0 .006.003.011a.02.02 0 0 0 .008.01.04.04 0 0 1 .013.02q0 .008.005.013l.011.01q.035.033.048.08.001.01.005.013a.3.3 0 0 1 .029.086q.002.015.009.029a.3.3 0 0 1 .021.089l.006.049q.006.027.004.055v.02c.003.004.003.013-.002.072v.032c.003.004-.012.027-.022.036a.1.1 0 0 1-.035.01m-.272-.058a.3.3 0 0 1-.03-.046q-.002-.01.015.013t.037.045q.018.02.012.02c-.004.002-.018-.013-.034-.032m-.096-.163q0-.004-.008-.007-.008-.002-.004-.006.006-.004.006-.002l.009.007q.007.005.002.01-.005.003-.005-.002m-.044-.055c-.028-.047-.036-.067-.03-.07q.005-.001.023.03l.026.044c.008.012.012.032.007.035a.2.2 0 0 1-.026-.038zm-.046-.089q-.002-.007 0-.01.002 0 .006.006t0 .01q-.004.002-.006-.006m-.38-1.56q-.006-.003 0-.006l.002-.001h.004l.002.002q.003.004.001.006l-.008-.001zM299.278 72.51c.004-.002 0-.006.005-.007.011.01.022.02.019.038q.001.007.008.019a.1.1 0 0 1-.026-.026l-.012-.013a.2.2 0 0 1-.053-.059c-.002-.003-.003-.007-.007-.004q-.005.005 0 .01a1 1 0 0 1 .072.08l.034.037.036.04.036.04.106.114a.14.14 0 0 0 .041.038q.005.004.006.01a.1.1 0 0 0 .025.028.1.1 0 0 1 .016.019l.022.022c.004.003.008 0 .012.002a.02.02 0 0 0-.001.014l.007.013q.015.024.036.042a.1.1 0 0 1 .017.02c.003.004.008.008.003.014s.004.008.002.014c-.006 0-.01-.005-.017-.004a.1.1 0 0 1 .014.018v.005h-.001l-.002.001h-.001l-.001-.001-.012-.014c-.01-.01-.011-.01-.022 0l-.002.002-.002.004c.012.008.017.023.028.033.005.005.004.008 0 .023l-.024-.008-.003.006.001.007.003.006.005.004.018.02c-.008.01-.008.01-.019.004l-.008-.002q-.006-.001-.004-.006c.008-.006-.006-.013.002-.019l-.003-.003-.001-.001h-.003l-.004.006v.007c-.006-.001-.007-.007-.013-.009.002.014.014.02.02.031.005.011.003.022.013.03a.03.03 0 0 1-.019-.01q-.005-.008-.013-.002c-.005.005-.009.001-.013-.003a.2.2 0 0 0-.03-.022c.022.023.039.05.063.076-.009.002-.017.008-.02-.005l-.002-.003-.003-.002-.007-.004-.003-.008q0-.005-.005-.006c-.003 0-.01-.006-.014-.002-.004.003.002.008.004.012l.004.007h.002c.01.004-.002.008 0 .012s.011-.004.012.005q0 .004-.003.004h-.008l-.006-.003-.006-.006h-.007c.003.007.002.017.014.019.007 0 .007.008.008.013 0 .005.009.005.005.01-.005.005-.011-.001-.013-.003-.006-.009-.016-.013-.02-.023v-.004c0-.001-.007-.006-.011-.004l-.003.002-.001.003.001.003.001.002c.007.006 0 .019.012.023a.03.03 0 0 0 .003.022c.005 0 .012-.012.016.002.002.005.005-.002.008-.002v.014a.1.1 0 0 0-.041.006q-.002 0-.002.002l-.001.003c0 .01-.01.012-.018.014-.016.005-.017.007-.006.022l-.008.003h-.008a.03.03 0 0 0-.022.002c-.006.004-.01 0-.015-.002s-.002.005-.002.007q0 .018-.016.014l-.008-.004-.004-.003h-.011l-.004.003-.009.006h-.017l-.003.002-.002.004q.001.005.005.005.005.001.014.002.007 0 .003.007l-.005.004-.007.001c-.012 0-.012 0-.019.008-.006 0-.003-.01-.01-.01-.003.015-.014.018-.027.018h-.034a.2.2 0 0 0-.036.005l-.044.01c-.015.005-.028-.004-.041-.005q-.002-.005.001-.006.008-.003 0-.01l-.021-.016q-.008-.004-.012-.012.003-.004.007 0l.009.008.013.004-.003-.013a.282.282 0 0 0-.041-.033.2.2 0 0 1-.03-.028l-.077-.082-.082-.089a1 1 0 0 1-.073-.083q-.028-.033-.058-.065l-.021-.023a.2.2 0 0 0-.045-.038l-.009-.007-.053-.06-.016-.02q-.024-.027-.051-.053l-.003-.004c-.012-.027-.042-.038-.056-.062q-.004-.006-.011 0-.032.021-.062.044a1 1 0 0 0-.096.085q-.019.017-.039.031l-.068.05-.022.027a.05.05 0 0 0 .028-.02c.009-.01.018-.021.036-.018a.05.05 0 0 1-.01.026.05.05 0 0 1-.023.016l-.01.008-.019.022c-.004.005-.005.012-.012.015-.002 0-.003.008.002.01.008.004.002.008 0 .008-.011-.002-.013.003-.014.01q0 .004-.002.005l-.004.003c-.013.005-.021.018-.033.025q-.003 0-.004.005a.05.05 0 0 1-.017.024l-.003.005-.002.004.002.004h.006l.022-.011.014-.007c-.015.01-.024.028-.041.037-.003 0-.005.005-.008.003-.004-.002.003-.006 0-.011a.1.1 0 0 0-.022.025l-.002.002v.004l.002.001q.004.004.007 0a.2.2 0 0 0 .035-.022l.013-.008-.002.008-.006.005-.021.017q-.006.004-.008.012-.002.013-.011.019a.15.15 0 0 0-.04.06q-.001.005.002.008.013.009.004.016a.1.1 0 0 0-.018.03q-.006.008 0 .014.002.001.003.005.001.003-.001.007a.1.1 0 0 1-.012.033l-.007.01v.014c-.004.003-.005-.006-.009-.002q-.002 0-.003.004v.005l.003.019.003.016-.002.004q-.009-.006-.007-.017c-.001-.006 0-.012-.007-.017a.2.2 0 0 0 .006.07q.008.034.013.072v.003c-.009.014-.002.026.001.04q.007.038.017.076l.002.013c0 .006-.002.012.007.014.004 0 .001.003.002.005l.009.06c.005.027.013.053.015.08a.2.2 0 0 0 .017.059l.005.007a.03.03 0 0 1 .008.015q.002.007.001.016a.04.04 0 0 0 .001.027l.003.025c.002.01-.002.022.004.033.003.007-.005.012-.005.019s.011.007.011.015q0 .02.009.036a.1.1 0 0 1 .005.029.03.03 0 0 0 .002.016c.005.017.006.035.011.052.001.003-.001.01.008.008q.002.001.002.005a.1.1 0 0 0 .013.032l.004.008-.002.01c-.005.006 0 .015-.007.022q-.002.004.003.009l.001.005-.001.005q0 .003-.003.004l-.005.002c-.01 0-.021.007-.029-.004h-.006l-.006.004-.008.001q-.004 0-.007-.002l-.006-.004-.004-.003c-.013.004-.024-.006-.036-.008-.02-.003-.03-.01-.028-.03q0-.008-.002-.012c-.022-.018-.021-.045-.025-.07q-.008-.05-.02-.098-.01-.046-.02-.09l-.031-.134-.005-.014a.1.1 0 0 1-.011-.043l-.011-.044c-.004-.027-.015-.053-.019-.08a1 1 0 0 0-.022-.108.1.1 0 0 0-.024.05c-.005.018-.006.019-.022.015l-.01-.003-.008-.008q-.003-.008-.014-.005l-.01.001-.009-.005-.015-.008a.04.04 0 0 0-.017 0h-.009a.1.1 0 0 0-.041-.011c-.027-.004-.048-.02-.075-.022a.05.05 0 0 1-.032-.022.03.03 0 0 0-.011-.013.04.04 0 0 0-.017-.005q-.007-.001-.009-.008a.2.2 0 0 0-.027-.043.2.2 0 0 1-.028-.055c-.01-.022-.014-.046-.026-.067q-.002-.004-.002-.006c.005-.012-.002-.021-.006-.031q-.007-.013.008-.015a.1.1 0 0 0 .028-.016l.098-.076.055-.044.008-.006.011-.003q.008 0 .014-.006.044-.03.086-.063l.006-.009a.02.02 0 0 0 .001-.011q-.014-.094-.029-.187-.01-.052-.016-.103-.01-.06-.016-.12l-.006-.031a.2.2 0 0 1-.003-.045l-.009-.09-.015-.153q.002-.013-.007-.025-.002-.002 0-.007a.1.1 0 0 0 .003-.02.04.04 0 0 0-.007-.02q-.002-.004 0-.007c.005-.006 0-.012 0-.019 0-.025-.007-.05-.006-.076v-.008a1 1 0 0 1-.01-.113l-.007-.142v-.056a.03.03 0 0 0-.005-.017.2.2 0 0 0-.034-.03l-.005-.002-.005.001h-.013l-.011-.007c-.033-.026-.062-.058-.098-.081l-.053-.03a.14.14 0 0 1-.044-.032.03.03 0 0 1-.011-.02.03.03 0 0 1 .006-.023.1.1 0 0 0 .007-.022q0-.012.006-.023a.04.04 0 0 1 .016-.017h.001c.01-.02.033-.026.049-.038q.008-.005.007-.013v-.002q.001-.039.039-.033l.01.001q.014.001.014-.014.001-.016.014-.01.008.003.014.002l.013-.006.05-.028q.003 0 .005-.002a.1.1 0 0 1 .048-.027.4.4 0 0 0 .074-.036.2.2 0 0 1 .063-.026l.045-.008a.03.03 0 0 0 .019-.009q.021-.016.047-.026l.008-.002a.2.2 0 0 0 .045.004q.03.003.057.018.03.013.056.034.01.009.023.01a.2.2 0 0 1 .064.03 1 1 0 0 1 .073.061q.05.047.094.097.034.038.07.075a1 1 0 0 1 .055.066l.024.033c.008.011.023.018.033.028q.008.007.012.015a.521.521 0 0 1 .062.08q.005.008.015.011.005 0 .01.005.004.003.006.008a.5.5 0 0 0 .058.08l.013.021a.1.1 0 0 0 .019.022q.017.016.031.036l.025.029q.029.03.055.062.015.02.033.034.017.015.032.033.013.016.022.034a.3.3 0 0 0 .036.044q.017.017.03.035c.013.017.03.03.043.046l.008.006q.006 0 .011-.002l.111-.038.011-.007.009-.005h.011q.054.017.092.058.016.018.018.04c.002.02-.001.023-.022.023q-.006-.002-.01.003-.007.012-.017.001-.012-.007-.019-.017-.003-.004-.007-.004c-.014.002-.029-.002-.042.008l-.007.005h-.009a.1.1 0 0 0-.051.014q-.01.008 0 .013a.1.1 0 0 1 .023.024.03.03 0 0 1 .011.02c0 .004.003.01.012.009s.012.01.015.016a.14.14 0 0 0 .031.044zm.128.215a.03.03 0 0 0-.007-.014l-.011-.01a.04.04 0 0 1-.019-.02l-.01-.012q-.025-.03-.053-.054c-.002-.002-.005-.006-.011-.003.014.03.041.05.061.076s.045.048.067.075c-.005-.02-.02-.03-.028-.049l.013.01q.002.008.008.014a1 1 0 0 1 .05.054q.024.03.049.057.009.01.012.02c-.013-.007-.019-.022-.033-.03a.1.1 0 0 0 .013.022q.03.026.052.059l.006.007.007.003c.004-.007-.005-.01-.003-.018q.023.016.034.04.007-.006.003-.013a3.053 3.053 0 0 1-.084-.094l-.047-.053c-.008-.009-.011-.02-.022-.026l-.017-.016c-.01-.009-.014-.023-.03-.026m-1.445-.242a.04.04 0 0 0-.008.016l-.001.017a.1.1 0 0 1 0 .048v.03l.006.078q0 .03.006.063.005.039.008.078.001.006-.004.008c-.012.005-.012.007-.005.018l.001.006a.03.03 0 0 0 .004.02l.001.004-.001.004c-.008.018.003.034.005.051a.1.1 0 0 0 .033-.02c.008-.005.02-.006.026-.016a.1.1 0 0 0 .047-.022l.2-.132q.046-.03.094-.06l.107-.067q-.002-.007-.008-.011c-.006-.01-.018-.012-.025-.02q-.032-.033-.062-.065-.053-.056-.109-.111-.04-.04-.08-.08l-.045-.05q-.022-.028-.049-.052-.005-.007-.014-.007h-.003l-.003-.002-.002-.002-.001-.003q.002-.008-.007-.012l-.014-.003a.03.03 0 0 1-.02-.003.03.03 0 0 1-.014-.015q0-.003-.004 0l-.003.016a.05.05 0 0 0-.001.028c.003.007-.005.014-.003.021q.002.01-.009.013l-.002.005a.14.14 0 0 0-.006.056q.002.008.002.015l-.004.014-.007.02a.05.05 0 0 0-.003.037v.003a.2.2 0 0 0 0 .053l.008.115a.1.1 0 0 1 0 .041l-.005-.033a.2.2 0 0 0-.025-.092v-.015l-.007-.012c-.008.02-.008.021.006.026m.826.433q0-.007-.003-.01c-.008-.01-.021-.016-.027-.028a.2.2 0 0 0-.035-.048.3.3 0 0 0-.038-.038q.003.016.017.028l.01.01q.015.021.033.039l.013.016a.1.1 0 0 0 .03.03m.47.449q.004 0 .004-.004 0-.005-.003-.005-.014-.004-.027-.01h-.019q-.007.001-.004.008a.045.045 0 0 0 .049.01m.339-.39a.04.04 0 0 1 .012.024q.004.006.011.01.005.004.009 0 .002-.006-.002-.008c-.008-.011-.022-.016-.03-.027"/><path fill="#1574E5" d="M298.818 71.967c-.027-.02-.036-.053-.059-.076.025.012.035.034.059.076M299.018 72.191c.014.004.014.004.032.03-.017-.004-.022-.01-.032-.03M292.627 77.179c-.005.001-.013 0-.006.008l.039.05.002.002a.515.515 0 0 0 .129.125c.004-.002.002-.007.005-.01a.1.1 0 0 1 .016.017c-.002.004-.006 0-.009.003q.021.016.045.028.032.013.063.028l.012.005a.2.2 0 0 0 .115-.012.2.2 0 0 0 .043-.033.854.854 0 0 0 .159-.315 1.89 1.89 0 0 0 .052-.332 2 2 0 0 0 .006-.178q0-.053-.003-.107a1 1 0 0 0-.024-.15l-.007-.012-.011-.008c-.009-.004-.009-.004-.005-.013l.003-.009a.067.067 0 0 0 .007-.047l.002-.008c.004-.01.004-.01-.006-.015l-.002-.003a.2.2 0 0 1 .019-.034q.003-.006.007-.003.006.002.017 0c.014-.005.014-.005.022.007a.2.2 0 0 1 .019.05q.002.007.006.013t.004.011q.005.023.014.044a.1.1 0 0 1 .008.048l.002.028.004.03.004.03v.002c-.007.014.002.03-.002.045a.04.04 0 0 0 0 .022v.044l.002.013q.002.028-.004.057v.016a.3.3 0 0 1 .008.067.04.04 0 0 1-.004.018.1.1 0 0 0-.001.033q.004.016.001.033 0 .007.004.018 0 .03-.009.057l-.001.007.001.007a.02.02 0 0 1 0 .014.1.1 0 0 0 0 .05.1.1 0 0 0 .012.037l.001.003v.003c0 .022.006.042.007.064a.1.1 0 0 1-.008.053.1.1 0 0 0-.005.025q0 .008.007.005.01-.002.011-.012v-.011c.008.006.008.006.007.011a1 1 0 0 1-.031.093q-.003.01-.006.02l-.006.02a.2.2 0 0 0-.012.042.4.4 0 0 1-.03.085q-.012.025-.022.052a.2.2 0 0 1-.02.04l-.001.003a.15.15 0 0 1-.033.064l-.055.062-.025.02-.012.01a.2.2 0 0 1-.055.035q-.002 0-.004.002a.2.2 0 0 1-.058.03l-.039.02a.2.2 0 0 1-.039.008l-.013.002a.5.5 0 0 1-.174-.013.838.838 0 0 1-.289-.143.8.8 0 0 1-.135-.12 1.3 1.3 0 0 1-.142-.19 2 2 0 0 1-.173-.322l-.035-.082-.034-.095q-.024-.064-.042-.13a1 1 0 0 1-.033-.211.3.3 0 0 1-.006-.07q0-.023-.003-.044l-.004-.118v-.103q0-.067.006-.135a1 1 0 0 1 .021-.12l.013-.049a.6.6 0 0 1 .049-.124l.051-.094a1 1 0 0 1 .064-.094l.038-.048q.024-.03.05-.059.015-.02.031-.041a1 1 0 0 1 .066-.067c.008-.007.012-.016.02-.022l.034-.022a.1.1 0 0 0 .017-.012l.005-.004a.4.4 0 0 1 .088-.02c.034.009.069.013.103.022a.2.2 0 0 0 .043.005q.02.002.036.015l.015.007a1 1 0 0 1 .123.04.1.1 0 0 0 .035.016q.04.014.074.039.032.023.066.042a.2.2 0 0 1 .055.058l.009.01.006.006.003.008a.2.2 0 0 0 .014.05.1.1 0 0 1 .007.04q0 .015.004.03v.01l-.003.01a.14.14 0 0 1-.107.072c-.022.001-.045.012-.067.012a.3.3 0 0 1-.056 0 .1.1 0 0 0-.038.005.3.3 0 0 0-.043.014.4.4 0 0 0-.05.032l-.011.005-.013.001h-.007q-.003 0-.005.003a.3.3 0 0 0-.052.047 1 1 0 0 1-.051.055.2.2 0 0 0-.036.046l-.024.028a.1.1 0 0 0-.023.037l-.008.023a.02.02 0 0 0-.002.016q0 .012-.012.012l-.007.003-.005.006a.2.2 0 0 0-.024.06.1.1 0 0 1-.008.023c-.004.005-.002.011-.003.017-.006.02-.007.042-.013.062l-.012.047q-.003.012-.002.024c0 .025-.006.05-.007.076a1 1 0 0 0 .004.128q.002.03.008.058a.3.3 0 0 0 .022.063.2.2 0 0 1 .011.035l.015.05a1 1 0 0 1 .023.082.2.2 0 0 0 .016.042l.016.043.003.006-.001.007-.02-.046-.039-.099q-.014-.034-.026-.07a2 2 0 0 1-.032-.11l-.017-.054a.1.1 0 0 1 0-.024.1.1 0 0 0-.002-.06l-.006-.008a.05.05 0 0 0-.006.037v.037q0 .03.011.058l.002.007q0 .025.009.051.001.007-.002.015-.002.005.005.003.003 0 .005.003c.005.004.004.012.012.015.004.002 0 .006 0 .01l-.001.007.005.005q.007.004.005.013 0 .016.006.031l.006.028c0 .005 0 .01-.008.007-.007-.003-.006.005-.005.008l.005.02a.2.2 0 0 0 .021.049.2.2 0 0 0 .022.06q.01.014.01.032l.001.002v.001h.002l.001.001q.003 0 .003-.004c.001-.002-.003-.006 0-.012a.2.2 0 0 0 .027.07c.001-.004-.002-.008 0-.01h.002a.04.04 0 0 1 .006.022l.001.007q.011.028.029.055.01.015.017.03l.021.033.038.058q.02.028.041.057c.011.013.018.028.03.042"/><path fill="#1574E5" d="m292.55 76.995-.033-.055a.2.2 0 0 1 .033.055M296.056 73.725a.08.08 0 0 0 .027-.042l.007-.011q.003-.004.004-.01.002-.005.001-.01c-.009.014-.024.018-.031.03 0-.006.006-.01.01-.015.011-.016.018-.033.029-.05l.026-.04a.3.3 0 0 0 .027-.05.1.1 0 0 1 .022-.032.2.2 0 0 0 .033-.045.5.5 0 0 1 .049-.069l.065-.084.01-.013a.1.1 0 0 0 .026-.037 1 1 0 0 1 .047-.061l.011-.012.007-.006.01-.003.046-.016a.05.05 0 0 1 .027-.021q.007-.006.006-.016a.2.2 0 0 0 .046.01c.006 0 .01.002.012-.006.001-.008.007-.006.013-.006a.1.1 0 0 1 .026.01q.022.01.043.011l.025.007a1 1 0 0 0 .094.034 1 1 0 0 1 .07.028.1.1 0 0 1 .044.032l.004.004a.2.2 0 0 1 .051.052.092.092 0 0 1 .005.105 1 1 0 0 1-.055.082.2.2 0 0 0-.027.04c0 .003-.004.005 0 .008q.004.002.007 0c.003 0 .008-.009.017-.01-.013.012-.02.026-.034.034l-.009.004q-.014.001-.02.015 0 .003-.004.006c-.014.013-.024.028-.038.04l-.024.031a.3.3 0 0 1-.042.05l-.008.01a.4.4 0 0 1-.041.052l-.034.048q-.016.025-.033.048l-.046.071-.035.06q-.011.023-.024.044c-.016.025-.026.053-.04.078l-.011.025c-.008.023-.023.044-.031.069l-.016.03a1 1 0 0 0-.026.073c-.009.031-.011.064-.023.096a.3.3 0 0 1-.013.055q-.003.028-.005.055v.01a.2.2 0 0 0-.005.058q0 .024-.002.048l-.001.05q-.004.01-.003.022l.007.04q0 .005-.004.009l-.006.016q0 .003.002.006l.003.003.003.004v.005l-.002.004q-.001.005.001.007h.005l.002-.002.001-.003c.002-.004-.002-.01.002-.014.004.004.002.011.008.014.006-.01-.004-.02-.002-.03q.02.032.022.07a.2.2 0 0 0 .022.07l.009.017c.003.005.002.008.007.002q.003-.002.004.003l.007.019a.1.1 0 0 0 .019.037l.029.043.017.022.004.006c.01.021.028.022.048.024a.2.2 0 0 0 .079-.02.5.5 0 0 0 .123-.084.8.8 0 0 0 .144-.167q.063-.097.112-.2a1 1 0 0 1 .053-.099.05.05 0 0 0 .005-.026c0-.003 0-.009.006-.005q.003 0 .003-.003c.004-.01.011-.02.008-.033 0-.003-.001-.008.005-.005q.004-.002.004-.006.016-.049.031-.098l.012-.036a1.788 1.788 0 0 0 .059-.334l-.003-.015-.013-.03q-.003-.004-.002-.01l.003-.008.006-.009a.01.01 0 0 0-.002-.01q-.003-.006.005-.01l.006-.008a.01.01 0 0 0 0-.01.03.03 0 0 1 .002-.017.04.04 0 0 0 0-.02.03.03 0 0 0-.009-.017q-.004-.007 0-.013l.011-.013c.002-.005.005-.008 0-.014-.006-.005 0-.01.005-.012l.041-.02c.004-.002.009-.002.008-.008-.001-.007 0-.011-.008-.012h-.002v-.002c.004-.004.012.004.014-.004.002-.004-.011-.016-.018-.017-.006 0-.01-.001-.008-.015l.006.006q.005.002.008 0c.012-.002.013-.001.029.007-.002-.009.004-.014.005-.021q0-.002.003 0 .003.001.009 0l.001-.002.001-.002q-.003-.005-.008-.004-.007.002-.013-.002.001-.004.005-.004l.072-.014a.3.3 0 0 1 .054-.004q.005 0 .006.003c.004.005.012.005.012.014-.001.01.007.021.008.035.007-.011.013-.019.023-.007.002-.008-.004-.012-.004-.017q-.001-.005 0-.005.004 0 .004.003t.002.004c.001.001.003.007.006 0h.001l.002-.001h.002l.011.017c-.006.01-.001.022-.003.034l-.004.047v.011l.001.001h.003q.003 0 .002-.002v-.012l-.001-.01.005-.01.002-.003v-.002q0-.018.009-.032.004 0 .003.003c.005.008-.008.015 0 .023s0 .016 0 .024l-.002.047c0 .013-.005.024-.006.037l-.006.06a.05.05 0 0 1-.011.027l-.004.014a.4.4 0 0 0-.004.058l-.004.024c-.007.026-.008.054-.015.08a.5.5 0 0 0-.016.083 1 1 0 0 1-.018.108l-.006.019c-.013.042-.031.083-.045.125l-.021.06a.6.6 0 0 1-.038.104.2.2 0 0 0-.016.042l-.001.003q0 .002-.003.002c-.01.004-.012.014-.016.022a.2.2 0 0 1-.025.045c.006-.03.026-.057.027-.089-.004.018-.016.031-.021.048-.007.028-.022.052-.031.079-.002.007-.01.012-.011.02l-.003.009-.006.007a.01.01 0 0 0-.006.01c-.003.012-.012.02-.015.03-.002.006-.01.004-.01.01q0 .007-.004.015a.1.1 0 0 0-.007.02.1.1 0 0 1-.013.03q-.005.01-.011.018c-.011.013-.013.031-.026.044-.01.01-.008.01-.018 0a.2.2 0 0 1-.029.045l-.008.013a.1.1 0 0 1-.019.028.2.2 0 0 0-.024.033c-.008.013-.02.023-.028.036l-.045.069c-.006 0-.001-.01-.009-.008l-.011.007a.05.05 0 0 0-.015.022.05.05 0 0 1-.016.023c-.006 0 0-.007-.005-.008a.2.2 0 0 0-.047.036l-.016.014-.003.003-.002.004q-.003.015-.018.014a.05.05 0 0 0-.031.01.2.2 0 0 1-.036.018l-.052.024c-.008.004-.019.002-.023.012h-.004c-.009-.007-.015.002-.02.005a.04.04 0 0 1-.021.008l-.033.002-.025.002a.2.2 0 0 1-.054.003h-.011c-.009.006-.018 0-.026-.003l-.008-.002a.3.3 0 0 1-.078-.012q-.04-.014-.077-.033a.2.2 0 0 1-.038-.025l-.012-.01a.3.3 0 0 1-.054-.044q-.017-.014-.032-.029l-.046-.047-.008-.008a.05.05 0 0 1-.019-.03.05.05 0 0 0-.013-.027q-.018-.026-.034-.05a.1.1 0 0 1-.014-.029c-.002-.009-.01-.013-.015-.022a.4.4 0 0 1-.029-.057q-.01-.023-.022-.045l-.013-.03q-.01-.022-.017-.046l-.012-.04-.007-.019-.005-.01.001-.012a.01.01 0 0 0-.002-.01c-.007-.011-.007-.026-.013-.038a.2.2 0 0 1-.008-.055.1.1 0 0 1 .001-.037v-.004a.2.2 0 0 1-.009-.083v-.04a.06.06 0 0 0-.009.04v.044a.02.02 0 0 1-.004-.013 1 1 0 0 1 .001-.1q0-.006.002-.01l.002-.002v-.004h-.002c-.006-.005-.004-.01-.003-.016v-.01c0-.05.007-.099.009-.148v-.003a.1.1 0 0 0 .003-.042c0-.017.007-.034.009-.05l.008-.052v-.014a.1.1 0 0 0-.042.016.1.1 0 0 1-.03.013l-.01.004a.1.1 0 0 1-.022.008c-.019.001-.037.007-.056.007q-.016.001-.031-.004h-.017a1 1 0 0 1-.069-.019.307.307 0 0 1-.115-.083.1.1 0 0 1-.026-.04l-.003-.004a.4.4 0 0 1-.045-.077.3.3 0 0 1-.031-.089l-.007-.05q.002-.008-.007-.012-.002-.001-.002-.005a.1.1 0 0 0-.004-.053.3.3 0 0 1-.005-.055q.002-.04 0-.08.003-.05.01-.099a.2.2 0 0 1 .01-.036c.007-.018.006-.038.011-.056.008-.029.011-.058.018-.087s.016-.052.025-.078a.6.6 0 0 1 .043-.095l.006-.016.002-.008.006-.007.009-.01.003-.014q.002-.01.01-.017a.1.1 0 0 0 .013-.02.1.1 0 0 1 .018-.033q.015-.02.027-.043a.1.1 0 0 1 .016-.018l.003-.003a.1.1 0 0 1 .022-.03q.004-.008.008-.017l.042-.05q.007-.01.015-.022l.04-.046q.046-.053.097-.101.023-.022.047-.042a1 1 0 0 0 .063-.052c.026-.017.048-.037.074-.052.01-.006.017-.016.027-.022q.027-.019.053-.04c.017-.014.032-.021.048-.033a.2.2 0 0 0 .03-.02q.007-.004.014-.007l.039-.025.011-.005q.008 0 .014-.005l.011-.01.005-.005h.007a.04.04 0 0 0 .028-.014l.011-.004a.1.1 0 0 0 .024-.01l.012-.004a.1.1 0 0 0 .024-.007.1.1 0 0 0 .019-.016l.001-.001.002-.001h.004q.01.007.02.012c.007.004.007.004.011 0 .003-.003.006-.009.013-.007a.04.04 0 0 1 .017.01l.029.028a1 1 0 0 0 .079.069.2.2 0 0 1 .05.047.3.3 0 0 0 .035.04l.01.019.018.066a.02.02 0 0 1 0 .016q-.004.009.006.012c-.015-.001-.022.009-.03.018-.007.01-.012.025-.02.036-.004.004 0 .01-.003.015a.1.1 0 0 1-.023.02c-.002.003-.008.004-.006.01q0 .004-.004.005c-.021.006-.037.02-.057.028a.07.07 0 0 0-.03.027.1.1 0 0 1-.019.016.2.2 0 0 1-.037.028c-.001.009-.008.01-.015.011a.1.1 0 0 0-.038.019l-.007.004-.01.003-.007.009q-.002.004-.007.007c-.002.002-.012.004-.013.013q-.002.004-.009.006l-.017.007q-.008.002-.01.006c-.01.02-.032.025-.048.038q-.02.014-.04.027l-.046.032c-.011.006-.019.017-.032.02l-.005.005c-.003.011-.013.015-.022.02-.021.01-.037.03-.057.041-.002.002-.007.004 0 .007.007.004 0 .004-.002.006-.001 0-.012.004-.015.01-.008.014-.022.02-.035.03q-.017.017-.033.03-.024.026-.046.051c-.016.016-.024.03-.037.042-.009.01-.013.022-.022.031a.3.3 0 0 0-.031.048l-.013.019q-.002.002-.005 0t-.002-.003l.006-.015.02-.036.003-.01q0-.005-.006-.002a.03.03 0 0 0-.01.013l-.009.014-.02.02-.043.04a.05.05 0 0 0-.019.033c0 .007-.006.012-.009.018q-.013.03-.024.058a.1.1 0 0 0-.008.04l-.008.013a.03.03 0 0 0 .001.015l.001.007-.004.005a.1.1 0 0 0-.016.045 1 1 0 0 0-.015.1v.002a.3.3 0 0 0 0 .11q.016.074.073.121.014.012.032.013.035.003.068-.005a.4.4 0 0 0 .172-.09c.004-.005.012-.01.01-.019v-.002h.002q.008-.002.007-.01a.1.1 0 0 1 .01-.028c.007-.012.01-.026.022-.035a.1.1 0 0 0 .019-.028q0-.002.004-.004.001.002.001.008c-.007.004-.007.012-.011.019q-.022.035-.04.073l-.001.005.001.004.006-.006a.3.3 0 0 0 .032-.064q.009-.015.012-.03m.384 1.283-.014-.025-.008-.009a.1.1 0 0 1-.022-.028q-.001-.007-.005-.01c-.009-.008-.01-.018-.014-.028s-.005-.024-.015-.033l-.003-.008a.1.1 0 0 0-.01-.022.04.04 0 0 1-.01-.022.1.1 0 0 0-.009-.033c-.006.008-.01.016-.002.022l.001.006.008.049q.006.03.022.056l.021.034a.16.16 0 0 0 .056.07q0 0 .003-.003a1 1 0 0 1-.033-.052c.016.01.02.028.034.036m1.004-1.162.006-.006-.001-.008a.04.04 0 0 1 0-.022c.004-.012 0-.024.007-.036.003-.005-.003-.01-.007-.011-.004-.003-.006.002-.008.005l-.003.016.004.016q.005.008 0 .015c-.01.011-.004.02.002.031m-.027-.121q-.003-.004-.007-.004l-.001.001-.001.002-.001.001.001.002.004.02h.001l.001.002h.005v-.002zm-.338 1.185-.015.027v.003l.001.001h.001l.002.001h.002l.001-.002c.001-.01.009-.018.008-.03"/><path fill="#1574E5" d="m295.719 73.42-.018.046-.004.014v.002h-.002l-.001.001h-.002q-.004-.001-.003-.005c.008-.02.008-.045.03-.057M297.238 74.707a.1.1 0 0 1-.02.033c-.003-.009.003-.015.006-.02.004-.006.003-.015.014-.013M297.063 74.988c0-.009.005-.014.004-.02 0-.007.003-.007.006-.01l.003-.001h.002q.003.003.001.006l-.003.006c-.005.005-.006.013-.013.02M295.675 73.508c.007-.002.007-.01.013-.014l-.003.017-.011.015c-.004-.007.003-.013.001-.019M297.237 74.7q0-.02.012-.037c.005.008-.003.013-.003.02q0 .004-.002.01zM295.835 74.614c-.004-.005.006-.012-.004-.014q-.001-.005.004-.008.007-.002.008.005l.001.005-.002.005-.003.004zM293.04 74.568l.001-.002.002-.002c.012-.012.011-.015-.004-.02l-.011-.001c-.009 0-.01 0-.011-.01q0-.012.006-.023a.04.04 0 0 0 .005-.022l-.001-.008q0-.003.003-.007a.1.1 0 0 0 .008-.03q0-.006.004-.012t.009-.01l.013-.009a.03.03 0 0 0 .013-.015l.009-.014.013-.008q.023-.01.045-.02a.4.4 0 0 0 .055-.03l.023-.012a.3.3 0 0 1 .072-.03l.018-.006a.4.4 0 0 1 .064-.016h.022q.052.001.103-.002.044 0 .083.018a.03.03 0 0 1 .015.011l.017.017a.2.2 0 0 1 .045.051q.025.044.047.089l.025.057.054.113a.04.04 0 0 0 .003-.023v-.079q.001-.083.016-.165.013-.084.031-.17a1 1 0 0 1 .133-.339.7.7 0 0 1 .126-.15q.058-.057.123-.107a.4.4 0 0 1 .086-.048q.058-.024.117-.04l.038-.008a1 1 0 0 1 .081 0l.031.007.009.003h.005c0-.012.008-.005.012-.003l.029.014q.007.006.016.005l.004.001c0 .013.007.008.014.007a.04.04 0 0 1 .022.004l.033.018q.034.02.06.05l.031.03h.001l.001.001h.002l.001-.001v-.005c.011.013.029.022.032.04q.001.006.005.008a.1.1 0 0 1 .022.04l.002.004h.002c.001-.009.005-.017-.005-.024l-.002-.003v-.004q0-.002.003-.003h.002l.001.002.009.018.007.01.008.01.003.013q0 .005.004.006c.011 0 .01.01.01.016l.002.01.006.007a.02.02 0 0 1 .005.012l.006.03q0 .002.003.004.003 0 .005-.004c.001-.003-.002-.006.003-.01a.3.3 0 0 1 .032.081c.007-.004 0-.01.005-.013.004.006.004.014.008.022s-.002.004-.004.004q-.003 0-.005.003t-.001.005q0 .005.006.005.005 0 .008.009a.04.04 0 0 0 .01.018.2.2 0 0 0-.004-.037l-.023-.054q-.002-.003-.001-.007l.002-.003q.004 0 .004.002c0 .013.011.023.014.036s.005.023.018.028l.003.003.001.004q.003.015.01.027l.016.045a.04.04 0 0 0 .008.018l.005.01a1 1 0 0 1 .018.073c0 .007.006.013.008.022a1 1 0 0 1 .01.065l.005.075q.001.031.001.062a.1.1 0 0 1-.004.034c-.002.006.003.013 0 .02a.1.1 0 0 0-.001.044q0 .015-.003.029-.004.02-.006.042l-.005.019a.05.05 0 0 0-.009.03q0 .015.003.029a.06.06 0 0 1-.005.04l-.003.009a.02.02 0 0 1-.004.018l-.002.007c.006.011-.004.02-.007.03q-.001.003-.003.007l-.005.04q.001.008-.004.014l-.002.004c0 .015-.009.03-.008.044q.001.003-.001.006 0 .003-.003.004a.1.1 0 0 0-.019.03.1.1 0 0 0-.01.029.1.1 0 0 1-.025.04c-.004.005.002.013-.007.014s-.018.006-.016.018c-.011.015-.014.034-.026.05l-.012.03-.01.02c-.006.006-.004.015-.008.022l-.021.036q-.006.007-.006.016l-.001.003-.001.002c-.005.002-.01.004-.003.01-.003.008-.002.019-.01.025l-.004.004a.01.01 0 0 0 0 .006l-.002.008-.004.007-.012.018a.06.06 0 0 1-.032.029l-.016.013q-.003.002-.002.005c.01.006 0 .008-.003.01a.02.02 0 0 1-.009.008l-.005.005-.004.007q-.003.007.002.01l.003.002h.003l.002-.001.002-.003q.01-.008.017-.017l.004-.003h.005c-.002.007-.002.013-.011.015q-.003.002-.006.006c-.009.009-.009.009 0 .018a.04.04 0 0 0 .022.013l.022.01c.022.012.048.017.071.028a.4.4 0 0 1 .067.034.1.1 0 0 1 .023.014.06.06 0 0 0 .028.019c.008.002.013.01.022.008h.001c.001.014.015.013.022.02a.1.1 0 0 0 .028.015l.041.018.008.002h.008l.007.004.044.02c.018.01.038.014.056.023.027.013.056.022.082.038a.1.1 0 0 0 .027.008l-.005-.008-.008-.005-.101-.047q-.004 0-.004-.004.007-.003.013.002l.05.021.038.015a.1.1 0 0 1 .026.013l.009.004a.2.2 0 0 1 .039.018l.004.006q.001.004-.002.005c-.003-.001-.012.003-.016-.005-.003-.007-.011-.006-.017-.008q-.008-.006-.01 0c-.001.004.004.006.007.008l.004.002c.023.006.044.018.068.025a.1.1 0 0 1 .032.02l.01.007c.002-.004-.002-.004-.002-.005 0-.01-.011-.012-.015-.02l-.005-.004-.006-.001c-.013 0-.022-.01-.035-.011q-.005-.001-.006-.009-.002-.005 0-.005l.003-.002.004.002.024.012.02.004a.1.1 0 0 1 .025.01l.001.002q.002.01.014.011.007.002.012.007.003.008.009.002c.005-.006.007 0 .009.002.005.007.016.009.018.022.007-.018.01-.019.026-.014l.016.005c.004 0 .01.006.014-.002q.001-.001.005 0a.1.1 0 0 0 .03.005q.02 0 .037.006a.03.03 0 0 0 .018.002.1.1 0 0 0-.032-.015q-.012.001-.019-.01l.005-.002h.004l.029.01.011.005.009.01.005.005.006.002c.003-.006-.006-.006-.004-.012.008.003.018 0 .019.013 0 .004.007.007.011.007l.022.004c-.003-.007-.009-.007-.011-.011l.012.001.01.007q.005.006.011.002c.005-.004.006 0 .01 0l.034.01a.1.1 0 0 0 .019.005q.006-.001.009.004t.008.003c.018.004.029-.01.042-.017l.013-.009q.003-.003.006-.001c.008.007.012 0 .017-.003l.007-.003h.008l.006.004.005.006.001.004-.001.004-.019.042q-.005.009.004.01.014.002.025.009a.05.05 0 0 0 .033-.001h.017q.022.004.014.022l-.004.024q0 .008.005.013a.03.03 0 0 1 .008.019.02.02 0 0 1-.007.019l-.015.022a.02.02 0 0 0-.007.015c0 .007-.006.01-.009.015q-.01.01.003.017c.009.006.009.023.002.028-.02.013-.034.033-.054.045l-.046.029a.05.05 0 0 0-.021.017q-.003.005-.008.006c-.017.005-.032.016-.049.022-.004.001-.007.005-.01 0q0-.002-.003 0-.009.007-.019.01a.03.03 0 0 0-.017.014.03.03 0 0 1-.01.013l-.014.006a.04.04 0 0 0-.022.016q-.004.006-.011.007-.008 0-.018-.003-.006-.004 0-.008c.007-.01.007-.01.002-.02q-.004-.003-.005-.007c.001-.002.005-.007 0-.01q-.005 0-.009.005l-.004.003h-.004a.06.06 0 0 0-.031.003q-.006.001-.007-.004 0-.006-.003-.009l-.006-.001h-.005c-.015.008-.028 0-.042-.002a.1.1 0 0 0-.022-.002h-.004l-.002-.003-.004-.003-.005-.002a1 1 0 0 1-.067-.02l-.088-.026q-.028-.007-.054-.016-.045-.015-.089-.033l-.1-.04a1 1 0 0 1-.099-.04.1.1 0 0 1-.041-.015.2.2 0 0 0-.042-.02q-.031-.012-.062-.027l-.038-.015a.1.1 0 0 1-.035-.015l-.048-.02-.025-.01q-.047-.018-.095-.036a1 1 0 0 0-.08-.027.3.3 0 0 1-.044-.015.4.4 0 0 0-.059-.018l-.033-.01-.007-.001-.006.001a.03.03 0 0 1-.015.004l-.015-.004h-.004c-.022-.007-.022-.007-.038.009l-.021.014q-.005.003-.008.002-.003-.003-.002-.008 0-.008.006-.015c.001-.002.004-.005.001-.007q-.005-.001-.007.005l-.007.008c-.005.004-.007.007-.015.004q-.013-.004-.018.012c-.004.01-.011.009-.017.017 0-.016-.014-.017-.02-.026-.004-.005-.009 0-.012.004-.008.006-.008.006-.003.013l.004.006c.004.017.016.03.021.047q.008.03.027.054a.01.01 0 0 1 .004.01c0 .005.01.01.006.015s-.01-.005-.017-.004l-.001.002q.002.031.017.056a.1.1 0 0 1 .021.037c0 .005.008.008.011.013a.2.2 0 0 1 .031.056l.009.022a.04.04 0 0 1 .009.024q0 .004.004.008c.004.007.013.011.013.02.014.006.012.019.015.03.002.007.002.018.015.017l.002.001.001.002c.009.02.026.036.033.058l.011.029c.004.01.005.015.014.018l.004.004.001.005v.012l.005.01.001.003q.004.016.013.03c.006-.002.002-.008.005-.012a.2.2 0 0 1 .028.04l.007.02.026.032q.012.016.02.034a.1.1 0 0 0 .013.022.13.13 0 0 1 .025.05l.003.002.009.005.005.009c.006.012.018.02.02.036l.003.002.008.007a.01.01 0 0 1 .004.01c.002.007.009.012.008.02q0 .002.004.002.003 0 .002.004l-.01.006q-.005 0-.005-.007a.1.1 0 0 1-.009-.031q-.001-.005-.007-.006l-.015-.004q.005.014.014.026a.2.2 0 0 1 .027.056.04.04 0 0 0 .014.018q.008.007.011.017l.001.002-.001.003q-.003.001-.006 0-.004 0-.007-.007l-.004-.009-.007-.007-.01-.012a.1.1 0 0 0-.023-.03.04.04 0 0 1-.013-.021.1.1 0 0 0-.021-.037.1.1 0 0 1-.01-.026.04.04 0 0 0-.01-.019c-.009-.009-.011-.022-.018-.032-.003-.005-.003-.01-.01-.011q-.003-.002-.005-.006c-.011-.026-.029-.05-.038-.078a.1.1 0 0 0-.012-.017.1.1 0 0 1-.023-.029.04.04 0 0 1-.005-.02l-.005-.018q-.001-.005-.004-.006c-.013.002-.01-.008-.012-.014a.1.1 0 0 0-.022-.039q-.004-.002-.006-.008a.1.1 0 0 0-.025-.045l-.002-.007-.002-.005c-.015-.001-.014-.016-.023-.024-.008-.007-.011-.022-.018-.032-.004-.005-.007-.015-.011-.012-.005.003.002.01.004.016l.01.02a.2.2 0 0 0 .02.033q.015.02.022.044l.008.043v.003c-.011.008-.003.017 0 .025l.001.006-.001.005q-.002.003-.001.008 0 .005.004.006.008.006.008.015l.003.006q.017.028.035.055.003.01.016.007h.004l.001.002v.002c0 .009.005.014.008.023l.008.018.002.008c.014.015.019.037.033.05a.4.4 0 0 0 .042.044.03.03 0 0 1 .005.017v.003l.001.003c.009.005.009.016.015.024q.01.016.015.033l.009.018q.004.005.009.002.003-.002.002-.006 0-.015-.004-.028c.009.015.023.026.027.043-.005.004-.01 0-.014.001q-.008.003-.005.008c.001.004.008.006.007.013q.001.008.005.014c.008-.006.006-.017.015-.023-.001.008.004.015-.004.022-.007.007.003.009.006.014-.006.002-.012.002-.015.009s.006.012 0 .019a.1.1 0 0 0-.033-.034.1.1 0 0 1 .007.025q0 .006.008.008.007.001.002.008l-.003.005-.001.007.003.006.004.004c.009.007 0 .013.002.021-.017-.011-.025-.03-.041-.042l-.003.021v.006c.011.007.012.02.018.03q.01.014.019.026c.005.008.002.015.007.022q.001.003-.004.007l-.006.006c-.008-.003-.005-.019-.019-.019 0 .006.005.012.004.018v.003l.001.003.003.002h.003l.002.001.001.001.001.002q0 .005-.005.005a.04.04 0 0 1-.035-.01q-.003-.006-.008-.005l-.003.002-.001.004v.003l.001.003.002.006-.002.005q-.004.001-.008-.002c-.002 0-.007-.002-.011.004-.003.007-.009.009-.003.016q.002.004-.003.005l-.006.002q-.004 0-.006-.003c-.002-.002 0-.006-.004-.008l-.011-.004c-.004.004.007.009 0 .012s-.009.01-.018.01a.1.1 0 0 0-.04.012.1.1 0 0 1-.071.017.1.1 0 0 0-.029 0c-.013.003-.026 0-.039.003h-.004a.07.07 0 0 0-.04-.014q0-.003.004-.002.009 0 .004-.008l-.021-.031a.1.1 0 0 1-.014-.028q0-.004-.004-.009l-.007-.005a.1.1 0 0 1-.047-.041l-.077-.125-.061-.1q-.047-.074-.089-.152l-.065-.114-.21-.387-.099-.186-.072-.14q-.04-.08-.084-.16a1 1 0 0 1-.064-.127l-.035-.071-.028-.059q-.04-.08-.077-.16l-.029-.059c-.009-.014-.015-.033-.031-.044q-.002-.002-.004-.006-.048-.093-.1-.183l-.034-.057a.1.1 0 0 0-.019-.022.1.1 0 0 0-.027-.009h-.005zm1.244.394.02-.015.031-.048.024-.04a.2.2 0 0 0 .026-.045.06.06 0 0 0 .01-.048l.002-.004q.005-.005.006-.013l.015-.022.006-.008c.009-.02.014-.04.023-.06a.1.1 0 0 1 .015-.022.02.02 0 0 0 .006-.01l-.001-.01-.002-.006.002-.006.031-.074a.2.2 0 0 0 .013-.052q.003-.014.007-.028a.3.3 0 0 0 .007-.053q0-.019.002-.038l.008-.061a1 1 0 0 0 0-.11.7.7 0 0 0-.059-.21.5.5 0 0 0-.066-.105.2.2 0 0 0-.067-.053.07.07 0 0 0-.056-.005.2.2 0 0 0-.065.045 1 1 0 0 0-.066.088.04.04 0 0 0-.016.026q0 .006-.004.01a.05.05 0 0 0-.017.029l-.006.01a.03.03 0 0 0-.008.014l-.019.05q-.006.013-.013.025a1 1 0 0 0-.026.072q-.008.026-.019.05c-.01.03-.016.06-.026.09a.4.4 0 0 0-.02.089c-.001.009-.004.019.002.028v.005a.2.2 0 0 0-.008.05c-.005-.003-.005-.01-.013-.01-.005.03 0 .062-.004.092-.004 0-.002-.007-.008-.006v.076q.003.051.005.102 0 .075.009.15l.008.064.01.092q.004.029.017.054c.001.003.004.008-.003.008h-.001l-.001.002v.002c.004.007.003.017.01.023a.02.02 0 0 1 .006.01.1.1 0 0 0 .01.024q.003.003.002.006-.001.004.003.003c.002 0 .006.003.006 0 0-.006.009-.009.006-.016q.015.023.02.05v.006l-.005.004c-.007.004-.005.008-.002.013l.006-.003c.007-.013.019-.02.028-.03.024-.026.045-.055.071-.08l.007-.007.001-.01c-.002-.005 0-.01.008-.007q.006.002.008-.004c.009-.018.028-.029.034-.05a.01.01 0 0 1 .007-.008l.022-.02a.3.3 0 0 0 .049-.047c.008-.012.008-.014-.007-.018zm.753-.333q.006-.003.006-.006c.002-.012.007-.023.007-.036q0-.015.006-.03c.004-.01.002-.02.006-.028l-.001-.006-.002-.002h-.003l-.002.002-.001.006-.015.078v.02zm-.847.509c-.004.007-.014.01-.014.022.017-.02.039-.032.049-.056l-.015.002-.004.001-.003.003c-.005.012-.017.017-.025.028.006 0 .009-.003.013-.001zm.795-.31.023-.06v-.002h-.001v-.001h-.004l-.001.002a.1.1 0 0 1-.014.029.03.03 0 0 0-.005.016zm-.64 2q.009.012.014.02c.003.008.006.005.01.003q.005-.001.005-.005l-.001-.005-.004-.003zm.311-.066c-.003-.005-.013-.01-.016-.007l-.004.006q0 .003.002.007.006.01.014.005c.003-.002.008-.007.006-.011zm-.261-.751c-.006-.012-.004-.025-.011-.036q-.002-.004-.006-.004l-.001.001-.001.002v.004l.016.033zm.612-1.256h.003a.2.2 0 0 0 .014-.035v-.004l-.001-.001-.002-.002q-.005-.001-.005.004zm.017-.752a.03.03 0 0 0 0-.019c0-.003-.004-.008.004-.008q.003 0 .002-.004-.002-.005-.006-.005l-.005.002q-.003.003-.002.006 0 .015.008.027zm-.662 1.941a.05.05 0 0 0-.012-.028c.006.009.003.02.013.028zm-.19-.8a.05.05 0 0 0-.023.024.1.1 0 0 0 .024-.023z"/><path fill="#1574E5" d="m295.09 74.483.002-.022q.013-.067.019-.136h.003q0 .028-.003.055c0 .018-.006.034-.006.051a.03.03 0 0 1-.004.016l-.003.007.001.007c.004.01-.003.015-.006.022zM295.016 74.905a.03.03 0 0 1-.009.023l-.005.007-.001.01q0 .016-.01.027l-.007.011c-.003.004-.003.005-.011.003l.002-.003q.005-.003.003-.006c-.001-.002-.004.003-.007 0 .002-.014.019-.016.023-.028-.003-.003-.006.001-.007 0q-.002-.002 0-.006.015-.019.029-.038M295.114 74.23l.001.078-.004.006a.2.2 0 0 1 .003-.084M294.719 76.664a.1.1 0 0 1-.004-.022c0-.008.008-.004.012-.005q.006 0 .004.007l-.001.007.003.006q.004.005 0 .01a.01.01 0 0 1-.014-.003M295.078 74.64q.005.006.003.012a.2.2 0 0 1-.018.062c-.002-.008-.001-.01.006-.036q.004-.019.01-.037zM294.968 74.894l-.001.009q0 .004-.004.007a.1.1 0 0 0-.009.021l-.007.012a.02.02 0 0 1-.012.007.3.3 0 0 0 .025-.049zM294.751 76.551l-.008-.008q-.006-.004-.002-.011l.003-.002h.002v.003q-.001.008.007.01.002 0 .005.003l.002.006q-.002.008.007.012l.001.004v.004l-.002.002q-.003 0-.005-.002zM295.091 74.546l.007-.032q0-.006.006-.005.005.001.003.007l-.004.02c0 .006-.007.007-.012.01"/><path fill="#1574E5" d="m295.079 74.642.007-.048h.004a.1.1 0 0 1-.001.025.1.1 0 0 1-.011.022zM294.733 76.598l.001.012.005.01.003.004-.001.005-.004.001h-.004q-.005-.001-.004-.007l-.001-.011c-.002-.006-.001-.006.005-.014M294.919 73.727c.014.01.015.028.025.045-.019-.012-.018-.031-.025-.045M38.13 30.593c-1.216-.685-2.804-1.425-3.555-2.663-.706-1.161.732-2.292 1.523-2.921.118-.094.023-.315-.124-.3-.952.09-2.096.128-2.792-.643-.76-.84-.413-2.372-.191-3.338.05-.22-.261-.303-.336-.093-.41 1.15-.897 2.544-1.852 3.365-1.383 1.189-2.118-2.567-2.264-3.238-.034-.158-.3-.168-.328 0-.169 1.064-.293 2.494-1.103 3.296-.845.836-2.425-.047-3.245-.475-.061-.057-.138-.04-.188.011-.066.058-.089.169-.009.232.6.748 1.487 1.996.17 2.491-1.007.38-2.242.283-3.298.266-.213-.004-.222.277-.047.347.837.333 1.649.755 2.302 1.384.95.917.43 1.87-.51 2.527-.172.12-.064.367.14.331.943-.165 1.889-.03 2.013 1.078.136 1.23-.507 2.598-1 3.68-.098.216.171.367.313.183.92-1.192 1.949-2.67 3.315-3.395 1.125-.597 1.356.965 1.44 1.731.022.197.292.254.355.048.254-.83.54-1.745 1.204-2.345.841-.76 2.038.141 2.708.688.143.117.33.007.3-.175-.119-.717-.266-1.687.485-2.11.444-.25 1.038-.217 1.527-.189.984.056 1.96.306 2.909.553.194.05.315-.226.137-.326m-4.829-.306c-.708.398-.732 1.262-.644 2.008-.683-.518-1.568-1.032-2.392-.677-.804.347-1.225 1.208-1.516 2.04-.155-.752-.492-1.535-1.333-1.43-.599.074-1.122.54-1.552.924-.565.504-1.072 1.075-1.553 1.667.376-.963.645-2 .422-2.97-.201-.88-.99-1.11-1.77-1.089.609-.562.959-1.264.528-2.127-.38-.764-1.218-1.289-2.037-1.673 1.05.022 2.234-.018 3.022-.604.762-.567.325-1.493-.163-2.19.898.442 1.981.834 2.843.279.803-.517 1.082-1.686 1.247-2.7.308 1.3.934 3.215 2.22 2.76.571-.204.964-.822 1.262-1.312q.283-.469.509-.966c-.042.697.049 1.39.444 1.964.565.82 1.647.945 2.599.906-.825.699-1.691 1.639-1.29 2.754.21.58.728 1.024 1.193 1.396.456.364.947.684 1.45.985-1.182-.288-2.521-.488-3.489.055"/><path fill="#1574E5" d="M35.241 28.168c-.313-.344-.4-.743-.586-1.15-.003-.009-.014-.004-.015.003-.063.796.745 1.68 1.419 1.99a.028.028 0 0 0 .033-.042c-.248-.3-.588-.513-.85-.801M36.38 29.255c.069.048.126.091.21.092l.01-.002.006-.006.002-.009q0-.005-.002-.009c-.04-.066-.094-.091-.159-.131s-.12-.082-.181-.122c-.025-.017-.053.015-.04.039a.46.46 0 0 0 .154.148M22.735 28.792c.12.158.13.333.157.52l.006.01.008.004h.01l.009-.005c.457-.59-1.06-1.487-1.483-1.603h-.008l-.006.005a.014.014 0 0 0-.002.015c.164.242.523.392.76.554.204.14.4.3.55.5M27.561 22.474c.004-.034-.044-.035-.056-.007-.204.507-.406 1.016-.875 1.336-.447.306-.884.133-1.34-.02h-.009a.01.01 0 0 0-.008.006.01.01 0 0 0 0 .01q0 .004.006.007c.965 1.006 2.182-.35 2.282-1.332M27.629 22.236c.122-.1.126-.329.136-.473.002-.018-.023-.022-.032-.009a.7.7 0 0 0-.09.22c-.018.08-.048.168-.04.251q0 .005.003.008a.015.015 0 0 0 .023.003M27.793 33.074c-.511-.178-1.024.199-1.411.493-.485.368-1.006.836-1.352 1.34-.008.013.008.028.02.02.97-.591 1.512-1.648 2.737-1.808q.01 0 .017-.005a.02.02 0 0 0 .009-.015q0-.01-.005-.016a.02.02 0 0 0-.015-.01M24.93 35.06c-.036.008-.044.002-.075.028-.038.033-.07.089-.1.13-.053.074-.133.162-.139.257q0 .006.003.01a.02.02 0 0 0 .023.01c.08-.03.124-.116.168-.184q.043-.066.09-.129.02-.028.04-.058c.011-.018 0-.033.004-.051a.01.01 0 0 0-.003-.01l-.005-.003zM30.886 32.114c-.496.052-1.166.619-1.246 1.124-.004.022.025.048.044.025.159-.194.286-.402.469-.578.225-.215.5-.337.747-.518.02-.015.017-.056-.014-.053M34.405 30.663c-.516.034-1.255.677-1.106 1.247a.017.017 0 0 0 .024.01l.008-.006c.143-.24.209-.481.404-.695.194-.214.47-.327.687-.515a.024.024 0 0 0 .005-.026.024.024 0 0 0-.022-.015M34.88 24.361l.01-.006a.02.02 0 0 0 0-.022.02.02 0 0 0-.01-.007c-.332-.075-.67-.127-.98-.277-.352-.17-.542-.442-.729-.77l-.006-.006h-.008a.01.01 0 0 0-.009.011c.056.76 1.066 1.217 1.732 1.077M31.57 22.43a.023.023 0 0 0-.012-.029.023.023 0 0 0-.03.012c-.377.572-.62 1.44-1.426 1.492l-.005.002-.003.006a.01.01 0 0 0 .006.008c.762.259 1.307-.933 1.47-1.49M23.891 25.913l-.002.012q.002.006.006.011l.01.006a.02.02 0 0 0 .013-.002c.347-.218.505-.725.231-1.072-.01-.011-.03-.001-.029.013.004.186.074.35.033.54-.039.178-.173.337-.262.492M24.005 32.995c.202-.434.21-1.313-.378-1.47h-.008l-.005.006-.002.007q0 .005.003.008c.16.195.297.347.356.601.06.264.016.56-.02.825-.004.03.039.056.054.023M33.663 26.815a.3.3 0 0 0 .02-.08.4.4 0 0 0 .013-.076l.008-.065a.1.1 0 0 0-.001-.042l.002-.005q.005-.005.002-.023a1 1 0 0 1-.003-.125q0-.017-.006-.02-.005-.004-.002-.006a.2.2 0 0 0-.014-.064v-.007l.003-.003c.008-.004.003-.028-.01-.06l-.001-.009a.1.1 0 0 0-.012-.029l-.016-.039a.3.3 0 0 0-.024-.047l-.041-.07q-.039-.066-.04-.042.002.012-.006 0-.008-.011 0-.015t-.002-.013l-.032-.033a1.2 1.2 0 0 0-.217-.18l-.061-.041a1.6 1.6 0 0 0-.431-.224l-.073-.025-.008-.027a1 1 0 0 1-.013-.063.2.2 0 0 0-.011-.048q0-.004.002-.007l.002-.008-.003-.008a.02.02 0 0 1-.004-.014.1.1 0 0 0-.007-.025.1.1 0 0 1-.006-.044c.003-.027.002-.034-.006-.029l-.004.001h-.002l-.002-.002q-.002-.005.004-.01l.002-.002.002-.003v-.003l-.002-.003a.1.1 0 0 1-.005-.022q0-.016-.007-.02-.005-.001.003-.004.01-.002.003-.008a.04.04 0 0 1-.001-.026.04.04 0 0 0-.004-.032.04.04 0 0 1-.005-.022.03.03 0 0 0-.003-.02q-.005-.007 0-.01.004-.004 0-.019a.3.3 0 0 1-.005-.051.1.1 0 0 0-.006-.043c-.007-.011-.011-.04-.006-.044a.06.06 0 0 0-.005-.048.1.1 0 0 1-.004-.038.2.2 0 0 0-.004-.05c-.008-.022-.013-.047-.01-.05.005-.003 0-.005 0-.008a.1.1 0 0 1-.003-.025c0-.016 0-.02-.012-.026-.011-.005-.013-.01-.015-.025a.1.1 0 0 0-.007-.026l-.002-.003v-.006q0-.001.002-.002.019-.016.001-.027l-.01-.008-.005-.012c-.003-.013-.007-.016-.028-.019-.02-.003-.026-.002-.048.015l-.024.019.012.031q.013.03.022.063c.004.017.01.04.014.05q.006.023.007.045l.003.046q.003.015.002.03a.6.6 0 0 0 .004.151.3.3 0 0 0 .003.078v.052a1 1 0 0 1 .007.098q0 .008.002.017a.1.1 0 0 1 .004.03q0 .018.007.034a.1.1 0 0 1 .008.041l.008.074a.1.1 0 0 1 0 .044 1 1 0 0 1-.162-.073l-.094-.049a.6.6 0 0 1-.158-.126.6.6 0 0 1-.136-.2c-.012-.017-.022-.097-.012-.104a.1.1 0 0 0 .01-.032.4.4 0 0 1 .061-.149.1.1 0 0 0 .023-.028.1.1 0 0 1 .015-.02.3.3 0 0 0 .034-.041c.022-.032.03-.038.094-.08.066-.045.1-.063.12-.062a.2.2 0 0 0 .043-.013c.028-.012.031-.015.034-.027.005-.031-.031-.067-.087-.085a.26.26 0 0 0-.13-.016l-.084.009-.052.004a.3.3 0 0 0-.055.008l-.046.007a.6.6 0 0 0-.175.135.4.4 0 0 1-.043.048.5.5 0 0 0-.1.155.42.42 0 0 0-.023.315c.046.124.083.179.202.303q.119.117.271.19c.018.007.048.021.069.033l.06.028.047.023a2 2 0 0 0 .25.094l.065.024.033.012.008.047a2 2 0 0 0 .025.129l.009.052a.2.2 0 0 0 .019.07.06.06 0 0 1 .01.038q-.005.033.012.036.009.002.003.005l-.002.003v.006l.002.002a.1.1 0 0 1 .008.027q0 .012.006.024.003.004 0 .014-.002.016.009.03a.1.1 0 0 1 .013.038q0 .016.009.03a.1.1 0 0 1 .014.041.2.2 0 0 0 .015.046q.02.037.032.076l.01.024a.5.5 0 0 1 .037.087q0 .007.01.014.01.008.01.013a1 1 0 0 0 .078.143l.01.02c.045.083.164.256.177.259q.008.003.013.01a.04.04 0 0 0 .02.014q.018.007.003-.004-.01-.008-.005-.012a.1.1 0 0 1 .063.003c.01.014.036.018.066.01a.1.1 0 0 1 .045-.005q.017.003.033-.005a.3.3 0 0 1 .053-.015.14.14 0 0 0 .048-.016q.014-.009.02-.006.005.004.058-.032a1 1 0 0 1 .063-.04q.01-.002.027-.045zm-.227.02a.1.1 0 0 0-.032.01.1.1 0 0 1-.067.01l-.009-.002h-.008c-.003.003-.015-.001-.026-.008a.05.05 0 0 0-.033-.008q-.021.005-.015-.007c.006-.008-.047-.057-.063-.064a.02.02 0 0 1-.012-.018.2.2 0 0 0-.033-.05q-.057-.067-.055-.085a.3.3 0 0 0-.032-.06 1 1 0 0 1-.038-.071c-.031-.09-.042-.11-.059-.113q-.01-.002-.003-.006.006-.005-.001-.009-.007-.005-.002-.01c.008-.004-.015-.061-.03-.072q-.01-.008-.002-.016c.006-.006-.005-.063-.024-.101a.1.1 0 0 1-.01-.031.1.1 0 0 0-.02-.041c-.023-.039-.028-.048-.03-.064l-.012-.042a.1.1 0 0 1-.01-.04q0-.006-.003-.01l-.006-.01q-.01-.007-.004-.011.004-.004-.002-.014a.1.1 0 0 1-.007-.022.1.1 0 0 0-.01-.034c-.012-.027-.021-.076-.015-.08s.054.023.076.041l.059.037c.026.015.078.048.115.074l.084.058q.1.077.182.172a.3.3 0 0 0 .045.045c.003 0 .007.009.008.017q0 .006.003.011l.008.01a.04.04 0 0 1 .013.02q0 .008.005.013l.011.01q.035.033.048.08.001.01.005.013a.3.3 0 0 1 .029.086q.002.015.009.029.018.042.02.089l.007.049a.3.3 0 0 1 .004.055.04.04 0 0 0 0 .02c.003.004.003.013-.002.072a.1.1 0 0 0 0 .032c.003.004-.012.027-.022.036a.1.1 0 0 1-.035.01m-.273-.058a.2.2 0 0 1-.03-.046q-.002-.01.015.013.016.023.037.045.018.02.012.02c-.004.002-.018-.013-.034-.032m-.095-.163q0-.004-.009-.007c-.004-.002-.008-.004-.004-.006q.006-.004.006-.002l.01.007q.007.005.001.01-.005.003-.005-.002m-.045-.055c-.028-.047-.036-.067-.03-.07q.005-.001.023.03c.01.02.022.038.026.044.008.012.012.032.007.035a.2.2 0 0 1-.026-.038zm-.046-.089q-.002-.008 0-.01.002 0 .007.006.003.006 0 .01-.005.002-.007-.006m-.38-1.56q-.006-.003 0-.006l.002-.001h.004l.002.002q.003.005 0 .006zM32.278 26.51c.004-.002 0-.006.005-.007.01.01.022.02.02.038q0 .007.007.019a.1.1 0 0 1-.026-.026l-.012-.013a.3.3 0 0 1-.053-.059q-.003-.007-.007-.004-.005.005 0 .01.039.038.072.08l.034.037.036.04.035.04.107.114a.2.2 0 0 0 .041.038q.005.003.006.01a.1.1 0 0 0 .025.028.29.29 0 0 0 .039.04c.002.004.007 0 .01.003v.014a.03.03 0 0 0 .007.013q.015.024.036.042a.1.1 0 0 1 .017.02c.003.004.008.008.003.014s.004.008.002.014c-.006 0-.01-.005-.017-.004a.1.1 0 0 1 .014.018v.005h-.006l-.01-.014c-.01-.01-.012-.01-.023 0l-.002.002-.002.004c.012.009.017.023.028.033.005.005.004.008 0 .023a.1.1 0 0 0-.024-.008l-.003.006v.007l.004.006.005.003.018.021c-.008.01-.008.01-.02.004l-.007-.002c-.003 0-.006-.005-.004-.006.008-.006-.006-.013.002-.018l-.003-.005h-.004l-.004.006v.007c-.006-.001-.007-.007-.013-.009.002.014.014.02.02.031.005.011.003.022.013.03a.03.03 0 0 1-.02-.01q-.004-.008-.012-.002t-.013-.003a.2.2 0 0 0-.03-.022c.022.023.04.05.063.076-.01.003-.017.009-.02-.005l-.002-.003-.003-.002-.007-.005-.003-.007q0-.005-.005-.006c-.003 0-.01-.006-.014-.002-.005.003.002.008.003.012l.005.007h.002c.01.004-.002.008 0 .012s.01-.004.012.005q0 .004-.003.005a.014.014 0 0 1-.014-.004l-.006-.006h-.008c.004.007.003.017.015.019.007 0 .007.008.008.013 0 .005.01.005.005.01s-.011-.001-.013-.003c-.006-.009-.016-.013-.02-.023v-.004c0-.001-.007-.006-.011-.004l-.004.005v.003l.002.002c.007.006 0 .019.012.023a.04.04 0 0 0 .002.022c.006 0 .013-.012.017.002.002.005.005-.002.008-.002v.015a.1.1 0 0 0-.04.005l-.003.002-.001.003c0 .01-.01.012-.018.014-.016.005-.017.007-.006.022l-.008.003h-.008a.03.03 0 0 0-.022.002c-.007.004-.01 0-.015-.002s-.002.005-.002.007q0 .018-.016.014l-.008-.004-.004-.003a.014.014 0 0 0-.015.003l-.009.006h-.017l-.004.002-.001.004q.001.005.005.005c.002.002.01 0 .014.002q.007 0 .003.007a.01.01 0 0 1-.012.005c-.012 0-.012 0-.019.008-.006 0-.003-.01-.01-.01-.003.015-.014.018-.027.018h-.034a.1.1 0 0 0-.036.005l-.044.01c-.015.005-.028-.004-.041-.005q-.002-.005.001-.006.008-.003 0-.01l-.02-.016q-.009-.004-.014-.012.005-.004.008 0l.01.008.012.004q0-.007-.003-.013a.28.28 0 0 0-.041-.033.1.1 0 0 1-.03-.028q-.038-.041-.077-.082l-.082-.089a1 1 0 0 1-.073-.083q-.028-.032-.058-.065l-.021-.023a.2.2 0 0 0-.054-.045l-.053-.06-.016-.02c-.018-.017-.032-.037-.05-.053q-.003-.001-.004-.004c-.012-.027-.042-.037-.056-.062-.003-.006-.006-.003-.01 0-.023.012-.042.03-.063.044a1 1 0 0 0-.096.085l-.039.031-.068.05-.022.027a.05.05 0 0 0 .028-.02c.01-.01.018-.021.036-.018a.05.05 0 0 1-.033.042l-.01.008-.02.022c-.003.005-.004.012-.011.015-.002 0-.003.008.002.01.008.005.002.009 0 .008q-.014-.002-.014.01 0 .004-.002.005l-.004.003c-.014.005-.021.018-.033.025l-.004.005a.05.05 0 0 1-.017.024l-.003.005-.002.004q0 .002.002.004t.006 0l.022-.011.014-.007c-.015.01-.024.028-.04.037-.004 0-.006.005-.01.003-.003-.002.004-.006 0-.011a.1.1 0 0 0-.023.027v.004l.002.002q.003.002.007 0a.2.2 0 0 0 .035-.023.03.03 0 0 1 .013-.008.02.02 0 0 1-.008.013l-.02.017q-.009.005-.009.012-.002.012-.011.019a.14.14 0 0 0-.04.06q0 .005.002.008.014.009.004.016a.1.1 0 0 0-.019.03q-.005.008 0 .014l.004.005v.006a.1.1 0 0 1-.013.034.02.02 0 0 0-.007.024c-.004.003-.005-.006-.01-.002l-.002.004v.005l.003.019.003.016-.002.004c-.007-.004-.007-.01-.008-.017q.001-.01-.006-.017a.2.2 0 0 0 .006.07l.013.072v.003c-.009.014-.002.026 0 .04q.008.038.018.076l.002.013c0 .006-.002.013.007.014.004 0 .001.003.002.005q.003.03.01.06c.004.027.012.053.014.08q.004.03.017.059l.005.007a.04.04 0 0 1 .008.03.05.05 0 0 0 .002.028l.003.025c.002.01-.002.022.004.033.003.007-.005.012-.005.019s.01.007.01.015a.1.1 0 0 0 .01.036.1.1 0 0 1 .005.029q-.001.008.002.017.006.025.011.05c.001.004-.002.012.008.009q.002.001.002.005a.1.1 0 0 0 .012.032.02.02 0 0 1 .003.018c-.005.006 0 .015-.007.022q-.002.004.003.009l.001.005v.005l-.004.004-.005.003c-.01 0-.02.006-.03-.004v-.002h-.004v.002a.02.02 0 0 1-.015.004q-.003 0-.007-.002l-.006-.004-.004-.003c-.013.004-.024-.006-.036-.008-.02-.003-.03-.01-.028-.03q0-.008-.002-.012c-.023-.018-.02-.046-.025-.07q-.009-.05-.02-.098-.01-.047-.02-.09l-.031-.134-.005-.014a.1.1 0 0 1-.01-.043l-.012-.044c-.004-.027-.015-.053-.02-.08l-.014-.077-.008-.03a.14.14 0 0 0-.023.05c-.005.017-.006.018-.022.014a.03.03 0 0 1-.018-.01q-.003-.01-.014-.006l-.01.001-.01-.005a.034.034 0 0 0-.031-.008h-.01a.1.1 0 0 0-.04-.011c-.027-.004-.048-.02-.075-.022a.05.05 0 0 1-.032-.023.04.04 0 0 0-.028-.017q-.007-.001-.01-.008a.1.1 0 0 0-.026-.043.3.3 0 0 1-.028-.055c-.01-.023-.014-.046-.026-.067l-.003-.006c.006-.012-.001-.021-.005-.031q-.007-.014.008-.015a.1.1 0 0 0 .028-.015l.098-.077.055-.044a.02.02 0 0 1 .018-.009q.009 0 .015-.006.044-.03.085-.063l.008-.009v-.011q-.014-.094-.03-.187l-.015-.103q-.009-.06-.016-.12 0-.017-.006-.031a.1.1 0 0 1-.003-.045q-.004-.045-.01-.09l-.014-.153q.002-.013-.007-.024c-.003-.002 0-.005 0-.008a.04.04 0 0 0-.004-.04q-.002-.003 0-.007c.005-.006 0-.012 0-.019 0-.025-.007-.05-.006-.076v-.008a1 1 0 0 1-.01-.113l-.007-.142v-.056a.03.03 0 0 0-.005-.017.2.2 0 0 0-.034-.03.01.01 0 0 0-.01 0 .03.03 0 0 1-.024-.008c-.033-.026-.062-.058-.098-.081a1 1 0 0 0-.053-.03.2.2 0 0 1-.044-.032.03.03 0 0 1-.005-.043.1.1 0 0 0 .007-.022.05.05 0 0 1 .022-.04h.001c.01-.02.033-.026.05-.038q.007-.005.006-.013v-.002q.002-.039.039-.033l.01.002q.014 0 .014-.015.001-.015.014-.01a.03.03 0 0 0 .027-.004l.05-.028q.003 0 .005-.002a.1.1 0 0 1 .048-.027.4.4 0 0 0 .074-.036.2.2 0 0 1 .063-.027l.045-.007a.03.03 0 0 0 .018-.009.2.2 0 0 1 .048-.026l.008-.002q.022.005.045.004.03.003.057.018.031.012.056.034.01.009.023.01a.2.2 0 0 1 .064.03q.039.027.073.061.048.047.094.097.034.037.07.075.03.03.055.066l.024.033c.008.011.023.018.033.028q.007.007.012.015.01.016.023.027a1 1 0 0 1 .039.052q.005.009.015.012a.02.02 0 0 1 .016.013.5.5 0 0 0 .058.08q.008.01.013.021.006.013.018.022.018.017.032.036l.024.029q.03.03.056.062.014.02.033.034.017.015.032.033.013.016.022.034.015.023.036.044.016.017.03.035c.013.017.03.03.043.046l.008.006q.006 0 .01-.002l.112-.038.01-.007a.02.02 0 0 1 .02-.005q.055.017.093.058.016.018.018.04c.002.02 0 .023-.022.023q-.006-.002-.01.003-.007.012-.017.002c-.008-.007-.015-.01-.02-.018q-.001-.004-.006-.004c-.014.002-.03-.002-.042.008a.02.02 0 0 1-.016.006.1.1 0 0 0-.05.014q-.011.006 0 .012a.1.1 0 0 1 .022.024.03.03 0 0 1 .01.02c0 .004.004.01.013.009.01-.001.012.01.015.016a.2.2 0 0 0 .03.044zm.128.214a.04.04 0 0 0-.018-.023.04.04 0 0 1-.019-.02l-.01-.012q-.025-.03-.053-.054c-.002-.002-.005-.006-.011-.003.014.03.041.05.061.076s.045.048.067.075c-.005-.02-.02-.03-.028-.049l.012.01q.003.008.009.014a1 1 0 0 1 .05.054q.023.03.05.057a.1.1 0 0 1 .01.02c-.012-.007-.018-.022-.032-.03a.04.04 0 0 0 .013.022.3.3 0 0 1 .058.066l.007.003c.003-.007-.005-.01-.003-.017q.022.016.034.04.008-.008.002-.014a.1.1 0 0 0-.019-.023q-.033-.035-.064-.072-.023-.026-.047-.052c-.008-.009-.011-.02-.022-.026l-.017-.016c-.01-.009-.014-.023-.03-.026m-1.445-.241a.04.04 0 0 0-.009.034.2.2 0 0 1 0 .047.1.1 0 0 0 0 .03l.006.078q0 .03.006.063.006.039.008.078.001.006-.004.008c-.012.005-.012.007-.005.018l.001.006q-.001.01.004.02l.001.004-.001.004c-.008.018.003.034.005.051a.2.2 0 0 0 .033-.02c.008-.005.02-.006.026-.016a.1.1 0 0 0 .047-.022q.099-.068.2-.132.046-.032.094-.06l.107-.067q-.002-.007-.008-.011c-.006-.01-.018-.012-.025-.02q-.032-.033-.062-.065-.053-.056-.109-.111-.04-.04-.08-.08l-.045-.05q-.022-.027-.049-.052-.005-.007-.014-.007h-.003l-.003-.002-.002-.002-.001-.003q.002-.008-.007-.012l-.014-.003a.03.03 0 0 1-.02-.003.03.03 0 0 1-.014-.015q-.001-.003-.004 0l-.003.016a.04.04 0 0 0-.001.028c.003.008-.005.014-.003.021q.002.01-.01.013l-.001.005a.2.2 0 0 0-.006.056q.002.007.002.015t-.004.014l-.007.02a.05.05 0 0 0-.003.037v.003a.2.2 0 0 0 0 .053l.008.115a.2.2 0 0 1 0 .041l-.005-.033a.2.2 0 0 0-.025-.092.03.03 0 0 0-.007-.027c-.008.02-.008.021.006.026m.826.433q0-.008-.003-.01c-.008-.01-.02-.016-.027-.028a.2.2 0 0 0-.035-.048.3.3 0 0 0-.038-.038q.003.016.017.028l.01.01q.014.021.033.039l.013.016a.1.1 0 0 0 .03.03m.47.449q.004 0 .004-.005 0-.003-.004-.004-.012-.004-.026-.01h-.02q-.006.001-.003.008a.05.05 0 0 0 .049.01m.34-.39q.01.01.011.023.004.007.011.01.005.005.009 0 .002-.004-.002-.007c-.008-.011-.022-.016-.03-.027"/><path fill="#1574E5" d="M31.818 25.967c-.027-.02-.036-.053-.06-.076.026.012.036.034.06.076M32.018 26.191c.014.004.014.004.032.03-.017-.003-.022-.01-.032-.03M25.627 31.179c-.005.001-.013 0-.006.008l.039.05.002.002q.011.026.034.044a.5.5 0 0 0 .095.081c.004-.002.002-.007.005-.01a.1.1 0 0 1 .016.017c-.003.004-.006 0-.009.003a.3.3 0 0 0 .045.028q.032.013.063.028l.012.005q.06.012.115-.012a.2.2 0 0 0 .043-.033.846.846 0 0 0 .159-.315 2 2 0 0 0 .052-.332 2 2 0 0 0 .006-.178q0-.054-.003-.107a1 1 0 0 0-.024-.15.03.03 0 0 0-.018-.02c-.009-.004-.009-.004-.005-.013l.003-.008a.06.06 0 0 0 .006-.048q0-.004.003-.008c.004-.01.004-.01-.006-.015l-.003-.003a.2.2 0 0 1 .02-.035q.003-.005.007-.002.006.002.017 0c.014-.005.014-.005.022.007a.2.2 0 0 1 .019.05q.002.007.006.013t.004.011q.005.023.014.044a.1.1 0 0 1 .008.048q0 .016.002.028l.004.03.004.032c-.007.014.002.03-.003.045v.022a.2.2 0 0 1 0 .044l.003.012q.003.03-.004.058v.016a.2.2 0 0 1 .008.067l-.004.018a.1.1 0 0 0 0 .033q.003.016 0 .033l.003.018a.2.2 0 0 1-.01.064l.002.007a.02.02 0 0 1 0 .014.1.1 0 0 0 0 .05q0 .02.012.037l.001.003v.002c0 .023.006.043.007.064a.1.1 0 0 1-.008.054.1.1 0 0 0-.005.025q0 .009.007.005.009-.002.011-.012v-.011c.008.006.008.006.007.011a1 1 0 0 1-.031.093q-.003.01-.006.02l-.006.02a.1.1 0 0 0-.012.042.4.4 0 0 1-.03.085q-.012.025-.022.052a.2.2 0 0 1-.021.043.14.14 0 0 1-.034.064 1 1 0 0 1-.054.062l-.025.02-.012.01a.2.2 0 0 1-.059.037.2.2 0 0 1-.058.03l-.039.02a.2.2 0 0 1-.039.008l-.013.002a.5.5 0 0 1-.174-.013.859.859 0 0 1-.29-.143 1 1 0 0 1-.078-.063q-.03-.028-.056-.057a1.3 1.3 0 0 1-.142-.19 1.7 1.7 0 0 1-.173-.322q-.017-.042-.035-.082l-.034-.095q-.023-.064-.042-.13a1 1 0 0 1-.033-.211.3.3 0 0 1-.006-.07q0-.023-.003-.044l-.005-.118v-.103q0-.067.007-.135a1 1 0 0 1 .02-.12l.014-.049a.6.6 0 0 1 .05-.124l.05-.095a1 1 0 0 1 .064-.093l.038-.048q.024-.03.05-.059.016-.02.03-.041a1 1 0 0 1 .067-.067q.01-.012.02-.022a.2.2 0 0 1 .034-.022.04.04 0 0 0 .017-.012l.005-.004a.4.4 0 0 1 .088-.02c.034.009.069.013.103.022a.2.2 0 0 0 .043.005q.02.002.036.015l.015.007a.7.7 0 0 1 .123.04q.015.01.035.016.04.014.073.039.034.023.067.042.034.023.055.058l.009.01.006.006.003.008a.2.2 0 0 0 .014.05.1.1 0 0 1 .007.04q-.001.015.004.03v.01l-.003.01a.14.14 0 0 1-.039.044.13.13 0 0 1-.068.028c-.023.001-.045.012-.067.012a.3.3 0 0 1-.056 0 .1.1 0 0 0-.038.005.3.3 0 0 0-.043.014.4.4 0 0 0-.05.032l-.011.006h-.02l-.005.003a.3.3 0 0 0-.052.047 1 1 0 0 1-.05.055.3.3 0 0 0-.037.046l-.024.028a.1.1 0 0 0-.024.037l-.008.023a.03.03 0 0 0-.002.016q.002.012-.011.012l-.007.003-.005.006a.2.2 0 0 0-.024.06.1.1 0 0 1-.008.023c-.004.005-.002.011-.003.016-.006.021-.007.043-.013.063l-.012.047a.1.1 0 0 0-.003.024c0 .025-.005.05-.006.076a.7.7 0 0 0 .012.186.3.3 0 0 0 .022.063l.011.035.015.05q.015.041.023.082l.015.042.017.043a.01.01 0 0 1 .002.013l-.02-.046-.039-.099q-.015-.034-.026-.07l-.032-.11q-.007-.028-.017-.054a.04.04 0 0 1 0-.024.1.1 0 0 0-.002-.06l-.006-.008a.05.05 0 0 0-.006.037v.037q0 .03.011.058l.002.007q0 .027.009.051a.02.02 0 0 1-.002.015q-.002.005.005.003.003 0 .005.003c.005.004.004.012.012.015.004.002 0 .006 0 .01v.007l.004.005q.007.004.005.013 0 .016.006.031a.1.1 0 0 1 .006.028q.002.01-.008.007c-.008-.003-.006.005-.005.008l.005.02a.2.2 0 0 0 .021.049.2.2 0 0 0 .022.06.1.1 0 0 1 .01.034l.003.002h.001q.003 0 .003-.004c0-.002-.003-.006 0-.012a.2.2 0 0 0 .027.07c.001-.004-.002-.008 0-.01h.002a.1.1 0 0 1 .006.021l.001.008q.011.028.029.055.01.015.017.03l.021.033q.018.03.038.058t.04.057c.012.014.019.028.03.042"/><path fill="#1574E5" d="m25.55 30.995-.033-.055a.2.2 0 0 1 .033.055M29.056 27.725a.1.1 0 0 0 .027-.042l.007-.011.005-.01v-.01c-.01.014-.024.018-.031.03 0-.006.006-.01.01-.015q.015-.024.029-.05l.026-.04a.3.3 0 0 0 .027-.05.1.1 0 0 1 .023-.033.3.3 0 0 0 .032-.044.5.5 0 0 1 .05-.069l.064-.084.01-.012a.2.2 0 0 0 .026-.038.4.4 0 0 1 .047-.061q.006-.006.01-.012a.02.02 0 0 1 .018-.009l.046-.016a.05.05 0 0 1 .027-.021q.008-.006.006-.016.022.008.046.01c.006 0 .01.002.012-.006s.007-.006.013-.006q.015.002.027.01.02.01.042.011l.025.007a1 1 0 0 0 .094.034 1 1 0 0 1 .07.028.1.1 0 0 1 .044.033l.004.003q.031.02.05.052a.09.09 0 0 1 .006.106 1 1 0 0 1-.055.08.2.2 0 0 0-.027.04c0 .004-.003.006 0 .009q.004.002.007 0c.003 0 .008-.009.017-.01-.013.012-.02.026-.034.034l-.01.004c-.007.002-.016.005-.019.015l-.004.006c-.014.012-.024.028-.038.04l-.024.031a.3.3 0 0 1-.042.05l-.008.01a1 1 0 0 1-.041.052.4.4 0 0 0-.034.048q-.016.025-.033.048l-.046.071-.034.06-.025.044c-.016.025-.026.052-.04.078l-.01.025c-.01.023-.024.044-.032.069l-.016.03a1 1 0 0 0-.025.072c-.01.032-.012.065-.024.096a.2.2 0 0 1-.013.056q-.003.028-.005.055v.01a.2.2 0 0 0-.005.058q0 .024-.002.048l-.001.05a.1.1 0 0 0-.003.022l.007.04-.004.009a.03.03 0 0 0-.006.016q0 .003.002.006l.006.007v.005l-.002.005q-.001.004.001.006h.005l.002-.002.001-.003c.002-.004-.002-.01.002-.014.004.004.002.011.009.014.005-.01-.005-.02-.003-.03q.02.032.022.07.004.037.023.07l.008.017c.003.005.002.008.007.002q.003-.002.004.003l.007.018q.006.021.019.038l.03.043.016.022q.001.003.004.006c.01.021.028.022.048.024a.2.2 0 0 0 .079-.02.5.5 0 0 0 .123-.084.8.8 0 0 0 .145-.167q.062-.096.11-.2.017-.037.036-.07l.018-.029a.1.1 0 0 0 .005-.026c0-.003 0-.009.006-.005q.003 0 .003-.003c.004-.01.011-.02.008-.033 0-.003-.001-.008.006-.005q.002-.002.003-.006.016-.049.031-.098l.012-.036a1.692 1.692 0 0 0 .06-.334q0-.008-.004-.015l-.013-.03a.014.014 0 0 1 .001-.017.02.02 0 0 0 .004-.02q-.003-.006.005-.01l.006-.008v-.01a.03.03 0 0 1 .002-.017.04.04 0 0 0-.009-.038q-.005-.006 0-.012l.01-.013c.003-.005.006-.008 0-.014-.005-.005 0-.01.006-.012l.041-.02q.008-.001.008-.008.002-.01-.008-.012l-.002-.002c.004-.005.012.004.014-.005.002-.003-.011-.015-.018-.016-.006 0-.01-.001-.008-.015l.006.006h.008c.012-.002.013-.001.03.007-.003-.009.003-.014.004-.021q.002-.002.003 0 .003.001.01 0v-.004q-.001-.006-.007-.004c-.003 0-.01.002-.013-.002q.001-.003.005-.004.037-.005.072-.014a.3.3 0 0 1 .054-.004l.006.003c.004.005.012.005.012.014-.001.01.007.021.009.035.006-.011.012-.019.022-.007.002-.008-.004-.012-.004-.017q-.002-.006 0-.005.003 0 .004.003 0 .003.002.004c.001.001.003.007.006 0h.001l.002-.001h.002l.01.017c-.005.01 0 .022-.002.034l-.004.047v.011l.002.002h.002q.002 0 .002-.003v-.012a.02.02 0 0 1 .004-.02l.002-.003v-.003q0-.016.01-.031.002 0 .002.003c.005.008-.008.015 0 .023s0 .016 0 .024l-.002.047c0 .012-.005.024-.006.037l-.006.06q-.001.016-.01.027a.425.425 0 0 0-.009.072l-.004.024c-.007.027-.008.054-.015.08a1 1 0 0 0-.016.083 1 1 0 0 1-.017.108l-.007.019q-.021.062-.045.125l-.02.06a1 1 0 0 1-.039.104.1.1 0 0 0-.017.045l-.003.002c-.01.004-.012.014-.015.023a.2.2 0 0 1-.026.044c.006-.03.026-.057.027-.089-.004.018-.016.031-.02.048-.008.028-.023.052-.032.079-.002.007-.01.012-.011.02l-.003.009-.006.006a.02.02 0 0 0-.006.012c-.003.01-.012.019-.015.029-.002.006-.01.003-.01.01q0 .008-.004.015a.04.04 0 0 0-.007.02.1.1 0 0 1-.013.03q-.005.01-.01.018c-.012.013-.014.031-.027.044-.01.01-.008.01-.018 0a.2.2 0 0 1-.03.045l-.007.014a.1.1 0 0 1-.019.027.2.2 0 0 0-.024.033c-.008.013-.02.023-.028.036l-.018.027-.015.023a.1.1 0 0 0-.012.019c-.006 0-.001-.01-.01-.008l-.01.007a.04.04 0 0 0-.015.022.1.1 0 0 1-.016.023c-.006 0 0-.007-.005-.008a.2.2 0 0 0-.047.036l-.015.014-.004.003-.002.004q-.003.014-.018.014a.05.05 0 0 0-.031.01l-.036.018-.052.024c-.008.004-.019.002-.023.012h-.004c-.009-.007-.015.002-.02.005a.04.04 0 0 1-.02.009h-.034l-.025.003a.2.2 0 0 1-.053.003.02.02 0 0 0-.012 0c-.01.006-.018 0-.026-.003l-.008-.002a.3.3 0 0 1-.055-.006l-.023-.006q-.04-.014-.077-.033a.2.2 0 0 1-.037-.024l-.013-.01a.3.3 0 0 1-.054-.045q-.017-.014-.032-.029l-.046-.047-.008-.008a.06.06 0 0 1-.02-.03.05.05 0 0 0-.012-.027q-.018-.026-.034-.05a.1.1 0 0 1-.014-.029c-.002-.009-.01-.014-.015-.022l-.03-.057q-.009-.023-.021-.045l-.013-.03q-.01-.022-.017-.046l-.011-.04-.008-.019a.03.03 0 0 1-.004-.022q0-.005-.002-.01c-.006-.011-.007-.026-.013-.038a.1.1 0 0 1-.008-.055.1.1 0 0 1 .001-.037v-.004a.16.16 0 0 1-.009-.083v-.04a.05.05 0 0 0-.009.04v.044a.02.02 0 0 1-.004-.013 1 1 0 0 1 .001-.1q0-.006.003-.01v-.002l.001-.002v-.002h-.002c-.006-.005-.004-.01-.003-.016v-.01c0-.05.008-.099.009-.148v-.003a.1.1 0 0 0 .003-.042c0-.017.007-.034.009-.05l.008-.052v-.014a.1.1 0 0 0-.042.016.1.1 0 0 1-.03.013l-.01.004a.1.1 0 0 1-.022.008c-.019.001-.037.007-.056.007q-.015.001-.031-.004h-.017a.5.5 0 0 1-.11-.039.3.3 0 0 1-.074-.063.1.1 0 0 1-.026-.04l-.003-.004a.4.4 0 0 1-.044-.077.3.3 0 0 1-.032-.089l-.007-.05q.002-.008-.007-.012-.002-.001-.002-.005a.1.1 0 0 0-.004-.053.2.2 0 0 1-.005-.055q.002-.04 0-.08a1 1 0 0 1 .01-.099l.01-.036c.007-.018.006-.038.011-.056.008-.029.011-.058.018-.087s.016-.052.025-.078a1 1 0 0 1 .043-.095.03.03 0 0 0 .006-.016q0-.005.002-.008l.006-.007a.03.03 0 0 0 .012-.024q.002-.01.01-.017a.1.1 0 0 0 .013-.02.2.2 0 0 1 .018-.033q.015-.02.027-.043a.1.1 0 0 1 .016-.018l.003-.003a.1.1 0 0 1 .022-.03q.004-.008.008-.017l.042-.05q.008-.01.015-.022l.04-.046q.046-.053.098-.101.022-.023.046-.042a1 1 0 0 0 .063-.052c.026-.017.049-.037.075-.052.01-.006.016-.016.026-.023l.053-.04c.017-.013.032-.02.048-.032l.03-.02q.007-.004.014-.007l.039-.024.011-.006a.04.04 0 0 0 .025-.015l.005-.005h.007a.05.05 0 0 0 .028-.014l.011-.005a.1.1 0 0 0 .024-.008l.012-.005a.06.06 0 0 0 .043-.023l.001-.001.002-.001h.004l.02.012c.007.004.007.004.01 0 .004-.003.007-.009.014-.007a.04.04 0 0 1 .017.01l.029.028a1 1 0 0 0 .079.069q.029.02.05.047.015.02.035.04a.1.1 0 0 1 .01.019c.007.022.01.044.018.066a.02.02 0 0 1 0 .016q-.004.009.006.012c-.015-.001-.022.009-.03.018-.007.01-.012.025-.02.036-.004.004 0 .01-.003.015a.1.1 0 0 1-.023.02c-.002.003-.008.003-.006.01q0 .004-.004.005c-.02.006-.037.02-.057.028a.07.07 0 0 0-.03.027.1.1 0 0 1-.02.016.2.2 0 0 1-.036.028q-.003.012-.014.011a.1.1 0 0 0-.038.019l-.008.003-.01.004-.006.009-.008.007c-.002.002-.012.004-.012.013q-.002.004-.01.006l-.017.007q-.008.002-.01.006c-.01.02-.032.025-.048.039q-.02.014-.04.026l-.046.032c-.01.006-.02.017-.032.02l-.005.005c-.003.011-.013.015-.022.02-.021.01-.037.03-.057.041-.002.002-.007.004 0 .008.007.003 0 .003-.002.005-.001 0-.012.004-.015.01-.008.014-.022.02-.035.03q-.017.017-.033.03-.024.025-.046.051c-.016.016-.024.03-.037.042-.01.01-.013.022-.022.031a.3.3 0 0 0-.031.048l-.013.018q-.002.003-.005.002l-.002-.004.006-.015.02-.036.003-.01q0-.005-.006-.003a.03.03 0 0 0-.01.014l-.01.014-.019.02-.043.04a.05.05 0 0 0-.019.033c0 .008-.006.012-.009.018-.01.019-.015.04-.024.058a.1.1 0 0 0-.008.04.03.03 0 0 0-.008.013.03.03 0 0 0 .001.015v.006l-.002.006a.1.1 0 0 0-.017.045 1 1 0 0 0-.015.1v.002c-.007.055-.01.071 0 .11.01.048.036.091.073.121q.015.012.032.013.034.003.069-.005a.4.4 0 0 0 .171-.09c.005-.005.012-.01.01-.019v-.002h.002q.008-.002.007-.01 0-.016.01-.028c.007-.012.01-.026.022-.035a.1.1 0 0 0 .019-.028q0-.002.004-.004c.002 0 0 .006.001.008-.007.004-.007.012-.011.019q-.021.035-.04.073l-.001.005.001.005.006-.007a.2.2 0 0 0 .024-.045l.008-.02q.009-.013.012-.03m.384 1.283-.014-.025-.007-.009a.1.1 0 0 1-.023-.028q-.001-.006-.005-.01c-.009-.008-.01-.018-.014-.028s-.005-.024-.015-.033l-.003-.008a.04.04 0 0 0-.01-.022.04.04 0 0 1-.01-.022.1.1 0 0 0-.01-.033c-.005.009-.01.016-.001.023l.001.005.008.049q.006.03.022.056.012.016.021.034a.17.17 0 0 0 .056.07q0 0 .003-.003a.3.3 0 0 1-.032-.052c.015.01.02.028.033.036m1.005-1.162.005-.006v-.008a.04.04 0 0 1 0-.022c.003-.012 0-.024.006-.036.003-.005-.003-.01-.007-.012s-.006.003-.008.006l-.002.016q0 .009.003.016.005.008 0 .015c-.01.011-.004.02.003.031m-.028-.121q-.003-.004-.007-.004l-.001.001-.001.002v.003l.004.02.002.002h.005v-.002l-.003-.022m-.338 1.185-.015.027v.003l.001.001h.001l.002.001h.002v-.002c.002-.01.01-.018.009-.03"/><path fill="#1574E5" d="m28.72 27.42-.019.046-.003.014-.001.002h-.002l-.001.001h-.002q-.004-.001-.003-.005c.008-.02.008-.045.03-.057M30.238 28.707a.1.1 0 0 1-.02.033c-.003-.009.003-.015.006-.02.004-.006.003-.015.014-.013M30.063 28.988c0-.009.005-.014.004-.02 0-.007.003-.007.006-.01l.003-.001h.002q.002.003.002.006l-.004.006c-.005.005-.006.013-.013.02M28.675 27.508c.007-.002.007-.01.013-.014l-.003.018a.04.04 0 0 1-.011.014c-.004-.007.003-.013.001-.018M30.237 28.7q0-.02.012-.037c.005.008-.003.013-.003.02q0 .004-.002.01zM28.835 28.614c-.004-.005.005-.012-.004-.014q-.001-.006.004-.008.007-.002.008.005v.01a.01.01 0 0 1-.008.007M26.04 28.568l.003-.005c.012-.011.011-.014-.004-.019l-.012-.001c-.008 0-.01 0-.01-.01q0-.012.006-.023a.04.04 0 0 0 .005-.022l-.001-.008.002-.007a.05.05 0 0 0 .009-.03.03.03 0 0 1 .013-.022l.013-.009a.03.03 0 0 0 .013-.015l.009-.013.013-.01q.023-.008.045-.02a.4.4 0 0 0 .055-.029l.022-.012a.3.3 0 0 1 .073-.03l.018-.006a.4.4 0 0 1 .063-.016h.023q.051.001.103-.002.044 0 .083.018a.03.03 0 0 1 .015.011q.007.01.017.017a.2.2 0 0 1 .045.051q.025.045.047.089.013.028.025.057l.054.113a.1.1 0 0 0 .003-.023v-.079q.001-.083.016-.165l.03-.17q.018-.076.043-.15a1 1 0 0 1 .091-.188.8.8 0 0 1 .126-.152q.058-.056.123-.106a.4.4 0 0 1 .086-.049q.058-.022.117-.04a.3.3 0 0 1 .15 0l.01.003h.004c0-.012.008-.005.012-.003l.03.015c.004.002.009.006.015.004q.004 0 .004.002c0 .012.007.007.014.006a.04.04 0 0 1 .022.004l.033.018a.3.3 0 0 1 .06.05l.033.031h.002v-.006c.012.013.03.022.033.04q.001.005.005.008a.1.1 0 0 1 .022.04l.002.004h.002c.001-.009.005-.017-.005-.024l-.002-.003v-.004q0-.002.003-.003h.002l.001.002.009.018.007.01.008.01.003.013q0 .005.004.005c.011 0 .01.01.01.017q0 .004.002.01l.006.007a.02.02 0 0 1 .005.012l.006.03q0 .002.003.004.003 0 .005-.004c0-.003-.002-.006.003-.01a.4.4 0 0 1 .032.081c.007-.004 0-.01.005-.013.004.006.004.014.008.022s-.002.004-.004.004a.01.01 0 0 0-.006.008q0 .005.006.005t.008.009a.04.04 0 0 0 .01.018.1.1 0 0 0-.005-.037l-.022-.054-.002-.007.003-.003q.003 0 .004.002c0 .014.01.023.014.036.004.014.005.023.018.028a.01.01 0 0 1 .004.007q.003.015.01.027.01.023.016.045a.1.1 0 0 0 .008.018l.005.01a.4.4 0 0 1 .018.073c0 .007.006.013.008.022a.4.4 0 0 1 .01.065l.005.075q.001.031.001.062a.1.1 0 0 1-.004.034c-.002.006.003.013 0 .02a.1.1 0 0 0-.002.044q0 .015-.002.029-.005.02-.006.042l-.006.019a.1.1 0 0 0-.008.03q0 .014.003.029a.06.06 0 0 1-.005.04l-.003.009a.03.03 0 0 1-.004.018l-.002.007c.006.011-.004.02-.007.03q-.002.003-.003.007l-.005.04q.001.008-.004.014l-.002.004c0 .015-.009.03-.008.044v.006l-.004.004a.1.1 0 0 0-.02.03.1.1 0 0 0-.01.029.07.07 0 0 1-.024.04c-.004.005.002.013-.008.014-.009.001-.017.006-.015.018-.011.015-.014.034-.026.05a.1.1 0 0 0-.012.03.1.1 0 0 1-.01.02c-.006.006-.005.015-.009.022l-.02.037c-.003.004-.008.008-.006.015v.003l-.002.002c-.005.002-.01.004-.003.01-.003.008-.002.019-.01.025a.01.01 0 0 0-.005.01.02.02 0 0 1-.006.015l-.01.018a.07.07 0 0 1-.033.029l-.016.013q-.003.002-.002.005c.01.006 0 .008-.003.01l-.009.008a.02.02 0 0 0-.009.012c0 .004-.002.008.002.01l.003.002h.003q.001 0 .002-.002.002 0 .002-.002.01-.008.017-.017l.004-.003h.005c-.002.007-.002.013-.01.015q-.004.002-.007.006c-.009.009-.009.009 0 .018a.05.05 0 0 0 .022.013l.022.01c.022.012.048.017.07.028a.4.4 0 0 1 .068.034.1.1 0 0 1 .023.014.1.1 0 0 0 .028.018c.008.003.013.01.022.01h.001c.001.013.015.012.022.019a.1.1 0 0 0 .028.015l.04.018.009.002h.008q.004 0 .006.004.022.012.045.02c.018.01.038.014.056.023.027.014.056.022.082.038a.1.1 0 0 0 .027.008l-.005-.008-.008-.005-.101-.047q-.004 0-.004-.004.007-.003.013.002l.05.021.038.015q.015.004.026.014l.009.003q.021.006.039.018l.004.006q.002.004-.003.005c-.002-.001-.011.003-.015-.005-.003-.008-.011-.006-.017-.008q-.008-.006-.01 0c-.002.004.004.006.007.008l.003.002c.024.006.045.018.069.025q.018.005.032.02l.01.007c.002-.004-.002-.004-.002-.005 0-.01-.011-.012-.015-.02l-.005-.004-.006-.001c-.013 0-.022-.01-.035-.011q-.005-.002-.006-.009-.002-.005 0-.005l.003-.002.003.002.025.012.02.004a.1.1 0 0 1 .025.01v.002c0 .008.008.01.014.012q.008 0 .013.006.003.008.009.002c.005-.006.007 0 .009.002.005.007.016.009.018.022.007-.018.01-.019.026-.014l.016.005c.004 0 .01.006.014-.002q.001-.002.005 0a.1.1 0 0 0 .03.005q.02 0 .037.006a.03.03 0 0 0 .018.002.1.1 0 0 0-.032-.015q-.012.001-.019-.01l.005-.002h.004q.014.007.029.01a.03.03 0 0 1 .02.015l.005.005.006.002c.003-.006-.006-.006-.004-.012.008.003.018 0 .019.013q.002.006.011.008l.022.003c-.003-.007-.009-.007-.01-.011a.03.03 0 0 1 .021.008q.005.006.011.002c.005-.004.006 0 .01 0l.034.01a.1.1 0 0 0 .02.005q.005-.001.008.004.002.005.008.003c.018.004.029-.01.042-.017l.013-.009q.003-.003.006-.001c.008.007.012 0 .017-.003l.007-.003h.008l.006.004.005.006v.008l-.019.042q-.005.009.004.01.013.002.025.009.016.005.033-.001h.017q.022.003.014.022l-.004.024q0 .008.005.013a.026.026 0 0 1 .001.037l-.015.023a.03.03 0 0 0-.008.015q-.002.008-.008.015-.01.01.003.017c.009.006.009.023.002.028-.02.013-.034.033-.054.045q-.023.015-.047.029a.1.1 0 0 0-.02.017l-.008.006c-.017.005-.032.016-.05.022-.003.001-.006.005-.009 0q-.002-.002-.003 0-.009.007-.019.01a.03.03 0 0 0-.017.014.03.03 0 0 1-.024.02.04.04 0 0 0-.022.015c-.003.003-.006.008-.01.007q-.009 0-.019-.003-.006-.004 0-.008c.007-.01.007-.01.002-.02q-.004-.003-.005-.007c0-.002.005-.007 0-.01q-.005 0-.01.006l-.003.002h-.004a.05.05 0 0 0-.03.003q-.008.001-.008-.004 0-.006-.003-.009l-.006-.002-.005.001c-.015.008-.028 0-.042-.002a.1.1 0 0 0-.022-.002h-.003l-.003-.003-.004-.003-.005-.002a1 1 0 0 1-.067-.02l-.088-.026q-.028-.007-.054-.016-.045-.015-.089-.033-.05-.02-.1-.04a1 1 0 0 1-.08-.033l-.02-.007a.1.1 0 0 1-.04-.015.2.2 0 0 0-.042-.02q-.031-.012-.062-.027l-.038-.015a.1.1 0 0 1-.035-.015l-.048-.02-.025-.01q-.047-.018-.095-.036a1 1 0 0 0-.08-.027.3.3 0 0 1-.044-.015.4.4 0 0 0-.06-.018l-.032-.01-.007-.001-.006.001-.015.004-.015-.004h-.004c-.022-.007-.022-.007-.038.009l-.021.014q-.005.003-.008.002-.003-.003-.002-.008 0-.007.006-.015c.001-.002.004-.005 0-.007q-.005-.001-.006.005l-.007.008q-.006.007-.015.004-.013-.004-.018.012c-.004.01-.011.009-.017.017 0-.016-.014-.018-.02-.026-.004-.005-.009 0-.012.004-.008.006-.008.006-.003.013l.004.006c.004.017.016.03.02.047q.01.03.028.054l.004.01c0 .005.01.01.006.015s-.01-.005-.017-.004l-.001.002a.13.13 0 0 0 .017.056q.015.016.021.037c0 .005.008.008.01.013a.2.2 0 0 1 .032.056.1.1 0 0 0 .01.022.04.04 0 0 1 .008.024q0 .004.004.008c.004.007.013.011.013.02.014.006.012.019.015.03.002.007.002.018.015.017l.002.001.001.002c.009.02.026.036.033.058l.011.029c.004.01.005.015.014.018l.004.004v.005a.03.03 0 0 0 .006.023l.001.002q.004.017.013.03c.006-.002.002-.008.005-.012q.016.018.028.04l.007.02.025.032q.013.016.021.034a.1.1 0 0 0 .013.022.1.1 0 0 1 .025.05l.003.002.009.005.005.009c.006.012.018.02.02.036l.003.002.009.006.003.01c.002.008.009.013.008.021q0 .002.004.002.003 0 .002.003l-.01.007q-.005 0-.005-.006a.1.1 0 0 1-.009-.032q-.001-.005-.007-.006l-.015-.004q.005.014.014.026a.14.14 0 0 1 .027.056.03.03 0 0 0 .014.018.04.04 0 0 1 .012.02v.002q-.004.002-.007 0-.004 0-.007-.007l-.004-.009-.007-.007-.01-.012a.1.1 0 0 0-.023-.03.1.1 0 0 1-.014-.021.1.1 0 0 0-.02-.036.1.1 0 0 1-.01-.027.04.04 0 0 0-.01-.019c-.009-.009-.01-.022-.018-.033-.003-.003-.004-.01-.01-.01q-.003-.001-.005-.005c-.011-.027-.029-.051-.038-.079a.04.04 0 0 0-.012-.017.1.1 0 0 1-.023-.029.04.04 0 0 1-.005-.02l-.005-.018q-.001-.005-.004-.006c-.013.002-.01-.008-.012-.014a.1.1 0 0 0-.022-.039q-.004-.002-.006-.008a.1.1 0 0 0-.025-.045l-.003-.007q0-.004-.002-.005c-.014-.001-.013-.016-.022-.024-.008-.007-.011-.022-.018-.032-.004-.005-.007-.015-.012-.012-.004.003.003.01.005.017l.01.019.02.033q.016.02.022.044l.008.043v.003c-.011.008-.003.017 0 .025a.01.01 0 0 1 0 .011l-.001.008q0 .004.004.006.008.006.008.015l.003.006q.016.027.035.055.004.01.016.007h.004l.001.002v.002q.002.012.008.022l.008.02.002.007c.014.015.019.037.033.05a.4.4 0 0 0 .042.044.03.03 0 0 1 .005.017v.003l.001.003c.01.005.01.016.015.024a.1.1 0 0 1 .015.033l.01.018q.003.005.008.002.003-.002.002-.006l-.004-.028c.009.015.023.026.027.043-.005.004-.01 0-.014.001q-.008.002-.005.008c.001.004.008.006.007.013q0 .008.005.014c.008-.006.006-.017.015-.023 0 .008.004.015-.004.022-.007.007.003.009.006.014-.006.002-.012.002-.015.009s.006.012 0 .019a.1.1 0 0 0-.033-.034l.007.025q0 .007.008.008.007.001.002.008l-.003.006a.01.01 0 0 0 .002.012l.004.004c.009.007 0 .013.002.021-.017-.011-.025-.03-.04-.042a.1.1 0 0 0-.004.021v.006c.01.007.011.02.018.03q.01.014.019.026c.005.009.002.015.007.022q.001.003-.004.007l-.006.006c-.009-.003-.005-.019-.019-.019 0 .006.005.012.004.018v.004l.001.002.003.002h.003l.002.001v.001l.002.002q0 .005-.005.005a.036.036 0 0 1-.035-.01q-.003-.006-.009-.005a.01.01 0 0 0-.002.012l.002.006-.002.005q-.004.001-.008-.002c-.002 0-.008-.002-.01.004-.004.007-.01.009-.004.016q.002.004-.003.005a.01.01 0 0 1-.012-.001c-.002-.002 0-.006-.004-.008l-.01-.004c-.005.004.006.009 0 .012-.008.003-.01.01-.02.01a.1.1 0 0 0-.039.012.1.1 0 0 1-.07.017.1.1 0 0 0-.03 0c-.013.003-.026 0-.039.003h-.004a.1.1 0 0 0-.04-.014q0-.003.003-.002.01 0 .005-.008l-.02-.031a.1.1 0 0 1-.015-.028l-.004-.009-.007-.005a.1.1 0 0 1-.047-.041l-.078-.125-.06-.1q-.045-.075-.089-.152-.031-.057-.065-.114a25 25 0 0 1-.31-.573l-.07-.14q-.041-.08-.085-.16a2 2 0 0 1-.064-.127l-.035-.071-.028-.059q-.04-.08-.078-.16a.4.4 0 0 0-.028-.059c-.01-.014-.015-.033-.031-.044q-.002-.002-.004-.006-.048-.093-.1-.183l-.034-.057a.06.06 0 0 0-.046-.03h-.004zm1.244.394.02-.015.031-.048a.3.3 0 0 1 .024-.04.2.2 0 0 0 .026-.045.07.07 0 0 0 .01-.048q0-.002.002-.004.005-.006.006-.012l.015-.023.006-.008c.01-.02.014-.04.023-.06a.1.1 0 0 1 .015-.022.015.015 0 0 0 .005-.02l-.002-.006q0-.005.002-.006l.031-.074a.2.2 0 0 0 .013-.051q.003-.015.007-.029a.3.3 0 0 0 .007-.053q0-.018.002-.038l.008-.061a.6.6 0 0 0 0-.11.7.7 0 0 0-.059-.21.5.5 0 0 0-.066-.105.2.2 0 0 0-.067-.053.07.07 0 0 0-.056-.005.2.2 0 0 0-.065.045 1 1 0 0 0-.066.088.04.04 0 0 0-.016.026l-.004.01a.05.05 0 0 0-.017.029l-.006.01a.03.03 0 0 0-.008.014l-.019.05q-.007.012-.013.025a1 1 0 0 0-.026.072q-.008.026-.019.05c-.01.03-.016.06-.026.09a.4.4 0 0 0-.02.089c-.001.009-.005.019.002.027v.006a.2.2 0 0 0-.008.05c-.005-.003-.005-.01-.013-.01-.006.03 0 .062-.004.092-.004 0-.002-.007-.008-.006a1 1 0 0 0 0 .076q.003.051.005.102 0 .075.01.15.003.033.007.064l.01.092q.003.028.017.054c.001.003.004.008-.003.008h-.001v.002h-.001v.002c.004.007.002.017.01.023a.02.02 0 0 1 .006.01.1.1 0 0 0 .01.024q.003.003.002.006-.002.005.003.003c.002 0 .006.003.006 0 0-.006.009-.009.006-.016q.015.023.02.05v.006l-.005.004q-.01.006-.002.013l.006-.003c.007-.013.019-.02.028-.03.024-.026.044-.055.071-.08l.007-.007v-.01c0-.005 0-.01.01-.007q.005.001.007-.004c.01-.018.028-.029.034-.05l.007-.008.022-.02a.3.3 0 0 0 .049-.047c.007-.012.008-.014-.007-.018m.753-.333q.006-.003.006-.006c.002-.012.007-.024.007-.036q0-.015.006-.03c.003-.01.002-.02.006-.027l-.001-.007-.002-.002h-.004v.002l-.002.006-.015.078a.1.1 0 0 0 0 .02zm-.848.509c-.003.007-.013.01-.013.022.017-.02.04-.032.049-.056l-.015.002-.004.001-.003.003c-.005.012-.017.018-.025.028.005 0 .01-.003.013-.001zm.796-.31.023-.06v-.002l-.001-.001h-.004v.002a.1.1 0 0 1-.015.029.03.03 0 0 0-.002.032m-.64 2q.008.012.014.02c.003.008.006.005.01.003q.006-.001.005-.005l-.001-.005-.004-.003-.023-.01m.311-.066c-.003-.005-.013-.01-.016-.007l-.004.006q0 .003.002.007.006.01.014.005c.003-.002.008-.007.006-.011zm-.26-.751c-.007-.012-.005-.025-.012-.036q-.002-.004-.006-.004l-.001.001-.001.002v.004l.015.033zm.61-1.256h.004a.2.2 0 0 0 .014-.039l-.001-.002h-.002q-.005 0-.005.003l-.008.037zm.018-.752a.03.03 0 0 0 0-.019c0-.003-.004-.008.004-.008q.003 0 .002-.004-.002-.005-.007-.005l-.004.003-.002.005q0 .015.008.027zm-.663 1.941q0-.016-.01-.028c.005.009.002.02.012.027zm-.19-.8a.05.05 0 0 0-.022.024.1.1 0 0 0 .024-.023z"/><path fill="#1574E5" d="M28.09 28.483q0-.011.002-.022.013-.067.019-.136h.003q0 .028-.003.055c0 .018-.006.034-.006.051l-.004.016a.02.02 0 0 0-.002.014c.004.01-.003.015-.006.022zM28.016 28.905a.04.04 0 0 1-.009.023l-.005.007v.01q-.002.016-.011.027l-.007.011c-.003.004-.003.005-.011.003l.003-.003q.004-.003.002-.006c-.001-.002-.004.003-.007 0 .002-.014.019-.016.023-.028-.003-.003-.006.001-.007 0q-.002-.003 0-.006.014-.019.03-.038M28.114 28.23a.5.5 0 0 1-.003.084.2.2 0 0 1 .003-.084M27.72 30.664a.1.1 0 0 1-.005-.022c0-.008.008-.004.012-.005q.006 0 .004.007v.007q0 .004.002.006.004.005 0 .01h-.007zM28.079 28.64a.02.02 0 0 1 .002.012.2.2 0 0 1-.018.062c-.002-.008-.001-.01.006-.036q.004-.019.01-.037M27.968 28.894v.009l-.005.007a.1.1 0 0 0-.01.021.03.03 0 0 1-.018.018.2.2 0 0 0 .025-.048zM27.751 30.551l-.008-.008q-.005-.004-.002-.011l.003-.002h.002v.002q-.001.01.007.011.003 0 .005.004l.002.005q-.002.008.007.012l.001.004v.004l-.002.002q-.003 0-.005-.002zM28.091 28.546l.007-.032q0-.006.006-.005.005.001.003.007l-.004.02c0 .006-.007.007-.012.01"/><path fill="#1574E5" d="m28.079 28.642.008-.048h.003a.06.06 0 0 1-.012.047zM27.733 30.598a.03.03 0 0 0 .006.022l.003.004-.001.005-.004.002h-.004q-.005-.002-.004-.008l-.001-.011c-.002-.006-.001-.006.005-.014M27.919 27.727c.014.01.015.028.025.045-.019-.012-.018-.031-.025-.045"/></svg>