<svg width="243" height="49" viewBox="0 0 243 49" fill="none" xmlns="http://www.w3.org/2000/svg">
<g id="air-peace-seeklogo 1" clip-path="url(#clip0_5358_53520)">
<g id="Group">
<path id="Vector" d="M130.38 41.3548C130.385 40.8115 130.814 40.3663 131.357 40.3433C131.783 40.3433 132.046 40.6689 132.046 41.0913C132.05 41.633 131.619 42.078 131.077 42.0917C130.672 42.1019 130.347 41.7585 130.38 41.3548ZM133.593 41.3548C133.597 40.8115 134.026 40.3671 134.57 40.3433C134.994 40.3433 135.258 40.6689 135.258 41.0913C135.262 41.6322 134.833 42.078 134.291 42.0917C133.886 42.1027 133.56 41.7594 133.593 41.3548ZM136.805 41.3548C136.809 40.8115 137.239 40.3671 137.782 40.3433C138.206 40.3433 138.472 40.6689 138.472 41.0913C138.475 41.633 138.044 42.078 137.503 42.0917C137.097 42.1019 136.772 41.7585 136.805 41.3548ZM138.941 44.1351L139.337 43.2152C139.47 43.2872 139.617 43.3237 139.767 43.3228C140.256 43.3228 140.744 42.903 141.07 42.2486L141.246 41.9L140.241 36.1581H141.501L141.864 39.0884C141.931 39.6107 141.983 40.2814 142.011 40.8299H142.058C142.314 40.2866 142.607 39.6354 142.872 39.0884L144.313 36.1581H145.55L142.284 42.2629C141.572 43.5262 140.85 44.3387 139.694 44.3387C139.431 44.3259 139.175 44.2564 138.941 44.1351ZM145.495 39.7294C145.495 37.5156 147.096 36.0082 148.689 36.0082C149.991 36.0082 150.851 36.9246 150.851 38.3702C150.851 40.5842 149.25 42.0917 147.658 42.0917C146.354 42.0917 145.495 41.175 145.495 39.7294ZM149.565 38.4127C149.565 37.5384 149.211 37.0392 148.544 37.0392C147.624 37.0392 146.769 38.2041 146.769 39.688C146.769 40.5621 147.123 41.0615 147.788 41.0615C148.716 41.0615 149.57 39.9024 149.57 38.4127H149.565ZM156.244 41.9502H155.21L155.266 41.1184H155.218C154.637 41.6474 153.971 42.0952 153.272 42.0952C152.296 42.0952 151.899 41.5566 151.899 40.63C151.901 40.3561 151.932 40.083 151.993 39.816L152.724 36.1581H153.991L153.286 39.6582C153.234 39.8592 153.203 40.0643 153.193 40.2721C153.193 40.7605 153.429 41.014 153.916 41.014C154.307 41.014 154.761 40.7342 155.347 40.116L156.132 36.1581H157.398L156.244 41.9502ZM159.154 36.1581H160.189L160.084 37.2782H160.131C160.589 36.5601 161.227 36.0166 161.922 36.0166C162.122 36.0073 162.32 36.0446 162.503 36.126L162.079 37.2358C161.909 37.162 161.724 37.1299 161.539 37.1416C160.996 37.1416 160.439 37.5716 159.962 38.4533L159.276 41.9586H158.012L159.154 36.1581ZM165.848 42.5173L165.522 44.2462H164.257L165.885 36.1497H166.918L166.89 36.8627H166.924C167.48 36.3743 168.146 36.0082 168.808 36.0082C169.828 36.0082 170.461 36.7635 170.461 38.1245C170.461 40.34 168.95 42.0917 167.348 42.0917C166.817 42.0849 166.329 41.795 166.069 41.332H166.044L165.848 42.5173ZM166.798 37.8937L166.31 40.3628C166.561 40.8512 166.904 41.0487 167.273 41.0487C168.25 41.0487 169.152 39.7872 169.152 38.294C169.152 37.4494 168.826 37.0518 168.289 37.0518C167.831 37.0518 167.241 37.3257 166.798 37.8937ZM174.485 36.0082C175.831 36.0082 176.331 36.9476 176.331 38.1473C176.321 38.5686 176.235 38.9858 176.077 39.3767H172.548C172.425 40.5994 173.101 41.1184 173.984 41.1184C174.414 41.0878 174.825 40.93 175.166 40.6656L175.628 41.4796C175.047 41.884 174.355 42.0975 173.648 42.0934C172.264 42.0934 171.325 41.192 171.325 39.637C171.325 37.4716 172.96 36.0082 174.485 36.0082ZM175.221 38.5721C175.259 38.4051 175.278 38.2345 175.278 38.0624C175.278 37.5013 175.037 36.9949 174.334 36.9949C173.63 36.9949 172.94 37.581 172.662 38.5721H175.221ZM180.602 38.3363C180.638 38.2091 180.655 38.0778 180.653 37.9454C180.653 37.2554 180.328 37.0094 179.743 37.0094C179.242 37.0094 178.785 37.1883 178.226 37.4978L177.831 36.6057C178.501 36.2439 179.246 36.0411 180.007 36.0149C181.202 36.0149 181.905 36.5719 181.905 37.8284C181.902 38.1023 181.871 38.3754 181.811 38.6424L181.16 41.9534H180.133L180.149 41.32H180.112C179.659 41.7448 178.972 42.0952 178.35 42.0952C177.56 42.0952 176.899 41.561 176.899 40.6647C176.895 38.9892 178.472 38.3932 180.602 38.3363ZM178.132 40.4051C178.132 40.8725 178.457 41.1056 178.912 41.1056C179.326 41.1056 179.726 40.8725 180.181 40.4722L180.457 39.1401C178.939 39.1733 178.132 39.6354 178.132 40.4051ZM182.97 39.7294C182.97 37.653 184.49 36.0082 186.294 36.0082C186.886 36.0021 187.448 36.2641 187.825 36.7212L187.107 37.4818C186.838 37.1842 186.602 37.0392 186.215 37.0392C185.176 37.0392 184.261 38.2465 184.261 39.688C184.261 40.5621 184.649 41.0615 185.431 41.0615C185.837 41.0446 186.224 40.8876 186.527 40.6189L187.071 41.4168C186.531 41.851 185.86 42.0891 185.168 42.0917C183.895 42.0917 182.97 41.2328 182.97 39.7294ZM191.196 36.0082C192.542 36.0082 193.044 36.9476 193.044 38.1473C193.033 38.5695 192.946 38.9858 192.788 39.3767H189.259C189.137 40.5994 189.812 41.1184 190.695 41.1184C191.125 41.0878 191.536 40.93 191.876 40.6656L192.339 41.4796C191.758 41.884 191.066 42.0975 190.359 42.0934C188.975 42.0934 188.036 41.192 188.036 39.637C188.039 37.4716 189.667 36.0082 191.196 36.0082ZM191.934 38.5721C191.97 38.4051 191.989 38.2337 191.989 38.0624C191.989 37.5013 191.748 36.9949 191.044 36.9949C190.341 36.9949 189.651 37.581 189.372 38.5721H191.934ZM193.122 43.3068C193.949 43.0363 194.424 42.5267 194.553 41.9502L194.684 40.92L195.01 41.7889C194.882 41.8983 194.721 41.9627 194.553 41.9729C194.098 41.9729 193.773 41.7042 193.773 41.2649C193.765 40.7511 194.186 40.3331 194.7 40.3433C195.224 40.3433 195.514 40.7129 195.514 41.3074C195.514 42.6361 194.634 43.6975 193.27 44.0274L193.122 43.3068ZM199.435 39.7294C199.435 37.5156 201.037 36.0082 202.629 36.0082C203.931 36.0082 204.791 36.9246 204.791 38.3702C204.791 40.5842 203.19 42.0917 201.599 42.0917C200.301 42.0917 199.435 41.175 199.435 39.7294ZM203.505 38.4127C203.505 37.5384 203.149 37.0392 202.484 37.0392C201.564 37.0392 200.708 38.2041 200.708 39.688C200.708 40.5621 201.063 41.0615 201.728 41.0615C202.663 41.0615 203.518 39.9024 203.518 38.4127H203.505ZM210.19 41.9502H209.155L209.213 41.1184H209.165C208.584 41.6474 207.918 42.0952 207.212 42.0952C206.235 42.0952 205.836 41.5566 205.836 40.63C205.837 40.3561 205.87 40.083 205.932 39.816L206.663 36.1547H207.93L207.225 39.6548C207.173 39.8557 207.142 40.0617 207.132 40.2688C207.132 40.7572 207.368 41.0114 207.853 41.0114C208.245 41.0114 208.7 40.7307 209.284 40.1127L210.064 36.1547H211.33L210.19 41.9502ZM213.11 36.1581H214.143L214.039 37.2782H214.086C214.545 36.5601 215.182 36.0166 215.877 36.0166C216.076 36.0073 216.276 36.0446 216.458 36.126L216.033 37.2358C215.864 37.162 215.679 37.1299 215.495 37.1416C214.951 37.1416 214.394 37.5716 213.917 38.4533L213.232 41.9586H211.967L213.11 36.1581ZM218.156 43.1303C218.156 42.4173 218.807 41.9458 219.459 41.6524V41.6152C219.229 41.4244 219.1 41.1386 219.107 40.8401C219.107 40.4103 219.408 40.0136 219.857 39.7396V39.6921C219.469 39.3717 219.243 38.8942 219.244 38.3897C219.244 37.0255 220.329 36.0097 221.686 36.0097C221.945 36.0047 222.202 36.0531 222.442 36.1514H224.507L224.321 37.1104H223.315C223.445 37.324 223.514 37.569 223.514 37.8182C223.514 39.1698 222.485 40.1145 221.049 40.1145C220.855 40.1169 220.663 40.0889 220.478 40.0296C220.292 40.1516 220.173 40.3517 220.152 40.5731C220.152 40.9165 220.343 41.0522 221.182 41.1462C222.78 41.3448 223.27 41.7424 223.27 42.4911C223.27 43.8433 221.805 44.5158 220.356 44.5158C219.441 44.5141 218.156 44.236 218.156 43.1303ZM222.028 42.8047C222.028 42.3706 221.555 42.2011 220.792 42.1112C220.607 42.0873 220.361 42.04 220.097 41.9779C219.716 42.1748 219.252 42.5071 219.252 42.9091C219.252 43.4559 219.74 43.7018 220.489 43.7018C221.371 43.6975 222.028 43.3211 222.028 42.8006V42.8047ZM222.43 37.8412C222.43 37.2604 222.132 36.9009 221.65 36.9009C220.929 36.9009 220.413 37.6376 220.413 38.3754C220.413 38.9563 220.71 39.3148 221.193 39.3148C221.915 39.3098 222.43 38.5721 222.43 37.8369V37.8412ZM224.525 39.7294C224.525 37.5156 226.127 36.0082 227.719 36.0082C229.021 36.0082 229.881 36.9246 229.881 38.3702C229.881 40.5842 228.28 42.0917 226.689 42.0917C225.385 42.0917 224.525 41.175 224.525 39.7294ZM228.595 38.4127C228.595 37.5384 228.241 37.0392 227.574 37.0392C226.654 37.0392 225.799 38.2041 225.799 39.688C225.799 40.5621 226.153 41.0615 226.818 41.0615C227.747 41.0615 228.601 39.9024 228.601 38.4127H228.595ZM234.22 38.3363C234.254 38.2091 234.271 38.0778 234.269 37.9454C234.269 37.2554 233.944 37.0094 233.358 37.0094C232.859 37.0094 232.401 37.1883 231.842 37.4978L231.447 36.6057C232.117 36.2439 232.862 36.0411 233.624 36.0149C234.818 36.0149 235.522 36.5719 235.522 37.8284C235.518 38.1023 235.487 38.3754 235.427 38.6424L234.776 41.9534H233.749L233.765 41.32H233.728C233.275 41.7448 232.588 42.0952 231.966 42.0952C231.176 42.0952 230.516 41.561 230.516 40.6647C230.511 38.9892 232.088 38.3932 234.22 38.3363ZM231.748 40.4051C231.748 40.8725 232.074 41.1056 232.528 41.1056C232.943 41.1056 233.342 40.8725 233.797 40.4722L234.073 39.1401C232.555 39.1733 231.748 39.6354 231.748 40.4051ZM238.129 33.6086H239.396L237.724 41.9502H236.458L238.129 33.6086ZM240.547 13.2592L241.892 8.56445H224.604L221.819 13.2592H240.547Z" fill="#BA0000"/>
<path id="Vector_2" d="M238.582 20.1247L240.045 15.0093H222.758L219.133 27.6684H236.421L237.82 22.7878H228.093L228.855 20.1247H238.582Z" fill="#382A61"/>
<path id="Vector_3" d="M218.997 13.2593L221.775 8.57129H207.648C204.92 8.57129 202.522 10.3781 201.771 13.0006L201.696 13.2643L218.997 13.2593Z" fill="#BA0000"/>
<path id="Vector_4" d="M201.196 15.0091L199.315 21.6008C198.905 23.0371 199.193 24.5827 200.093 25.7748C200.992 26.9669 202.399 27.6682 203.892 27.6682H214.871L216.268 22.7844H205.805L208.033 15.0059L201.196 15.0091ZM181.547 15.0091L170.658 27.6682H178.965L185.454 20.1246H189.623L191.393 27.6682H198.791L195.82 15.0091H181.547Z" fill="#382A61"/>
<path id="Vector_5" d="M195.409 13.2592L194.309 8.56945L194.312 8.56445H187.09L183.053 13.2592H195.409Z" fill="#BA0000"/>
<path id="Vector_6" d="M173.447 20.1247L174.912 15.0093H157.623L156.158 20.1247L153.998 27.6684H171.286L172.685 22.7878H162.958L163.719 20.1247H173.447Z" fill="#382A61"/>
<path id="Vector_7" d="M175.412 13.2592L176.756 8.56445H159.469L156.687 13.2592H175.412Z" fill="#BA0000"/>
<path id="Vector_8" d="M134.253 15.0093L130.629 27.6684H137.141L139.302 20.1247H148.154C151.368 20.123 154.219 18.0609 155.226 15.0093H134.253Z" fill="#382A61"/>
<path id="Vector_9" d="M155.72 13.2592C155.943 12.1036 155.64 10.9089 154.891 9.99987C154.142 9.09191 153.027 8.56532 151.85 8.56445H136.108L133.318 13.2592H155.72ZM115.34 13.2592C115.564 12.1036 115.26 10.9089 114.511 9.99987C113.763 9.09191 112.648 8.56532 111.471 8.56445H95.6339L92.8521 13.2592H115.34Z" fill="#BA0000"/>
<path id="Vector_10" d="M114.844 15.0093H93.7898L92.9674 17.8829L90.166 27.6684H96.6778L98.8382 20.1247H106.222L104.062 27.6684H110.574L112.025 22.5988C112.364 21.4288 112.064 20.1662 111.234 19.2734C112.945 18.3737 114.239 16.8449 114.844 15.0093Z" fill="#382A61"/>
<path id="Vector_11" d="M90.2368 13.2596L91.573 8.58936H84.6534L83.3163 13.2596H90.2368ZM76.8716 13.2596L75.8149 8.58936H68.5953L64.4829 13.2596H76.8716Z" fill="#BA0000"/>
<path id="Vector_12" d="M82.8155 15.0093L79.7192 25.8258L77.2688 15.0093H62.942L58.7983 19.7125H71.1013L73.1633 27.6684H86.1105L89.736 15.0093H82.8155Z" fill="#382A61"/>
<path id="Vector_13" d="M49.9766 20.4909C49.9503 20.1171 49.9004 19.7458 49.8266 19.3794C49.7732 19.125 49.7224 18.9706 49.6638 18.6824C48.1885 11.6434 43.5734 7.96854 43.5734 7.96854C43.4811 7.88627 43.3834 7.80987 43.281 7.74041C42.589 7.12569 41.8742 6.53638 41.1349 5.97419C37.617 3.32303 33.7607 1.46174 29.3942 0.704641C26.8481 0.265529 24.2475 0.226459 21.6894 0.591119C19.312 0.941236 16.987 1.57874 14.7639 2.49039C11.4564 3.81293 8.64978 5.79707 6.41125 8.57739L6.23999 8.78924C6.22306 8.81464 6.20265 8.83938 6.1816 8.86043C5.87793 9.22509 5.59402 9.60582 5.33203 10C5.32009 10.0145 5.3049 10.0247 5.28796 10.0297C4.63679 10.982 3.96607 12.0859 3.89401 12.2047C2.15493 15.1712 1.04597 18.4645 0.638116 21.8799C0.418452 23.7655 0.460778 25.6723 0.765313 27.5462C1.14929 29.8915 1.94221 32.1503 3.10804 34.2208C3.23675 34.4507 3.36308 34.6821 3.50808 34.9017C3.63028 35.1357 3.78461 35.3519 3.96781 35.5427C2.45338 32.5488 1.54022 29.4006 1.48942 26.0294L1.50874 26.0175V25.7496C1.50874 25.5868 1.49789 25.4156 1.49268 25.2493C1.55042 23.5128 1.8276 21.7909 2.31859 20.1247C2.91963 18.1195 3.79655 16.2066 4.9233 14.4413C4.9233 14.4413 5.00123 14.3132 5.1497 14.0911C5.7516 13.1838 6.40973 12.3139 7.1193 11.4864C7.13883 11.4628 7.1601 11.4398 7.17942 11.4185C7.50501 11.031 7.87141 10.6334 8.25539 10.2418C8.26233 10.2331 8.26993 10.2255 8.27839 10.2188C8.58445 9.90753 8.90656 9.59996 9.2391 9.30562H9.2467C10.3539 8.26526 11.5699 7.34623 12.8722 6.56351C15.7144 4.8915 18.8014 3.9588 22.0634 3.53922C24.4715 3.22883 26.9134 3.29742 29.3002 3.74087C32.1465 4.27418 34.8647 5.34602 37.3092 6.8993C39.5714 8.33732 41.6157 10.0916 43.3802 12.1087C43.414 12.1478 43.4514 12.1825 43.492 12.2147C46.7318 16.1719 47.6239 22.085 47.661 22.3435C47.7205 23.289 47.7494 24.2387 47.7366 25.1892L47.712 26.0209C47.6356 28.2406 47.2881 30.4418 46.6767 32.5768C45.3871 36.9696 42.9011 40.5257 39.217 43.2448C36.4071 45.3121 33.2572 46.6635 29.9283 47.6403C29.0508 47.8955 28.1621 48.1109 27.255 48.3483C27.3397 48.3551 27.4246 48.3551 27.5094 48.3483C28.1749 48.2348 28.8404 48.1237 29.5036 47.9837C32.4237 47.3844 35.2413 46.3618 37.8662 44.9492C40.6608 43.4324 43.1028 41.4812 45.0928 38.9876C48.2521 35.0237 49.7155 30.4342 50.0267 25.4351C50.1403 23.7885 50.1233 22.1351 49.9766 20.4909Z" fill="#BA0303"/>
<path id="Vector_14" d="M60.561 7.74237C60.5304 7.40397 60.3355 7.25398 59.9979 7.29457C59.4562 7.37011 58.9135 7.45737 58.37 7.53464C56.108 7.8611 53.8753 8.37054 51.6954 9.05818C50.555 9.41937 49.4341 9.84003 48.3371 10.3182C48.2717 10.3453 48.1743 10.4437 48.0961 10.4226C47.8292 10.5429 47.5867 10.6566 47.4204 10.7363C47.4026 10.7473 47.3831 10.7575 47.3636 10.766C46.8591 10.9957 46.369 11.2544 45.8663 11.4986C43.5982 12.5693 41.7278 14.1389 40.1455 16.0677C38.4116 18.184 36.9905 20.5039 35.6864 22.9051C35.271 23.6691 34.8724 24.4408 34.4639 25.2055C33.933 26.345 32.5638 25.793 31.971 25.4887C31.8762 25.442 31.7837 25.3878 31.6964 25.3259C31.5692 25.2428 31.4453 25.1538 31.3157 25.0817C29.3452 23.9897 27.1948 23.2586 24.9667 22.9229C22.3831 22.5643 19.7521 22.7533 17.2466 23.4783C15.9001 23.859 14.5639 24.2762 13.2455 24.7433C12.9666 24.8477 12.0745 25.1809 10.2201 25.9135L9.99286 26.0101L9.90474 26.0424L9.51728 26.2052C9.48928 26.2508 9.43415 26.2738 9.34016 26.2849C9.18497 26.3552 9.03237 26.4247 8.88217 26.4967C8.43958 26.7129 8.00286 26.9326 7.57981 27.1607C6.54965 27.7212 5.8416 28.185 5.80188 28.2113C5.03544 28.7149 4.32652 29.3007 3.68555 29.958C4.53599 29.8358 5.32695 29.717 6.12747 29.6076C9.36382 29.1651 12.6086 28.8429 15.8823 28.9447C17.7139 29.004 19.5292 29.1939 21.2808 29.7687C22.4951 30.1657 23.6008 30.7455 24.4894 31.6901C24.6522 31.8529 24.6359 31.9241 24.4063 31.9827C23.9051 32.1099 23.4117 32.2675 22.9105 32.3929C21.375 32.7754 19.8174 33.0569 18.298 33.513C17.6468 33.7098 16.9846 33.9202 16.4311 34.3269C15.7586 34.8281 15.7373 34.9443 16.2961 35.5998C16.8541 36.256 17.613 36.5655 18.3896 36.8403C20.3075 37.5227 22.3145 37.7847 24.3188 38.0586C24.5037 38.0823 24.5233 38.0289 24.4647 37.8746C24.3357 37.5355 24.2637 37.1785 24.2519 36.8164C24.2359 36.1246 24.5495 35.659 25.2007 35.4326C25.7212 35.2631 26.2589 35.1537 26.8041 35.1071C27.9715 34.9833 29.1468 35.0029 30.3127 34.8629C31.8642 34.6773 33.3684 34.322 34.7793 33.6302C36.3665 32.8533 37.6664 31.7062 38.872 30.4446C39.9336 29.3372 40.9866 28.2224 42.0321 27.0989C42.1949 26.925 42.3204 26.8649 42.5451 27.0081C42.8155 27.1785 43.1183 27.2973 43.4031 27.4472C43.5396 27.5193 43.61 27.5304 43.6108 27.3355C43.6286 26.8369 43.5939 26.3383 43.5084 25.8473C43.3862 25.23 43.1828 24.6509 42.6332 24.2762C42.1789 23.9244 41.582 23.815 41.0324 23.981C41.0638 23.8777 41.0799 23.8039 41.1062 23.7327C41.5108 22.5602 42.0185 21.4264 42.6247 20.3446C43.2488 19.2127 44.0805 18.2079 45.076 17.3837C45.2066 17.2667 45.3788 17.2072 45.5533 17.2209C46.0232 17.2624 46.4751 17.031 46.7159 16.6249C46.8574 16.4111 46.9142 16.1628 47.0414 15.9212C47.4187 16.6181 48.0699 16.7538 48.7473 16.7716C49.5309 16.7927 49.9861 16.3416 50.1845 15.6073C50.8493 16.0228 51.1504 15.9848 51.4564 15.4106C51.5869 15.1691 51.71 15.0308 52.0017 15.0716C52.1406 15.074 52.2754 15.0249 52.3798 14.9333C52.6129 14.7527 52.7792 14.4983 52.8513 14.2118C52.8986 14.0592 52.9426 14.038 53.0894 14.1176C53.354 14.2839 53.6906 14.2839 53.9552 14.1176C54.1849 13.9659 54.3715 13.7582 54.4985 13.514C54.5385 13.3918 54.6715 13.3264 54.792 13.3707C55.3991 13.5003 55.7282 13.2908 55.8662 12.6915C55.8875 12.5576 55.985 12.4491 56.1156 12.4133C56.7099 12.1854 56.9389 11.8385 56.9296 11.2034C56.9296 11.0668 56.9118 10.9303 56.8955 10.7947C56.8855 10.7217 56.8727 10.6514 56.9754 10.649C57.0618 10.6583 57.149 10.649 57.2322 10.6225C57.2374 10.5947 57.2441 10.5667 57.2517 10.5396C57.266 10.5589 57.2797 10.5769 57.2908 10.5947C57.4171 10.5201 57.5044 10.3937 57.5298 10.2496C57.5306 10.2403 57.5306 10.231 57.5298 10.2225L57.54 10.1682C57.5621 9.92729 57.5265 9.68483 57.4373 9.46018C57.9029 9.53137 58.3149 9.60517 58.7297 9.65358C59.1145 9.71869 59.5063 9.5941 59.7818 9.31865C60.0761 9.03192 60.3151 8.69374 60.4863 8.32061C60.5619 8.13741 60.5873 7.93815 60.561 7.74237Z" fill="#392B61"/>
</g>
</g>
<defs>
<clipPath id="clip0_5358_53520">
<rect width="242" height="48" fill="white" transform="translate(0.5 0.34375)"/>
</clipPath>
</defs>
</svg>
