<svg width="162" height="33" viewBox="0 0 162 33" fill="none" xmlns="http://www.w3.org/2000/svg">
<g clip-path="url(#clip0_6386_110091)">
<path d="M87.0035 27.6849C87.0064 27.3227 87.2929 27.0259 87.6547 27.0106C87.9384 27.0106 88.1143 27.2276 88.1143 27.5092C88.1166 27.8704 87.8293 28.1671 87.4681 28.1762C87.198 28.183 86.9815 27.9541 87.0035 27.6849ZM89.1453 27.6849C89.1482 27.3227 89.4341 27.0265 89.7965 27.0106C90.0797 27.0106 90.2555 27.2276 90.2555 27.5092C90.2582 27.8699 89.9717 28.1671 89.6105 28.1762C89.3404 28.1836 89.1233 27.9546 89.1453 27.6849ZM91.2865 27.6849C91.2893 27.3227 91.5759 27.0265 91.9377 27.0106C92.2209 27.0106 92.3979 27.2276 92.3979 27.5092C92.4 27.8704 92.1129 28.1671 91.7517 28.1762C91.4816 28.183 91.265 27.9541 91.2865 27.6849ZM92.7104 29.5385L92.975 28.9252C93.0631 28.9732 93.1615 28.9975 93.2615 28.997C93.5871 28.997 93.9126 28.7171 94.1297 28.2808L94.2474 28.0484L93.5775 24.2205H94.4175L94.6595 26.174C94.704 26.5222 94.7385 26.9693 94.7572 27.335H94.7888C94.959 26.9728 95.1545 26.5387 95.3315 26.174L96.2919 24.2205H97.1166L94.9392 28.2904C94.465 29.1326 93.9834 29.6742 93.2128 29.6742C93.0376 29.6657 92.8664 29.6193 92.7104 29.5385ZM97.0798 26.6014C97.0798 25.1255 98.1476 24.1205 99.2092 24.1205C100.077 24.1205 100.651 24.7315 100.651 25.6952C100.651 27.1712 99.5834 28.1762 98.5218 28.1762C97.6524 28.1762 97.0798 27.5651 97.0798 26.6014ZM99.7931 25.7236C99.7931 25.1407 99.5574 24.8079 99.1125 24.8079C98.4993 24.8079 97.9294 25.5845 97.9294 26.5737C97.9294 27.1564 98.1651 27.4894 98.6088 27.4894C99.2273 27.4894 99.797 26.7167 99.797 25.7236H99.7931ZM104.246 28.0818H103.557L103.594 27.5273H103.562C103.174 27.88 102.731 28.1785 102.265 28.1785C101.614 28.1785 101.349 27.8195 101.349 27.2017C101.35 27.0191 101.371 26.8371 101.412 26.6591L101.899 24.2205H102.744L102.274 26.5539C102.239 26.6879 102.219 26.8246 102.212 26.9631C102.212 27.2887 102.37 27.4577 102.694 27.4577C102.955 27.4577 103.257 27.2712 103.648 26.8591L104.171 24.2205H105.016L104.246 28.0818ZM106.186 24.2205H106.876L106.806 24.9672H106.837C107.143 24.4885 107.568 24.1262 108.031 24.1262C108.165 24.1199 108.297 24.1448 108.419 24.1991L108.136 24.939C108.023 24.8898 107.9 24.8684 107.776 24.8762C107.414 24.8762 107.043 25.1628 106.725 25.7506L106.268 28.0875H105.425L106.186 24.2205ZM110.648 28.46L110.431 29.6125H109.588L110.673 24.2149H111.362L111.344 24.6902H111.366C111.736 24.3646 112.181 24.1205 112.622 24.1205C113.302 24.1205 113.724 24.6241 113.724 25.5314C113.724 27.0084 112.717 28.1762 111.649 28.1762C111.294 28.1717 110.969 27.9784 110.796 27.6697H110.779L110.648 28.46ZM111.282 25.3776L110.956 27.0236C111.124 27.3492 111.353 27.4809 111.599 27.4809C112.25 27.4809 112.851 26.6398 112.851 25.6444C112.851 25.0814 112.634 24.8163 112.276 24.8163C111.971 24.8163 111.577 24.9989 111.282 25.3776ZM116.407 24.1205C117.304 24.1205 117.637 24.7468 117.637 25.5466C117.63 25.8275 117.573 26.1056 117.468 26.3662H115.115C115.034 27.1813 115.484 27.5273 116.073 27.5273C116.359 27.5069 116.633 27.4017 116.86 27.2255L117.169 27.7681C116.781 28.0377 116.32 28.1801 115.849 28.1773C114.926 28.1773 114.3 27.5764 114.3 26.5397C114.3 25.0961 115.39 24.1205 116.407 24.1205ZM116.897 25.8298C116.923 25.7185 116.935 25.6048 116.935 25.49C116.935 25.1159 116.775 24.7783 116.306 24.7783C115.837 24.7783 115.377 25.1691 115.191 25.8298H116.897ZM120.485 25.6726C120.509 25.5878 120.52 25.5003 120.519 25.412C120.519 24.952 120.302 24.788 119.912 24.788C119.578 24.788 119.273 24.9073 118.901 25.1136L118.637 24.5189C119.084 24.2777 119.581 24.1425 120.088 24.125C120.885 24.125 121.353 24.4963 121.353 25.334C121.352 25.5166 121.331 25.6987 121.291 25.8767L120.856 28.084H120.172L120.182 27.6618H120.158C119.856 27.945 119.398 28.1785 118.983 28.1785C118.457 28.1785 118.016 27.8224 118.016 27.2249C118.013 26.1079 119.064 25.7105 120.485 25.6726ZM118.838 27.0518C118.838 27.3634 119.055 27.5188 119.358 27.5188C119.634 27.5188 119.9 27.3634 120.204 27.0965L120.388 26.2085C119.376 26.2306 118.838 26.5387 118.838 27.0518ZM122.063 26.6014C122.063 25.2171 123.077 24.1205 124.28 24.1205C124.674 24.1165 125.049 24.2911 125.3 24.5959L124.821 25.1029C124.642 24.9045 124.485 24.8079 124.226 24.8079C123.534 24.8079 122.924 25.6127 122.924 26.5737C122.924 27.1564 123.182 27.4894 123.704 27.4894C123.974 27.4781 124.233 27.3735 124.434 27.1944L124.797 27.7263C124.437 28.0157 123.99 28.1745 123.528 28.1762C122.68 28.1762 122.063 27.6036 122.063 26.6014ZM127.547 24.1205C128.445 24.1205 128.779 24.7468 128.779 25.5466C128.772 25.828 128.714 26.1056 128.609 26.3662H126.256C126.174 27.1813 126.625 27.5273 127.213 27.5273C127.5 27.5069 127.774 27.4017 128.001 27.2255L128.309 27.7681C127.922 28.0377 127.461 28.1801 126.989 28.1773C126.067 28.1773 125.441 27.5764 125.441 26.5397C125.443 25.0961 126.528 24.1205 127.547 24.1205ZM128.039 25.8298C128.063 25.7185 128.076 25.6042 128.076 25.49C128.076 25.1159 127.915 24.7783 127.446 24.7783C126.977 24.7783 126.517 25.1691 126.332 25.8298H128.039ZM128.831 28.9863C129.383 28.806 129.699 28.4662 129.785 28.0818L129.873 27.3951L130.09 27.9743C130.004 28.0473 129.897 28.0902 129.785 28.097C129.482 28.097 129.265 27.9179 129.265 27.625C129.26 27.2825 129.54 27.0038 129.883 27.0106C130.232 27.0106 130.426 27.257 130.426 27.6534C130.426 28.5391 129.839 29.2467 128.93 29.4667L128.831 28.9863ZM133.04 26.6014C133.04 25.1255 134.108 24.1205 135.169 24.1205C136.038 24.1205 136.611 24.7315 136.611 25.6952C136.611 27.1712 135.544 28.1762 134.483 28.1762C133.617 28.1762 133.04 27.5651 133.04 26.6014ZM135.753 25.7236C135.753 25.1407 135.516 24.8079 135.073 24.8079C134.459 24.8079 133.888 25.5845 133.888 26.5737C133.888 27.1564 134.125 27.4894 134.569 27.4894C135.192 27.4894 135.762 26.7167 135.762 25.7236H135.753ZM140.21 28.0818H139.52L139.559 27.5273H139.527C139.139 27.88 138.695 28.1785 138.224 28.1785C137.573 28.1785 137.307 27.8195 137.307 27.2017C137.308 27.0191 137.33 26.8371 137.372 26.6591L137.859 24.2182H138.703L138.233 26.5516C138.198 26.6856 138.178 26.8229 138.171 26.9609C138.171 27.2865 138.329 27.456 138.652 27.456C138.914 27.456 139.217 27.2689 139.606 26.8569L140.126 24.2182H140.97L140.21 28.0818ZM142.156 24.2205H142.846L142.776 24.9672H142.808C143.113 24.4885 143.538 24.1262 144.001 24.1262C144.134 24.1199 144.267 24.1448 144.389 24.1991L144.105 24.939C143.992 24.8898 143.869 24.8684 143.746 24.8762C143.384 24.8762 143.013 25.1628 142.695 25.7506L142.238 28.0875H141.394L142.156 24.2205ZM145.521 28.8686C145.521 28.3933 145.955 28.0789 146.389 27.8833V27.8586C146.236 27.7314 146.15 27.5408 146.155 27.3418C146.155 27.0553 146.355 26.7908 146.655 26.6082V26.5765C146.396 26.3629 146.246 26.0445 146.246 25.7082C146.246 24.7987 146.97 24.1215 147.874 24.1215C148.046 24.1182 148.218 24.1505 148.378 24.216H149.755L149.631 24.8553H148.96C149.047 24.9977 149.093 25.1611 149.093 25.3272C149.093 26.2283 148.406 26.8581 147.45 26.8581C147.32 26.8597 147.192 26.841 147.069 26.8015C146.945 26.8828 146.865 27.0162 146.851 27.1638C146.851 27.3928 146.979 27.4832 147.538 27.5459C148.603 27.6783 148.93 27.9434 148.93 28.4425C148.93 29.344 147.953 29.7923 146.987 29.7923C146.377 29.7911 145.521 29.6057 145.521 28.8686ZM148.102 28.6516C148.102 28.3621 147.787 28.2491 147.278 28.1892C147.154 28.1733 146.991 28.1418 146.815 28.1004C146.56 28.2316 146.251 28.4532 146.251 28.7212C146.251 29.0857 146.577 29.2496 147.076 29.2496C147.664 29.2467 148.102 28.9958 148.102 28.6488V28.6516ZM148.37 25.3426C148.37 24.9553 148.171 24.7157 147.85 24.7157C147.369 24.7157 147.025 25.2068 147.025 25.6987C147.025 26.0859 147.223 26.325 147.545 26.325C148.027 26.3216 148.37 25.8298 148.37 25.3397V25.3426ZM149.767 26.6014C149.767 25.1255 150.834 24.1205 151.896 24.1205C152.764 24.1205 153.337 24.7315 153.337 25.6952C153.337 27.1712 152.27 28.1762 151.209 28.1762C150.34 28.1762 149.767 27.5651 149.767 26.6014ZM152.48 25.7236C152.48 25.1407 152.244 24.8079 151.799 24.8079C151.186 24.8079 150.616 25.5845 150.616 26.5737C150.616 27.1564 150.852 27.4894 151.296 27.4894C151.915 27.4894 152.484 26.7167 152.484 25.7236H152.48ZM156.23 25.6726C156.253 25.5878 156.264 25.5003 156.263 25.412C156.263 24.952 156.046 24.788 155.655 24.788C155.322 24.788 155.017 24.9073 154.645 25.1136L154.381 24.5189C154.828 24.2777 155.325 24.1425 155.832 24.125C156.629 24.125 157.098 24.4963 157.098 25.334C157.096 25.5166 157.075 25.6987 157.035 25.8767L156.6 28.084H155.916L155.927 27.6618H155.902C155.6 27.945 155.142 28.1785 154.727 28.1785C154.201 28.1785 153.761 27.8224 153.761 27.2249C153.757 26.1079 154.809 25.7105 156.23 25.6726ZM154.582 27.0518C154.582 27.3634 154.799 27.5188 155.102 27.5188C155.378 27.5188 155.645 27.3634 155.948 27.0965L156.132 26.2085C155.12 26.2306 154.582 26.5387 154.582 27.0518ZM158.836 22.5208H159.681L158.566 28.0818H157.722L158.836 22.5208ZM160.448 8.95456L161.345 5.82471H149.82L147.963 8.95456H160.448Z" fill="#1D2739"/>
<path d="M159.138 13.5314L160.113 10.1211H148.589L146.172 18.5605H157.697L158.63 15.3068H152.145L152.653 13.5314H159.138Z" fill="#1D2739"/>
<path d="M146.081 8.95447L147.933 5.8291H138.515C136.697 5.8291 135.098 7.03364 134.597 8.78198L134.547 8.9578L146.081 8.95447Z" fill="#1D2739"/>
<path d="M134.214 10.1208L132.96 14.5153C132.687 15.4728 132.879 16.5032 133.478 17.298C134.078 18.0927 135.016 18.5602 136.011 18.5602H143.33L144.262 15.3043H137.287L138.772 10.1187L134.214 10.1208ZM121.115 10.1208L113.855 18.5602H119.393L123.719 13.5311H126.499L127.678 18.5602H132.61L130.63 10.1208H121.115Z" fill="#1D2739"/>
<path d="M130.356 8.95456L129.622 5.82804L129.624 5.82471H124.81L122.118 8.95456H130.356Z" fill="#1D2739"/>
<path d="M115.714 13.5314L116.691 10.1211H105.165L104.188 13.5314L102.748 18.5605H114.274L115.206 15.3068H108.722L109.229 13.5314H115.714Z" fill="#1D2739"/>
<path d="M117.024 8.95456L117.92 5.82471H106.396L104.541 8.95456H117.024Z" fill="#1D2739"/>
<path d="M89.5853 10.1211L87.1694 18.5605H91.5106L92.9509 13.5314H98.8527C100.995 13.5302 102.896 12.1555 103.567 10.1211H89.5853Z" fill="#1D2739"/>
<path d="M103.896 8.95456C104.045 8.18414 103.843 7.38768 103.344 6.78165C102.845 6.17634 102.101 5.82529 101.316 5.82471H90.8216L88.9614 8.95456H103.896ZM76.9767 8.95456C77.1259 8.18414 76.923 7.38768 76.4239 6.78165C75.9248 6.17634 75.1814 5.82529 74.3969 5.82471H63.8389L61.9844 8.95456H76.9767Z" fill="#1D2739"/>
<path d="M76.6457 10.1211H62.6097L62.0614 12.0369L60.1938 18.5605H64.535L65.9753 13.5314H70.8981L69.4578 18.5605H73.799L74.7668 15.1808C74.9928 14.4008 74.7923 13.559 74.2393 12.9638C75.3801 12.364 76.2426 11.3449 76.6457 10.1211Z" fill="#1D2739"/>
<path d="M60.241 8.95481L61.1319 5.84131H56.5188L55.6274 8.95481H60.241ZM51.3309 8.95481L50.6265 5.84131H45.8134L43.0718 8.95481H51.3309Z" fill="#1D2739"/>
<path d="M55.2937 10.1211L53.2295 17.3321L51.5959 10.1211H42.0447L39.2822 13.2566H47.4842L48.8589 18.5605H57.4903L59.9074 10.1211H55.2937Z" fill="#1D2739"/>
<path d="M33.4009 13.7757C33.3834 13.5265 33.3501 13.2789 33.3009 13.0346C33.2653 12.865 33.2315 12.7622 33.1924 12.57C32.2088 7.87731 29.1321 5.42743 29.1321 5.42743C29.0706 5.37259 29.0055 5.32165 28.9372 5.27534C28.4758 4.86553 27.9993 4.47266 27.5064 4.09787C25.1612 2.33042 22.5903 1.08957 19.6793 0.584832C17.9819 0.292091 16.2481 0.266044 14.5428 0.509151C12.9578 0.742562 11.4079 1.16756 9.92578 1.77533C7.72074 2.65703 5.84969 3.97979 4.35734 5.83333L4.24316 5.97456C4.23188 5.9915 4.21827 6.00799 4.20424 6.02203C4.00179 6.26513 3.81252 6.51895 3.63786 6.78174C3.6299 6.79143 3.61977 6.79823 3.60848 6.80156C3.17436 7.43639 2.72722 8.17236 2.67918 8.25152C1.51979 10.2292 0.780484 12.4247 0.508581 14.7017C0.362138 15.9587 0.390356 17.23 0.593379 18.4792C0.849365 20.0428 1.37798 21.5486 2.15519 22.9289C2.24101 23.0822 2.32522 23.2364 2.42189 23.3829C2.50336 23.5389 2.60624 23.683 2.72838 23.8102C1.71876 21.8143 1.10998 19.7154 1.07612 17.468L1.089 17.4601V17.2815C1.089 17.173 1.08176 17.0588 1.07829 16.9479C1.11678 15.7903 1.30157 14.6423 1.6289 13.5316C2.02959 12.1948 2.6142 10.9195 3.36537 9.74257C3.36537 9.74257 3.41732 9.6572 3.5163 9.50916C3.91757 8.90429 4.35632 8.32431 4.82937 7.77269C4.84239 7.75691 4.85657 7.74157 4.86945 7.72739C5.08651 7.46909 5.33078 7.20399 5.58676 6.94294C5.59139 6.93715 5.59646 6.93209 5.6021 6.9276C5.80614 6.72009 6.02088 6.51504 6.24257 6.31882H6.24763C6.98578 5.62524 7.79643 5.01256 8.66466 4.49075C10.5594 3.37607 12.6175 2.75427 14.7921 2.47455C16.3975 2.26762 18.0254 2.31335 19.6166 2.60898C21.5142 2.96453 23.3263 3.67909 24.956 4.71461C26.4641 5.67329 27.827 6.8428 29.0033 8.18756C29.0259 8.21361 29.0507 8.23676 29.0778 8.25818C31.2377 10.8963 31.8324 14.8384 31.8572 15.0108C31.8968 15.6411 31.9161 16.2742 31.9075 16.9079L31.8912 17.4624C31.8403 18.9421 31.6086 20.4096 31.2009 21.8329C30.3412 24.7615 28.6839 27.1322 26.2278 28.945C24.3546 30.3231 22.2546 31.2241 20.0354 31.8753C19.4504 32.0454 18.8579 32.189 18.2532 32.3473C18.3096 32.3518 18.3662 32.3518 18.4228 32.3473C18.8665 32.2716 19.3101 32.1975 19.7522 32.1042C21.6989 31.7047 23.5774 31.0229 25.3273 30.0812C27.1904 29.07 28.8183 27.7692 30.145 26.1068C32.2512 23.4642 33.2268 20.4045 33.4343 17.0718C33.51 15.9741 33.4987 14.8718 33.4009 13.7757Z" fill="#1D2739"/>
<path d="M40.457 5.27649C40.4366 5.05089 40.3067 4.9509 40.0816 4.97796C39.7205 5.02831 39.3587 5.08649 38.9963 5.138C37.4884 5.35564 35.9999 5.69527 34.5466 6.1537C33.7863 6.39449 33.0391 6.67493 32.3077 6.99372C32.2642 7.0118 32.1992 7.07736 32.1471 7.06332C31.9691 7.14349 31.8075 7.21931 31.6966 7.27242C31.6848 7.2798 31.6717 7.2866 31.6587 7.29225C31.3224 7.44534 30.9957 7.61783 30.6605 7.78063C29.1485 8.49447 27.9016 9.54084 26.8467 10.8267C25.6907 12.2376 24.7433 13.7842 23.8739 15.3849C23.597 15.8943 23.3313 16.4087 23.059 16.9185C22.705 17.6783 21.7922 17.3103 21.397 17.1074C21.3338 17.0763 21.2721 17.0401 21.214 16.9989C21.1292 16.9434 21.0465 16.8841 20.9601 16.8361C19.6465 16.108 18.2129 15.6207 16.7275 15.3968C15.005 15.1578 13.2511 15.2838 11.5807 15.7671C10.6831 16.0209 9.79229 16.2991 8.91334 16.6105C8.72739 16.6801 8.13265 16.9022 6.89642 17.3906L6.74492 17.455L6.68617 17.4765L6.42786 17.5851C6.4092 17.6154 6.37244 17.6308 6.30978 17.6382C6.20632 17.6851 6.10459 17.7314 6.00445 17.7794C5.7094 17.9235 5.41825 18.07 5.13622 18.2221C4.44944 18.5957 3.97741 18.9049 3.95093 18.9224C3.43997 19.2582 2.96736 19.6487 2.54004 20.0869C3.107 20.0054 3.63431 19.9263 4.16799 19.8533C6.32556 19.5583 8.48877 19.3435 10.6712 19.4114C11.8923 19.4509 13.1024 19.5775 14.2702 19.9607C15.0797 20.2254 15.8168 20.6119 16.4093 21.2416C16.5178 21.3502 16.507 21.3976 16.3539 21.4367C16.0197 21.5215 15.6908 21.6266 15.3567 21.7102C14.333 21.9652 13.2946 22.1529 12.2817 22.4569C11.8476 22.5881 11.4061 22.7284 11.0371 22.9995C10.5887 23.3337 10.5746 23.4111 10.947 23.8481C11.3191 24.2855 11.825 24.4919 12.3427 24.6751C13.6214 25.1301 14.9593 25.3047 16.2955 25.4873C16.4188 25.5031 16.4318 25.4675 16.3928 25.3646C16.3068 25.1386 16.2588 24.9005 16.251 24.6592C16.2403 24.198 16.4494 23.8876 16.8835 23.7367C17.2305 23.6237 17.5889 23.5507 17.9524 23.5196C18.7307 23.4371 19.5142 23.4502 20.2915 23.3568C21.3258 23.2331 22.3286 22.9962 23.2692 22.535C24.3273 22.0171 25.194 21.2524 25.9977 20.4113C26.7054 19.673 27.4074 18.9298 28.1044 18.1808C28.213 18.0649 28.2966 18.0248 28.4464 18.1203C28.6267 18.2339 28.8286 18.3131 29.0184 18.4131C29.1094 18.4611 29.1563 18.4685 29.1569 18.3385C29.1688 18.0062 29.1456 17.6738 29.0886 17.3464C29.0071 16.9349 28.8715 16.5488 28.5051 16.2991C28.2023 16.0645 27.8043 15.9916 27.4379 16.1023C27.4589 16.0334 27.4696 15.9842 27.4871 15.9367C27.7569 15.155 28.0953 14.3992 28.4995 13.678C28.9155 12.9233 29.47 12.2535 30.1337 11.7041C30.2208 11.6261 30.3355 11.5864 30.4519 11.5955C30.7652 11.6232 31.0664 11.4689 31.2269 11.1982C31.3213 11.0556 31.3592 10.8901 31.444 10.729C31.6955 11.1937 32.1296 11.2841 32.5812 11.296C33.1036 11.31 33.4071 11.0093 33.5393 10.5198C33.9826 10.7967 34.1833 10.7714 34.3873 10.3887C34.4743 10.2276 34.5563 10.1354 34.7508 10.1626C34.8434 10.1642 34.9333 10.1315 35.0029 10.0705C35.1583 9.95007 35.2691 9.78047 35.3172 9.58946C35.3487 9.48773 35.3781 9.47355 35.4759 9.52666C35.6523 9.6375 35.8768 9.6375 36.0532 9.52666C36.2063 9.42551 36.3307 9.28702 36.4154 9.12423C36.442 9.04276 36.5307 8.9992 36.611 9.02872C37.0157 9.11511 37.2351 8.97547 37.3272 8.57594C37.3413 8.48665 37.4063 8.4143 37.4934 8.39042C37.8896 8.23848 38.0423 8.00724 38.0361 7.58383C38.0361 7.49281 38.0242 7.40179 38.0134 7.31135C38.0067 7.26273 37.9982 7.21584 38.0666 7.21425C38.1242 7.22047 38.1824 7.21425 38.2378 7.19659C38.2413 7.17807 38.2458 7.15941 38.2508 7.14132C38.2604 7.1542 38.2695 7.16621 38.2769 7.17807C38.3611 7.12829 38.4193 7.04407 38.4362 6.94799C38.4368 6.94177 38.4368 6.93554 38.4362 6.9299L38.443 6.89372C38.4577 6.7331 38.434 6.57146 38.3745 6.42169C38.6849 6.46916 38.9596 6.51836 39.2361 6.55063C39.4927 6.59404 39.7539 6.51098 39.9375 6.32734C40.1337 6.13619 40.2931 5.91073 40.4072 5.66198C40.4576 5.53985 40.4745 5.40701 40.457 5.27649Z" fill="#1D2739"/>
</g>
<defs>
<clipPath id="clip0_6386_110091">
<rect width="161.333" height="32" fill="white" transform="translate(0.416504 0.34375)"/>
</clipPath>
</defs>
</svg>
