<svg width="139" height="121" viewBox="0 0 139 121" fill="none" xmlns="http://www.w3.org/2000/svg">
<path d="M139.972 98.1543C139.972 98.9143 139.47 99.6707 138.466 100.251L137.986 100.527L133.892 102.893C131.888 104.051 128.64 104.051 126.633 102.893C125.633 102.316 124.317 102.026 123.005 102.026C121.693 102.026 120.377 102.316 119.377 102.893H119.366C117.362 104.058 117.362 105.933 119.366 107.088C119.538 107.184 119.696 107.292 119.836 107.4C120.485 107.894 120.822 108.479 120.865 109.066V109.102C120.868 109.131 120.868 109.152 120.868 109.181C120.868 109.228 120.868 109.274 120.865 109.325C120.804 110.031 120.306 110.737 119.366 111.275L118.925 111.529L93.2761 126.338C91.2686 127.496 88.0172 127.496 86.0168 126.338C85.0167 125.761 83.7011 125.471 82.389 125.471C81.077 125.471 79.7578 125.761 78.7576 126.338H78.754C76.7465 127.503 76.7465 129.374 78.754 130.532C78.9261 130.629 79.0803 130.737 79.2237 130.844C79.9084 131.371 80.2525 132.002 80.2525 132.629C80.2525 133.389 79.7542 134.146 78.754 134.727L78.3131 134.981L74.1834 137.365C72.1759 138.523 68.9317 138.523 66.9242 137.365L3.12171 100.527L2.64136 100.248C1.71648 99.7173 1.22176 99.0326 1.14647 98.3335V98.3228C1.06402 97.509 1.56233 96.6773 2.64136 96.0536L7.21558 93.4116C9.21949 92.2573 12.4673 92.2573 14.4712 93.4116C15.4786 93.9923 16.7906 94.2827 18.1026 94.2827C19.2211 94.2827 20.336 94.0748 21.2644 93.6482C21.4258 93.5801 21.5799 93.4976 21.7305 93.4116H21.7412C23.5838 92.3469 23.7308 90.6692 22.1822 89.5149C22.0459 89.4109 21.8989 89.3141 21.7412 89.2209H21.7376C20.7984 88.676 20.3037 87.977 20.2428 87.2708V87.2565C20.1818 86.4499 20.6801 85.6397 21.7376 85.0303L47.8315 69.9669C49.8354 68.809 53.0832 68.809 55.0907 69.9669C56.0909 70.5441 57.4065 70.8344 58.7185 70.8344C59.8406 70.8344 60.9626 70.6265 61.8911 70.1999C62.0488 70.1318 62.203 70.0494 62.3535 69.9669H62.3571C64.1997 68.8951 64.3467 67.221 62.7981 66.0631C62.6618 65.9591 62.5148 65.8623 62.3571 65.7691C61.3569 65.1884 60.8515 64.432 60.8515 63.672C60.8515 62.912 61.3534 62.1556 62.3571 61.5749L66.9313 58.9329C68.9352 57.775 72.1831 57.775 74.1906 58.9329L138.473 96.0464C139.474 96.6236 139.979 97.3871 139.979 98.1435L139.972 98.1543Z" fill="#E0E8F7"/>
<path d="M120.872 100.336C120.876 100.383 120.876 100.429 120.876 100.476C120.876 100.519 120.876 100.558 120.872 100.601V100.336Z" fill="#E0E8F7" stroke="#4490EA" stroke-width="0.430177" stroke-linecap="round" stroke-linejoin="round"/>
<path d="M62.3533 56.5221H62.3497C62.1991 56.6117 62.0486 56.6906 61.8872 56.7587C61.199 56.2317 60.8477 55.6044 60.8477 54.9735V50.2344C60.8477 50.9944 61.3495 51.7472 62.3533 52.3315C62.511 52.4247 62.6616 52.5215 62.7942 52.6254C64.3393 53.7797 64.1959 55.4574 62.3533 56.5221Z" fill="#E0E8F7" stroke="#4490EA" stroke-width="0.430177" stroke-linecap="round" stroke-linejoin="round"/>
<path d="M21.7413 79.9748H21.7306C21.58 80.0644 21.4294 80.1433 21.2645 80.2114C20.63 79.7274 20.293 79.1574 20.2393 78.5874V73.834C20.3002 74.5402 20.7949 75.2392 21.7341 75.7841H21.7377C21.8954 75.8773 22.046 75.9741 22.1787 76.0781C23.7237 77.2324 23.5803 78.9101 21.7377 79.9748H21.7413Z" fill="#E0E8F7" stroke="#4490EA" stroke-width="0.430177" stroke-linecap="round" stroke-linejoin="round"/>
<path d="M137.989 87.0787L133.895 89.4446C131.891 90.6025 128.643 90.6025 126.636 89.4446C125.636 88.8675 124.32 88.5771 123.008 88.5771C121.696 88.5771 120.38 88.8675 119.38 89.4446H119.369C117.365 90.6097 117.365 92.4845 119.369 93.6389C119.541 93.7356 119.699 93.8432 119.839 93.9507C119.681 94.026 119.527 94.1049 119.376 94.1873H119.366C117.523 95.252 117.376 96.9297 118.925 98.084L93.2755 112.893C91.268 114.051 88.0166 114.051 86.0162 112.893C85.0161 112.316 83.7005 112.025 82.3884 112.025C81.0764 112.025 79.7572 112.316 78.757 112.893H78.7534C76.7459 114.058 76.7459 115.929 78.7534 117.087C78.9255 117.184 79.0797 117.291 79.223 117.399C79.0617 117.474 78.9076 117.553 78.757 117.636H78.7534C76.9037 118.7 76.7603 120.378 78.3125 121.532L74.1828 123.916C72.1753 125.074 68.9311 125.074 66.9236 123.916L3.12109 87.0787L7.21496 84.7127C9.21887 83.5548 12.4667 83.5548 14.4706 84.7127C15.4779 85.2898 16.79 85.5802 18.102 85.5802C19.4141 85.5802 20.7297 85.2898 21.7299 84.7127H21.7406C23.7445 83.5476 23.7445 81.6728 21.7406 80.5185H21.737C21.5649 80.4217 21.4108 80.3141 21.2674 80.2066C21.4287 80.1385 21.5829 80.056 21.7334 79.97H21.7442C23.5868 78.9053 23.7337 77.2276 22.1851 76.0733L47.8344 61.2644C49.8384 60.1065 53.0862 60.1065 55.0937 61.2644C56.0938 61.8416 57.4095 62.132 58.7215 62.132C60.0336 62.132 61.3492 61.8416 62.3529 61.2644H62.3565C64.3604 60.0994 64.3604 58.2281 62.3565 57.0702C62.188 56.9734 62.0303 56.8695 61.8905 56.7583C62.0482 56.6902 62.2024 56.6078 62.3529 56.5253H62.3565C64.1991 55.4535 64.3461 53.7794 62.7974 52.6215L66.9271 50.2376C68.931 49.0797 72.1789 49.0797 74.1864 50.2376L137.989 87.0751V87.0787Z" fill="#E0E8F7" stroke="#4490EA" stroke-width="0.430177" stroke-linecap="round" stroke-linejoin="round"/>
<path d="M139.972 84.709C139.972 85.469 139.47 86.2253 138.466 86.8061L137.986 87.0821L133.892 89.4481C131.888 90.606 128.64 90.606 126.633 89.4481C125.633 88.8709 124.317 88.5806 123.005 88.5806C121.693 88.5806 120.377 88.8709 119.377 89.4481H119.366C117.362 90.6131 117.362 92.488 119.366 93.6423C119.538 93.7391 119.696 93.8467 119.836 93.9542C120.485 94.4489 120.822 95.0332 120.865 95.6211V95.657C120.868 95.6857 120.868 95.7072 120.868 95.7359C120.868 95.7825 120.868 95.829 120.865 95.8792C120.804 96.5854 120.306 97.2917 119.366 97.8294L118.925 98.0839L93.2761 112.893C91.2686 114.051 88.0172 114.051 86.0168 112.893C85.0167 112.316 83.7011 112.025 82.389 112.025C81.077 112.025 79.7578 112.316 78.7576 112.893H78.754C76.7465 114.058 76.7465 115.929 78.754 117.087C78.9261 117.184 79.0803 117.291 79.2237 117.399C79.9084 117.926 80.2525 118.557 80.2525 119.184C80.2525 119.944 79.7542 120.7 78.754 121.281L78.3131 121.536L74.1834 123.92C72.1759 125.078 68.9317 125.078 66.9242 123.92L3.12171 87.0821L2.64136 86.8025C1.71648 86.2719 1.22176 85.5873 1.14647 84.8882V84.8775C1.06402 84.0637 1.56233 83.232 2.64136 82.6083L7.21558 79.9663C9.21949 78.812 12.4673 78.812 14.4712 79.9663C15.4786 80.547 16.7906 80.8374 18.1026 80.8374C19.2211 80.8374 20.336 80.6295 21.2644 80.2029C21.4258 80.1348 21.5799 80.0523 21.7305 79.9663H21.7412C23.5838 78.9016 23.7308 77.2239 22.1822 76.0696C22.0459 75.9656 21.8989 75.8688 21.7412 75.7756H21.7376C20.7984 75.2307 20.3037 74.5317 20.2428 73.8255V73.8111C20.1818 73.0046 20.6801 72.1944 21.7376 71.585L47.8315 56.5216C49.8354 55.3637 53.0832 55.3637 55.0907 56.5216C56.0909 57.0988 57.4065 57.3891 58.7185 57.3891C59.8406 57.3891 60.9626 57.1812 61.8911 56.7546C62.0488 56.6865 62.203 56.6041 62.3535 56.5216H62.3571C64.1997 55.4498 64.3467 53.7756 62.7981 52.6178C62.6618 52.5138 62.5148 52.417 62.3571 52.3238C61.3569 51.7431 60.8515 50.9867 60.8515 50.2267C60.8515 49.4667 61.3534 48.7103 62.3571 48.1296L66.9313 45.4876C68.9352 44.3297 72.1831 44.3297 74.1906 45.4876L138.473 82.6011C139.474 83.1783 139.979 83.9418 139.979 84.6982L139.972 84.709Z" fill="white" stroke="#4490EA" stroke-width="0.430177" stroke-linecap="round" stroke-linejoin="round"/>
<path d="M139.972 84.709V89.4553C139.972 90.2152 139.47 90.9681 138.466 91.5524L133.892 94.1944C131.888 95.3487 128.64 95.3487 126.633 94.1944C125.633 93.6172 124.317 93.3233 123.005 93.3233C121.883 93.3233 120.765 93.5384 119.84 93.9578C119.7 93.8502 119.542 93.7427 119.37 93.6459C117.366 92.4916 117.366 90.6132 119.37 89.4553H119.381C120.381 88.8745 121.697 88.5842 123.009 88.5842C124.321 88.5842 125.636 88.8745 126.637 89.4517C128.644 90.6096 131.895 90.6096 133.896 89.4517L137.99 87.0857L138.47 86.8097C139.47 86.2325 139.976 85.4726 139.976 84.7126L139.972 84.709Z" fill="#E0E8F7" stroke="#4490EA" stroke-width="0.430177" stroke-linecap="round" stroke-linejoin="round"/>
<path d="M120.872 95.8789V100.6C120.822 101.317 120.324 102.023 119.374 102.568L93.2835 117.635C91.2761 118.789 88.0246 118.789 86.0243 117.635C85.0241 117.058 83.7085 116.764 82.3965 116.764C81.278 116.764 80.156 116.979 79.2311 117.399C79.0877 117.291 78.9336 117.183 78.7615 117.087C76.754 115.929 76.754 114.054 78.7615 112.896H78.7651C79.7652 112.315 81.0844 112.025 82.3965 112.025C83.7085 112.025 85.0241 112.315 86.0243 112.892C88.0282 114.05 91.2761 114.05 93.2835 112.892L118.933 98.0836L119.374 97.829C120.313 97.2877 120.811 96.5851 120.872 95.8789Z" fill="#E0E8F7" stroke="#4490EA" stroke-width="0.430177" stroke-linecap="round" stroke-linejoin="round"/>
<path d="M120.872 95.8789V95.6566V95.6172" stroke="#4490EA" stroke-width="0.430177" stroke-linecap="round" stroke-linejoin="round"/>
<path d="M80.26 119.184V123.923C80.26 124.683 79.7617 125.44 78.7615 126.02L74.1873 128.659C72.1798 129.817 68.9356 129.817 66.9281 128.659L2.64527 91.5453C1.72039 91.0112 1.22567 90.3265 1.15039 89.6311V84.8848C1.22567 85.5838 1.71681 86.2685 2.64527 86.7991L3.12562 87.0787L66.9281 123.916C68.9356 125.074 72.1798 125.074 74.1873 123.916L78.317 121.532L78.7579 121.278C79.7581 120.701 80.2564 119.941 80.2564 119.181L80.26 119.184Z" fill="#E0E8F7" stroke="#4490EA" stroke-width="0.430177" stroke-linecap="round" stroke-linejoin="round"/>
<path d="M1.15039 84.8916V84.8809" stroke="#4490EA" stroke-width="0.430177" stroke-linecap="round" stroke-linejoin="round"/>
<path d="M20.2393 73.8324V73.8145" stroke="#4490EA" stroke-width="0.430177" stroke-linecap="round" stroke-linejoin="round"/>
<path d="M107.482 96.6889C107.088 96.9148 107.088 97.284 107.482 97.5098C107.877 97.7357 108.511 97.7357 108.905 97.5098C109.3 97.284 109.3 96.9148 108.905 96.6889C108.511 96.4631 107.877 96.4631 107.482 96.6889Z" fill="#4490EA"/>
<path d="M103.861 98.7749C103.467 99.0007 103.467 99.3699 103.861 99.5958C104.256 99.8216 104.89 99.8216 105.284 99.5958C105.679 99.3699 105.679 99.0007 105.284 98.7749C104.89 98.549 104.256 98.549 103.861 98.7749Z" fill="#4490EA"/>
<path d="M100.245 100.865C99.8506 101.091 99.8506 101.46 100.245 101.686C100.639 101.911 101.274 101.911 101.668 101.686C102.062 101.46 102.062 101.091 101.668 100.865C101.274 100.639 100.639 100.639 100.245 100.865Z" fill="#4490EA"/>
<path d="M96.6239 102.955C96.2295 103.18 96.2295 103.55 96.6239 103.775C97.0182 104.001 97.6527 104.001 98.047 103.775C98.4414 103.55 98.4414 103.18 98.047 102.955C97.6527 102.729 97.0182 102.729 96.6239 102.955Z" fill="#4490EA"/>
<path d="M93.0067 105.046C92.6124 105.272 92.6124 105.641 93.0067 105.867C93.401 106.093 94.0355 106.093 94.4299 105.867C94.8242 105.641 94.8242 105.272 94.4299 105.046C94.0355 104.82 93.401 104.82 93.0067 105.046Z" fill="#4490EA"/>
<path d="M29.1916 96.265L26.123 94.4941" stroke="#4490EA" stroke-width="0.430177" stroke-linecap="round" stroke-linejoin="round"/>
<path d="M44.8148 105.285L32.7305 98.3086" stroke="#4490EA" stroke-width="0.430177" stroke-linecap="round" stroke-linejoin="round"/>
<path d="M54.8445 111.077L47.9258 107.08" stroke="#4490EA" stroke-width="0.430177" stroke-linecap="round" stroke-linejoin="round"/>
<path d="M61.2031 110.436V110.328" stroke="#4490EA" stroke-width="0.430177" stroke-linecap="round" stroke-linejoin="round"/>
<path d="M40.4834 90.9206V90.9062" stroke="#4490EA" stroke-width="0.430177" stroke-linecap="round" stroke-linejoin="round"/>
<path d="M56.9121 58.3536V58.3105" stroke="#4490EA" stroke-width="0.430177" stroke-linecap="round" stroke-linejoin="round"/>
<path d="M119.647 80.1783V84.9568C119.647 85.2329 119.453 85.4982 119.112 85.6989L108.605 91.7644C107.892 92.1802 106.741 92.1802 106.031 91.7644L104.06 90.628C103.35 90.2194 102.199 90.2194 101.486 90.628L84.5549 100.404L82.1781 101.777C81.6547 102.078 81.5185 102.522 81.773 102.899L73.6391 107.598C73.2985 107.792 72.8361 107.907 72.3557 107.907H64.0856C63.6554 107.907 63.2396 107.821 62.9134 107.663L64.3186 106.849C65.0284 106.441 65.0284 105.777 64.3186 105.365L61.8343 103.931L64.3186 102.494C65.0284 102.085 65.0284 101.422 64.3186 101.01L55.9803 96.1952C55.2705 95.7865 54.1198 95.7865 53.4064 96.1952L52.1984 96.8907C51.485 97.3065 50.3343 97.3065 49.6245 96.8907L41.0783 91.958C41.0281 91.9221 40.9779 91.8863 40.9205 91.854L39.5476 91.0618C39.3002 90.8754 39.1747 90.6531 39.1747 90.4273V90.8467L32.5823 87.0396C31.8689 86.631 30.7182 86.631 30.0084 87.0396L26.1153 89.2909C25.4055 89.6995 24.2548 89.6995 23.5414 89.2909L21.1718 87.9179C20.8277 87.7243 20.6377 87.4555 20.6377 87.1758V82.4009C20.6377 82.1248 20.8277 81.8596 21.1718 81.6588L31.6789 75.5933C32.3923 75.1847 33.543 75.1847 34.2528 75.5933L36.2209 76.7297C36.9342 77.1384 38.085 77.1384 38.7947 76.7297L58.1061 65.581C58.8159 65.1723 58.8159 64.5055 58.1061 64.0932L56.1381 62.9569C55.9552 62.8493 55.819 62.7274 55.733 62.5948L58.1061 61.2218C58.6295 60.9207 58.7657 60.4762 58.5112 60.0998L66.6487 55.4001C66.9893 55.2065 67.4517 55.0918 67.9321 55.0918H76.2022C76.6324 55.0918 77.0482 55.1778 77.3745 55.3356L75.9692 56.1493C75.2594 56.558 75.2594 57.2212 75.9692 57.6334L78.4535 59.0673L75.9692 60.5049C75.2594 60.9135 75.2594 61.5767 75.9692 61.989L84.3039 66.8034C85.0173 67.212 86.168 67.212 86.8778 66.8034L88.0931 66.1043C88.8028 65.6957 89.9536 65.6957 90.6669 66.1043L99.1988 71.0298L100.583 71.8293C100.647 71.8651 100.708 71.9081 100.762 71.9511C101.289 72.3598 101.224 72.9405 100.583 73.3134L99.3673 74.0124C98.6575 74.4211 98.6575 75.0879 99.3673 75.5001L107.706 80.3145C108.419 80.7232 109.57 80.7232 110.279 80.3145L114.173 78.0632C114.882 77.6546 116.033 77.6546 116.746 78.0632L119.116 79.4362C119.46 79.6334 119.65 79.8987 119.65 80.1783H119.647Z" fill="#62A2EE" stroke="#4490EA" stroke-width="0.430177" stroke-linecap="round" stroke-linejoin="round"/>
<path d="M119.647 75.8212V80.5997C119.647 80.8758 119.453 81.1411 119.112 81.3418L108.605 87.4073C107.892 87.816 106.741 87.816 106.031 87.4073L104.06 86.2709C103.35 85.8622 102.199 85.8622 101.486 86.2709L82.1745 97.4197C81.4647 97.8283 81.4647 98.4915 82.1745 98.9038L84.1462 100.044C84.329 100.151 84.4652 100.273 84.5513 100.406C84.6337 100.528 84.6767 100.653 84.6767 100.779V100.786C84.6767 101.055 84.4975 101.324 84.1462 101.528L81.7694 102.901L73.6355 107.601C73.295 107.794 72.8325 107.909 72.3521 107.909H64.082C63.6518 107.909 63.236 107.823 62.9098 107.665C62.8667 107.644 62.8309 107.622 62.7951 107.604L60.4219 106.231C60.067 106.027 59.8914 105.758 59.8914 105.489C59.8914 105.22 60.067 104.951 60.4219 104.747L61.8307 103.933L64.315 102.496C65.0248 102.087 65.0248 101.424 64.315 101.012L55.9767 96.1973C55.2669 95.7886 54.1162 95.7886 53.4028 96.1973L52.1948 96.8927C51.4814 97.3086 50.3307 97.3086 49.6209 96.8927L41.0747 91.96L39.7089 91.1713C39.6515 91.1391 39.5978 91.0997 39.5476 91.0638C39.3002 90.8774 39.1747 90.6551 39.1747 90.4293V90.4185C39.1783 90.1533 39.3576 89.888 39.7089 89.6837L40.9169 88.9882C41.6303 88.5795 41.6303 87.9128 40.9169 87.5005L32.5823 82.6861C31.8689 82.2774 30.7182 82.2774 30.0084 82.6861L26.1153 84.9374C25.4055 85.346 24.2548 85.346 23.5414 84.9374L21.1718 83.5644C20.8277 83.3708 20.6377 83.1019 20.6377 82.8223V78.0474C20.6377 77.7713 20.8277 77.5061 21.1718 77.3053L31.6789 71.2398C32.3923 70.8311 33.543 70.8311 34.2528 71.2398L36.2209 72.3762C36.9342 72.7849 38.085 72.7849 38.7947 72.3762L55.6075 62.6685L55.733 62.5968L58.1061 61.2239C58.6295 60.9227 58.7657 60.4782 58.5112 60.1018C58.4287 59.9692 58.2925 59.8437 58.1061 59.7361L56.1381 58.5998C55.7867 58.3918 55.6075 58.1266 55.6075 57.8577C55.6075 57.5888 55.7867 57.3236 56.1381 57.1157L66.6487 51.0466C66.9893 50.853 67.4517 50.7383 67.9321 50.7383H76.2022C76.6862 50.7383 77.1486 50.8494 77.4892 51.0466L79.8587 52.4196C80.2136 52.6275 80.3929 52.8892 80.3929 53.158C80.3929 53.4305 80.2136 53.6958 79.8587 53.9037L77.3745 55.3412L75.9692 56.1549C75.2594 56.5636 75.2594 57.2268 75.9692 57.639L78.4535 59.073L84.3039 62.4534C85.0173 62.8621 86.168 62.8621 86.8778 62.4534L88.0931 61.7544C88.8028 61.3457 89.9536 61.3457 90.6669 61.7544L100.583 67.4793C100.927 67.6765 101.099 67.9346 101.113 68.1963V68.2214C101.113 68.4903 100.937 68.7555 100.583 68.9635L99.3673 69.6625C98.722 70.0353 98.6647 70.6232 99.1988 71.0355C99.249 71.0785 99.3063 71.1143 99.3673 71.1502L100.758 71.9532L101.11 72.1575L107.706 75.9646C108.419 76.3733 109.57 76.3733 110.279 75.9646L114.173 73.7133C114.882 73.3047 116.033 73.3047 116.746 73.7133L119.116 75.0863C119.46 75.2835 119.65 75.5487 119.65 75.8284L119.647 75.8212Z" fill="#B6D4F7" stroke="#4490EA" stroke-width="0.430177" stroke-linecap="round" stroke-linejoin="round"/>
<path d="M84.6799 100.782V105.152C84.6727 105.417 84.4935 105.676 84.1494 105.876L73.6387 111.945C73.2981 112.143 72.8357 112.254 72.3553 112.254H64.0852C63.6012 112.254 63.1388 112.146 62.7982 111.945L60.4251 110.572C60.0702 110.364 59.8945 110.099 59.8945 109.83V105.475C59.8945 105.744 60.0702 106.012 60.4251 106.217L62.7982 107.59C62.8341 107.611 62.8735 107.633 62.913 107.651C63.2392 107.808 63.655 107.894 64.0852 107.894H72.3553C72.8357 107.894 73.3017 107.783 73.6387 107.586L81.7726 102.887L84.1494 101.514C84.5007 101.309 84.6799 101.04 84.6799 100.771V100.782Z" fill="#62A2EE" stroke="#4490EA" stroke-width="0.430177" stroke-linecap="round" stroke-linejoin="round"/>
<path d="M84.6807 100.786V100.775" stroke="#4490EA" stroke-width="0.430177" stroke-linecap="round" stroke-linejoin="round"/>
<path d="M59.8945 109.945V109.838" stroke="#4490EA" stroke-width="0.430177" stroke-linecap="round" stroke-linejoin="round"/>
<path d="M64.3187 102.489L61.8344 103.926L55.9804 100.546C55.2706 100.137 54.1199 100.137 53.4065 100.546L52.1984 101.245C51.485 101.653 50.3343 101.653 49.6245 101.245L39.7089 95.5198C39.3612 95.3154 39.182 95.0609 39.1748 94.7921V90.4258C39.1748 90.648 39.3003 90.8739 39.5476 91.0603C39.5978 91.0961 39.6516 91.1356 39.7089 91.1678L41.0747 91.9565L49.6209 96.8892C50.3307 97.305 51.4815 97.305 52.1948 96.8892L53.4029 96.1937C54.1163 95.7851 55.267 95.7851 55.9768 96.1937L64.3151 101.008C65.0249 101.417 65.0249 102.08 64.3151 102.492L64.3187 102.489Z" fill="#62A2EE" stroke="#4490EA" stroke-width="0.430177" stroke-linecap="round" stroke-linejoin="round"/>
<path d="M39.1748 90.4245V90.4102" stroke="#4490EA" stroke-width="0.430177" stroke-linecap="round" stroke-linejoin="round"/>
<path d="M58.1031 61.2239L55.73 62.5969L55.6045 62.6685V57.8613C55.6045 58.1302 55.7837 58.3955 56.135 58.6034L58.1031 59.7398C58.2895 59.8473 58.4257 59.9728 58.5082 60.1054C58.7627 60.4818 58.6229 60.9263 58.1031 61.2275V61.2239Z" fill="#62A2EE" stroke="#4490EA" stroke-width="0.430177" stroke-linecap="round" stroke-linejoin="round"/>
<path d="M55.6045 57.8578V57.8184" stroke="#4490EA" stroke-width="0.430177" stroke-linecap="round" stroke-linejoin="round"/>
<path d="M80.3925 53.1602V57.5157C80.3925 57.7845 80.2133 58.0534 79.8584 58.2577L78.4531 59.0715L75.9689 57.6376C75.2591 57.2289 75.2591 56.5657 75.9689 56.1535L77.3741 55.3397L79.8584 53.9022C80.2133 53.6943 80.3925 53.429 80.3925 53.1602Z" fill="#62A2EE" stroke="#4490EA" stroke-width="0.430177" stroke-linecap="round" stroke-linejoin="round"/>
<path d="M80.3926 57.8184V57.5137" stroke="#4490EA" stroke-width="0.430177" stroke-linecap="round" stroke-linejoin="round"/>
<path d="M101.105 68.2145V72.1506L100.754 71.9463C100.7 71.9033 100.643 71.8639 100.575 71.8244L99.1912 71.025C98.657 70.6164 98.7144 70.0249 99.3597 69.652L100.575 68.953C100.93 68.7451 101.105 68.4798 101.105 68.2109V68.2145Z" fill="#62A2EE" stroke="#4490EA" stroke-width="0.430177" stroke-linecap="round" stroke-linejoin="round"/>
<path d="M101.105 68.2149V68.1934" stroke="#4490EA" stroke-width="0.430177" stroke-linecap="round" stroke-linejoin="round"/>
<path d="M94.3766 78.5566V81.8583C94.3766 81.8583 92.1576 84.8193 86.6585 84.8193C81.1594 84.8193 78.9404 81.8583 78.9404 81.8583V78.5566C78.9404 78.5566 81.163 81.5177 86.6585 81.5177C92.154 81.5177 94.3766 78.5566 94.3766 78.5566Z" fill="#62A2EE" stroke="#4490EA" stroke-width="0.430177" stroke-miterlimit="10"/>
<path d="M94.3766 72.7578V78.558C94.3766 78.558 92.1576 81.5191 86.6585 81.5191C81.1594 81.5191 78.9404 78.558 78.9404 78.558V72.7578C78.9404 72.7578 81.163 75.7189 86.6585 75.7189C92.154 75.7189 94.3766 72.7578 94.3766 72.7578Z" fill="#B6D4F7" stroke="#4490EA" stroke-width="0.430177" stroke-linecap="round" stroke-linejoin="round"/>
<path d="M94.3771 46.5059V72.7574C94.3771 72.7574 92.1581 75.7185 86.659 75.7185C84.8164 75.7185 83.3467 75.3851 82.2031 74.9442L82.3214 74.9083V48.7356L86.6626 29.6465L94.3807 46.5059H94.3771Z" fill="white" stroke="#4490EA" stroke-width="0.430177" stroke-linecap="round" stroke-linejoin="round"/>
<path d="M86.6553 29.6465L82.3141 48.7356V74.9083L82.1958 74.9442C79.9194 74.0695 78.9336 72.7574 78.9336 72.7574V46.5059L86.6517 29.6465H86.6553Z" fill="#E0E8F7" stroke="#4490EA" stroke-width="0.430177" stroke-linecap="round" stroke-linejoin="round"/>
<path d="M78.9404 46.5059C78.9404 46.5059 81.1594 49.4669 86.6585 49.4669C92.1576 49.4669 94.3766 46.5059 94.3766 46.5059" stroke="#4490EA" stroke-width="0.430177" stroke-miterlimit="10"/>
<path d="M45.9111 78.5547V81.8563C45.9111 81.8563 48.1301 84.8174 53.6292 84.8174C59.1247 84.8174 61.3473 81.8563 61.3473 81.8563V78.5547C61.3473 78.5547 59.1247 81.5157 53.6292 81.5157C48.1301 81.5157 45.9111 78.5547 45.9111 78.5547Z" fill="#62A2EE" stroke="#4490EA" stroke-width="0.430177" stroke-miterlimit="10"/>
<path d="M45.9111 72.7559V78.5561C45.9111 78.5561 48.1301 81.5171 53.6292 81.5171C59.1247 81.5171 61.3473 78.5561 61.3473 78.5561V72.7559C61.3473 72.7559 59.1247 75.7169 53.6292 75.7169C48.1301 75.7169 45.9111 72.7559 45.9111 72.7559Z" fill="#B6D4F7" stroke="#4490EA" stroke-width="0.430177" stroke-linecap="round" stroke-linejoin="round"/>
<path d="M45.9108 46.5039V72.7555C45.9108 72.7555 48.1298 75.7165 53.6289 75.7165C55.4715 75.7165 56.9413 75.3831 58.0848 74.9422L57.9665 74.9063V48.7336L53.6253 29.6445L45.9072 46.5039H45.9108Z" fill="#E0E8F7" stroke="#4490EA" stroke-width="0.430177" stroke-linecap="round" stroke-linejoin="round"/>
<path d="M53.6289 29.6445L57.9701 48.7336V74.9063L58.0884 74.9422C60.3648 74.0675 61.3506 72.7555 61.3506 72.7555V46.5039L53.6325 29.6445H53.6289Z" fill="#E0E8F7" stroke="#4490EA" stroke-width="0.430177" stroke-linecap="round" stroke-linejoin="round"/>
<path d="M61.3473 46.5039C61.3473 46.5039 59.1283 49.465 53.6292 49.465C48.1301 49.465 45.9111 46.5039 45.9111 46.5039" stroke="#4490EA" stroke-width="0.430177" stroke-miterlimit="10"/>
<path d="M86.6554 28.1641V79.3588C86.6554 81.0651 85.8632 82.7787 84.2787 84.2879C83.6048 84.9367 82.7874 85.5426 81.8195 86.1018C75.3669 89.8228 64.91 89.8228 58.4645 86.1018C57.5002 85.5426 56.6793 84.9367 56.0053 84.2914C54.4172 82.7786 53.625 81.0687 53.625 79.3588V28.1641C53.625 30.211 54.6969 32.1289 57.0306 33.95C57.1202 34.0252 57.2134 34.0969 57.303 34.1651C57.6579 34.4303 58.0487 34.6669 58.4609 34.9035C64.91 38.6281 75.3669 38.6281 81.816 34.9035C82.2282 34.6669 82.6154 34.4196 82.9738 34.1651C85.4258 32.4193 86.6519 30.2899 86.6519 28.1641H86.6554Z" fill="#62A2EE" stroke="#4490EA" stroke-width="0.430177" stroke-miterlimit="10"/>
<path d="M86.6554 -37.3047V8.69201C86.6554 10.3984 85.8632 12.1119 84.2787 13.6211C83.6048 14.27 82.7874 14.8758 81.8195 15.435C75.3669 19.1561 64.91 19.1561 58.4645 15.435C57.5002 14.8758 56.6793 14.27 56.0053 13.6247C54.4172 12.1119 53.625 10.402 53.625 8.69201V-37.3047C53.625 -35.2578 54.6969 -33.3399 57.0306 -31.5188C57.1202 -31.4435 57.2134 -31.3718 57.303 -31.3037C57.6579 -31.0384 58.0487 -30.8018 58.4609 -30.5652C64.91 -26.8406 75.3669 -26.8406 81.816 -30.5652C82.2282 -30.8018 82.6154 -31.0492 82.9738 -31.3037C85.4258 -33.0495 86.6519 -35.1789 86.6519 -37.3047H86.6554Z" fill="#E0E8F7" stroke="#4490EA" stroke-width="0.430177" stroke-linecap="round" stroke-linejoin="round"/>
<path d="M86.6554 8.69141V29.0029C86.6554 30.7093 85.8632 32.4228 84.2787 33.932C83.6048 34.5809 82.7874 35.1867 81.8195 35.746C75.3669 39.467 64.91 39.467 58.4645 35.746C57.5002 35.1867 56.6793 34.5809 56.0053 33.9356C54.4172 32.4228 53.625 30.7129 53.625 29.0029V8.69141C53.625 10.7383 54.6969 12.6562 57.0306 14.4773C57.1202 14.5526 57.2134 14.6243 57.303 14.6924C57.6579 14.9577 58.0487 15.1942 58.4609 15.4308C64.91 19.1555 75.3669 19.1555 81.816 15.4308C82.2282 15.1942 82.6154 14.9469 82.9738 14.6924C85.4258 12.9466 86.6519 10.8172 86.6519 8.69141H86.6554Z" fill="#B6D4F7" stroke="#4490EA" stroke-width="0.430177" stroke-linecap="round" stroke-linejoin="round"/>
<path d="M86.6554 -0.84375C86.6554 0.86262 85.8632 2.57616 84.2787 4.08536C83.6048 4.73421 82.7874 5.34005 81.8195 5.89928C75.3669 9.62031 64.91 9.62031 58.4645 5.89928C57.5002 5.34005 56.6793 4.73422 56.0053 4.08895C54.4172 2.57616 53.625 0.866204 53.625 -0.84375" stroke="#4490EA" stroke-width="0.430177" stroke-linecap="round" stroke-linejoin="round"/>
<path d="M86.6554 11.5918C86.6554 13.2982 85.8632 15.0117 84.2787 16.5209C83.6048 17.1698 82.7874 17.7756 81.8195 18.3348C75.3669 22.0559 64.91 22.0559 58.4645 18.3348C57.5002 17.7756 56.6793 17.1698 56.0053 16.5245C54.4172 15.0117 53.625 13.3018 53.625 11.5918" stroke="#4490EA" stroke-width="0.430177" stroke-linecap="round" stroke-linejoin="round"/>
<path d="M86.6554 14.4961C86.6554 16.2025 85.8632 17.916 84.2787 19.4252C83.6048 20.0741 82.7874 20.6799 81.8195 21.2391C75.3669 24.9602 64.91 24.9602 58.4645 21.2391C57.5002 20.6799 56.6793 20.074 56.0053 19.4288C54.4172 17.916 53.625 16.206 53.625 14.4961" stroke="#4490EA" stroke-width="0.430177" stroke-linecap="round" stroke-linejoin="round"/>
<path d="M86.6554 17.3965C86.6554 19.1029 85.8632 20.8164 84.2787 22.3256C83.6048 22.9744 82.7874 23.5803 81.8195 24.1395C75.3669 27.8605 64.91 27.8605 58.4645 24.1395C57.5002 23.5803 56.6793 22.9745 56.0053 22.3292C54.4172 20.8164 53.625 19.1064 53.625 17.3965" stroke="#4490EA" stroke-width="0.430177" stroke-linecap="round" stroke-linejoin="round"/>
<path d="M86.6554 20.3008C86.6554 22.0072 85.8632 23.7207 84.2787 25.2299C83.6048 25.8787 82.7874 26.4846 81.8195 27.0438C75.3669 30.7648 64.91 30.7648 58.4645 27.0438C57.5002 26.4846 56.6793 25.8787 56.0053 25.2335C54.4172 23.7207 53.625 22.0107 53.625 20.3008" stroke="#4490EA" stroke-width="0.430177" stroke-linecap="round" stroke-linejoin="round"/>
<path d="M86.6554 23.1992C86.6554 24.9056 85.8632 26.6191 84.2787 28.1283C83.6048 28.7772 82.7874 29.383 81.8195 29.9422C75.3669 33.6633 64.91 33.6633 58.4645 29.9422C57.5002 29.383 56.6793 28.7772 56.0053 28.1319C54.4172 26.6191 53.625 24.9092 53.625 23.1992" stroke="#4490EA" stroke-width="0.430177" stroke-linecap="round" stroke-linejoin="round"/>
<path d="M86.6554 26.1035C86.6554 27.8099 85.8632 29.5234 84.2787 31.0326C83.6048 31.6815 82.7874 32.2873 81.8195 32.8466C75.3669 36.5676 64.91 36.5676 58.4645 32.8466C57.5002 32.2873 56.6793 31.6815 56.0053 31.0362C54.4172 29.5234 53.625 27.8135 53.625 26.1035" stroke="#4490EA" stroke-width="0.430177" stroke-linecap="round" stroke-linejoin="round"/>
<path d="M71.947 -8.00195H68.3371C67.9411 -8.00195 67.6201 -7.68096 67.6201 -7.28499V-0.592157C67.6201 -0.19619 67.9411 0.124804 68.3371 0.124804H71.947C72.3429 0.124804 72.6639 -0.19619 72.6639 -0.592157V-7.28499C72.6639 -7.68096 72.3429 -8.00195 71.947 -8.00195Z" fill="#B6D4F7" stroke="#4490EA" stroke-width="0.430177" stroke-linecap="round" stroke-linejoin="round"/>
<path d="M57.6692 9.7722C57.6692 10.3852 57.2964 10.6648 56.8375 10.3995C56.3787 10.1343 56.0059 9.42448 56.0059 8.81148C56.0059 8.19847 56.3787 7.91886 56.8375 8.18413C57.2964 8.44941 57.6692 9.1592 57.6692 9.7722Z" fill="#4490EA"/>
<path d="M82.6152 9.7722C82.6152 10.3852 82.9881 10.6648 83.4469 10.3995C83.9058 10.1343 84.2786 9.42448 84.2786 8.81148C84.2786 8.19847 83.9058 7.91886 83.4469 8.18413C82.9881 8.44941 82.6152 9.1592 82.6152 9.7722Z" fill="#4490EA"/>
<path d="M70.1442 15.0384C70.7659 15.0384 71.2698 14.5344 71.2698 13.9127C71.2698 13.2911 70.7659 12.7871 70.1442 12.7871C69.5225 12.7871 69.0186 13.2911 69.0186 13.9127C69.0186 14.5344 69.5225 15.0384 70.1442 15.0384Z" fill="#4490EA"/>
<path d="M87.8073 85.5176V88.8192C87.8073 88.8192 85.5883 91.7802 80.0892 91.7802C74.5901 91.7802 72.3711 88.8192 72.3711 88.8192V85.5176C72.3711 85.5176 74.5937 88.4786 80.0892 88.4786C85.5847 88.4786 87.8073 85.5176 87.8073 85.5176Z" fill="#62A2EE" stroke="#4490EA" stroke-width="0.430177" stroke-miterlimit="10"/>
<path d="M87.8073 79.7188V85.519C87.8073 85.519 85.5883 88.48 80.0892 88.48C74.5901 88.48 72.3711 85.519 72.3711 85.519V79.7188C72.3711 79.7188 74.5937 82.6798 80.0892 82.6798C85.5847 82.6798 87.8073 79.7188 87.8073 79.7188Z" fill="#B6D4F7" stroke="#4490EA" stroke-width="0.430177" stroke-linecap="round" stroke-linejoin="round"/>
<path d="M87.8068 53.4668V79.7183C87.8068 79.7183 85.5878 82.6794 80.0887 82.6794C78.2461 82.6794 76.7764 82.346 75.6328 81.9051L75.7511 81.8692V55.6965L80.0923 36.6074L87.8104 53.4668H87.8068Z" fill="white" stroke="#4490EA" stroke-width="0.430177" stroke-linecap="round" stroke-linejoin="round"/>
<path d="M80.0889 36.6074L75.7477 55.6965V81.8692L75.6294 81.9051C73.353 81.0304 72.3672 79.7183 72.3672 79.7183V53.4668L80.0853 36.6074H80.0889Z" fill="#E0E8F7" stroke="#4490EA" stroke-width="0.430177" stroke-linecap="round" stroke-linejoin="round"/>
<path d="M72.3711 53.4668C72.3711 53.4668 74.5901 56.4279 80.0892 56.4279C85.5883 56.4279 87.8073 53.4668 87.8073 53.4668" stroke="#4490EA" stroke-width="0.430177" stroke-miterlimit="10"/>
<path d="M67.9176 85.5176V88.8192C67.9176 88.8192 65.6986 91.7802 60.1996 91.7802C54.704 91.7802 52.4814 88.8192 52.4814 88.8192V85.5176C52.4814 85.5176 54.704 88.4786 60.1996 88.4786C65.6951 88.4786 67.9176 85.5176 67.9176 85.5176Z" fill="#62A2EE" stroke="#4490EA" stroke-width="0.430177" stroke-miterlimit="10"/>
<path d="M67.9176 79.7188V85.519C67.9176 85.519 65.6986 88.48 60.1996 88.48C54.7005 88.48 52.4814 85.519 52.4814 85.519V79.7188C52.4814 79.7188 54.704 82.6798 60.1996 82.6798C65.6951 82.6798 67.9176 79.7188 67.9176 79.7188Z" fill="#B6D4F7" stroke="#4490EA" stroke-width="0.430177" stroke-linecap="round" stroke-linejoin="round"/>
<path d="M67.9172 53.4668V79.7183C67.9172 79.7183 65.6982 82.6794 60.1991 82.6794C58.3565 82.6794 56.8867 82.346 55.7432 81.9051L55.8614 81.8692V55.6965L60.2027 36.6074L67.9208 53.4668H67.9172Z" fill="white" stroke="#4490EA" stroke-width="0.430177" stroke-linecap="round" stroke-linejoin="round"/>
<path d="M60.1992 36.6074L55.858 55.6965V81.8692L55.7397 81.9051C53.4634 81.0304 52.4775 79.7183 52.4775 79.7183V53.4668L60.1956 36.6074H60.1992Z" fill="#E0E8F7" stroke="#4490EA" stroke-width="0.430177" stroke-linecap="round" stroke-linejoin="round"/>
<path d="M52.4814 53.4668C52.4814 53.4668 54.7005 56.4279 60.1996 56.4279C65.6986 56.4279 67.9176 53.4668 67.9176 53.4668" stroke="#4490EA" stroke-width="0.430177" stroke-miterlimit="10"/>
</svg>
