<svg xmlns="http://www.w3.org/2000/svg" width="81" height="80" fill="none"><rect width="77" height="77" x="1.9" y="1.5" fill="#E8F1FC" rx="38.5"/><rect width="77" height="77" x="1.9" y="1.5" stroke="#093160" stroke-width="3" rx="38.5"/><g clip-path="url(#a)"><path fill="#093160" d="m49.213 51.865 8.276-8.276 2.197 2.197L49.213 56.26l-5.787-5.786 2.198-2.198zM66.4 33.75V65H35.15V45.933a15 15 0 0 1-3.125.317q-3.246 0-6.079-1.22a16 16 0 0 1-4.98-3.345 15.2 15.2 0 0 1-3.345-4.957q-1.197-2.832-1.22-6.103 0-3.247 1.22-6.08a16 16 0 0 1 3.345-4.98 15.2 15.2 0 0 1 4.956-3.344q2.832-1.197 6.103-1.221 3.247 0 6.08 1.22a16 16 0 0 1 4.98 3.345 15.2 15.2 0 0 1 3.344 4.956q1.197 2.833 1.221 6.104 0 1.635-.317 3.125zm-46.875-3.125q0 2.588.977 4.858a12.3 12.3 0 0 0 2.685 3.956 13.2 13.2 0 0 0 3.98 2.685q2.27 1 4.858 1.001t4.858-.977a12.3 12.3 0 0 0 3.956-2.685 13.2 13.2 0 0 0 2.685-3.98q1-2.27 1.001-4.858t-.976-4.858a12.3 12.3 0 0 0-2.686-3.956 13.2 13.2 0 0 0-3.98-2.685q-2.27-1-4.858-1.001t-4.858.977a12.3 12.3 0 0 0-3.955 2.685 13.2 13.2 0 0 0-2.686 3.98q-1 2.27-1 4.858m43.75 6.25h-16.92q-1.245 2.76-3.271 4.785-2.026 2.027-4.81 3.296v16.919h25zm-22.339-9.839L30.463 37.51l-5.786-5.786 2.197-2.198 3.589 3.59 8.276-8.277z"/></g><defs><clipPath id="a"><path fill="#fff" d="M16.4 15h50v50h-50z"/></clipPath></defs></svg>