<svg width="40" height="40" viewBox="0 0 40 40" fill="none" xmlns="http://www.w3.org/2000/svg">
<path d="M39.2581 19.8599C39.2581 25.0421 37.1886 29.6485 33.9693 33.1033C33.7394 33.4488 33.3944 33.6791 33.0495 33.9094C29.6003 37.1339 25.0013 39.0916 19.9424 39.0916C15.9183 39.0916 12.1242 37.8249 9.01986 35.6368C8.10007 35.061 7.29524 34.2549 6.49042 33.5639C2.92621 30.1091 0.741699 25.2724 0.741699 19.8599C0.741699 9.26517 9.36478 0.628174 19.9424 0.628174C30.635 0.628174 39.2581 9.26517 39.2581 19.8599Z" fill="#D5DDEA"/>
<path d="M39.2581 19.859C39.2581 25.5018 36.8437 30.4537 33.0495 34.0237C29.6003 37.2482 25.0013 39.2059 19.9424 39.2059C15.9183 39.2059 12.1242 37.9391 9.01986 35.7511C3.96099 32.2963 0.741699 26.5383 0.741699 19.9742C0.741699 9.37943 9.36478 0.742432 19.9424 0.742432C30.5201 0.742432 39.2581 9.26428 39.2581 19.859Z" fill="#D5DDEA"/>
<path fill-rule="evenodd" clip-rule="evenodd" d="M19.9425 1.48464C9.77518 1.48464 1.48358 9.78867 1.48358 19.974C1.48358 26.2876 4.57735 31.8183 9.43808 35.1378L9.44261 35.1409L9.4471 35.1441C12.4293 37.2461 16.0749 38.4635 19.9425 38.4635C24.8049 38.4635 29.2243 36.5831 32.5418 33.4824C36.1994 30.0408 38.5164 25.2799 38.5164 19.8589C38.5164 9.68504 30.1215 1.48464 19.9425 1.48464ZM0 19.974C0 8.96998 8.95457 0 19.9425 0C30.9189 0 40 8.84329 40 19.8589C40 25.7234 37.4882 30.8661 33.5577 34.5644L33.556 34.566C29.9751 37.9135 25.1972 39.9481 19.9425 39.9481C15.7639 39.9481 11.8229 38.6332 8.59736 36.3611C3.34292 32.7706 0 26.7868 0 19.974Z" fill="#D5DDEA"/>
<path d="M33.9706 33.1035C33.7406 33.4489 33.3957 33.6793 33.0508 33.9096C29.6015 37.1341 25.0026 39.0918 19.9437 39.0918C15.9196 39.0918 12.1254 37.825 9.02114 35.637C8.10135 35.0612 7.29652 34.2551 6.4917 33.5641C6.9516 32.9883 7.64145 32.6428 9.13611 32.067L9.71099 31.8367C10.8607 31.3761 12.4704 30.8003 14.5399 29.879C14.8848 29.7638 15.1148 29.5335 15.3447 29.3032C15.4597 29.188 15.5747 29.0729 15.5747 28.8425C15.6897 28.6122 15.8046 28.2667 15.8046 28.0364V24.121C15.6896 24.0058 15.6897 24.0058 15.5747 23.8906C15.2298 23.43 14.9998 22.8542 14.9998 22.1632L14.7699 22.0481C13.7351 22.2784 13.8501 21.242 13.6201 19.1691C13.5051 18.363 13.6201 18.1326 14.08 18.0175L14.4249 17.5568C13.7351 15.9446 13.3902 14.4475 13.3902 13.2959C13.3902 11.3382 14.195 10.0714 15.3447 9.49564C14.6549 8.11371 14.6549 7.65308 14.6549 7.65308C14.6549 7.65308 18.679 8.34404 20.0587 8.11372C21.7833 7.76824 24.5427 8.22888 25.5774 10.5321C27.3021 11.223 27.8769 12.2595 28.1069 13.4111C28.3368 15.2536 27.3021 17.2114 27.0721 18.0175V18.1326C27.3021 18.2478 27.417 18.4781 27.3021 19.2842C27.0721 21.242 27.0721 22.3936 26.1523 22.1632L25.2325 23.7755C25.2325 24.0058 25.2325 24.0058 25.1176 24.121C25.1176 24.4664 25.1176 25.0422 25.1176 28.1516C25.1176 28.4971 25.2325 28.9577 25.4625 29.188C25.5774 29.3032 25.5775 29.4183 25.6924 29.4183C25.9224 29.6487 26.1523 29.879 26.3823 29.879C28.6818 30.8003 30.2914 31.4912 31.5561 31.9518C32.7059 32.4125 33.5107 32.758 33.9706 33.1035Z" fill="white"/>
<path d="M33.9694 33.1033C33.7394 33.4487 33.3945 33.6791 33.0496 33.9094C29.6003 37.1339 25.0014 39.0916 19.9425 39.0916C15.9184 39.0916 12.1242 37.8248 9.01992 35.6368C8.10013 35.061 7.2953 34.2549 6.49048 33.5639C6.95038 32.9881 7.64023 32.6426 9.13489 32.0668L9.70976 31.8365C10.8595 31.3759 12.4691 30.8001 14.5387 29.8788C14.8836 29.7636 15.1136 29.5333 15.3435 29.303C16.4933 30.9152 18.3328 31.9517 20.5174 31.9517C22.5869 31.9517 24.4265 30.9152 25.5762 29.4181C25.8062 29.6485 26.0361 29.8788 26.2661 29.8788C28.5656 30.8001 30.1752 31.491 31.4399 31.9517C32.7046 32.4123 33.5095 32.7578 33.9694 33.1033Z" fill="#C2C8D6"/>
<path d="M27.1929 17.9023C27.3099 17.4417 27.076 16.7507 26.8421 16.4052C26.8421 16.2901 26.7252 16.2901 26.7252 16.1749C25.9066 14.5627 24.1524 13.9869 22.5152 13.8717C18.1883 13.6414 17.8375 14.4475 16.5511 13.2959C17.0189 13.8717 17.0189 14.9082 16.3172 16.0598C15.8494 16.8659 15.0308 17.3265 14.2122 17.5568C12.2242 13.1808 13.2767 10.4169 15.1478 9.49564C14.4461 8.11371 14.4461 7.65308 14.4461 7.65308C14.4461 7.65308 18.5391 8.34404 19.9425 8.11372C21.6966 7.76824 24.5032 8.22888 25.5557 10.5321C27.3099 11.223 27.8946 12.2595 28.1285 13.4111C28.4793 15.1385 27.4268 17.0962 27.1929 17.9023Z" fill="#989FB0"/>
<path d="M15.9184 28.0362V24.1208C15.8035 24.0056 15.8035 24.0056 15.6885 23.8905V23.6602C15.9184 24.0056 16.1484 24.3511 16.4933 24.5814L19.5976 26.7695C20.2875 27.3453 21.3222 27.3453 22.0121 26.7695L24.8864 24.236C25.0014 24.1208 25.1164 24.1208 25.2314 24.0056C25.2314 24.3511 25.2314 24.9269 25.2314 28.0362C25.2314 28.2666 25.2314 28.3817 25.3463 28.612H15.9184C15.8035 28.3817 15.9184 28.2666 15.9184 28.0362Z" fill="url(#paint0_linear_8092_22155)"/>
<defs>
<linearGradient id="paint0_linear_8092_22155" x1="20.4987" y1="28.4578" x2="20.4987" y2="25.864" gradientUnits="userSpaceOnUse">
<stop stop-color="white"/>
<stop offset="0.9913" stop-color="#D6DEEA"/>
</linearGradient>
</defs>
</svg>
