<svg xmlns="http://www.w3.org/2000/svg" width="18" height="19" fill="none"><path fill="#475367" d="M3.75 4.175h7.5a2.25 2.25 0 0 1 2.25 2.25v2.524a1.458 1.458 0 0 0-1.646 1.446v.943c-.644 0-1.166.522-1.166 1.166v1.27h-2.25v.676h.937a.75.75 0 1 1 0 1.5H6a.75.75 0 0 1 0-1.5h.938v-.675H3.75a2.25 2.25 0 0 1-2.25-2.25v-5.1a2.25 2.25 0 0 1 2.25-2.25"/><path fill="#475367" fill-rule="evenodd" d="M11.25 14.5v-1.758c0-.645.522-1.167 1.167-1.167v-.617a1.458 1.458 0 1 1 2.916 0v.617c.645 0 1.167.522 1.167 1.167V14.5a.75.75 0 0 1-.75.75H12a.75.75 0 0 1-.75-.75m2.625-4.062c.207 0 .375.167.375.374v.676h-.75v-.675c0-.208.168-.376.375-.376" clip-rule="evenodd"/></svg>