<svg xmlns="http://www.w3.org/2000/svg" width="56" height="56" fill="none"><rect width="56" height="56" fill="#1574E5" rx="28"/><path fill="#F9FAFB" fill-rule="evenodd" d="M29.806 18.748a2.6 2.6 0 0 0-3.613 0 2.6 2.6 0 0 1-2.17.705 2.6 2.6 0 0 0-2.924 2.124 2.6 2.6 0 0 1-1.341 1.846 2.6 2.6 0 0 0-1.117 3.436c.352.72.352 1.562 0 2.282a2.6 2.6 0 0 0 1.117 3.436 2.6 2.6 0 0 1 1.341 1.846 2.6 2.6 0 0 0 2.923 2.124 2.6 2.6 0 0 1 2.17.705 2.6 2.6 0 0 0 3.614 0 2.6 2.6 0 0 1 2.17-.705 2.6 2.6 0 0 0 2.923-2.123 2.6 2.6 0 0 1 1.341-1.847 2.6 2.6 0 0 0 1.117-3.436 2.6 2.6 0 0 1 0-2.282 2.6 2.6 0 0 0-1.117-3.436 2.6 2.6 0 0 1-1.34-1.846 2.6 2.6 0 0 0-2.924-2.124 2.6 2.6 0 0 1-2.17-.705m2.91 6.948a1 1 0 0 0-1.434-1.392l-5.106 5.26-1.46-1.503a1 1 0 0 0-1.434 1.393l2.176 2.242a1 1 0 0 0 1.436 0z" clip-rule="evenodd"/></svg>