<svg xmlns="http://www.w3.org/2000/svg" width="56" height="56" fill="none"><rect width="56" height="56" fill="#1574E5" rx="28"/><path fill="#F9FAFB" d="M32.348 19.354c-.503-.101-.948-.19-1.495.114-.877.486-1.175 1.517-.868 2.442.478 1.44 2.518 2.46 3.464 2.865a.86.86 0 0 0 .897-.132c.79-.66 2.451-2.222 2.495-3.739.028-.974-.553-1.876-1.532-2.09-.612-.134-1.012.08-1.465.32-.168.09-.343.183-.539.263a.76.76 0 0 1-.365.054 6 6 0 0 1-.592-.098M21 25h-2a1 1 0 0 0-1 1v10a1 1 0 0 0 1 1h2a1 1 0 0 0 1-1v-1c.479-.32 1.594.021 2.99.447 2.102.642 4.841 1.48 7.01.553 3.311-1.414 7.2-4.8 6-6-.655-.655-2.167-.166-3.871.384-1.487.48-3.12 1.008-4.457.864-.794-.085-.624-.967.147-1.175 1.88-.506 3.682-1.21 4.113-1.927a.5.5 0 0 0 .061-.308c-.063-.754-.592-1.305-1.993-.838-1.35.45-2.477.132-3.557-.172-.817-.23-1.607-.453-2.443-.328a10 10 0 0 0-3.546 1.217.94.94 0 0 0-.454.817V26a1 1 0 0 0-1-1"/></svg>