<svg xmlns="http://www.w3.org/2000/svg" width="56" height="56" fill="none"><rect width="56" height="56" fill="#1574E5" rx="28"/><path fill="#F9FAFB" d="M28.285 23.2H34a3 3 0 0 1 2.999 3v1.819a2.99 2.99 0 0 0-2.932 1.481H33a3 3 0 0 0-2.236 5l-.006.007A3 3 0 0 0 30.042 36H22a3 3 0 0 1-3-3V22.567A2.567 2.567 0 0 1 21.567 20h2.547c.719 0 1.822 1.178 2.648 2.06.3.32.562.6.757.771.14.123.58.369.766.369"/><path fill="#F9FAFB" d="m38.747 33.164-1.333 1.5A1 1 0 0 1 35.8 33.5H33a1 1 0 1 1 0-2h2.8a1 1 0 0 1 1.614-1.164l1.333 1.5a1 1 0 0 1 0 1.328"/><path fill="#F9FAFB" d="M32.253 37.164a1 1 0 0 1 0-1.328l1.333-1.5A1 1 0 0 1 35.2 35.5H38a1 1 0 1 1 0 2h-2.8a1 1 0 0 1-1.614 1.164z"/></svg>