<svg xmlns="http://www.w3.org/2000/svg" width="56" height="56" fill="none"><rect width="56" height="56" fill="#1574E5" rx="28"/><path fill="#F9FAFB" d="M37 18a1 1 0 1 0-2 0v1.586l-6.563 6.563a1 1 0 0 0-1.937.351v2a1 1 0 0 0 1 1h2a1 1 0 0 0 .35-1.937L36.415 21H38a1 1 0 1 0 0-2h-1z"/><path fill="#F9FAFB" d="M28 18c2.038 0 3.934.61 5.515 1.657L31.33 21.84a7 7 0 1 0 2.828 2.828l2.185-2.184A9.95 9.95 0 0 1 38 28c0 5.523-4.477 10-10 10s-10-4.477-10-10 4.477-10 10-10"/><path fill="#F9FAFB" d="M28 23c.645 0 1.261.122 1.827.344l-1.389 1.39A2 2 0 0 0 25.5 26.5v1.999a2 2 0 0 0 2 2h2a2 2 0 0 0 1.767-2.938l1.389-1.39A5 5 0 1 1 28 23"/></svg>