<svg xmlns="http://www.w3.org/2000/svg" width="24" height="24" fill="none"><path fill="#1574E5" d="M8.534 3.525c1.217-.383 2.3-.697 2.919-.872.36-.102.731-.098 1.09.013 1.658.511 6.67 2.094 8.644 3.152l-3.493 1.47zM6.346 4.248C4.89 4.755 3.51 5.3 2.71 5.78a1 1 0 0 1 .08.029L12 9.686l3.745-1.577zM1.892 6.94c-.235 1.66-.053 6.85.05 9.28.033.782.523 1.466 1.248 1.756l8.067 3.227.023.009a.8.8 0 0 1-.03-.212V10.998L2.207 7.19a.75.75 0 0 1-.316-.25M12.72 21.212l.022-.01 8.067-3.226a1.98 1.98 0 0 0 1.248-1.755c.103-2.43.285-7.622.05-9.28a.75.75 0 0 1-.316.25l-9.042 3.807V21a.8.8 0 0 1-.03.212"/></svg>