<svg width="196" height="160" viewBox="0 0 196 160" fill="none" xmlns="http://www.w3.org/2000/svg">
<g clip-path="url(#clip0_6062_6978)">
<rect width="196" height="160" rx="10" fill="#FBEAE9"/>
<path d="M181.683 173.284C181.683 175.006 180.828 176.728 179.119 177.719L164.265 186.298L105.764 220.072C101.011 222.817 95.1512 222.817 90.3985 220.072L31.8903 186.298L17.0367 177.719C15.3273 176.728 14.4727 175.006 14.4727 173.284C14.4727 171.561 15.3273 169.832 17.0367 168.842L90.3985 126.489C95.1512 123.743 101.011 123.743 105.764 126.489L179.119 168.848C180.828 169.839 181.683 171.561 181.683 173.284Z" fill="#FBEAE9"/>
<path d="M181.683 131.843C181.683 133.565 180.828 135.288 179.119 136.279L164.265 144.858L105.764 178.631C101.011 181.377 95.1512 181.377 90.3985 178.631L31.8903 144.858L17.0367 136.279C15.3273 135.288 14.4727 133.565 14.4727 131.843C14.4727 130.121 15.3273 128.392 17.0367 127.401L90.3985 85.0483C95.1512 82.3029 101.011 82.3029 105.764 85.0483L179.119 127.408C180.828 128.398 181.683 130.121 181.683 131.843Z" fill="white" stroke="#EB9B98" stroke-width="0.777" stroke-linecap="round" stroke-linejoin="round"/>
<path d="M181.683 131.844V157.867C181.683 159.589 180.828 161.311 179.119 162.302L105.764 204.655C101.011 207.401 95.1512 207.401 90.3985 204.655L17.0367 162.302C15.3273 161.311 14.4727 159.589 14.4727 157.867V131.844C14.4727 133.566 15.3273 135.288 17.0367 136.279L31.8903 144.858L90.3985 178.632C95.1512 181.378 101.011 181.378 105.764 178.632L164.265 144.858L179.119 136.279C180.828 135.288 181.683 133.566 181.683 131.844Z" fill="#FBEAE9" stroke="#EB9B98" stroke-width="0.777" stroke-linecap="round" stroke-linejoin="round"/>
<path d="M166.414 130.827C166.414 131.312 166.324 131.798 166.142 132.271C165.683 133.481 164.64 134.627 163.015 135.566C158.482 138.182 151.127 138.182 146.588 135.566C144.963 134.627 143.914 133.475 143.46 132.271C143.279 131.798 143.188 131.312 143.188 130.827C143.188 129.111 144.322 127.395 146.588 126.087C151.12 123.471 158.476 123.471 163.015 126.087C165.281 127.395 166.414 129.111 166.414 130.827Z" fill="#FBEAE9" stroke="#EB9B98" stroke-width="0.777" stroke-miterlimit="10" stroke-linecap="round"/>
<path d="M161.247 114.121C161.247 110.56 158.359 107.672 154.798 107.672C151.236 107.672 148.349 110.56 148.349 114.121V130.833C148.349 131.014 148.4 131.196 148.498 131.377C148.75 131.83 149.333 132.264 150.239 132.614C152.758 133.598 156.844 133.598 159.363 132.614C160.269 132.257 160.845 131.83 161.104 131.377C161.208 131.196 161.253 131.014 161.253 130.833V114.121H161.247Z" fill="white" stroke="#EB9B98" stroke-width="0.777" stroke-linecap="round" stroke-linejoin="round"/>
<path d="M154.798 114.186V133.352" stroke="#EB9B98" stroke-width="0.777" stroke-linecap="round" stroke-linejoin="round"/>
<path d="M52.973 130.827C52.973 131.312 52.8824 131.798 52.7011 132.271C52.2413 133.481 51.1988 134.627 49.5736 135.566C45.0411 138.182 37.6854 138.182 33.1464 135.566C31.5212 134.627 30.4724 133.475 30.0191 132.271C29.8378 131.798 29.7471 131.312 29.7471 130.827C29.7471 129.111 30.8802 127.395 33.1464 126.087C37.6789 123.471 45.0346 123.471 49.5736 126.087C51.8398 127.395 52.973 129.111 52.973 130.827Z" fill="#FBEAE9" stroke="#EB9B98" stroke-width="0.777" stroke-miterlimit="10" stroke-linecap="round"/>
<path d="M47.8124 114.121C47.8124 110.56 44.9245 107.672 41.3633 107.672C37.802 107.672 34.9141 110.56 34.9141 114.121V130.833C34.9141 131.014 34.966 131.196 35.0631 131.377C35.3157 131.83 35.8984 132.264 36.8049 132.614C39.3236 133.598 43.4093 133.598 45.928 132.614C46.8345 132.257 47.4109 131.83 47.6699 131.377C47.7735 131.196 47.8189 131.014 47.8189 130.833V114.121H47.8124Z" fill="white" stroke="#EB9B98" stroke-width="0.777" stroke-linecap="round" stroke-linejoin="round"/>
<path d="M41.3564 114.186V133.352" stroke="#EB9B98" stroke-width="0.777" stroke-linecap="round" stroke-linejoin="round"/>
<path d="M132.971 120.875C132.971 122.332 132.699 123.789 132.155 125.22C130.769 128.852 127.642 132.303 122.747 135.126C109.123 142.993 87.0242 142.993 73.4008 135.126C68.5122 132.303 65.3718 128.852 63.9926 125.22C63.4487 123.795 63.1768 122.332 63.1768 120.875C63.1768 115.721 66.5826 110.567 73.4008 106.63C87.0242 98.7627 109.123 98.7627 122.747 106.63C129.558 110.567 132.971 115.721 132.971 120.875Z" fill="white" stroke="#EB9B98" stroke-width="0.777" stroke-miterlimit="10" stroke-linecap="round"/>
<path d="M132.971 120.875V131.844C132.971 136.998 129.558 142.152 122.747 146.089C109.123 153.956 87.0242 153.956 73.4008 146.089C66.5826 142.152 63.1768 136.998 63.1768 131.844V120.875C63.1768 122.332 63.4487 123.789 63.9926 125.22C65.3718 128.852 68.5057 132.303 73.4008 135.126C87.0242 142.994 109.123 142.994 122.747 135.126C127.635 132.303 130.769 128.852 132.155 125.22C132.699 123.795 132.971 122.332 132.971 120.875Z" fill="#FBEAE9" stroke="#EB9B98" stroke-width="0.777" stroke-miterlimit="10" stroke-linecap="round"/>
<path d="M123.284 110.275C123.284 111.324 123.09 112.38 122.695 113.409C121.698 116.031 119.432 118.524 115.903 120.564C106.061 126.249 90.1062 126.249 80.2642 120.564C76.7289 118.524 74.4627 116.031 73.472 113.409C73.077 112.38 72.8828 111.324 72.8828 110.275C72.8828 106.552 75.3432 102.829 80.2642 99.9864C90.1062 94.3014 106.061 94.3014 115.903 99.9864C120.824 102.829 123.284 106.552 123.284 110.275Z" fill="white" stroke="#EB9B98" stroke-width="0.777" stroke-miterlimit="10" stroke-linecap="round"/>
<path d="M123.284 110.275V118.194C123.284 121.917 120.824 125.641 115.903 128.483C106.061 134.168 90.1062 134.168 80.2642 128.483C75.3368 125.641 72.8828 121.917 72.8828 118.194V110.275C72.8828 111.324 73.077 112.38 73.472 113.409C74.4691 116.032 76.7354 118.525 80.2642 120.564C90.1062 126.249 106.061 126.249 115.903 120.564C119.438 118.525 121.698 116.032 122.695 113.409C123.09 112.38 123.284 111.324 123.284 110.275Z" fill="#FBEAE9" stroke="#EB9B98" stroke-width="0.777" stroke-miterlimit="10" stroke-linecap="round"/>
<path d="M139.472 46.7683C139.472 57.1154 135.671 66.5883 129.397 73.8403L115.476 89.3544L109.933 95.5316C109.35 95.8359 108.748 96.1143 108.113 96.3539C102.085 98.7432 94.0692 98.7432 88.041 96.3539C87.4064 96.1143 86.8042 95.8359 86.2215 95.5316L80.679 89.3544L80.4199 89.0695L66.7578 73.8403C60.477 66.5883 56.6826 57.1154 56.6826 46.7683C56.6826 23.9051 75.214 5.36719 98.0772 5.36719C109.506 5.36719 119.846 9.99679 127.338 17.4819C134.836 24.9799 139.472 35.327 139.472 46.7683Z" fill="#FBEAE9" stroke="#EB9B98" stroke-width="0.777" stroke-linecap="round" stroke-linejoin="round"/>
<path d="M139.472 46.7679C139.472 57.1149 135.671 66.5879 129.397 73.8399L115.476 89.3539L109.933 95.5311C109.35 95.8354 108.748 96.1139 108.114 96.3535C102.085 98.7427 94.0692 98.7427 88.041 96.3535C87.4065 96.1139 86.8042 95.8354 86.2215 95.5311L80.679 89.3539L80.4199 89.0691H91.4209C93.6937 89.0691 95.934 88.7324 98.0773 88.0913C101.898 86.9518 105.407 84.8344 108.217 81.8948C108.483 81.6099 108.761 81.325 109.04 81.0271C116.531 73.0823 126.995 60.7603 130.446 51.3975C135.179 38.577 130.141 23.9629 127.338 17.4814C134.836 24.9795 139.472 35.3266 139.472 46.7679Z" fill="#EB9B98" stroke="#EB9B98" stroke-width="0.777" stroke-miterlimit="10" stroke-linecap="round"/>
<path d="M85.8264 49.9609C88.889 49.9609 88.889 53.8459 91.9517 53.8459C95.0144 53.8459 95.0143 49.9609 98.077 49.9609C101.14 49.9609 101.14 53.8459 104.202 53.8459C107.265 53.8459 107.265 49.9609 110.328 49.9609H114.867L98.0705 66.7571L81.2744 49.9609H85.8134H85.8264Z" stroke="#EB9B98" stroke-width="0.777" stroke-miterlimit="10"/>
<path d="M98.0771 66.7568V93.5957" stroke="#EB9B98" stroke-width="0.777" stroke-linecap="round" stroke-linejoin="round"/>
<path d="M81.2549 16.4782C83.5406 15.0861 85.9622 13.9076 88.5133 12.9688" stroke="#EB9B98" stroke-width="0.777" stroke-miterlimit="10" stroke-linecap="round"/>
<path d="M65.1904 34.5171C67.7481 28.9745 71.4907 24.0923 76.1009 20.1943" stroke="#EB9B98" stroke-width="0.777" stroke-miterlimit="10" stroke-linecap="round"/>
<path d="M110.102 95.4473V98.3157C110.102 98.8208 109.804 99.2805 109.344 99.4941C108.943 99.6819 108.535 99.8567 108.114 100.019C102.086 102.408 94.0696 102.408 88.0414 100.019C87.6205 99.8567 87.2062 99.6819 86.8112 99.4941C86.3515 99.2805 86.0537 98.8208 86.0537 98.3157V95.4537C86.6883 95.7904 87.3421 96.1013 88.0349 96.3603C94.0632 98.7495 102.079 98.7495 108.107 96.3603C108.8 96.0948 109.461 95.7904 110.095 95.4473H110.102Z" fill="#EB9B98" stroke="#EB9B98" stroke-width="0.777" stroke-miterlimit="10" stroke-linecap="round"/>
<path d="M110.102 103.82V105.646C110.102 106.151 109.804 106.611 109.344 106.824C108.943 107.012 108.535 107.187 108.114 107.355C102.086 109.744 94.0696 109.744 88.0414 107.355C87.6205 107.193 87.2127 107.012 86.8112 106.824C86.3515 106.611 86.0537 106.151 86.0537 105.646V103.82C86.0537 103.347 86.5393 103.036 86.9666 103.231C87.3163 103.392 87.6723 103.541 88.0414 103.684C94.0696 106.073 102.086 106.073 108.114 103.684C108.477 103.541 108.839 103.386 109.189 103.231C109.616 103.036 110.102 103.347 110.102 103.82Z" fill="#EB9B98" stroke="#EB9B98" stroke-width="0.777" stroke-miterlimit="10" stroke-linecap="round"/>
<path d="M110.102 111.124V112.95C110.102 113.455 109.804 113.914 109.344 114.128C108.943 114.316 108.535 114.491 108.114 114.659C102.086 117.048 94.0696 117.048 88.0414 114.659C87.6205 114.497 87.2127 114.316 86.8112 114.128C86.3515 113.914 86.0537 113.455 86.0537 112.95V111.124C86.0537 110.651 86.5393 110.34 86.9666 110.534C87.3163 110.696 87.6723 110.845 88.0414 110.988C94.0696 113.377 102.086 113.377 108.114 110.988C108.477 110.845 108.839 110.69 109.189 110.534C109.616 110.34 110.102 110.651 110.102 111.124Z" fill="#EB9B98" stroke="#EB9B98" stroke-width="0.777" stroke-miterlimit="10" stroke-linecap="round"/>
<path d="M108.114 107.354V111.013C102.085 113.402 94.0692 113.402 88.041 111.013V107.354C94.0692 109.744 102.085 109.744 108.114 107.354Z" fill="#FBEAE9" stroke="#EB9B98" stroke-width="0.777" stroke-linecap="round" stroke-linejoin="round"/>
<path d="M108.114 100.025V103.69C102.085 106.08 94.0692 106.08 88.041 103.69V100.025C94.0692 102.415 102.085 102.415 108.114 100.025Z" fill="#FBEAE9" stroke="#EB9B98" stroke-width="0.777" stroke-linecap="round" stroke-linejoin="round"/>
<path d="M105.394 150.893C105.394 151.198 105.336 151.502 105.226 151.806C104.935 152.57 104.281 153.289 103.258 153.885C100.402 155.536 95.7725 155.536 92.9171 153.885C91.894 153.295 91.2335 152.57 90.9486 151.806C90.8321 151.508 90.7803 151.204 90.7803 150.893C90.7803 149.812 91.4926 148.731 92.9235 147.908C95.779 146.257 100.409 146.257 103.264 147.908C104.695 148.731 105.407 149.812 105.407 150.893H105.394Z" fill="#FBEAE9" stroke="#EB9B98" stroke-width="0.777" stroke-linecap="round" stroke-linejoin="round"/>
<path d="M105.395 150.894V162.432C105.395 163.513 104.682 164.595 103.251 165.417C100.396 167.068 95.7663 167.068 92.9108 165.417C91.4799 164.595 90.7676 163.513 90.7676 162.432V150.894C90.7676 151.198 90.8259 151.502 90.9359 151.807C91.2273 152.571 91.8813 153.289 92.9044 153.885C95.7598 155.536 100.389 155.536 103.245 153.885C104.268 153.296 104.928 152.571 105.213 151.807C105.33 151.509 105.382 151.204 105.382 150.894H105.395Z" fill="#EB9B98" stroke="#EB9B98" stroke-width="0.777" stroke-miterlimit="10"/>
<path d="M176.84 150.822C176.84 146.419 174.165 144.399 170.863 146.302C167.561 148.206 164.887 153.321 164.887 157.724C164.887 162.127 167.561 164.147 170.863 162.244C174.165 160.34 176.84 155.225 176.84 150.822Z" fill="#FBEAE9" stroke="#EB9B98" stroke-width="0.777" stroke-linecap="round" stroke-linejoin="round"/>
<path d="M170.856 154.273L174.049 150.343" stroke="#EB9B98" stroke-width="0.777" stroke-linecap="round" stroke-linejoin="round"/>
<path d="M26.8075 155.658C26.8075 156.876 26.0628 157.439 25.1498 156.908C24.2369 156.377 23.4922 154.959 23.4922 153.742C23.4922 152.524 24.2369 151.961 25.1498 152.492C26.0628 153.023 26.8075 154.441 26.8075 155.658Z" fill="#EB9B98"/>
<path d="M33.9295 159.77C33.9295 160.987 33.1849 161.55 32.2719 161.019C31.3589 160.488 30.6143 159.07 30.6143 157.853C30.6143 156.636 31.3589 156.072 32.2719 156.603C33.1849 157.134 33.9295 158.552 33.9295 159.77Z" fill="#EB9B98"/>
</g>
<defs>
<clipPath id="clip0_6062_6978">
<rect width="196" height="160" rx="10" fill="white"/>
</clipPath>
</defs>
</svg>
