<svg width="30" height="40" viewBox="0 0 30 40" fill="none" xmlns="http://www.w3.org/2000/svg">
<path d="M17.3834 10.5799C18.0733 11.2641 18.1604 12.3262 17.6421 13.1058C18.1501 13.2781 18.5775 13.6512 18.8122 14.1539C19.1409 14.8579 19.0321 15.6885 18.5333 16.2841L16.0209 19.2841C15.3117 20.1309 14.0503 20.2425 13.2034 19.5333C12.4427 18.8962 12.2753 17.8135 12.7633 16.986C12.0528 16.9015 11.4337 16.4409 11.1538 15.7692C10.8433 15.0239 11.0114 14.165 11.5799 13.5917L14.555 10.5917C15.3328 9.80739 16.5991 9.80212 17.3834 10.5799Z" fill="#1574E5"/>
<path fill-rule="evenodd" clip-rule="evenodd" d="M0 15C0 6.71573 6.71573 0 15 0C23.2843 0 30 6.71573 30 15C30 20.5244 27.0132 25.348 22.5741 27.9497L21.0876 33.8959C20.7784 35.1325 19.6673 36 18.3927 36C18.1166 36 17.8347 36.0255 17.5248 36.0696C18.3748 36.3001 19 37.077 19 38C19 39.1046 18.1046 40 17 40H13C11.8954 40 11 39.1046 11 38C11 37.077 11.6252 36.3001 12.4752 36.0696C12.1653 36.0255 11.8834 36 11.6073 36C10.3327 36 9.22157 35.1325 8.91242 33.8959L7.42587 27.9497C2.98675 25.348 0 20.5244 0 15ZM15 4C8.92487 4 4 8.92487 4 15C4 19.293 6.45886 23.0152 10.0542 24.8286C10.5734 25.0904 10.9529 25.5652 11.0939 26.1293L12.5747 32.0527C13.1961 32.1168 13.7745 32.228 14.2627 32.322L14.3291 32.3347C14.4596 32.3598 14.584 32.3837 14.7075 32.4068C14.8713 32.4373 14.967 32.4439 15 32.4439C15.033 32.4439 15.1287 32.4373 15.2925 32.4068C15.416 32.3837 15.5404 32.3598 15.6709 32.3347L15.7372 32.322C16.2254 32.2281 16.8041 32.1167 17.4253 32.0527L18.9061 26.1293C19.0471 25.5652 19.4266 25.0904 19.9458 24.8286C23.5411 23.0152 26 19.293 26 15C26 8.92487 21.0751 4 15 4Z" fill="#1574E5"/>
</svg>
