<svg width="20" height="21" viewBox="0 0 20 21" fill="none" xmlns="http://www.w3.org/2000/svg">
<path d="M10.9931 6.57498C11.2805 6.86005 11.3168 7.30261 11.1009 7.62743C11.3126 7.69923 11.4906 7.8547 11.5884 8.06415C11.7254 8.35747 11.6801 8.70356 11.4722 8.95174L10.4254 10.2017C10.1299 10.5546 9.60427 10.6011 9.25143 10.3056C8.93446 10.0401 8.86472 9.58897 9.06804 9.24419C8.77198 9.20899 8.51404 9.01705 8.39743 8.73719C8.26804 8.42665 8.33807 8.06877 8.57496 7.82989L9.81459 6.57989C10.1387 6.2531 10.6663 6.2509 10.9931 6.57498Z" fill="white"/>
<path fill-rule="evenodd" clip-rule="evenodd" d="M3.75 8.41669C3.75 4.96491 6.54822 2.16669 10 2.16669C13.4518 2.16669 16.25 4.96491 16.25 8.41669C16.25 10.7185 15.0055 12.7284 13.1559 13.8124L12.5365 16.29C12.4077 16.8052 11.9447 17.1667 11.4136 17.1667C11.2986 17.1667 11.1811 17.1773 11.052 17.1957C11.4062 17.2917 11.6667 17.6155 11.6667 18C11.6667 18.4603 11.2936 18.8334 10.8333 18.8334H9.16667C8.70643 18.8334 8.33333 18.4603 8.33333 18C8.33333 17.6155 8.59383 17.2917 8.94799 17.1957C8.81886 17.1773 8.70143 17.1667 8.58638 17.1667C8.05527 17.1667 7.59232 16.8052 7.46351 16.29L6.84411 13.8124C4.99448 12.7284 3.75 10.7185 3.75 8.41669ZM10 3.83335C7.46869 3.83335 5.41667 5.88538 5.41667 8.41669C5.41667 10.2054 6.44119 11.7564 7.93927 12.5119C8.15557 12.621 8.31369 12.8189 8.37244 13.0539L8.98947 15.522C9.24836 15.5487 9.48938 15.595 9.6928 15.6342L9.72044 15.6395C9.77482 15.6499 9.82666 15.6599 9.87813 15.6695C9.94637 15.6822 9.98623 15.685 10 15.685C10.0138 15.685 10.0536 15.6822 10.1219 15.6695C10.1733 15.6599 10.2252 15.6499 10.2796 15.6395L10.3072 15.6342C10.5106 15.595 10.7517 15.5487 11.0105 15.522L11.6276 13.0539C11.6863 12.8189 11.8444 12.621 12.0607 12.5119C13.5588 11.7564 14.5833 10.2054 14.5833 8.41669C14.5833 5.88538 12.5313 3.83335 10 3.83335Z" fill="white"/>
</svg>
