<svg width="16" height="16" viewBox="0 0 16 16" fill="none" xmlns="http://www.w3.org/2000/svg">
<rect x="0.5" y="0.5" width="15" height="15" rx="7.5" fill="#667185"/>
<rect x="0.5" y="0.5" width="15" height="15" rx="7.5" stroke="white"/>
<path d="M8.00002 7.33464C7.44774 7.33464 7.00002 7.78235 7.00002 8.33464C7.00002 8.88692 7.44774 9.33464 8.00002 9.33464C8.55231 9.33464 9.00002 8.88692 9.00002 8.33464C9.00002 7.78235 8.55231 7.33464 8.00002 7.33464Z" fill="white"/>
<path fill-rule="evenodd" clip-rule="evenodd" d="M7.41423 5.16797H8.58581C8.85102 5.16797 9.10538 5.27333 9.29291 5.46086L9.52155 5.6895C9.61731 5.78526 9.73152 5.86057 9.85726 5.91087L10.7047 6.24986C11.0844 6.40172 11.3334 6.76943 11.3334 7.17834V9.83464C11.3334 10.3869 10.8856 10.8346 10.3334 10.8346H5.66669C5.1144 10.8346 4.66669 10.3869 4.66669 9.83464V7.17834C4.66669 6.76943 4.91564 6.40172 5.2953 6.24986L6.14278 5.91087C6.26852 5.86057 6.38273 5.78526 6.47849 5.6895L6.70713 5.46086C6.89466 5.27333 7.14902 5.16797 7.41423 5.16797ZM6.33335 8.33464C6.33335 7.41416 7.07955 6.66797 8.00002 6.66797C8.9205 6.66797 9.66669 7.41416 9.66669 8.33464C9.66669 9.25511 8.9205 10.0013 8.00002 10.0013C7.07955 10.0013 6.33335 9.25511 6.33335 8.33464ZM9.28257 7.06541C9.41621 7.10996 9.52107 7.21482 9.56561 7.34845C9.61095 7.48446 9.80332 7.48446 9.84865 7.34845C9.8932 7.21482 9.99806 7.10996 10.1317 7.06541C10.2677 7.02008 10.2677 6.8277 10.1317 6.78237C9.99806 6.73783 9.8932 6.63296 9.84865 6.49933C9.80332 6.36333 9.61095 6.36333 9.56561 6.49933C9.52107 6.63296 9.41621 6.73783 9.28257 6.78237C9.14657 6.8277 9.14657 7.02008 9.28257 7.06541Z" fill="white"/>
</svg>
