<svg xmlns="http://www.w3.org/2000/svg" width="19" height="19" fill="none"><path fill="#475367" fill-rule="evenodd" d="M14.75 2H4.25A2.25 2.25 0 0 0 2 4.25v7.5A2.25 2.25 0 0 0 4.25 14h4.19l-2.47 2.47a.75.75 0 1 0 1.06 1.06l2.47-2.47 2.47 2.47a.75.75 0 1 0 1.06-1.06L10.56 14h4.19A2.25 2.25 0 0 0 17 11.75v-7.5A2.25 2.25 0 0 0 14.75 2M4.47 11.28a.75.75 0 0 1 0-1.06l3-3a.75.75 0 0 1 1.004-.05l.956.78 2.52-2.71a.75.75 0 0 1 1.097-.003l1.5 1.6a.75.75 0 0 1-1.094 1.026l-.95-1.014-2.454 2.637a.75.75 0 0 1-1.023.07L8.05 8.76l-2.52 2.52a.75.75 0 0 1-1.061 0" clip-rule="evenodd"/></svg>