<svg width="20" height="21" viewBox="0 0 20 21" fill="none" xmlns="http://www.w3.org/2000/svg">
<path d="M10.0003 7.58268C10.0003 7.12245 9.62723 6.74935 9.16699 6.74935C8.70675 6.74935 8.33366 7.12245 8.33366 7.58268V11.7493C8.33366 12.2096 8.70675 12.5827 9.16699 12.5827H11.667C12.1272 12.5827 12.5003 12.2096 12.5003 11.7493C12.5003 11.2891 12.1272 10.916 11.667 10.916H10.0003V7.58268Z" fill="#98A2B3"/>
<path fill-rule="evenodd" clip-rule="evenodd" d="M10.0003 2.16602C5.39795 2.16602 1.66699 5.89698 1.66699 10.4993C1.66699 15.1017 5.39795 18.8327 10.0003 18.8327C14.6027 18.8327 18.3337 15.1017 18.3337 10.4993C18.3337 5.89698 14.6027 2.16602 10.0003 2.16602ZM3.33366 10.4993C3.33366 6.81745 6.31843 3.83268 10.0003 3.83268C13.6822 3.83268 16.667 6.81745 16.667 10.4993C16.667 14.1812 13.6822 17.166 10.0003 17.166C6.31843 17.166 3.33366 14.1812 3.33366 10.4993Z" fill="#98A2B3"/>
</svg>
