<svg width="143" height="121" viewBox="0 0 143 121" fill="none" xmlns="http://www.w3.org/2000/svg">
<path d="M325.538 141.314C325.538 142.083 325.075 142.815 324.126 143.368L320.31 145.563L237.531 193.361L209.584 209.492C209.502 209.537 209.427 209.582 209.345 209.612C209.345 209.612 209.33 209.612 209.323 209.619C208.86 209.851 208.344 210.023 207.784 210.135C207.642 210.165 207.501 210.187 207.359 210.209C207.217 210.232 207.067 210.247 206.918 210.262C206.627 210.292 206.32 210.306 206.022 210.306C205.716 210.306 205.409 210.292 205.103 210.262C204.961 210.254 204.819 210.232 204.678 210.217C204.618 210.209 204.566 210.202 204.513 210.187C204.282 210.157 204.05 210.12 203.826 210.067C203.781 210.06 203.744 210.052 203.699 210.038C203.587 210.008 203.475 209.985 203.363 209.955C203.318 209.948 203.281 209.933 203.244 209.918C203.109 209.888 202.982 209.851 202.855 209.799C202.713 209.754 202.564 209.701 202.43 209.649C202.064 209.507 201.705 209.336 201.376 209.149L-1.48636 92.0226L-4.71274 90.163C-4.79489 90.1107 -4.86963 90.0659 -4.95925 90.0136C-5.05634 89.9539 -5.14586 89.8941 -5.23548 89.8269C-5.50435 89.6328 -5.73581 89.4236 -5.92999 89.222C-6.04202 89.1174 -6.12426 89.0054 -6.21388 88.8859C-6.55743 88.4229 -6.72168 87.9523 -6.72168 87.4818C-6.72168 86.7125 -6.25125 85.9806 -5.30277 85.428L22.6365 69.2964L109.225 19.3033C111.331 18.086 115.005 18.2428 117.432 19.6394L323.514 138.625C324.844 139.394 325.523 140.38 325.523 141.306L325.538 141.314Z" fill="#F0E6E6"/>
<path d="M325.538 113.868C325.538 114.638 325.075 115.37 324.126 115.922L320.31 118.118L237.531 165.915L209.584 182.047C209.502 182.092 209.427 182.137 209.345 182.166C209.345 182.166 209.33 182.166 209.323 182.174C208.86 182.405 208.344 182.577 207.784 182.689C207.642 182.719 207.501 182.742 207.359 182.764C207.217 182.786 207.067 182.801 206.918 182.816C206.627 182.846 206.32 182.861 206.022 182.861C205.716 182.861 205.409 182.846 205.103 182.816C204.961 182.809 204.819 182.786 204.678 182.771C204.618 182.764 204.566 182.757 204.513 182.742C204.282 182.712 204.05 182.674 203.826 182.622C203.781 182.615 203.744 182.607 203.699 182.592C203.587 182.562 203.475 182.54 203.363 182.51C203.318 182.503 203.281 182.488 203.244 182.473C203.109 182.443 202.982 182.405 202.855 182.353C202.713 182.308 202.564 182.256 202.43 182.204C202.064 182.062 201.705 181.89 201.376 181.704L-1.48636 64.5773L-4.71274 62.7177C-4.79489 62.6654 -4.86963 62.6206 -4.95925 62.5683C-5.05634 62.5086 -5.14586 62.4488 -5.23548 62.3816C-5.50435 62.1874 -5.73581 61.9783 -5.92999 61.7766C-6.04202 61.6721 -6.12426 61.5601 -6.21388 61.4406C-6.55743 60.9776 -6.72168 60.507 -6.72168 60.0365C-6.72168 59.2672 -6.25125 58.5353 -5.30277 57.9827L22.6365 41.8511L109.225 -8.14199C111.331 -9.35933 115.005 -9.20253 117.432 -7.80595L323.514 111.18C324.844 111.949 325.523 112.935 325.523 113.861L325.538 113.868Z" fill="white" stroke="#CDC4C4" stroke-width="0.896203" stroke-linecap="round" stroke-linejoin="round"/>
<path d="M237.531 165.908L209.591 182.04C209.502 182.092 209.412 182.137 209.33 182.174C207.5 183.1 204.677 183.078 202.437 182.212C202.071 182.062 201.72 181.898 201.391 181.704L-1.47171 64.5852L-4.69809 62.7256C-4.78024 62.6733 -4.86244 62.6285 -4.93713 62.5762C-5.32548 62.3373 -5.65395 62.0609 -5.91534 61.7846C-6.0199 61.6725 -6.10961 61.568 -6.19923 61.4485C-6.53531 60.9855 -6.70703 60.5074 -6.70703 60.0369C-6.70703 59.2677 -6.2366 58.5358 -5.28812 57.9831L22.6511 41.8516L30.2688 46.2503L237.531 165.908Z" fill="#FBF1F1" stroke="#CDC4C4" stroke-width="0.896203" stroke-linecap="round" stroke-linejoin="round"/>
<path d="M11.5686 58.2361C12.4946 58.7663 12.5918 59.5729 11.7926 60.0359C10.9935 60.4989 9.59681 60.4392 8.67074 59.909C7.74466 59.3787 7.64772 58.5722 8.44683 58.1092C9.24595 57.6462 10.6425 57.7058 11.5686 58.2361Z" fill="#CDC4C4"/>
<path d="M16.8333 55.1385C17.7594 55.6688 17.8565 56.4753 17.0574 56.9383C16.2583 57.4014 14.8616 57.3417 13.9355 56.8114C13.0094 56.2812 12.9123 55.4745 13.7114 55.0115C14.5105 54.5484 15.9072 54.6083 16.8333 55.1385Z" fill="#CDC4C4"/>
<path d="M22.264 51.9412C23.19 52.4714 23.287 53.2779 22.4879 53.741C21.6888 54.204 20.2922 54.1443 19.3662 53.6141C18.4401 53.0838 18.343 52.2773 19.1421 51.8143C19.9412 51.3512 21.3379 51.4109 22.264 51.9412Z" fill="#CDC4C4"/>
<path d="M237.531 165.907V175.653L209.584 191.785C209.502 191.837 209.405 191.882 209.323 191.919C207.493 192.837 204.67 192.815 202.43 191.949C202.064 191.807 201.705 191.635 201.376 191.448L-4.70526 72.4626C-6.0421 71.6934 -6.72168 70.7075 -6.72168 69.7814V60.0352C-6.72168 60.5057 -6.55743 60.9837 -6.21388 61.4393C-6.13173 61.5588 -6.04202 61.6708 -5.92999 61.7753C-5.73581 61.9845 -5.50435 62.1861 -5.23548 62.3803C-5.14586 62.4475 -5.05634 62.5073 -4.95925 62.567C-4.8771 62.6193 -4.79489 62.6641 -4.71274 62.7164L-1.48636 64.576L201.376 181.702C201.705 181.889 202.064 182.061 202.43 182.203C202.572 182.255 202.713 182.307 202.855 182.352C202.982 182.397 203.109 182.434 203.244 182.471C203.281 182.486 203.318 182.501 203.363 182.509C203.475 182.539 203.587 182.569 203.699 182.591C203.744 182.598 203.781 182.606 203.826 182.621C204.05 182.673 204.282 182.718 204.513 182.74C204.566 182.748 204.618 182.755 204.678 182.77C204.819 182.785 204.954 182.8 205.103 182.815C205.409 182.845 205.716 182.86 206.022 182.86C206.328 182.86 206.627 182.845 206.918 182.815C207.067 182.8 207.209 182.785 207.359 182.763C207.501 182.74 207.642 182.718 207.784 182.688C208.337 182.576 208.867 182.404 209.323 182.173C209.323 182.173 209.338 182.173 209.345 182.165C209.427 182.135 209.502 182.091 209.584 182.046L237.531 165.914V165.907Z" fill="#F0E6E6" stroke="#CDC4C4" stroke-width="0.896203" stroke-linecap="round" stroke-linejoin="round"/>
<path d="M35.4521 72.7031L44.3394 67.5723" stroke="#CDC4C4" stroke-width="0.896203" stroke-miterlimit="10" stroke-linecap="round"/>
<path d="M45.6982 45.4125L58.3049 38.1309" stroke="#CDC4C4" stroke-width="0.896203" stroke-miterlimit="10" stroke-linecap="round"/>
<path d="M75.6094 38.4162L89.62 30.3281" stroke="#CDC4C4" stroke-width="0.896203" stroke-miterlimit="10" stroke-linecap="round"/>
<path d="M84.3916 43.6208L91.9644 39.252" stroke="#CDC4C4" stroke-width="0.896203" stroke-miterlimit="10" stroke-linecap="round"/>
<path d="M102.293 53.838L113.159 47.5645" stroke="#CDC4C4" stroke-width="0.896203" stroke-miterlimit="10" stroke-linecap="round"/>
<path d="M120.099 64.1073L139.188 53.084" stroke="#CDC4C4" stroke-width="0.896203" stroke-miterlimit="10" stroke-linecap="round"/>
<path d="M128.821 69.1416L135.461 65.3027" stroke="#CDC4C4" stroke-width="0.896203" stroke-miterlimit="10" stroke-linecap="round"/>
<path d="M116.879 86.512L149.105 67.9082" stroke="#CDC4C4" stroke-width="0.896203" stroke-miterlimit="10" stroke-linecap="round"/>
<path d="M139.321 63.0757L162.899 49.4609" stroke="#CDC4C4" stroke-width="0.896203" stroke-miterlimit="10" stroke-linecap="round"/>
<path d="M143.362 50.6715L171.936 34.1738" stroke="#CDC4C4" stroke-width="0.896203" stroke-miterlimit="10" stroke-linecap="round"/>
<path d="M111.226 58.9536L144.101 39.9766" stroke="#CDC4C4" stroke-width="0.896203" stroke-miterlimit="10" stroke-linecap="round"/>
<path d="M117.26 45.1967L147.23 27.8926" stroke="#CDC4C4" stroke-width="0.896203" stroke-miterlimit="10" stroke-linecap="round"/>
<path d="M93.3467 48.7292L115.184 36.1152" stroke="#CDC4C4" stroke-width="0.896203" stroke-miterlimit="10" stroke-linecap="round"/>
<path d="M119.329 33.7246L145.244 18.7656" stroke="#CDC4C4" stroke-width="0.896203" stroke-miterlimit="10" stroke-linecap="round"/>
<path d="M96.042 36.8986L129.351 17.6602" stroke="#CDC4C4" stroke-width="0.896203" stroke-miterlimit="10" stroke-linecap="round"/>
<path d="M93.8691 27.8772L113.399 16.6074" stroke="#CDC4C4" stroke-width="0.896203" stroke-miterlimit="10" stroke-linecap="round"/>
<path d="M62.5693 35.6747L97.4764 15.5176" stroke="#CDC4C4" stroke-width="0.896203" stroke-miterlimit="10" stroke-linecap="round"/>
<path d="M43.5176 77.3629L52.4048 72.2246" stroke="#CDC4C4" stroke-width="0.896203" stroke-miterlimit="10" stroke-linecap="round"/>
<path d="M51.584 82.0156L60.4713 76.8848" stroke="#CDC4C4" stroke-width="0.896203" stroke-miterlimit="10" stroke-linecap="round"/>
<path d="M59.6416 86.668L68.5365 81.5371" stroke="#CDC4C4" stroke-width="0.896203" stroke-miterlimit="10" stroke-linecap="round"/>
<path d="M83.8389 100.641L92.7261 95.5098" stroke="#CDC4C4" stroke-width="0.896203" stroke-miterlimit="10" stroke-linecap="round"/>
<path d="M91.9053 105.295L100.793 100.164" stroke="#CDC4C4" stroke-width="0.896203" stroke-miterlimit="10" stroke-linecap="round"/>
<path d="M99.9707 109.955L108.858 104.824" stroke="#CDC4C4" stroke-width="0.896203" stroke-miterlimit="10" stroke-linecap="round"/>
<path d="M108.037 114.607L116.925 109.477" stroke="#CDC4C4" stroke-width="0.896203" stroke-miterlimit="10" stroke-linecap="round"/>
<path d="M116.096 119.267L124.99 114.129" stroke="#CDC4C4" stroke-width="0.896203" stroke-miterlimit="10" stroke-linecap="round"/>
<path d="M124.161 123.92L133.048 118.789" stroke="#CDC4C4" stroke-width="0.896203" stroke-miterlimit="10" stroke-linecap="round"/>
</svg>
