<svg width="196" height="160" viewBox="0 0 196 160" fill="none" xmlns="http://www.w3.org/2000/svg">
<path d="M435.89 189.219C435.89 190.249 435.27 191.229 434 191.969L428.89 194.909L318.05 258.909L280.63 280.509C280.52 280.569 280.42 280.629 280.31 280.669C280.31 280.669 280.29 280.669 280.28 280.679C279.66 280.989 278.97 281.219 278.22 281.369C278.03 281.409 277.84 281.439 277.65 281.469C277.46 281.499 277.26 281.519 277.06 281.539C276.67 281.579 276.26 281.599 275.86 281.599C275.45 281.599 275.04 281.579 274.63 281.539C274.44 281.529 274.25 281.499 274.06 281.479C273.98 281.469 273.91 281.459 273.84 281.439C273.53 281.399 273.22 281.349 272.92 281.279C272.86 281.269 272.81 281.259 272.75 281.239C272.6 281.199 272.45 281.169 272.3 281.129C272.24 281.119 272.19 281.099 272.14 281.079C271.96 281.039 271.79 280.989 271.62 280.919C271.43 280.859 271.23 280.789 271.05 280.719C270.56 280.529 270.08 280.299 269.64 280.049L-1.98999 123.219L-6.31006 120.729C-6.42006 120.659 -6.52014 120.599 -6.64014 120.529C-6.77014 120.449 -6.89001 120.369 -7.01001 120.279C-7.37001 120.019 -7.67994 119.739 -7.93994 119.469C-8.08994 119.329 -8.20007 119.179 -8.32007 119.019C-8.78007 118.399 -9 117.769 -9 117.139C-9 116.109 -8.3701 115.129 -7.1001 114.389L30.3101 92.7891L146.25 25.8492C149.07 24.2192 153.99 24.4291 157.24 26.2991L433.18 185.619C434.96 186.649 435.87 187.969 435.87 189.209L435.89 189.219Z" fill="#F0E6E6"/>
<path d="M435.89 152.469C435.89 153.499 435.27 154.479 434 155.219L428.89 158.159L318.05 222.159L280.63 243.759C280.52 243.819 280.42 243.879 280.31 243.919C280.31 243.919 280.29 243.919 280.28 243.929C279.66 244.239 278.97 244.469 278.22 244.619C278.03 244.659 277.84 244.689 277.65 244.719C277.46 244.749 277.26 244.769 277.06 244.789C276.67 244.829 276.26 244.849 275.86 244.849C275.45 244.849 275.04 244.829 274.63 244.789C274.44 244.779 274.25 244.749 274.06 244.729C273.98 244.719 273.91 244.709 273.84 244.689C273.53 244.649 273.22 244.599 272.92 244.529C272.86 244.519 272.81 244.509 272.75 244.489C272.6 244.449 272.45 244.419 272.3 244.379C272.24 244.369 272.19 244.349 272.14 244.329C271.96 244.289 271.79 244.239 271.62 244.169C271.43 244.109 271.23 244.039 271.05 243.969C270.56 243.779 270.08 243.549 269.64 243.299L-1.98999 86.469L-6.31006 83.979C-6.42006 83.909 -6.52014 83.8491 -6.64014 83.7791C-6.77014 83.6991 -6.89001 83.6191 -7.01001 83.5291C-7.37001 83.2691 -7.67994 82.989 -7.93994 82.719C-8.08994 82.579 -8.20007 82.4291 -8.32007 82.2691C-8.78007 81.6491 -9 81.019 -9 80.389C-9 79.359 -8.3701 78.379 -7.1001 77.639L30.3101 56.0391L146.25 -10.9008C149.07 -12.5308 153.99 -12.3209 157.24 -10.4509L433.18 148.869C434.96 149.899 435.87 151.219 435.87 152.459L435.89 152.469Z" fill="white" stroke="#CDC4C4" stroke-width="1.2" stroke-linecap="round" stroke-linejoin="round"/>
<path d="M318.05 222.149L280.639 243.749C280.519 243.819 280.4 243.879 280.29 243.929C277.84 245.169 274.06 245.139 271.06 243.979C270.57 243.779 270.099 243.559 269.659 243.299L-1.97046 86.479L-6.29053 83.989C-6.40053 83.919 -6.5106 83.8591 -6.6106 83.7891C-7.1306 83.4691 -7.57041 83.099 -7.92041 82.729C-8.06041 82.579 -8.18054 82.4391 -8.30054 82.2791C-8.75054 81.6591 -8.98047 81.0189 -8.98047 80.3889C-8.98047 79.3589 -8.35057 78.3789 -7.08057 77.6389L30.3296 56.0391L40.5295 61.929L318.05 222.149Z" fill="#FBF1F1" stroke="#CDC4C4" stroke-width="1.2" stroke-linecap="round" stroke-linejoin="round"/>
<path d="M15.4897 77.9787C16.7297 78.6887 16.8597 79.7686 15.7897 80.3886C14.7197 81.0086 12.8496 80.9287 11.6096 80.2187C10.3696 79.5087 10.2398 78.4288 11.3098 77.8088C12.3798 77.1888 14.2497 77.2687 15.4897 77.9787Z" fill="#CDC4C4"/>
<path d="M22.5396 73.8285C23.7796 74.5385 23.9097 75.6184 22.8397 76.2384C21.7697 76.8584 19.8995 76.7785 18.6595 76.0685C17.4195 75.3585 17.2895 74.2783 18.3595 73.6583C19.4295 73.0383 21.2996 73.1185 22.5396 73.8285Z" fill="#CDC4C4"/>
<path d="M29.8101 69.549C31.0501 70.259 31.18 71.339 30.11 71.959C29.04 72.579 27.17 72.499 25.93 71.789C24.69 71.079 24.56 69.9991 25.63 69.3791C26.7 68.7591 28.5701 68.839 29.8101 69.549Z" fill="#CDC4C4"/>
<path d="M318.05 222.149V235.199L280.63 256.799C280.52 256.869 280.39 256.929 280.28 256.979C277.83 258.209 274.05 258.179 271.05 257.019C270.56 256.829 270.08 256.599 269.64 256.349L-6.30005 97.0288C-8.09005 95.9988 -9 94.6787 -9 93.4387V80.3887C-9 81.0187 -8.78007 81.6588 -8.32007 82.2688C-8.21007 82.4288 -8.08994 82.5787 -7.93994 82.7188C-7.67994 82.9987 -7.37001 83.2688 -7.01001 83.5288C-6.89001 83.6188 -6.77014 83.6988 -6.64014 83.7788C-6.53014 83.8488 -6.42006 83.9088 -6.31006 83.9788L-1.98999 86.4688L269.64 243.299C270.08 243.549 270.56 243.779 271.05 243.969C271.24 244.039 271.43 244.109 271.62 244.169C271.79 244.229 271.96 244.279 272.14 244.329C272.19 244.349 272.24 244.369 272.3 244.379C272.45 244.419 272.6 244.459 272.75 244.489C272.81 244.499 272.86 244.509 272.92 244.529C273.22 244.599 273.53 244.659 273.84 244.689C273.91 244.699 273.98 244.709 274.06 244.729C274.25 244.749 274.43 244.769 274.63 244.789C275.04 244.829 275.45 244.849 275.86 244.849C276.27 244.849 276.67 244.829 277.06 244.789C277.26 244.769 277.45 244.749 277.65 244.719C277.84 244.689 278.03 244.659 278.22 244.619C278.96 244.469 279.67 244.239 280.28 243.929C280.28 243.929 280.3 243.929 280.31 243.919C280.42 243.879 280.52 243.819 280.63 243.759L318.05 222.159V222.149Z" fill="#F0E6E6" stroke="#CDC4C4" stroke-width="1.2" stroke-linecap="round" stroke-linejoin="round"/>
<path d="M47.4697 97.3486L59.3696 90.4785" stroke="#CDC4C4" stroke-width="1.2" stroke-miterlimit="10" stroke-linecap="round"/>
<path d="M61.1895 60.8086L78.0696 51.0586" stroke="#CDC4C4" stroke-width="1.2" stroke-miterlimit="10" stroke-linecap="round"/>
<path d="M101.24 51.4392L120 40.6094" stroke="#CDC4C4" stroke-width="1.2" stroke-miterlimit="10" stroke-linecap="round"/>
<path d="M113 58.4084L123.14 52.5586" stroke="#CDC4C4" stroke-width="1.2" stroke-miterlimit="10" stroke-linecap="round"/>
<path d="M136.97 72.0896L151.52 63.6895" stroke="#CDC4C4" stroke-width="1.2" stroke-miterlimit="10" stroke-linecap="round"/>
<path d="M160.811 85.8381L186.37 71.0781" stroke="#CDC4C4" stroke-width="1.2" stroke-miterlimit="10" stroke-linecap="round"/>
<path d="M172.49 92.5796L181.38 87.4395" stroke="#CDC4C4" stroke-width="1.2" stroke-miterlimit="10" stroke-linecap="round"/>
<path d="M192.24 136.469L203.5 129.979" stroke="#CDC4C4" stroke-width="1.2" stroke-miterlimit="10" stroke-linecap="round"/>
<path d="M196.5 106.499L225.68 89.6484" stroke="#CDC4C4" stroke-width="1.2" stroke-miterlimit="10" stroke-linecap="round"/>
<path d="M156.5 115.84L199.65 90.9297" stroke="#CDC4C4" stroke-width="1.2" stroke-miterlimit="10" stroke-linecap="round"/>
<path d="M186.55 84.4585L218.12 66.2285" stroke="#CDC4C4" stroke-width="1.2" stroke-miterlimit="10" stroke-linecap="round"/>
<path d="M191.96 67.8499L230.22 45.7598" stroke="#CDC4C4" stroke-width="1.2" stroke-miterlimit="10" stroke-linecap="round"/>
<path d="M148.93 78.9392L192.95 53.5293" stroke="#CDC4C4" stroke-width="1.2" stroke-miterlimit="10" stroke-linecap="round"/>
<path d="M157.01 60.5195L197.14 37.3496" stroke="#CDC4C4" stroke-width="1.2" stroke-miterlimit="10" stroke-linecap="round"/>
<path d="M124.99 65.2493L154.23 48.3594" stroke="#CDC4C4" stroke-width="1.2" stroke-miterlimit="10" stroke-linecap="round"/>
<path d="M159.78 45.1587L194.48 25.1289" stroke="#CDC4C4" stroke-width="1.2" stroke-miterlimit="10" stroke-linecap="round"/>
<path d="M128.6 49.4084L173.199 23.6484" stroke="#CDC4C4" stroke-width="1.2" stroke-miterlimit="10" stroke-linecap="round"/>
<path d="M125.689 37.3284L151.84 22.2383" stroke="#CDC4C4" stroke-width="1.2" stroke-miterlimit="10" stroke-linecap="round"/>
<path d="M83.7803 47.7693L130.52 20.7793" stroke="#CDC4C4" stroke-width="1.2" stroke-miterlimit="10" stroke-linecap="round"/>
<path d="M58.2695 103.589L70.1694 96.709" stroke="#CDC4C4" stroke-width="1.2" stroke-miterlimit="10" stroke-linecap="round"/>
<path d="M69.0703 109.819L80.9702 102.949" stroke="#CDC4C4" stroke-width="1.2" stroke-miterlimit="10" stroke-linecap="round"/>
<path d="M79.8594 116.05L91.7695 109.18" stroke="#CDC4C4" stroke-width="1.2" stroke-miterlimit="10" stroke-linecap="round"/>
<path d="M112.26 134.759L124.16 127.889" stroke="#CDC4C4" stroke-width="1.2" stroke-miterlimit="10" stroke-linecap="round"/>
<path d="M123.061 140.989L134.96 134.119" stroke="#CDC4C4" stroke-width="1.2" stroke-miterlimit="10" stroke-linecap="round"/>
<path d="M133.859 147.229L145.76 140.359" stroke="#CDC4C4" stroke-width="1.2" stroke-miterlimit="10" stroke-linecap="round"/>
<path d="M144.66 153.46L156.56 146.59" stroke="#CDC4C4" stroke-width="1.2" stroke-miterlimit="10" stroke-linecap="round"/>
<path d="M155.45 159.698L167.36 152.818" stroke="#CDC4C4" stroke-width="1.2" stroke-miterlimit="10" stroke-linecap="round"/>
<path d="M166.25 165.928L178.15 159.059" stroke="#CDC4C4" stroke-width="1.2" stroke-miterlimit="10" stroke-linecap="round"/>
</svg>
