<svg xmlns="http://www.w3.org/2000/svg" width="76" height="76" fill="none"><path fill="#fff" d="M66.909 46.212c-3.848-2.169-8.875-4.512-11.256-8.432-2.234-3.678 2.318-7.26 4.825-9.252.373-.296.07-.996-.394-.951-3.014.29-6.638.41-8.842-2.033-2.404-2.664-1.307-7.512-.605-10.572.16-.699-.826-.958-1.063-.293-1.3 3.64-2.841 8.055-5.865 10.654-4.378 3.766-6.705-8.127-7.167-10.252-.108-.501-.954-.531-1.039 0-.536 3.37-.928 7.897-3.495 10.437-2.674 2.648-7.68-.148-10.274-1.503-.196-.183-.439-.127-.595.035-.212.183-.282.532-.029.732 1.9 2.369 4.707 6.322.538 7.89-3.19 1.2-7.101.895-10.444.84-.675-.01-.704.879-.149 1.099 2.651 1.056 5.22 2.393 7.29 4.385 3.01 2.903 1.361 5.919-1.615 8-.546.382-.204 1.163.442 1.05 2.988-.523 5.982-.098 6.375 3.414.432 3.896-1.606 8.227-3.166 11.652-.311.685.541 1.161.99.58 2.915-3.775 6.173-8.456 10.5-10.751 3.561-1.89 4.292 3.057 4.558 5.483.07.622.926.804 1.126.152.804-2.63 1.706-5.527 3.81-7.427 2.664-2.404 6.456.447 8.576 2.177.455.37 1.047.023.95-.554-.375-2.27-.84-5.342 1.535-6.68 1.407-.791 3.287-.686 4.837-.599 3.115.177 6.206.968 9.211 1.75.614.16 1-.713.435-1.03m-15.289-.968c-2.241 1.258-2.318 3.996-2.04 6.358-2.164-1.639-4.965-3.269-7.574-2.144-2.546 1.099-3.88 3.825-4.8 6.46-.492-2.38-1.56-4.861-4.222-4.53-1.897.236-3.552 1.71-4.915 2.927-1.788 1.596-3.394 3.405-4.916 5.278 1.189-3.047 2.04-6.333 1.337-9.404-.639-2.784-3.137-3.512-5.607-3.448 1.928-1.78 3.036-4.002 1.673-6.735-1.206-2.418-3.856-4.082-6.452-5.298 3.325.07 7.075-.056 9.57-1.914 2.413-1.794 1.03-4.728-.516-6.935 2.844 1.4 6.274 2.64 9.002.884 2.545-1.638 3.427-5.34 3.95-8.549.975 4.113 2.958 10.18 7.027 8.737 1.812-.644 3.054-2.6 4-4.152a30 30 0 0 0 1.61-3.06c-.133 2.206.156 4.4 1.408 6.22 1.787 2.594 5.215 2.992 8.228 2.87-2.613 2.212-5.355 5.189-4.082 8.719.661 1.836 2.303 3.244 3.776 4.421 1.443 1.153 2.998 2.166 4.589 3.121-3.742-.913-7.981-1.547-11.046.174"/><path fill="#fff" d="M57.765 38.531c-.992-1.089-1.267-2.35-1.856-3.642-.012-.025-.045-.01-.048.013-.2 2.519 2.358 5.315 4.493 6.303a.088.088 0 0 0 .105-.137c-.785-.946-1.862-1.623-2.694-2.537m3.607 3.444c.217.15.398.288.666.292a.055.055 0 0 0 .048-.083c-.124-.21-.297-.29-.503-.416-.206-.127-.382-.26-.575-.387-.078-.052-.165.047-.123.123.117.21.293.335.487.47m-43.209-1.468c.377.502.41 1.055.498 1.65a.06.06 0 0 0 .043.043.06.06 0 0 0 .06-.015c1.446-1.868-3.354-4.711-4.696-5.078a.04.04 0 0 0-.025.002.044.044 0 0 0-.024.063c.517.766 1.655 1.239 2.403 1.752.647.445 1.267.952 1.74 1.583m15.283-20.003c.011-.11-.14-.11-.177-.024-.648 1.606-1.289 3.218-2.772 4.232-1.415.968-2.799.422-4.241-.062a.04.04 0 0 0-.058.047.04.04 0 0 0 .019.024c3.058 3.185 6.91-1.108 7.229-4.217m.214-.756c.388-.316.399-1.039.432-1.497.004-.056-.074-.07-.1-.028-.137.214-.235.45-.29.698-.055.254-.148.532-.122.794a.048.048 0 0 0 .08.033m.521 34.321c-1.619-.563-3.243.63-4.47 1.562-1.534 1.166-3.186 2.647-4.28 4.245-.027.04.026.088.064.064 3.07-1.876 4.786-5.222 8.667-5.73a.07.07 0 0 0 .08-.06.07.07 0 0 0-.061-.08m-9.067 6.288c-.113.026-.14.005-.236.088-.123.107-.222.282-.317.41-.17.236-.422.515-.441.818a.066.066 0 0 0 .053.063q.015.003.03 0c.249-.099.392-.37.532-.584q.134-.21.281-.408c.047-.065.09-.116.13-.185.034-.055 0-.103.011-.162a.03.03 0 0 0 0-.018.03.03 0 0 0-.025-.023.03.03 0 0 0-.018.001m18.857-9.329c-1.568.164-3.691 1.958-3.945 3.558-.011.07.08.152.141.08.503-.614.906-1.274 1.485-1.83.712-.682 1.584-1.067 2.367-1.64.063-.047.052-.177-.047-.168m11.145-4.596c-1.633.109-3.974 2.143-3.5 3.949a.055.055 0 0 0 .099.013c.454-.761.662-1.525 1.279-2.202.616-.676 1.487-1.035 2.176-1.63a.077.077 0 0 0-.054-.13m1.503-19.956a.058.058 0 0 0 0-.111c-1.051-.236-2.122-.403-3.1-.876-1.118-.541-1.72-1.403-2.31-2.443a.04.04 0 0 0-.045-.019.04.04 0 0 0-.03.039c.178 2.408 3.378 3.853 5.485 3.41m-10.478-6.113a.072.072 0 0 0-.093-.094.07.07 0 0 0-.04.039c-1.195 1.81-1.965 4.56-4.516 4.725a.025.025 0 0 0-.006.05c2.413.818 4.137-2.957 4.655-4.72M21.824 31.39a.062.062 0 0 0 .045.09q.021.003.039-.006c1.1-.69 1.6-2.294.733-3.392-.03-.038-.094-.006-.093.038.014.591.233 1.108.103 1.71-.122.564-.546 1.068-.827 1.56m.359 22.426c.638-1.375.664-4.157-1.196-4.655a.04.04 0 0 0-.044.02.04.04 0 0 0 .005.047c.506.618.94 1.099 1.126 1.904.192.835.051 1.775-.064 2.611-.012.095.124.178.173.073m30.584-19.571a1 1 0 0 0 .056-.177.3.3 0 0 1 .01-.075q.033-.119.04-.242l.023-.206a.3.3 0 0 0-.003-.132.02.02 0 0 1 .01-.014c.01-.006.011-.04.005-.074a2.5 2.5 0 0 1-.01-.395c0-.03-.008-.06-.018-.066q-.017-.009-.008-.018a.5.5 0 0 0-.045-.201l-.001-.012a.03.03 0 0 1 .013-.02c.023-.014.01-.088-.033-.188a.1.1 0 0 1-.004-.03.4.4 0 0 0-.036-.092 1 1 0 0 1-.052-.123 1 1 0 0 0-.075-.15l-.132-.223c-.078-.135-.125-.185-.123-.131 0 .024 0 .024-.02 0-.022-.025-.015-.038 0-.047.013-.01.013-.024-.008-.043a2 2 0 0 1-.102-.105 3.8 3.8 0 0 0-.686-.569l-.194-.131a5 5 0 0 0-1.365-.71l-.231-.078-.026-.086a2 2 0 0 1-.041-.198.6.6 0 0 0-.035-.153.04.04 0 0 1 .006-.02.05.05 0 0 0 0-.05.06.06 0 0 1-.013-.046.2.2 0 0 0-.023-.079.3.3 0 0 1-.02-.14c.01-.084.006-.108-.02-.091l-.005.003a.02.02 0 0 1-.018-.007c-.006-.008 0-.022.011-.03a.03.03 0 0 0 .011-.028l-.005-.01a.2.2 0 0 1-.016-.07c0-.027-.01-.055-.02-.059q-.016-.007.01-.016c.018-.005.024-.013.01-.025a.1.1 0 0 1-.007-.083.14.14 0 0 0-.01-.1.1.1 0 0 1-.018-.07.1.1 0 0 0-.008-.065c-.01-.012-.01-.026 0-.03.01-.005.007-.032 0-.059a1 1 0 0 1-.015-.163.4.4 0 0 0-.018-.137c-.024-.034-.038-.125-.02-.137a.2.2 0 0 0-.017-.152.25.25 0 0 1-.012-.122.5.5 0 0 0-.013-.16c-.027-.067-.042-.146-.03-.155.014-.01 0-.016-.003-.026a.2.2 0 0 1-.009-.08c.004-.05 0-.063-.036-.08-.037-.018-.043-.033-.049-.082a.3.3 0 0 0-.023-.083l-.006-.008a.02.02 0 0 1 0-.019l.006-.008c.04-.028.042-.064.005-.083a.1.1 0 0 1-.048-.066c-.01-.04-.021-.048-.088-.058s-.084-.007-.153.047l-.077.06.04.099q.041.097.067.198l.045.159a.7.7 0 0 1 .022.144c0 .048.007.111.012.145a1 1 0 0 1 .005.093 1.8 1.8 0 0 0 .016.469l-.004.012a1 1 0 0 0 .01.246s.004.016 0 .042a1 1 0 0 0 0 .122q.021.154.023.31a.1.1 0 0 0 .007.053q.015.048.013.096a.3.3 0 0 0 .02.108.4.4 0 0 1 .027.13c.004.055.015.16.023.234a.4.4 0 0 1 0 .14c-.016.011-.26-.1-.511-.231l-.3-.156a2 2 0 0 1-.201-.126l-.12-.087a.4.4 0 0 1-.058-.056 3 3 0 0 0-.118-.13c-.203-.218-.336-.4-.38-.524a.5.5 0 0 0-.052-.107c-.04-.055-.07-.31-.038-.331a.3.3 0 0 0 .029-.103c.02-.146.134-.418.196-.47a.3.3 0 0 0 .07-.089.2.2 0 0 1 .049-.065 1 1 0 0 0 .108-.129c.07-.1.096-.12.297-.255.21-.141.32-.198.384-.195a.5.5 0 0 0 .132-.04c.09-.04.1-.048.107-.087.018-.099-.097-.211-.273-.27a.8.8 0 0 0-.413-.047l-.264.027c-.06.006-.136.012-.167.012a1 1 0 0 0-.174.025 1 1 0 0 1-.145.023c-.035 0-.27.153-.401.265q-.084.075-.154.163-.06.081-.134.15a1.7 1.7 0 0 0-.32.492 1.3 1.3 0 0 0-.134.493c-.02.17.002.344.064.504.146.394.261.568.64.96.25.249.54.451.858.6.056.025.152.07.216.105s.15.07.192.091.108.049.15.07q.273.128.562.224c.07.022.177.057.23.076l.205.076.105.039.023.148a4 4 0 0 0 .056.308.5.5 0 0 0 .023.1q.02.082.03.166.01.114.06.22a.2.2 0 0 1 .033.12q-.017.106.037.115.029.005.01.017a.02.02 0 0 0-.006.026l.005.008q.02.041.024.085 0 .04.02.075c.007.006.008.025 0 .044a.15.15 0 0 0 .028.1.3.3 0 0 1 .04.116.2.2 0 0 0 .03.096q.034.061.044.13.012.077.05.146.062.115.098.24.012.038.032.074.072.134.118.278c0 .011.013.031.033.044.02.014.033.031.03.04s.042.1.217.398l.03.056c0 .006.018.037.034.066.14.259.518.809.558.816a.1.1 0 0 1 .04.035q.026.03.063.043c.041.012.042.012.012-.014q-.029-.025-.016-.037a.3.3 0 0 1 .199.01c.03.043.116.055.21.028a.3.3 0 0 1 .142-.013q.055.007.105-.017a1 1 0 0 1 .168-.047.5.5 0 0 0 .15-.05c.027-.018.056-.027.066-.02q.014.011.182-.102.095-.069.198-.123c.024-.007.052-.052.089-.145zm-.72.063a.4.4 0 0 0-.101.033.34.34 0 0 1-.211.033.07.07 0 0 0-.054-.004c-.01.006-.047-.007-.083-.029a.14.14 0 0 0-.105-.025c-.039.014-.062 0-.044-.023.017-.023-.152-.18-.202-.203a.06.06 0 0 1-.037-.055.5.5 0 0 0-.104-.157c-.122-.146-.179-.233-.176-.27a1 1 0 0 0-.099-.193 2 2 0 0 1-.121-.224c-.1-.282-.135-.348-.186-.357q-.034-.005-.01-.018.019-.015-.005-.03-.022-.014-.004-.029c.024-.016-.049-.195-.094-.23-.024-.02-.026-.03-.009-.051s-.015-.2-.075-.321a.3.3 0 0 1-.032-.097.5.5 0 0 0-.061-.13c-.075-.122-.09-.153-.096-.203a1 1 0 0 0-.04-.132.5.5 0 0 1-.033-.127.1.1 0 0 0-.027-.061q-.028-.025-.014-.037c.01-.008.006-.026-.006-.044a.15.15 0 0 1-.02-.07.3.3 0 0 0-.03-.108c-.041-.087-.07-.24-.052-.254.02-.014.174.074.242.13q.09.064.186.117c.083.048.248.154.366.236.117.083.237.166.267.184q.316.241.576.544a1 1 0 0 0 .14.14c.012 0 .024.029.027.056a.08.08 0 0 0 .033.064q.032.025.042.066a.09.09 0 0 0 .052.07c.073.07.125.159.152.256 0 .02.01.038.017.04a.9.9 0 0 1 .09.274.2.2 0 0 0 .028.09.8.8 0 0 1 .066.282c0 .018.01.087.021.156a1 1 0 0 1 .012.174.13.13 0 0 0 0 .06c.01.015.01.044-.005.232a.4.4 0 0 0 0 .1c.007.012-.04.087-.07.114a.4.4 0 0 1-.111.036zm-.861-.183a.7.7 0 0 1-.096-.145q-.008-.035.047.043.054.074.116.14.06.063.04.067c-.014.003-.059-.043-.107-.103zm-.304-.514c0-.008-.011-.02-.026-.024s-.025-.011-.013-.02q.016-.01.02-.005l.027.023c.014.01.017.023.008.03q-.016.01-.016-.004m-.14-.175c-.089-.148-.114-.211-.094-.223.007-.005.035.032.07.095.034.064.07.12.083.141.025.036.039.1.023.111a.7.7 0 0 1-.083-.123zm-.147-.282c-.004-.015-.004-.029 0-.03q.007-.003.021.017c.008.012.008.026 0 .03-.008.006-.017-.003-.02-.017zm-1.203-4.94q-.017-.01 0-.02a.017.017 0 0 1 .024.005q.01.013.004.018-.008.002-.025-.003zm-1.009 5.071c.012-.008 0-.02.014-.026.035.033.07.066.062.123 0 .019.013.03.023.058a.4.4 0 0 1-.082-.083.2.2 0 0 0-.039-.04.8.8 0 0 1-.166-.187c-.006-.009-.01-.02-.022-.012q-.016.015 0 .03.122.12.228.258c.035.039.07.074.108.113q.058.059.115.128a20 20 0 0 0 .45.488q.053.071.129.12c.011.005.013.019.019.03a.3.3 0 0 0 .077.09.2.2 0 0 1 .053.059 1 1 0 0 0 .07.07c.01.01.023 0 .037.008a.08.08 0 0 0 .02.084q.045.075.113.134a.2.2 0 0 1 .054.062c.01.015.024.024.008.044s.013.028.008.044c-.018.004-.031-.015-.054-.01a.2.2 0 0 1 .045.057v.014l-.004.003-.005.001h-.005l-.005-.004-.035-.044c-.031-.03-.037-.03-.07 0l-.009.007-.006.012c.039.027.054.074.09.106.015.014.013.023 0 .07a.2.2 0 0 0-.076-.023.047.047 0 0 0 .02.07q.032.03.056.067c-.027.032-.027.031-.061.011l-.025-.006c-.01 0-.017-.015-.012-.018.025-.02-.02-.044.007-.06l-.009-.013-.003-.002h-.007l-.003.002a.04.04 0 0 0-.012.018.04.04 0 0 0-.002.021c-.017-.003-.023-.022-.041-.027.006.044.046.063.063.098s.011.07.041.095a.1.1 0 0 1-.06-.034c-.012-.012-.022-.02-.04-.003-.016.016-.03.003-.043-.011a.5.5 0 0 0-.093-.07c.07.075.124.162.2.24-.03.01-.054.028-.063-.013l-.007-.011-.01-.007a.04.04 0 0 1-.033-.037c0-.009-.006-.02-.015-.02s-.03-.019-.044-.007.005.027.011.04l.015.02h.005c.034.015-.007.027 0 .04.007.011.034-.014.04.015 0 .008 0 .014-.011.014a.05.05 0 0 1-.044-.012.04.04 0 0 0-.043-.02c.01.025.01.055.046.061.022.004.02.026.024.042.002.016.03.017.016.032-.015.016-.035-.004-.04-.01-.02-.026-.05-.041-.063-.07v-.015c0-.003-.023-.02-.036-.011l-.007.006-.004.009.001.009.005.008c.022.019 0 .057.037.07a.1.1 0 0 0 .008.07c.017 0 .04-.038.052.007.005.017.015-.005.026-.006v.046a.25.25 0 0 0-.129.016.02.02 0 0 0-.01.016c0 .034-.032.038-.056.045-.053.015-.056.022-.021.07a.07.07 0 0 1-.05.009.1.1 0 0 0-.07.008c-.02.012-.032 0-.047-.007s-.007.014-.007.022q.001.055-.05.042l-.025-.01-.014-.01a.04.04 0 0 0-.047.01.07.07 0 0 1-.06.02h-.021a.02.02 0 0 0-.018.017c0 .012.01.011.016.017s.03 0 .045.004q.021.007.009.023a.05.05 0 0 1-.036.017c-.039 0-.039 0-.06.025-.02 0-.01-.03-.035-.031-.007.047-.042.056-.083.056h-.11a.5.5 0 0 0-.112.017c-.046.013-.094.018-.14.032s-.087-.015-.13-.018c-.007-.01 0-.015.004-.018.02-.008.017-.017 0-.03l-.066-.052c-.014-.01-.032-.019-.04-.038q.013-.014.022 0a.1.1 0 0 0 .07.038.08.08 0 0 0-.039-.07 1 1 0 0 0-.1-.075.5.5 0 0 1-.094-.09c-.083-.085-.161-.174-.243-.26-.083-.084-.175-.189-.262-.28a4 4 0 0 1-.229-.263c-.058-.07-.123-.137-.185-.206a1 1 0 0 1-.067-.074.6.6 0 0 0-.14-.121l-.03-.02-.168-.194-.051-.059c-.055-.055-.102-.119-.16-.17-.005 0-.01-.008-.011-.012-.037-.085-.132-.119-.176-.197-.01-.017-.02-.01-.035 0-.07.04-.13.098-.197.14a3 3 0 0 0-.305.27q-.059.053-.122.097a4 4 0 0 0-.215.159.5.5 0 0 0-.07.086.14.14 0 0 0 .087-.062c.03-.031.058-.07.115-.06a.15.15 0 0 1-.103.133.1.1 0 0 0-.033.024 1 1 0 0 0-.061.07c-.012.018-.014.039-.038.048-.006 0-.009.027.006.034.027.013.008.026 0 .024-.033-.007-.04.01-.044.035a.03.03 0 0 1-.019.023c-.042.016-.066.056-.104.078a.03.03 0 0 0-.013.015.17.17 0 0 1-.052.077l-.012.016a.02.02 0 0 0 0 .023q.008.01.019 0a.3.3 0 0 0 .07-.033.2.2 0 0 1 .046-.021c-.048.034-.075.09-.13.115-.009.005-.015.017-.026.01-.012-.007.01-.02 0-.034a.4.4 0 0 0-.076.092l.001.006.004.005c.008.007.016.004.024 0a.6.6 0 0 0 .11-.07.1.1 0 0 1 .042-.026.05.05 0 0 1-.027.041l-.064.053c-.012.01-.027.022-.026.038 0 .029-.019.044-.035.06a.44.44 0 0 0-.126.193c0 .009-.003.015.006.022.028.023.032.035.011.053a.3.3 0 0 0-.058.096c-.008.014-.014.03 0 .041q.009.006.012.017a.03.03 0 0 1-.003.02.3.3 0 0 1-.04.105.08.08 0 0 0-.02.077c-.013.01-.016-.018-.03-.007a.03.03 0 0 0-.01.028c0 .02.007.04.01.061l.009.052q.001.002-.005.012c-.021-.012-.021-.032-.024-.052s0-.04-.022-.054a.7.7 0 0 0 .02.217q.026.115.04.231v.01c-.027.043-.005.082.004.125.018.08.031.163.056.243a.1.1 0 0 1 .005.041c0 .018-.005.039.023.042.011 0 .003.011.004.017.007.064.021.126.031.189.014.086.04.168.047.255a.7.7 0 0 0 .052.185q.007.014.017.025a.11.11 0 0 1 .027.096.16.16 0 0 0 .005.088q.01.037.01.077c.005.035-.007.07.01.106.01.02-.014.038-.014.058-.001.02.035.023.033.05q.003.06.03.114.02.044.015.09a.1.1 0 0 0 .006.053c.018.053.021.108.037.162.004.012-.005.035.024.026.006 0 .007.01.007.017a.2.2 0 0 0 .04.1.05.05 0 0 1 .006.058c-.015.019 0 .047-.02.07-.006.005 0 .018.008.028q.005.007.005.016 0 .008-.003.016a.04.04 0 0 1-.026.02c-.03 0-.066.02-.093-.013a.01.01 0 0 0-.009-.004h-.005l-.004.004a.06.06 0 0 1-.044.015.06.06 0 0 1-.041-.02c-.004-.004-.01-.01-.013-.009-.043.011-.076-.02-.114-.025-.064-.01-.096-.032-.09-.098 0-.012 0-.027-.006-.035-.07-.059-.066-.145-.078-.222-.015-.105-.042-.211-.063-.312-.021-.1-.045-.186-.065-.281q-.044-.21-.098-.427l-.014-.045a.4.4 0 0 1-.035-.135 1 1 0 0 0-.037-.14c-.012-.086-.047-.167-.06-.251a3 3 0 0 0-.048-.245q-.011-.043-.022-.098a.4.4 0 0 0-.076.16c-.016.054-.017.057-.07.045a.08.08 0 0 1-.056-.035c-.009-.015-.02-.027-.043-.016a.06.06 0 0 1-.062-.013.1.1 0 0 0-.1-.026.05.05 0 0 1-.03 0 .4.4 0 0 0-.13-.034c-.083-.011-.152-.064-.236-.07a.15.15 0 0 1-.1-.07.11.11 0 0 0-.09-.056q-.023-.002-.03-.025a.5.5 0 0 0-.084-.135.8.8 0 0 1-.088-.176c-.032-.07-.047-.146-.085-.212 0-.006-.008-.014-.006-.02.017-.037-.006-.066-.018-.098-.013-.032-.009-.04.024-.046a.2.2 0 0 0 .092-.05l.308-.241q.089-.068.175-.14a.08.08 0 0 1 .059-.027.1.1 0 0 0 .047-.022c.093-.06.18-.13.27-.198a.06.06 0 0 0 .023-.064c-.03-.198-.057-.396-.093-.593-.02-.108-.033-.216-.05-.325-.021-.126-.033-.255-.05-.383a.5.5 0 0 0-.018-.097.4.4 0 0 1-.01-.14c-.007-.096-.022-.19-.03-.285q-.021-.243-.047-.485c0-.026 0-.056-.023-.078-.007-.005 0-.014 0-.023a.13.13 0 0 0-.01-.124c-.005-.009-.009-.019 0-.025.015-.02 0-.04 0-.06 0-.08-.023-.16-.02-.24v-.026a3 3 0 0 1-.034-.359q-.006-.225-.021-.448v-.177a.1.1 0 0 0-.017-.054.6.6 0 0 0-.107-.098.03.03 0 0 0-.015-.004.03.03 0 0 0-.015.004.09.09 0 0 1-.076-.023c-.105-.084-.197-.183-.31-.257a1.4 1.4 0 0 0-.168-.094.5.5 0 0 1-.141-.103.1.1 0 0 1-.014-.136.14.14 0 0 0 .02-.07.15.15 0 0 1 .07-.127h.005c.032-.064.103-.08.155-.12.016-.011.025-.021.022-.041v-.005c0-.086.046-.116.123-.106l.03.006c.034 0 .044-.01.047-.046s.015-.042.044-.03a.09.09 0 0 0 .085-.014l.16-.089q.007.002.014-.006a.36.36 0 0 1 .153-.085q.123-.045.234-.115a.6.6 0 0 1 .2-.084q.07-.016.14-.022a.1.1 0 0 0 .06-.03.6.6 0 0 1 .15-.084.04.04 0 0 1 .025-.005q.072.015.145.014a.5.5 0 0 1 .178.055.7.7 0 0 1 .179.107q.03.027.07.035a.5.5 0 0 1 .203.093q.123.089.232.195c.102.1.205.197.299.306.07.081.149.155.22.235q.093.102.176.212l.077.104c.023.035.07.057.102.088q.023.021.04.048.028.049.07.085.069.08.125.166.017.028.047.038a.07.07 0 0 1 .052.04q.077.137.181.255a.3.3 0 0 1 .043.065.2.2 0 0 0 .059.07q.054.052.1.112.036.048.077.093.095.092.176.198.045.06.103.108a1 1 0 0 1 .103.104q.04.049.07.105a1 1 0 0 0 .112.141c.033.037.07.07.097.11.04.053.093.093.134.146q.011.015.028.018.017.004.033-.005.174-.062.352-.121a.1.1 0 0 0 .034-.023.06.06 0 0 1 .063-.013.65.65 0 0 1 .292.184c.033.034.054.08.059.128.004.058-.004.07-.07.07-.013 0-.024-.004-.032.01q-.023.036-.056.004c-.022-.021-.046-.03-.06-.055-.003-.007-.014-.015-.02-.014-.045.009-.094-.006-.133.026a.07.07 0 0 1-.05.019.3.3 0 0 0-.162.043q-.032.02 0 .04.04.033.07.077.03.025.035.063c0 .012.01.031.04.028.028-.004.038.029.046.05q.037.079.1.14l.05.053m.405.676a.12.12 0 0 0-.06-.076.12.12 0 0 1-.058-.059l-.03-.041c-.052-.062-.112-.115-.169-.171-.008-.007-.016-.018-.036-.009.046.097.132.16.194.24.063.08.141.154.212.24-.016-.064-.064-.098-.09-.156l.041.031a.1.1 0 0 0 .027.044q.085.08.157.172c.048.064.105.121.157.18a.2.2 0 0 1 .037.064c-.04-.024-.059-.07-.104-.098a.14.14 0 0 0 .04.07 1 1 0 0 1 .183.209q.011.009.024.013c.011-.023-.017-.035-.01-.057a.33.33 0 0 1 .109.128c.019-.016.014-.029.007-.045a.3.3 0 0 0-.06-.07q-.104-.114-.205-.229-.073-.084-.148-.166c-.025-.027-.037-.065-.07-.083a.3.3 0 0 1-.054-.05c-.033-.028-.045-.071-.093-.081m-4.578-.766a.14.14 0 0 0-.026.108.6.6 0 0 1 0 .151.3.3 0 0 0 0 .093q.013.124.019.249c0 .066.01.132.018.197q.017.124.027.25c0 .011 0 .019-.015.025-.037.014-.037.021-.016.056a.03.03 0 0 1 .005.02.1.1 0 0 0 .011.06.03.03 0 0 1 0 .029c-.025.057.01.106.017.162a.5.5 0 0 0 .105-.062c.026-.02.064-.022.08-.054a.3.3 0 0 0 .149-.07c.211-.142.418-.282.633-.418.1-.063.198-.13.3-.191q.172-.1.336-.211c0-.016-.015-.024-.023-.036-.02-.03-.057-.038-.08-.064-.063-.07-.135-.133-.197-.203-.108-.123-.228-.235-.343-.352-.085-.085-.174-.165-.255-.254l-.141-.16c-.048-.051-.099-.114-.155-.163-.013-.012-.024-.025-.044-.023a.03.03 0 0 1-.02-.004l-.007-.008-.003-.01c0-.015 0-.033-.02-.037l-.046-.01a.1.1 0 0 1-.108-.057c0-.004-.008-.006-.013 0 0 .017-.006.034-.009.051a.14.14 0 0 0-.004.09c.01.023-.015.045-.009.066.007.022-.01.035-.03.042l-.005.014a.5.5 0 0 0-.019.18.11.11 0 0 1-.007.09.2.2 0 0 0-.02.063.17.17 0 0 0-.012.117v.01a.5.5 0 0 0 0 .168c.012.121.017.243.027.364a.5.5 0 0 1 0 .13 1 1 0 0 1-.017-.105.6.6 0 0 0-.08-.292.08.08 0 0 0-.022-.085c-.023.066-.023.067.02.083zm2.618 1.372c0-.019-.006-.023-.011-.03-.026-.032-.065-.053-.084-.09a.7.7 0 0 0-.111-.151 1 1 0 0 0-.12-.12.15.15 0 0 0 .052.087q.02.013.033.032.045.067.104.124.022.024.041.052a.3.3 0 0 0 .096.096m1.487 1.422q.011-.001.014-.014-.002-.01-.012-.014c-.028-.007-.056-.02-.084-.029a.2.2 0 0 0-.062 0c-.01 0-.02.01-.01.023a.14.14 0 0 0 .154.034m1.075-1.236q.03.033.038.076c.004.018.022.021.034.031q.017.015.027 0c.008-.01 0-.015-.006-.023-.024-.035-.067-.05-.093-.085z"/><path fill="#fff" d="M46.92 31.559c-.084-.062-.112-.166-.184-.238.08.037.11.107.184.238m.636.714c.045.01.045.01.1.09-.052-.009-.067-.028-.1-.09M27.32 48.067c-.016.004-.04 0-.02.026l.124.157.006.008a.35.35 0 0 0 .109.14q.135.146.3.256c.012-.007.008-.021.016-.034a.2.2 0 0 1 .051.057c-.008.013-.018 0-.027.01q.065.051.14.087c.07.024.133.06.2.09l.037.015a.6.6 0 0 0 .366-.038.5.5 0 0 0 .137-.105q.143-.156.238-.344.176-.309.265-.654c.045-.176.078-.355.11-.536.03-.18.043-.343.055-.516q.022-.282.018-.563c0-.113 0-.225-.01-.337q-.016-.241-.076-.477a.09.09 0 0 0-.055-.062c-.03-.012-.028-.014-.018-.042l.01-.026a.2.2 0 0 0 .021-.15q0-.015.007-.026c.015-.031.015-.031-.019-.048l-.007-.01a.5.5 0 0 1 .062-.108c.006-.008.011-.018.021-.01.01.009.037.006.055 0 .044-.014.043-.013.07.023q.04.076.06.157c.004.016.004.031.018.044.015.013.009.023.012.034q.016.072.045.14.03.073.025.152 0 .045.008.09.009.046.012.093a1 1 0 0 0 .011.102c-.021.045.006.092-.006.14a.2.2 0 0 0 0 .071.7.7 0 0 1 0 .14c0 .013.007.026.009.04a.6.6 0 0 1-.015.18.1.1 0 0 0 0 .053q.027.104.025.211 0 .03-.01.059a.2.2 0 0 0-.004.103q.011.052.003.104c-.003.017.01.037.01.056a.5.5 0 0 1-.026.183.05.05 0 0 0 0 .043.07.07 0 0 1 0 .045.3.3 0 0 0 0 .157.24.24 0 0 0 .039.119.02.02 0 0 1 .003.017c0 .07.018.134.02.202a.36.36 0 0 1-.026.168.3.3 0 0 0-.014.081q0 .026.023.016c.015-.007.032-.018.034-.04v-.035c.024.021.026.022.02.037q-.039.15-.096.295c-.01.02-.01.044-.018.065a.4.4 0 0 1-.019.06.5.5 0 0 0-.04.135 1.2 1.2 0 0 1-.094.267q-.039.082-.07.166a.5.5 0 0 1-.067.136.45.45 0 0 1-.105.202 2 2 0 0 1-.174.198.5.5 0 0 1-.078.062.2.2 0 0 0-.038.03.6.6 0 0 1-.186.118.6.6 0 0 1-.184.095q-.064.03-.124.062a.5.5 0 0 1-.123.028l-.041.005a1.6 1.6 0 0 1-.55-.04 3 3 0 0 1-.43-.16 2.7 2.7 0 0 1-.488-.293 3 3 0 0 1-.25-.2 4 4 0 0 1-.427-.486 1.4 1.4 0 0 1-.106-.157 2 2 0 0 0-.092-.136 5.5 5.5 0 0 1-.548-1.024c-.035-.088-.077-.172-.111-.26q-.058-.148-.11-.3c-.047-.136-.096-.27-.13-.41a2.8 2.8 0 0 1-.1-.61.2.2 0 0 0-.006-.06.8.8 0 0 1-.018-.22c0-.047-.008-.093-.01-.14l-.015-.373v-.327c0-.14.007-.285.02-.426a3 3 0 0 1 .067-.382q.018-.077.04-.154.057-.204.158-.392c.054-.1.105-.201.162-.3q.09-.157.201-.297.059-.076.12-.15c.054-.061.103-.127.158-.188.036-.04.062-.09.098-.13q.098-.114.21-.212c.024-.022.039-.05.064-.07a.6.6 0 0 1 .107-.07.14.14 0 0 0 .052-.037.03.03 0 0 1 .018-.014q.12-.044.245-.063a.1.1 0 0 1 .032 0c.108.029.22.042.327.07q.067.017.135.017a.2.2 0 0 1 .116.045q.022.016.048.023.18.037.352.106.02.006.037.018.05.036.11.055.125.044.233.122c.067.05.14.089.211.134q.107.073.172.184a.1.1 0 0 0 .03.033.05.05 0 0 1 .029.044.5.5 0 0 0 .045.157.5.5 0 0 1 .022.124.3.3 0 0 0 .011.099.07.07 0 0 1-.01.061.4.4 0 0 1-.122.14.4.4 0 0 1-.216.087c-.07.005-.141.039-.211.04a1 1 0 0 1-.177 0 .3.3 0 0 0-.121.014 1 1 0 0 0-.137.047q-.083.044-.158.1a.1.1 0 0 1-.077.02.05.05 0 0 0-.038.008 1 1 0 0 0-.163.15q-.075.092-.161.173a1 1 0 0 0-.115.145 1 1 0 0 1-.076.09.3.3 0 0 0-.074.118q-.012.039-.026.07a.1.1 0 0 0-.006.053c.006.024-.01.038-.037.038a.05.05 0 0 0-.038.028.6.6 0 0 0-.076.192.14.14 0 0 1-.025.07c-.013.016-.005.036-.01.053-.019.066-.022.134-.04.199a1 1 0 0 1-.038.148.2.2 0 0 0-.008.076c0 .08-.017.16-.02.24q-.014.202.012.405.007.092.025.185.024.102.07.197a.6.6 0 0 1 .036.113q.02.08.047.157.043.13.07.262.021.069.051.133.028.068.053.135a.04.04 0 0 1 .004.041q-.034-.075-.063-.144l-.122-.314c-.029-.074-.06-.147-.084-.221a9 9 0 0 1-.1-.352 2 2 0 0 0-.053-.17.12.12 0 0 1 0-.075.4.4 0 0 0-.007-.188.1.1 0 0 0-.02-.028.17.17 0 0 0-.018.117q.005.06 0 .118a.5.5 0 0 0 .035.185l.005.022a.6.6 0 0 0 .028.16.07.07 0 0 1-.006.047c-.005.01.005.017.016.012s.012.004.017.007c.016.014.014.04.038.05.011.005 0 .019 0 .029a.03.03 0 0 0 .012.039c.017.009.019.023.017.042a.2.2 0 0 0 .017.098.3.3 0 0 1 .02.089c0 .017 0 .03-.025.021-.024-.009-.019.016-.017.026a.3.3 0 0 0 .018.06q.021.074.06.141.005.007.005.017a.5.5 0 0 0 .07.19.2.2 0 0 1 .034.107l.006.006h.004q.01-.002.011-.012c.001-.006-.01-.019 0-.036a.6.6 0 0 0 .084.22c.005-.013-.007-.024 0-.034h.007a.2.2 0 0 1 .02.07.04.04 0 0 0 .003.023 1 1 0 0 0 .09.174q.032.045.056.098.028.054.065.103.056.095.12.183c.047.058.083.123.13.18.035.044.057.09.095.133"/><path fill="#fff" d="m27.075 47.48-.105-.17a.6.6 0 0 1 .105.17m11.103-10.35a.25.25 0 0 0 .086-.135.1.1 0 0 1 .02-.035.08.08 0 0 0 .017-.063c-.03.045-.076.058-.1.098 0-.023.02-.036.032-.051.037-.049.06-.104.093-.155.033-.05.057-.086.082-.131a1 1 0 0 0 .087-.159.3.3 0 0 1 .07-.1 1 1 0 0 0 .104-.141q.068-.116.155-.219c.07-.087.135-.179.206-.266l.032-.04a.5.5 0 0 0 .082-.119q.065-.105.15-.193l.032-.038a.08.08 0 0 1 .053-.028q.075-.02.147-.052a.17.17 0 0 1 .085-.066c.02-.009.019-.029.02-.051a.7.7 0 0 0 .147.034c.017 0 .031.006.036-.02.005-.025.023-.02.04-.02q.047.007.085.033.066.027.136.035a.4.4 0 0 1 .078.022q.104.045.21.076.045.013.087.031.114.038.224.09a.4.4 0 0 1 .137.102l.014.01q.1.066.16.166a.3.3 0 0 1 .017.335q-.077.135-.175.255a.6.6 0 0 0-.086.128c0 .008-.01.016 0 .025.01.008.016 0 .024 0s.024-.027.055-.03c-.044.037-.065.081-.108.106a.1.1 0 0 1-.03.014c-.026.007-.054.015-.062.047a.04.04 0 0 1-.014.017c-.043.041-.077.09-.12.131a1 1 0 0 0-.075.097.8.8 0 0 1-.135.159.2.2 0 0 0-.024.032 1.4 1.4 0 0 1-.13.163q-.06.072-.107.152c-.033.053-.07.101-.106.153q-.075.111-.146.224-.059.09-.109.189l-.078.14c-.05.078-.08.166-.126.245l-.034.08c-.027.075-.075.14-.1.218a1 1 0 0 1-.049.096q-.05.111-.081.23c-.031.1-.038.205-.076.304a.7.7 0 0 1-.04.174c-.009.059-.01.118-.015.177a.1.1 0 0 1 0 .032.5.5 0 0 0-.018.183q.001.075-.004.15c-.004.05 0 .105-.005.157a.2.2 0 0 0-.01.07q.013.048.022.097a.07.07 0 0 1-.01.06.1.1 0 0 0-.02.05q-.001.01.005.02a.04.04 0 0 1 .019.023.04.04 0 0 1-.005.029c0 .007-.004.018.004.02h.008l.008-.002.006-.005.003-.007c.005-.014-.005-.03.005-.045.014.01.006.035.028.042.017-.03-.013-.059-.008-.093q.061.101.07.22.016.118.07.224l.027.053c.009.017.008.026.024.007.005-.006.01 0 .012.008q.013.029.022.06a.4.4 0 0 0 .06.12q.05.065.092.135.022.038.052.07l.014.019c.03.066.089.07.152.075a.6.6 0 0 0 .25-.064q.214-.104.39-.265.266-.233.457-.53.199-.305.352-.634c.036-.075.07-.15.112-.223a1 1 0 0 0 .056-.088.15.15 0 0 0 .018-.082c0-.01 0-.029.02-.018q.007-.002.008-.008c.013-.034.035-.065.026-.104 0-.01-.005-.026.016-.018.007 0 .01-.01.012-.017.032-.105.07-.206.099-.312a1 1 0 0 1 .036-.113q.074-.218.11-.446.056-.303.077-.61a.1.1 0 0 0-.01-.049l-.04-.096a.044.044 0 0 1 .004-.055.05.05 0 0 0 .013-.062q-.009-.019.014-.03a.05.05 0 0 0 .02-.06.1.1 0 0 1 .005-.053.13.13 0 0 0-.026-.118c-.012-.016-.012-.024 0-.038a.2.2 0 0 0 .033-.044c.007-.014.017-.024 0-.042-.017-.017 0-.032.015-.04l.132-.062c.012-.005.027-.006.024-.027s0-.034-.024-.035q-.005 0-.006-.003l-.003-.006c.013-.013.038.013.047-.013.004-.013-.036-.048-.057-.052s-.031-.004-.028-.047a.04.04 0 0 0 .047.019c.038-.008.04-.005.091.02-.008-.027.012-.044.016-.066 0-.006.007 0 .01 0s.02.007.029 0a.02.02 0 0 0 .004-.012c-.004-.014-.016-.011-.026-.014-.01-.002-.027.007-.04-.004 0-.011.01-.011.018-.013q.114-.017.228-.044a1 1 0 0 1 .148-.012.035.035 0 0 1 .042.009c.012.014.038.014.035.043-.003.03.024.067.028.112.02-.036.039-.06.07-.024.008-.025-.01-.037-.01-.052-.002-.016-.007-.012 0-.016q.008-.005.012.008c.003.008 0 .01.005.013.004.004.011.022.02 0l.004-.003h.008l.004.003.034.05c-.019.035-.004.07-.008.107l-.014.182.004.007.004.002h.004c.006 0 .007-.006.007-.01a.1.1 0 0 0 0-.036.07.07 0 0 1 .013-.065.02.02 0 0 0 .006-.017q0-.054.03-.1c.008 0 .007.005.009.01.016.025-.025.047 0 .074s0 .05 0 .074c0 .05-.006.1-.008.15 0 .04-.015.077-.017.117a2 2 0 0 1-.02.188.16.16 0 0 1-.034.088.07.07 0 0 0-.012.043q-.015.092-.015.185a.3.3 0 0 1-.011.076c-.023.083-.027.17-.048.254a1.6 1.6 0 0 0-.051.263 3 3 0 0 1-.056.34l-.02.06c-.042.135-.098.264-.142.398-.02.063-.046.124-.066.187q-.045.171-.12.332a.5.5 0 0 0-.055.141l-.008.008c-.033.012-.039.044-.051.07a.6.6 0 0 1-.08.14c.018-.096.083-.179.084-.28-.01.055-.05.098-.065.152-.022.087-.07.163-.099.248-.007.024-.031.04-.035.063q0 .015-.009.029a.1.1 0 0 1-.02.022.1.1 0 0 0-.02.036c-.008.034-.035.06-.044.092-.007.02-.032.011-.034.03a.1.1 0 0 1-.012.05.14.14 0 0 0-.021.062.3.3 0 0 1-.042.095c-.013.019-.02.041-.034.058-.036.04-.043.099-.084.14-.03.028-.026.032-.056 0a.5.5 0 0 1-.093.141.1.1 0 0 0-.025.043.2.2 0 0 1-.059.087.5.5 0 0 0-.077.104c-.025.043-.062.075-.09.115l-.057.086c-.019.029-.03.048-.048.07a.15.15 0 0 0-.035.062c-.02 0-.005-.033-.03-.024a.1.1 0 0 0-.034.022.12.12 0 0 0-.046.07.2.2 0 0 1-.052.07c-.02 0 0-.02-.017-.025a.7.7 0 0 0-.15.116.3.3 0 0 1-.047.042l-.012.01-.007.015c-.008.027-.02.045-.057.044a.16.16 0 0 0-.097.033 1 1 0 0 1-.114.056l-.164.075c-.026.011-.06.007-.074.039l-.007.001-.006-.001c-.027-.024-.046.003-.062.015a.1.1 0 0 1-.066.026 1 1 0 0 1-.104.004.4.4 0 0 0-.079.007.5.5 0 0 1-.171.009.05.05 0 0 0-.035 0c-.031.02-.057 0-.085-.008l-.025-.007a1 1 0 0 1-.174-.017.3.3 0 0 1-.07-.022c-.084-.033-.167-.064-.247-.104a.5.5 0 0 1-.118-.077.2.2 0 0 0-.04-.031 1 1 0 0 1-.171-.14c-.034-.032-.07-.058-.1-.093q-.072-.076-.147-.148l-.025-.026a.2.2 0 0 1-.06-.098.16.16 0 0 0-.04-.082c-.041-.05-.07-.111-.11-.162a.2.2 0 0 1-.043-.088c-.005-.03-.033-.044-.046-.07a2 2 0 0 1-.094-.183c-.019-.048-.048-.094-.07-.14a1 1 0 0 1-.039-.093c-.016-.05-.042-.097-.056-.148a1 1 0 0 0-.035-.127c-.009-.02-.014-.04-.024-.06a.1.1 0 0 1-.014-.07.04.04 0 0 0-.004-.031c-.022-.037-.023-.083-.041-.12a.4.4 0 0 1-.026-.176.2.2 0 0 1 .004-.117.02.02 0 0 0 0-.013.5.5 0 0 1-.029-.261v-.127a.17.17 0 0 0-.029.126 1 1 0 0 1 0 .14.1.1 0 0 1-.014-.043 3 3 0 0 1 .004-.315q-.002-.019.008-.034l.004-.005v-.011l-.004-.004c-.02-.012-.015-.03-.011-.048a.1.1 0 0 0 0-.032c0-.157.024-.312.028-.468v-.01a.3.3 0 0 0 .01-.132c0-.055.02-.107.027-.162l.026-.162a.1.1 0 0 0 0-.043.4.4 0 0 0-.133.05.3.3 0 0 1-.095.041.1.1 0 0 0-.03.012.2.2 0 0 1-.07.026c-.06.003-.117.022-.177.02a.3.3 0 0 1-.1-.009.3.3 0 0 0-.053 0 1.5 1.5 0 0 1-.217-.061.6.6 0 0 1-.132-.063 1 1 0 0 1-.235-.2.4.4 0 0 1-.09-.141 1 1 0 0 1-.141-.242.9.9 0 0 1-.1-.282c-.009-.051-.012-.104-.023-.156 0-.015 0-.034-.022-.04-.006 0-.007-.01-.005-.016a.4.4 0 0 0-.012-.168.7.7 0 0 1-.016-.176c.005-.084 0-.168 0-.252a3 3 0 0 1 .03-.312.6.6 0 0 1 .032-.117c.022-.057.019-.119.035-.177.026-.09.035-.184.057-.275.023-.09.051-.165.079-.247q.054-.157.136-.3a.1.1 0 0 0 .02-.051.06.06 0 0 1 .024-.047.1.1 0 0 0 .038-.078c0-.024.02-.037.033-.052a.2.2 0 0 0 .04-.066.5.5 0 0 1 .057-.1c.028-.047.063-.089.087-.137a.15.15 0 0 1 .049-.06l.01-.009a.3.3 0 0 1 .07-.096c.013-.013.012-.035.025-.051a2 2 0 0 1 .135-.157c.019-.02.026-.047.045-.07l.127-.148c.096-.114.203-.216.309-.32.047-.046.1-.09.149-.133q.08-.06.153-.128a.2.2 0 0 1 .046-.037c.08-.052.152-.115.235-.164.03-.02.052-.05.083-.07q.087-.06.167-.126c.054-.044.104-.067.154-.104a.6.6 0 0 0 .095-.065c.01-.012.03-.012.045-.02q.06-.041.121-.078a.1.1 0 0 1 .036-.017.12.12 0 0 0 .08-.049.04.04 0 0 1 .038-.018.15.15 0 0 0 .089-.042.06.06 0 0 1 .035-.014.2.2 0 0 0 .076-.028.2.2 0 0 1 .038-.015.18.18 0 0 0 .14-.076l.005-.002h.007l.006.002q.03.02.063.036c.02.012.022.012.033 0 .012-.011.02-.028.042-.023a.1.1 0 0 1 .055.031l.09.09q.117.117.25.218.09.06.16.148.049.067.11.128a.2.2 0 0 1 .032.06c.023.07.034.14.057.21a.07.07 0 0 1 0 .049c-.01.02 0 .03.02.039-.048-.004-.07.028-.094.057s-.039.08-.066.114c-.01.012 0 .03-.01.047a.3.3 0 0 1-.07.066c-.01.008-.028.008-.02.029q-.002.012-.014.014c-.064.022-.117.064-.18.09a.2.2 0 0 0-.093.085.3.3 0 0 1-.062.053.5.5 0 0 1-.116.089c-.005.026-.027.029-.047.035a.4.4 0 0 0-.12.058.1.1 0 0 1-.025.011.06.06 0 0 0-.051.039q-.01.013-.023.023c-.008.007-.04.013-.04.041 0 .007-.019.015-.03.02l-.054.022c-.019.007-.026.009-.03.02-.033.064-.105.078-.155.12-.038.033-.085.055-.126.085a2 2 0 0 1-.145.1c-.035.02-.06.054-.101.066a.03.03 0 0 0-.016.015c-.01.035-.042.047-.07.062-.067.035-.117.093-.18.131-.006.004-.023.011 0 .023.023.01 0 .012-.006.016-.005.004-.039.014-.049.03-.026.046-.07.065-.11.097-.04.031-.07.07-.104.098-.055.048-.095.11-.147.16s-.075.091-.116.133c-.03.03-.042.07-.07.098a1 1 0 0 0-.099.15l-.04.06c-.004.006-.01.01-.016.003q-.008-.007-.006-.01a.1.1 0 0 1 .017-.047q.034-.057.065-.115a.05.05 0 0 0 .01-.03c0-.01-.01-.016-.019-.01a.1.1 0 0 0-.034.042.2.2 0 0 1-.028.046 1 1 0 0 1-.062.062q-.065.066-.135.129a.16.16 0 0 0-.061.104c0 .022-.02.037-.029.055-.03.06-.05.124-.078.185a.24.24 0 0 0-.024.127.08.08 0 0 0-.021.087.04.04 0 0 1-.009.04.4.4 0 0 0-.053.14q-.037.156-.046.318v.005c-.022.174-.03.226 0 .352.03.15.112.286.232.382a.2.2 0 0 0 .1.04.7.7 0 0 0 .217-.015c.172-.042.333-.12.473-.228a.3.3 0 0 0 .07-.058c.014-.017.037-.031.032-.06l-.001-.003.001-.004.003-.002h.003c.018 0 .023-.018.023-.03a.2.2 0 0 1 .03-.088c.022-.037.031-.082.07-.11a.3.3 0 0 0 .06-.089c.004-.005.005-.011.013-.013.007-.002 0 .017.005.024-.024.013-.025.04-.038.06-.046.075-.084.154-.124.232a.03.03 0 0 0 0 .03l.017-.02a1 1 0 0 0 .076-.141.2.2 0 0 1 .028-.062.3.3 0 0 0 .037-.096m1.214 4.06a1 1 0 0 1-.044-.079.1.1 0 0 0-.023-.027.3.3 0 0 1-.07-.09c-.005-.011-.008-.026-.017-.032-.028-.023-.031-.056-.044-.087s-.017-.077-.047-.105a.04.04 0 0 1-.01-.025.13.13 0 0 0-.033-.07.13.13 0 0 1-.03-.07.24.24 0 0 0-.03-.103c-.017.026-.032.048-.005.07q.004.006.004.017.01.078.024.155a.5.5 0 0 0 .07.178q.039.05.066.109a.53.53 0 0 0 .178.22s.005 0 .01-.008a1 1 0 0 1-.104-.165c.05.033.063.089.105.112m3.182-3.678a.034.034 0 0 0 .016-.043.13.13 0 0 1 0-.07c.01-.039 0-.079.021-.115.01-.017-.01-.03-.022-.037s-.02.007-.026.018a.12.12 0 0 0 .005.1c.005.017.012.035 0 .048-.034.037-.014.066.006.1m-.088-.384q-.008-.013-.02-.011l-.005.003-.004.004v.011l.015.061.002.005a.01.01 0 0 0 .008.004h.004l.006-.003.003-.006a.2.2 0 0 0-.011-.068zm-1.068 3.753-.047.085-.002.005.001.004a.01.01 0 0 0 .006.007h.009l.005-.006c.005-.032.03-.058.026-.095z"/><path fill="#fff" d="M37.11 36.166a1 1 0 0 0-.056.14l-.012.045-.002.005-.004.004-.006.002q-.003 0-.005-.002c-.006 0-.01-.008-.009-.014.023-.066.025-.14.094-.18m4.81 4.073a.3.3 0 0 1-.062.103c-.008-.029.009-.047.02-.064.01-.018.008-.045.042-.04m-.553.89c0-.028.015-.044.014-.064-.002-.02.01-.022.017-.03l.008-.003q.005 0 .008.003.008.006.005.016l-.01.02c-.017.013-.019.038-.042.058m-4.395-4.686c.021-.006.02-.032.039-.042a.12.12 0 0 1-.043.098c-.01-.02.01-.038.004-.057zm4.946 3.772q0-.063.037-.115c.016.025-.008.04-.009.06a.06.06 0 0 1-.029.055m-4.44-.27c-.01-.014.018-.038-.012-.043 0-.01 0-.023.014-.026s.02 0 .023.015a.04.04 0 0 1-.01.045zm-8.851-.145a.02.02 0 0 1 .01-.015c.039-.037.036-.047-.013-.061a.1.1 0 0 0-.036-.005c-.026 0-.03 0-.033-.028a.14.14 0 0 1 .02-.074.12.12 0 0 0 .013-.07.06.06 0 0 1 .007-.05.15.15 0 0 0 .026-.093.1.1 0 0 1 .043-.07l.041-.028a.1.1 0 0 0 .04-.048.12.12 0 0 1 .07-.07c.047-.024.098-.039.141-.065q.092-.039.176-.093a.4.4 0 0 1 .07-.038 1 1 0 0 1 .23-.095.2.2 0 0 0 .056-.02q.1-.034.202-.051a.2.2 0 0 1 .07 0c.11 0 .22.005.328-.006q.137.004.263.058a.08.08 0 0 1 .046.036q.024.03.056.051.086.068.14.163.081.138.15.282c.029.058.05.12.079.18q.082.174.172.357a.2.2 0 0 0 .009-.07v-.251q.005-.263.05-.522.043-.27.098-.539.052-.244.134-.478.111-.313.288-.594.166-.266.397-.48.186-.178.39-.336.127-.094.273-.154c.12-.05.247-.087.37-.127q.06-.016.12-.024a2 2 0 0 1 .259 0 .4.4 0 0 1 .096.023l.03.008h.017c0-.038.024-.015.036-.01q.047.023.093.048c.016.008.03.022.05.015q.01-.001.011.004c0 .04.025.023.045.021a.12.12 0 0 1 .07.013l.105.055a.8.8 0 0 1 .191.158 1 1 0 0 1 .1.099.01.01 0 0 0 .01 0l.002-.003v-.016c.035.043.092.07.103.13 0 .01.01.015.015.022q.054.054.07.128l.007.012h.006c.004-.028.016-.055-.016-.077a.02.02 0 0 1-.005-.02c0-.005 0-.01.008-.01a.01.01 0 0 1 .01.005l.027.058a.1.1 0 0 0 .022.034.08.08 0 0 1 .037.07q0 .016.011.018c.036 0 .033.03.033.052a.07.07 0 0 0 .024.055.06.06 0 0 1 .017.037q.014.044.018.092c0 .006 0 .013.009.014s.013-.006.016-.013-.004-.019.01-.028q.068.12.103.255c.02-.012 0-.031.013-.043.015.02.014.047.026.07s-.005.012-.012.014a.025.025 0 0 0-.02.027c0 .01.01.01.02.012s.021.016.025.03a.13.13 0 0 0 .033.058.4.4 0 0 0-.015-.117c-.025-.057-.045-.116-.07-.173a.03.03 0 0 1-.006-.022l.008-.009c.005 0 .012 0 .012.005 0 .045.035.075.045.117.011.042.016.07.057.087a.02.02 0 0 1 .013.023q.008.046.032.086.03.069.049.141.006.03.026.057.013.014.016.033.04.11.056.229c0 .025.02.042.027.07q.023.102.03.206l.015.238c0 .066.007.133.005.198a.3.3 0 0 1-.012.106c-.008.02.008.042 0 .064a.4.4 0 0 0-.005.14q0 .045-.01.09c-.01.043-.011.09-.018.133a.3.3 0 0 1-.017.061.2.2 0 0 0-.028.095c0 .03.008.06.01.09a.17.17 0 0 1-.016.127.04.04 0 0 0-.008.03.08.08 0 0 1-.013.057c-.003.006-.007.016-.005.021.017.037-.015.063-.023.094 0 .009-.01.016-.01.024a2 2 0 0 1-.016.126c0 .016 0 .033-.013.046a.02.02 0 0 0-.007.012c0 .048-.027.093-.023.14q0 .01-.003.018a.03.03 0 0 1-.011.014.23.23 0 0 0-.061.095.3.3 0 0 0-.032.09.22.22 0 0 1-.077.13c-.013.013.004.038-.025.042s-.057.018-.048.058c-.037.046-.046.108-.083.155a.4.4 0 0 0-.038.097.2.2 0 0 1-.033.064c-.019.019-.013.046-.026.07l-.064.115c-.01.015-.024.027-.02.048l-.002.01-.005.006c-.014.008-.03.015-.008.03-.01.028-.006.062-.032.083a.03.03 0 0 0-.014.03.06.06 0 0 1-.02.048.2.2 0 0 0-.035.057.2.2 0 0 1-.102.09l-.052.042c-.005 0-.01.013-.005.016.032.02 0 .026-.009.035a.1.1 0 0 1-.028.022.06.06 0 0 0-.029.04c-.003.011-.008.025.006.033l.008.003a.02.02 0 0 0 .024-.011c.015-.021.04-.032.054-.054a.02.02 0 0 1 .012-.01.02.02 0 0 1 .015.001c-.005.02-.007.041-.033.047-.008 0-.014.012-.021.018-.027.027-.027.029 0 .056q.029.03.07.042a.3.3 0 0 1 .07.031c.071.04.152.055.224.09q.098.039.186.095l.028.013a.2.2 0 0 1 .07.044.2.2 0 0 0 .09.058c.026.007.042.031.07.028h.004c.004.043.047.041.07.062a.3.3 0 0 0 .088.047l.128.058a.04.04 0 0 0 .026.005.06.06 0 0 1 .047.014 1 1 0 0 0 .14.066c.058.03.121.042.179.07.086.043.176.071.259.122a.3.3 0 0 0 .086.024.07.07 0 0 0-.043-.043c-.107-.048-.21-.097-.32-.147a.012.012 0 0 1-.012-.013c.015-.009.029 0 .041.007q.078.037.159.066.061.024.122.047.044.014.08.043.013.01.028.012a.4.4 0 0 1 .123.057l.015.017c.004.008 0 .017-.008.016s-.038.01-.048-.015c-.01-.023-.037-.018-.055-.026s-.025-.014-.031 0c-.006.013.01.02.02.027l.012.005c.076.018.141.058.217.08q.06.017.1.063.015.013.034.022c.007-.011-.006-.011-.006-.014 0-.034-.037-.04-.048-.064a.034.034 0 0 0-.036-.017c-.041 0-.07-.03-.11-.035-.01 0-.018-.015-.02-.028s-.005-.012 0-.017a.02.02 0 0 1 .021 0q.036.023.077.038a.2.2 0 0 0 .064.015.2.2 0 0 1 .078.029l.004.008c0 .026.021.031.043.036a.07.07 0 0 1 .039.021c.01.013.014.022.029.005s.023 0 .028.006c.016.025.052.029.057.07.023-.055.032-.059.082-.044l.052.015c.014 0 .031.02.043-.005 0-.006.01 0 .016 0q.047.016.097.016.06-.004.117.019.027.012.055.008a.2.2 0 0 0-.099-.05c-.022 0-.05-.004-.061-.031a.023.023 0 0 1 .03-.004.5.5 0 0 0 .089.03.1.1 0 0 1 .065.047.04.04 0 0 0 .033.021c.01-.017-.02-.017-.012-.036.024.008.057 0 .06.042 0 .012.021.02.036.022l.07.01c-.01-.02-.03-.02-.035-.034a.08.08 0 0 1 .07.024c.01.01.018.02.034.008.015-.012.02 0 .03 0q.056.014.109.034.03.014.06.015c.01 0 .026 0 .029.012.002.01.014.008.024.01.058.012.092-.03.133-.056l.041-.026c.007-.005.015-.01.021-.005.023.023.038 0 .054-.01a.05.05 0 0 1 .045-.007.05.05 0 0 1 .035.03.03.03 0 0 1 0 .026 1 1 0 0 1-.058.131c-.012.016-.006.035.01.035a.2.2 0 0 1 .082.026q.052.015.103-.003a.1.1 0 0 1 .054 0q.069.013.045.07a.3.3 0 0 0-.011.076q-.001.024.014.042a.084.084 0 0 1 .004.119l-.05.07a.1.1 0 0 0-.022.049c0 .02-.016.031-.027.045-.022.025-.019.04.01.057.028.016.028.07.005.087-.063.04-.108.104-.172.141-.05.03-.094.066-.145.092a.16.16 0 0 0-.065.055.04.04 0 0 1-.025.018c-.055.017-.103.052-.157.07-.012.004-.021.015-.03 0 0-.005-.008 0-.011 0-.015.02-.039.023-.06.031a.1.1 0 0 0-.053.047.1.1 0 0 1-.076.06.14.14 0 0 0-.07.05c-.01.009-.02.024-.033.021s-.04 0-.058-.009c-.017-.009-.01-.016 0-.026.023-.03.023-.032.005-.062-.005-.008-.015-.015-.014-.022s.013-.024 0-.03c-.013-.007-.021.007-.03.015a.04.04 0 0 1-.026.008.17.17 0 0 0-.096.01c-.012 0-.022 0-.023-.013-.002-.014 0-.021-.01-.028a.04.04 0 0 0-.036-.004c-.045.025-.087 0-.13-.005a.15.15 0 0 0-.071-.009.02.02 0 0 1-.02-.008l-.012-.01-.015-.004a2 2 0 0 1-.212-.065c-.093-.026-.184-.059-.281-.082-.058-.013-.113-.034-.17-.051-.095-.028-.187-.07-.281-.104-.106-.04-.211-.086-.317-.128a2 2 0 0 1-.255-.105.2.2 0 0 0-.06-.02.4.4 0 0 1-.127-.048.6.6 0 0 0-.135-.062c-.067-.025-.13-.06-.195-.088a1 1 0 0 0-.121-.047.4.4 0 0 1-.112-.047 1 1 0 0 0-.15-.065l-.08-.032c-.098-.04-.201-.07-.3-.113a1.5 1.5 0 0 0-.254-.086 1 1 0 0 1-.141-.047 1 1 0 0 0-.186-.057c-.035-.01-.07-.017-.105-.03a.04.04 0 0 0-.04 0 .1.1 0 0 1-.095 0l-.013-.004c-.07-.02-.07-.02-.12.031a.3.3 0 0 1-.067.046c-.008.004-.017.01-.026.004-.008-.005-.005-.016-.004-.024q.001-.026.017-.047c.005-.007.014-.017.003-.023s-.019.006-.021.015a.05.05 0 0 1-.021.027c-.016.012-.025.022-.049.012s-.047.005-.058.038-.035.028-.054.054c0-.05-.043-.056-.063-.082-.011-.015-.026 0-.038.011-.025.02-.026.02-.009.043q.008.008.014.018c.012.054.051.097.065.15q.027.094.087.17a.1.1 0 0 1 .013.03c0 .019.03.033.017.048s-.032-.014-.052-.012c0 0-.005.005-.005.007a.4.4 0 0 0 .055.178q.045.051.066.116c0 .015.025.025.035.04a.5.5 0 0 1 .099.18q.007.038.028.07a.12.12 0 0 1 .03.075c0 .01.006.016.01.024.015.022.042.036.043.067.044.017.036.057.046.092.006.022.008.058.048.055l.006.003.004.005c.027.064.081.115.104.184.01.03.026.06.036.091s.014.048.042.058q.009.005.013.012a.03.03 0 0 1 .003.018.1.1 0 0 0 .017.07l.004.008a.3.3 0 0 0 .041.096c.019-.008.007-.027.015-.04a.5.5 0 0 1 .088.125c.01.02.014.043.023.064a1 1 0 0 0 .08.102q.04.05.065.109.015.039.04.07a.4.4 0 0 1 .082.158l.01.006a.07.07 0 0 1 .042.044c.019.04.059.066.063.113 0 0 .007.006.011.007a.06.06 0 0 1 .038.053c.004.024.027.04.026.065q.002.006.01.005c.005.001.013.008.008.012a.1.1 0 0 1-.032.022c-.014 0-.013-.011-.017-.022a.3.3 0 0 1-.027-.1c0-.013-.012-.017-.021-.02l-.048-.012q.015.045.042.082a.45.45 0 0 1 .088.18.1.1 0 0 0 .043.057.14.14 0 0 1 .04.06l-.004.008c-.006.008-.014 0-.02 0s-.02-.01-.022-.021a.08.08 0 0 0-.034-.052.2.2 0 0 1-.032-.038.3.3 0 0 0-.075-.092.16.16 0 0 1-.041-.07.4.4 0 0 0-.064-.115.3.3 0 0 1-.032-.084.13.13 0 0 0-.032-.06c-.029-.028-.035-.07-.056-.103-.01-.012-.012-.03-.033-.034-.006 0-.012-.01-.015-.016-.036-.086-.092-.16-.123-.249a.12.12 0 0 0-.038-.055.4.4 0 0 1-.07-.09.13.13 0 0 1-.017-.061.2.2 0 0 0-.015-.061c-.004-.007-.008-.019-.014-.017-.04.005-.032-.026-.036-.047a.3.3 0 0 0-.07-.121c-.007-.008-.017-.014-.02-.025a.3.3 0 0 0-.078-.145.04.04 0 0 1-.009-.021c0-.006-.004-.015-.006-.016-.046-.004-.044-.05-.07-.075s-.037-.07-.06-.101c-.01-.016-.021-.049-.035-.04s.007.036.013.053a1 1 0 0 0 .094.165q.051.064.071.141.016.066.025.136v.009c-.034.026-.008.054 0 .08a.04.04 0 0 1 0 .035.035.035 0 0 0 .01.045c.02.011.022.027.026.045l.01.02q.052.087.11.173c.01.018.023.036.05.022h.007q.004 0 .006.002l.005.006v.007c0 .028.016.045.025.07l.023.06.01.025c.041.049.057.115.103.16q.042.052.091.1a.11.11 0 0 1 .056.092l.001.009q0 .004.004.008c.028.018.028.053.045.077a.4.4 0 0 1 .049.106q.014.028.03.055c.007.013.018.009.028.007s.006-.012.007-.019q0-.045-.013-.09c.026.047.07.083.084.136-.015.015-.03 0-.045.005q-.022.007-.015.025c.005.012.027.02.023.042q.003.023.014.044c.026-.019.02-.056.05-.075-.003.027.01.048-.013.07s.01.028.02.045c-.02.007-.04.007-.048.03-.009.022.017.036 0 .058a.3.3 0 0 0-.105-.107.3.3 0 0 1 .02.08q.002.02.027.026.023.003.006.024a.045.045 0 0 0-.005.056q.007.01.015.015c.027.022 0 .04.006.066-.055-.036-.08-.094-.13-.132a.2.2 0 0 0-.01.066v.017c.034.024.037.066.057.098.02.031.041.052.06.08.018.027.006.048.022.07.006.007-.006.016-.012.022l-.018.02c-.028-.01-.016-.06-.06-.06 0 .02.014.036.01.057a.02.02 0 0 0 .006.02.02.02 0 0 0 .018.007q.003 0 .005.002l.004.002.003.009q-.001.013-.016.013a.12.12 0 0 1-.109-.032c-.008-.01-.017-.023-.028-.016a.027.027 0 0 0-.008.04.03.03 0 0 1 0 .033c-.01.006-.017-.004-.024-.006-.008-.002-.025-.008-.035.014s-.03.026-.01.05c.005.005 0 .014-.011.017a.03.03 0 0 1-.037-.006c-.007-.006 0-.02-.013-.023l-.034-.014c-.012.012.02.028 0 .038-.022.01-.03.033-.058.033a.23.23 0 0 0-.126.036.3.3 0 0 1-.224.053.2.2 0 0 0-.094 0c-.04.01-.081.004-.122.012a.02.02 0 0 1-.013 0 .23.23 0 0 0-.127-.045c0-.01.007-.006.011-.006q.03 0 .015-.026a1 1 0 0 0-.066-.1.2.2 0 0 1-.044-.088.06.06 0 0 0-.036-.044.4.4 0 0 1-.15-.13l-.244-.396-.192-.316a12 12 0 0 1-.282-.48c-.066-.122-.137-.24-.205-.362a75 75 0 0 1-.667-1.226q-.158-.293-.313-.587-.114-.22-.227-.443c-.087-.17-.172-.341-.267-.508a5 5 0 0 1-.203-.403 5 5 0 0 0-.11-.225l-.089-.185q-.126-.254-.245-.51a1.4 1.4 0 0 0-.09-.184c-.03-.047-.046-.106-.099-.14-.007-.005-.007-.013-.011-.02-.104-.194-.202-.391-.318-.58l-.107-.18a.17.17 0 0 0-.145-.096.023.023 0 0 1-.027-.01m3.94 1.247a.3.3 0 0 0 .062-.049q.055-.073.1-.151a1 1 0 0 1 .077-.128.6.6 0 0 0 .081-.14c.03-.045.042-.1.033-.153q-.001-.008.004-.013c.012-.01.012-.026.02-.04a1 1 0 0 1 .047-.07.1.1 0 0 0 .018-.025c.03-.061.046-.128.074-.19a.2.2 0 0 1 .047-.07.05.05 0 0 0 .016-.065.04.04 0 0 1 0-.038q.055-.115.1-.234a.7.7 0 0 0 .04-.162c.004-.032.014-.06.021-.09a1 1 0 0 0 .024-.168q-.002-.06.006-.12c.005-.065.02-.129.024-.194q.015-.172 0-.346a2.1 2.1 0 0 0-.185-.67 1.6 1.6 0 0 0-.21-.33.6.6 0 0 0-.212-.166.22.22 0 0 0-.177-.016.55.55 0 0 0-.206.14 2 2 0 0 0-.187.252.1.1 0 0 1-.022.029.13.13 0 0 0-.051.083.1.1 0 0 1-.013.029.16.16 0 0 0-.053.092.1.1 0 0 1-.02.035.1.1 0 0 0-.024.043l-.06.156c-.01.028-.03.053-.041.08a2 2 0 0 0-.085.227c-.015.056-.038.108-.057.163-.035.092-.053.189-.085.281a1.3 1.3 0 0 0-.063.282c-.004.03-.013.06.008.088v.017a.6.6 0 0 0-.025.16c-.018-.01-.016-.033-.041-.034-.019.097 0 .196-.015.293-.013 0-.006-.022-.023-.02q-.007.12 0 .24c.003.108.013.215.015.323 0 .16.013.317.029.476.006.07.017.136.025.203l.031.29q.012.09.054.173c.004.009.012.023-.01.026h-.003l-.003.003v.006c.013.024.008.055.031.075q.016.011.019.03a.16.16 0 0 0 .033.077c.004.006.01.012.006.02q-.005.013.008.01c.007-.002.019.009.019 0 0-.02.03-.029.02-.053a.5.5 0 0 1 .064.159.03.03 0 0 1-.017.033c-.02.01-.017.024-.005.04a.03.03 0 0 0 .02-.01c.019-.04.058-.062.087-.094.075-.084.141-.173.226-.25a.05.05 0 0 0 .023-.056c-.004-.017 0-.035.028-.023.013.006.019-.005.024-.015.03-.055.09-.09.106-.155a.06.06 0 0 1 .022-.028.5.5 0 0 0 .07-.06 1 1 0 0 0 .156-.15c.024-.039.027-.046-.02-.058zm2.384-1.055q.02-.007.02-.018c.005-.04.021-.075.022-.115q0-.05.019-.097c.011-.026.005-.058.02-.085q.001-.01-.005-.022l-.005-.004-.006-.002a.02.02 0 0 0-.01.008l-.004.017q-.02.124-.047.249a.2.2 0 0 0 0 .066zm-2.683 1.612c-.01.022-.042.03-.042.07.054-.063.123-.1.153-.18a.1.1 0 0 1-.045.01q-.008 0-.013.003l-.01.01c-.018.036-.055.054-.079.088.017-.002.028-.009.04-.004zm2.52-.979a2 2 0 0 1 .07-.198l-.003-.005-.003-.001h-.003q-.002 0-.003.002l-.003.002v.003a.3.3 0 0 1-.047.093.1.1 0 0 0-.005.101zm-2.027 6.333c.015.026.034.042.044.064s.02.012.032.008c.011-.005.016-.008.016-.019a.03.03 0 0 0-.017-.024.4.4 0 0 0-.071-.033zm.985-.21c-.01-.017-.043-.03-.05-.023a.03.03 0 0 0-.01.04c.013.019.034.027.046.018.01-.009.026-.022.019-.038zm-.826-2.38c-.02-.037-.014-.08-.037-.114-.004-.007-.01-.014-.018-.011a.014.014 0 0 0-.008.014l.002.006.049.106zm1.936-3.976h.011a.5.5 0 0 0 .042-.124l-.003-.005-.005-.003c-.009 0-.015 0-.017.011a1 1 0 0 1-.024.118zm.054-2.383a.1.1 0 0 0 0-.058c0-.011-.012-.027.014-.025.007 0 .006-.008.004-.014-.002-.005-.01-.019-.019-.017a.03.03 0 0 0-.016.009.03.03 0 0 0-.005.017q.001.046.026.086zm-2.097 6.148a.13.13 0 0 0-.036-.09c.017.03.009.065.04.088zm-.602-2.533a.17.17 0 0 0-.07.074.3.3 0 0 0 .074-.073z"/><path fill="#fff" d="M35.12 39.531q0-.035.005-.07.043-.213.06-.43h.009c0 .058-.006.116-.008.174s-.02.106-.02.16a.1.1 0 0 1-.012.053.05.05 0 0 0-.008.043c.014.03-.009.046-.016.07zm-.237 1.335a.12.12 0 0 1-.029.07.06.06 0 0 0-.018.051.16.16 0 0 1-.033.088l-.022.035c-.007.011-.008.016-.033.01l.008-.011c.007-.005.013-.012.008-.019s-.013.01-.021 0c.005-.044.058-.05.07-.087-.01-.008-.017.004-.022 0-.005-.005 0-.014 0-.019.035-.037.06-.08.092-.118m.313-2.136q.006.076.004.153a.14.14 0 0 0 0 .07.04.04 0 0 1-.013.042.7.7 0 0 1 .009-.265m-1.251 7.705a.2.2 0 0 1-.014-.07c0-.024.023-.012.036-.015s.017.009.014.02a.05.05 0 0 0 .006.043c.006.008.01.02 0 .028a.034.034 0 0 1-.042-.006m1.137-6.405q.01.015.008.033a.6.6 0 0 1-.055.194c-.009-.024-.005-.033.018-.11.011-.04.016-.08.03-.117zm-.352.802a.06.06 0 0 1-.014.051.2.2 0 0 0-.03.064.08.08 0 0 1-.058.058.6.6 0 0 0 .077-.15.1.1 0 0 1 .025-.023m-.684 5.245q-.013-.013-.027-.024c-.01-.008-.012-.023-.004-.036l.007-.005h.003l.003.001.002.003v.003c-.007.022.009.026.021.033a.04.04 0 0 1 .023.027c0 .017 0 .031.02.04.003 0 .004.007.005.012v.01l-.008.009q-.01.002-.014-.007a.3.3 0 0 1-.031-.066m1.077-6.351.021-.099c0-.01.009-.018.02-.016.01.003.009.014.008.022a.3.3 0 0 0-.013.066c.002.015-.02.018-.036.027m-.04.304.025-.15h.01a.17.17 0 0 1-.036.147zm-1.094 6.197a.08.08 0 0 0 .02.07.02.02 0 0 1 .007.012q0 .008-.004.014a.02.02 0 0 1-.025.005c-.01 0-.011-.013-.01-.022q.001-.018-.005-.035c-.004-.018-.004-.018.017-.044m.589-9.092c.044.033.046.089.077.14-.058-.036-.054-.096-.077-.14"/></svg>