<svg width="143" height="121" viewBox="0 0 143 121" fill="none" xmlns="http://www.w3.org/2000/svg">
<path d="M229.651 186.395C229.651 188.052 228.825 189.71 227.186 190.659L221.012 194.226L171.53 222.797C167.723 225.002 163.021 225.002 159.208 222.803L-13.2497 123.241L-19.4173 119.679C-21.0624 118.731 -21.8818 117.067 -21.8818 115.41C-21.8818 113.752 -21.0624 112.089 -19.4173 111.14L42.3999 75.4531L227.186 182.125C228.825 183.074 229.651 184.731 229.651 186.395Z" fill="#91D6A8"/>
<path d="M229.651 155.588C229.651 157.246 228.825 158.903 227.186 159.852L221.012 163.419L171.53 191.99C167.723 194.196 163.021 194.196 159.208 191.996L-13.2497 92.4341L-19.4173 88.8728C-21.0624 87.924 -21.8818 86.2604 -21.8818 84.603C-21.8818 82.9456 -21.0624 81.2821 -19.4173 80.3332L42.3999 44.6465L227.186 151.319C228.825 152.267 229.651 153.925 229.651 155.588Z" fill="white" stroke="#5FC381" stroke-width="0.739367" stroke-linecap="round" stroke-linejoin="round"/>
<path d="M208.296 142.033L199.226 147.27L170.705 163.739C167.76 165.44 162.979 165.44 160.033 163.739L8.54326 76.2845L-0.526362 71.0474C-2.0051 70.1971 -2.73828 69.0819 -2.73828 67.9667C-2.73828 66.8515 -2.0051 65.7362 -0.526362 64.886L37.0643 43.1856C40.0094 41.485 44.7846 41.485 47.7359 43.1856L208.296 135.871C209.534 136.586 210.249 137.492 210.44 138.416C210.723 139.704 210.002 141.047 208.296 142.033Z" fill="white" stroke="#5FC381" stroke-width="0.739367" stroke-linecap="round" stroke-linejoin="round"/>
<path d="M210.508 138.418V155.473H210.495C210.557 156.625 209.817 157.789 208.296 158.671L170.705 180.371C167.76 182.078 162.979 182.078 160.033 180.371L-0.526363 87.6852C-2.0051 86.8349 -2.73828 85.7197 -2.73828 84.6045V67.9688C-2.73828 69.084 -2.0051 70.1992 -0.526363 71.0494L8.54326 76.2866L160.033 163.741C162.979 165.442 167.76 165.442 170.705 163.741L199.226 147.272L208.296 142.035C210.002 141.049 210.723 139.706 210.44 138.418H210.508Z" fill="#91D6A8" stroke="#5FC381" stroke-width="0.739367" stroke-linecap="round" stroke-linejoin="round"/>
<path d="M14.6246 88.3809L7.52051 84.2773" stroke="#5FC381" stroke-width="0.739367" stroke-linecap="round" stroke-linejoin="round"/>
<path d="M50.78 109.25L22.8135 93.1074" stroke="#5FC381" stroke-width="0.739367" stroke-linecap="round" stroke-linejoin="round"/>
<path d="M73.989 122.651L57.9756 113.402" stroke="#5FC381" stroke-width="0.739367" stroke-linecap="round" stroke-linejoin="round"/>
<path d="M229.651 155.589V171.251C229.651 172.909 228.825 174.566 227.186 175.515L171.53 207.659C167.723 209.858 163.021 209.858 159.208 207.659L-19.4173 104.536C-21.0624 103.587 -21.8818 101.923 -21.8818 100.266V84.6035C-21.8818 86.2609 -21.0624 87.9245 -19.4173 88.8733L-13.2497 92.4346L159.208 191.997C163.021 194.196 167.723 194.196 171.53 191.99L221.012 163.42L227.186 159.853C228.825 158.904 229.651 157.246 229.651 155.589Z" fill="#91D6A8" stroke="#5FC381" stroke-width="0.739367" stroke-linecap="round" stroke-linejoin="round"/>
<path d="M97.3224 164.431L-12.2334 101.178" stroke="#5FC381" stroke-width="0.739367" stroke-linecap="round" stroke-linejoin="round"/>
<path d="M120.26 51.7812V65.7799C120.26 66.5439 119.884 67.3142 119.12 67.7517L103.095 77.006C101.677 77.8193 99.9399 77.8193 98.5351 77.006L82.497 67.7517C81.7391 67.3142 81.3633 66.5439 81.3633 65.7799V51.7812C81.3633 52.5453 81.7391 53.3154 82.497 53.7529L98.5289 63.0073C99.9399 63.8206 101.677 63.8206 103.088 63.0073L119.114 53.7529C119.878 53.3154 120.254 52.5453 120.254 51.7812H120.26Z" fill="#B5E3C4" stroke="#5FC381" stroke-width="0.739367" stroke-linecap="round" stroke-linejoin="round"/>
<path d="M120.26 65.7793V100.172C120.26 100.93 119.885 101.706 119.114 102.144L103.095 111.398C101.672 112.212 99.9463 112.212 98.5354 111.398L82.5034 102.144C81.7456 101.7 81.3698 100.93 81.3698 100.172H81.3574V65.7793C81.3574 66.5371 81.7332 67.3136 82.4911 67.7511L98.5292 77.0053C99.9402 77.8186 101.672 77.8186 103.089 77.0053L119.108 67.7511C119.878 67.3074 120.254 66.5371 120.254 65.7793H120.26Z" fill="#91D6A8" stroke="#5FC381" stroke-width="0.739367" stroke-linecap="round" stroke-linejoin="round"/>
<path d="M120.26 85.4609V100.18C120.26 100.938 119.885 101.715 119.114 102.152L103.095 111.406C101.672 112.22 99.9463 112.22 98.5354 111.406L82.5034 102.152C81.7456 101.708 81.3698 100.938 81.3698 100.18H81.3574V85.4609C81.3574 86.2188 81.7332 86.9951 82.4911 87.4326L98.5292 96.687C99.9402 97.5003 101.672 97.5003 103.089 96.687L119.108 87.4326C119.878 86.9889 120.254 86.2188 120.254 85.4609H120.26Z" fill="white" stroke="#5FC381" stroke-width="0.739367" stroke-linecap="round" stroke-linejoin="round"/>
<path d="M120.261 51.7813C120.261 52.5453 119.885 53.3155 119.121 53.7529L103.095 63.0074C101.678 63.8207 99.9405 63.8207 98.5357 63.0074L82.5038 53.7529C81.7459 53.3155 81.3701 52.5453 81.3701 51.7813C81.3701 51.0173 81.7459 50.241 82.5038 49.8035L98.5357 40.5553C99.9467 39.742 101.684 39.742 103.095 40.5553L119.121 49.8035C119.885 50.241 120.261 51.0112 120.261 51.7813Z" fill="#E7F6EC" stroke="#5FC381" stroke-width="0.739367" stroke-linecap="round" stroke-linejoin="round"/>
<path d="M151.987 13.0879V35.8544C151.987 36.6184 151.611 37.3885 150.847 37.826L134.821 47.0804C133.404 47.8937 131.666 47.8937 130.262 47.0804L114.224 37.826C113.466 37.3885 113.09 36.6184 113.09 35.8544V13.0879C113.09 13.8519 113.466 14.6222 114.224 15.0597L130.255 24.3141C131.666 25.1274 133.404 25.1274 134.815 24.3141L150.841 15.0597C151.605 14.6222 151.981 13.8519 151.981 13.0879H151.987Z" fill="#B5E3C4" stroke="#5FC381" stroke-width="0.739367" stroke-linecap="round" stroke-linejoin="round"/>
<path d="M151.987 35.8613V118.498C151.987 119.268 151.599 120.038 150.841 120.482L134.809 129.736C133.398 130.55 131.661 130.55 130.25 129.736L114.218 120.482C113.46 120.038 113.084 119.268 113.084 118.498V35.8613C113.084 36.6192 113.46 37.3955 114.218 37.8329L130.25 47.0874C131.661 47.9007 133.398 47.9007 134.809 47.0874L150.841 37.8329C151.599 37.3893 151.987 36.6192 151.987 35.8613Z" fill="#91D6A8" stroke="#5FC381" stroke-width="0.739367" stroke-linecap="round" stroke-linejoin="round"/>
<path d="M151.987 83.0996V118.497C151.987 119.267 151.599 120.037 150.841 120.481L134.809 129.735C133.398 130.548 131.661 130.548 130.25 129.735L114.218 120.481C113.46 120.037 113.084 119.267 113.084 118.497V83.0996C113.084 83.8575 113.46 84.6338 114.218 85.0712L130.25 94.3256C131.661 95.139 133.398 95.139 134.809 94.3256L150.841 85.0712C151.599 84.6276 151.987 83.8575 151.987 83.0996Z" fill="white" stroke="#5FC381" stroke-width="0.739367" stroke-linecap="round" stroke-linejoin="round"/>
<path d="M151.987 13.088C151.987 13.852 151.612 14.6223 150.848 15.0597L134.822 24.3142C133.405 25.1275 131.667 25.1275 130.262 24.3142L114.23 15.0597C113.473 14.6223 113.097 13.852 113.097 13.088C113.097 12.324 113.473 11.5476 114.23 11.1102L130.262 1.86193C131.673 1.04863 133.411 1.04863 134.822 1.86193L150.848 11.1102C151.612 11.5476 151.987 12.3178 151.987 13.088Z" fill="#E7F6EC" stroke="#5FC381" stroke-width="0.739367" stroke-linecap="round" stroke-linejoin="round"/>
<path d="M73.9886 49.9395C73.9886 51.7448 73.4649 53.5563 72.4113 55.2754C71.2406 57.1977 69.4168 59.0153 66.9399 60.6172C66.5887 60.8452 66.2253 61.0671 65.8494 61.2827C64.4385 62.096 62.9165 62.8046 61.3084 63.4084L46.8477 49.9395L60.0577 36.0332C62.1279 36.7171 64.0811 37.5736 65.8494 38.5964C71.2776 41.7264 73.9886 45.836 73.9886 49.9395Z" fill="#91D6A8" stroke="#5FC381" stroke-width="0.739367" stroke-linecap="round" stroke-linejoin="round"/>
<path d="M61.3024 63.4083C50.5323 67.444 35.9852 66.7355 26.5398 61.2827C26.164 61.067 25.8004 60.8452 25.4492 60.6172C22.9723 59.0152 21.1486 57.1977 19.9779 55.2753C19.1153 53.8705 18.6101 52.4041 18.4561 50.9377L46.8416 49.9395L61.3024 63.4083Z" fill="#E7F6EC" stroke="#5FC381" stroke-width="0.739367" stroke-linecap="round" stroke-linejoin="round"/>
<path d="M60.0572 36.0264L46.8472 49.9327L18.4617 50.9309C18.4247 50.5982 18.4062 50.2654 18.4062 49.9327C18.4062 45.823 21.1172 41.7196 26.5454 38.5896C35.6273 33.3463 49.435 32.4897 60.0572 36.0264Z" fill="white" stroke="#5FC381" stroke-width="0.739367" stroke-linecap="round" stroke-linejoin="round"/>
<path d="M73.9823 49.9395V66.7107C73.9823 70.8204 71.2713 74.924 65.8431 78.054C54.9929 84.3201 37.3959 84.3201 26.5396 78.054C21.1175 74.9178 18.4004 70.8142 18.4004 66.7107V49.9395C18.4004 51.7447 18.9241 53.5563 19.9777 55.2753C21.1483 57.1977 22.9721 59.0152 25.449 60.6172C25.8002 60.8452 26.1637 61.067 26.5396 61.2827C37.3898 67.5488 54.9867 67.5488 65.8431 61.2827C66.219 61.067 66.5824 60.8452 66.9336 60.6172C69.4105 59.0152 71.2343 57.1977 72.4049 55.2753C73.4585 53.5501 73.9823 51.7447 73.9823 49.9395Z" fill="#B5E3C4" stroke="#5FC381" stroke-width="0.739367" stroke-linecap="round" stroke-linejoin="round"/>
</svg>
