<svg xmlns="http://www.w3.org/2000/svg" width="20" height="21" fill="none"><path fill="#1574E5" fill-rule="evenodd" d="M17 0H3a3 3 0 0 0-3 3v10a3 3 0 0 0 3 3h5.586l-3.293 3.293a1 1 0 1 0 1.414 1.414L10 17.414l3.293 3.293a1 1 0 0 0 1.414-1.414L11.414 16H17a3 3 0 0 0 3-3V3a3 3 0 0 0-3-3M3.293 12.374a1 1 0 0 1 0-1.414l4-4a1 1 0 0 1 1.34-.068l1.273 1.04 3.362-3.613a1 1 0 0 1 1.461-.003l2 2.133a1 1 0 1 1-1.458 1.368l-1.268-1.352-3.27 3.516a1 1 0 0 1-1.366.094l-1.3-1.062-3.36 3.36a1 1 0 0 1-1.414 0" clip-rule="evenodd"/></svg>