<svg xmlns="http://www.w3.org/2000/svg" width="81" height="80" fill="none"><rect width="77" height="77" x="1.7" y="1.5" fill="#E8F1FC" rx="38.5"/><rect width="77" height="77" x="1.7" y="1.5" stroke="#093160" stroke-width="3" rx="38.5"/><path fill="#093160" fill-rule="evenodd" d="M45.367 27.5v-4.167h-8.334V27.5zm-20.834 4.167v22.916h33.334V31.667zM57.867 27.5a4.15 4.15 0 0 1 4.166 4.167v22.916a4.15 4.15 0 0 1-4.166 4.167H24.533a4.15 4.15 0 0 1-4.166-4.167l.02-22.916c0-2.313 1.834-4.167 4.146-4.167h8.334v-4.167a4.15 4.15 0 0 1 4.166-4.166h8.334a4.15 4.15 0 0 1 4.166 4.166V27.5z" clip-rule="evenodd"/></svg>