<svg width="24" height="24" viewBox="0 0 24 24" fill="none" xmlns="http://www.w3.org/2000/svg">
<path d="M16.7071 13.7071L12.7071 17.7071C12.3166 18.0976 11.6834 18.0976 11.2929 17.7071L7.29289 13.7071C6.90237 13.3166 6.90237 12.6834 7.29289 12.2929C7.68342 11.9024 8.31658 11.9024 8.70711 12.2929L11 14.5858V3C11 2.44771 11.4477 2 12 2C12.5523 2 13 2.44771 13 3V14.5858L15.2929 12.2929C15.6834 11.9024 16.3166 11.9024 16.7071 12.2929C17.0976 12.6834 17.0976 13.3166 16.7071 13.7071Z" fill="#98A2B3"/>
<path d="M4 17.5C4 16.9477 3.55228 16.5 3 16.5C2.44772 16.5 2 16.9477 2 17.5V19C2 21.2091 3.79086 23 6 23H18C20.2091 23 22 21.2091 22 19V17.5C22 16.9477 21.5523 16.5 21 16.5C20.4477 16.5 20 16.9477 20 17.5V19C20 20.1046 19.1046 21 18 21H6C4.89543 21 4 20.1046 4 19V17.5Z" fill="#98A2B3"/>
</svg>
