<svg width="20" height="16" viewBox="0 0 20 16" fill="none" xmlns="http://www.w3.org/2000/svg">
<path fill-rule="evenodd" clip-rule="evenodd" d="M15.8337 15.5C17.6747 15.5 19.167 14.0076 19.167 12.1667V4.68557C19.1673 4.67283 19.1673 4.66005 19.167 4.64725V3.83333C19.167 1.99238 17.6747 0.5 15.8337 0.5H4.16705C2.3261 0.5 0.833718 1.99238 0.833718 3.83333V4.64726C0.833422 4.66005 0.833423 4.67282 0.833718 4.68556V12.1667C0.833718 14.0076 2.3261 15.5 4.16705 15.5H15.8337ZM2.50038 12.1667C2.50038 13.0871 3.24658 13.8333 4.16705 13.8333H15.8337C16.7542 13.8333 17.5004 13.0871 17.5004 12.1667V5.89753L11.2384 8.40234C10.4436 8.72022 9.55712 8.72022 8.76241 8.40234L2.50038 5.89753V12.1667ZM10.6194 6.85488L17.5004 4.10247V3.83333C17.5004 2.91286 16.7542 2.16667 15.8337 2.16667H4.16705C3.24658 2.16667 2.50038 2.91286 2.50038 3.83333V4.10247L9.3814 6.85488C9.77875 7.01382 10.222 7.01382 10.6194 6.85488Z" fill="#667185"/>
</svg>
