<svg xmlns="http://www.w3.org/2000/svg" width="20" height="20" fill="none"><path fill="#667185" d="M17.256 2.744a.833.833 0 0 1 0 1.179L3.923 17.256a.833.833 0 1 1-1.179-1.179L16.077 2.744a.833.833 0 0 1 1.179 0m-4.09 1.733A7.4 7.4 0 0 0 10 3.75c-2.453 0-4.418 1.253-5.814 2.583C2.787 7.666 1.88 9.15 1.52 9.791a1.54 1.54 0 0 0-.07 1.37c.135.31.364.793.703 1.353a.833.833 0 1 0 1.426-.862 10 10 0 0 1-.576-1.098c.339-.596 1.14-1.877 2.333-3.014C6.569 6.365 8.142 5.417 10 5.417c.668 0 1.3.122 1.892.334zm1.576 3.138c1.15 1.118 1.924 2.356 2.255 2.939a10 10 0 0 1-.576 1.098.833.833 0 1 0 1.426.862c.339-.56.568-1.042.703-1.354a1.54 1.54 0 0 0-.07-1.369c-.35-.625-1.22-2.05-2.56-3.355z"/><path fill="#667185" d="M10 6.667q.455 0 .883.093L9.168 8.475a2.5 2.5 0 0 0-1.526 1.526l-1.715 1.715A4.167 4.167 0 0 1 10 6.666m0 6.667c-.292 0-.573-.05-.834-.142l-1.25 1.25a4.167 4.167 0 0 0 5.693-5.693L12.357 10A2.5 2.5 0 0 1 10 13.333"/></svg>