<svg xmlns="http://www.w3.org/2000/svg" width="56" height="56" fill="none"><g clip-path="url(#a)"><path fill="#1877F2" d="M55.011 28C55.011 13.08 42.917.987 27.998.987S.985 13.08.985 28c0 13.483 9.879 24.658 22.793 26.685V35.808h-6.86V28h6.86v-5.951c0-6.77 4.032-10.51 10.203-10.51 2.955 0 6.046.527 6.046.527v6.648h-3.406c-3.355 0-4.402 2.082-4.402 4.219V28h7.492l-1.198 7.808H32.22v18.877C45.133 52.658 55.011 41.483 55.011 28"/><path fill="#fff" d="M38.513 35.808 39.71 28h-7.492v-5.067c0-2.136 1.047-4.219 4.402-4.219h3.407v-6.647s-3.092-.528-6.047-.528c-6.17 0-10.203 3.74-10.203 10.51V28h-6.859v7.808h6.859v18.877a27.2 27.2 0 0 0 8.441 0V35.808z"/></g><defs><clipPath id="a"><path fill="#fff" d="M.987.987h54.026v54.026H.987z"/></clipPath></defs></svg>