<svg width="32" height="33" viewBox="0 0 32 33" fill="none" xmlns="http://www.w3.org/2000/svg">
<g id="Social media logo">
<path id="Subtract" fill-rule="evenodd" clip-rule="evenodd" d="M4 16.4771C4 22.4104 8.33333 27.3437 14 28.3437L14.0669 28.2902C14.0446 28.2859 14.0223 28.2815 14 28.2771V19.8104H11V16.4771H14V13.8104C14 10.8104 15.9333 9.14372 18.6667 9.14372C19.5333 9.14372 20.4667 9.27705 21.3333 9.41038V12.4771H19.8C18.3333 12.4771 18 13.2104 18 14.1437V16.4771H21.2L20.6667 19.8104H18V28.2771C17.9777 28.2815 17.9554 28.2859 17.9331 28.2902L18 28.3437C23.6667 27.3437 28 22.4104 28 16.4771C28 9.87705 22.6 4.47705 16 4.47705C9.4 4.47705 4 9.87705 4 16.4771Z" fill="white"/>
</g>
</svg>
