<svg width="56" height="56" viewBox="0 0 56 56" fill="none" xmlns="http://www.w3.org/2000/svg">
<path d="M51.7723 28.563C51.7723 26.8071 51.6148 25.1188 51.3221 23.498H28.001V33.0764H41.3273C40.7533 36.1716 39.0087 38.7942 36.3862 40.55V46.763H44.3888C49.071 42.4522 51.7723 36.1041 51.7723 28.563Z" fill="#4285F4"/>
<path d="M28.0001 52.7619C34.6858 52.7619 40.291 50.5445 44.388 46.7627L36.3854 40.5497C34.1681 42.0354 31.3317 42.9134 28.0001 42.9134C21.5508 42.9134 16.092 38.5575 14.1448 32.7047H5.87207V39.1203C9.94652 47.2129 18.3205 52.7619 28.0001 52.7619Z" fill="#34A853"/>
<path d="M14.1457 32.7047C13.6505 31.219 13.3691 29.632 13.3691 28C13.3691 26.368 13.6505 24.7809 14.1457 23.2952V16.8796H5.87302C4.13969 20.3302 3.23773 24.1385 3.23926 28C3.23926 31.9957 4.19597 35.7775 5.87302 39.1203L14.1457 32.7047Z" fill="#FBBC05"/>
<path d="M28.0001 13.0865C31.6356 13.0865 34.8997 14.3359 37.4659 16.7896L44.5681 9.68739C40.2798 5.69172 34.6746 3.23804 28.0001 3.23804C18.3205 3.23804 9.94652 8.78695 5.87207 16.8796L14.1448 23.2952C16.092 17.4424 21.5508 13.0865 28.0001 13.0865Z" fill="#EA4335"/>
</svg>
