<svg xmlns="http://www.w3.org/2000/svg" width="56" height="56" fill="none"><path fill="#4285F4" d="M51.772 28.563a28.4 28.4 0 0 0-.45-5.065H28.001v9.578h13.326c-.574 3.096-2.318 5.718-4.94 7.474v6.213h8.002c4.682-4.31 7.383-10.659 7.383-18.2"/><path fill="#34A853" d="M28 52.762c6.686 0 12.291-2.218 16.388-6l-8.003-6.212c-2.217 1.485-5.053 2.363-8.385 2.363-6.45 0-11.908-4.355-13.855-10.208H5.872v6.415C9.947 47.213 18.321 52.762 28 52.762"/><path fill="#FBBC05" d="M14.146 32.705A14.9 14.9 0 0 1 13.369 28c0-1.632.281-3.22.777-4.705V16.88H5.873A24.75 24.75 0 0 0 3.239 28c0 3.996.957 7.778 2.634 11.12z"/><path fill="#EA4335" d="M28 13.087c3.636 0 6.9 1.249 9.466 3.703l7.102-7.103C40.28 5.692 34.675 3.238 28 3.238c-9.68 0-18.053 5.549-22.128 13.642l8.273 6.415C16.092 17.442 21.55 13.086 28 13.086"/></svg>