<svg width="143" height="121" viewBox="0 0 143 121" fill="none" xmlns="http://www.w3.org/2000/svg">
<path d="M90.2183 113.646V150.301C90.2183 150.423 90.1863 150.545 90.1285 150.661C89.9807 150.963 89.6467 151.245 89.1265 151.483C87.6749 152.132 85.3242 152.132 83.8727 151.483C83.3524 151.245 83.0184 150.963 82.8771 150.661C82.8193 150.545 82.7871 150.423 82.7871 150.301V113.646H90.2183Z" fill="#FBE2B7" stroke="#F7C164" stroke-width="0.770734" stroke-linecap="round" stroke-linejoin="round"/>
<path d="M90.2183 89.4336H82.7871V113.647H90.2183V89.4336Z" fill="#FBE2B7" stroke="#F7C164" stroke-width="0.770734" stroke-miterlimit="10" stroke-linecap="round"/>
<path d="M164.903 87.5401V171.646C164.903 173.535 164.318 174.922 163.342 175.699L163.316 175.719C163.085 175.898 162.835 176.046 162.565 176.149C161.402 176.637 159.887 176.457 158.229 175.5L18.354 94.7465C14.6673 92.6141 11.6807 87.4438 11.6807 83.1855V-0.920907C11.6807 -2.96978 12.3744 -4.42775 13.4984 -5.15994L13.7231 -5.2884C14.9177 -5.9371 16.5556 -5.81507 18.354 -4.77458L20.9487 -3.27807L158.229 75.9791C161.916 78.1115 164.903 83.2818 164.903 87.5401Z" fill="white" stroke="#F7C164" stroke-width="0.770734" stroke-linecap="round" stroke-linejoin="round"/>
<path d="M164.903 87.5401V100.18L20.9487 17.0693L11.6807 11.7191V-0.920907C11.6807 -2.96978 12.3744 -4.42775 13.4984 -5.15994L13.7231 -5.2884C14.9177 -5.9371 16.5556 -5.81507 18.354 -4.77458L20.9487 -3.27807L158.229 75.9791C161.916 78.1115 164.903 83.2818 164.903 87.5401Z" fill="#FEF6E7" stroke="#F7C164" stroke-width="0.770734" stroke-linecap="round" stroke-linejoin="round"/>
<path d="M25.0979 9.28905C25.0979 10.8883 23.9738 11.5434 22.5864 10.7406C21.1991 9.93775 20.0752 7.99164 20.0752 6.39237C20.0752 4.79309 21.1991 4.13797 22.5864 4.94082C23.9738 5.74367 25.0979 7.68977 25.0979 9.28905Z" fill="#F7C164"/>
<path d="M35.5412 15.3203C35.5412 16.9196 34.4171 17.5747 33.0298 16.7718C31.6425 15.969 30.5186 14.0229 30.5186 12.4236C30.5186 10.8243 31.6425 10.1692 33.0298 10.9721C34.4171 11.7749 35.5412 13.721 35.5412 15.3203Z" fill="#F7C164"/>
<path d="M45.9846 21.3457C45.9846 22.945 44.8605 23.6001 43.4732 22.7972C42.0858 21.9944 40.9619 20.0483 40.9619 18.449C40.9619 16.8497 42.0858 16.1946 43.4732 16.9975C44.8605 17.8003 45.9846 19.7464 45.9846 21.3457Z" fill="#F7C164"/>
<path d="M45.2524 49.7859L20.5761 35.5401C18.7328 34.4739 17.2363 31.6222 17.2363 29.1623V25.7968C17.2363 23.3368 18.7328 22.2064 20.5761 23.2726L45.2524 37.5183C47.0958 38.5845 48.5923 41.4362 48.5923 43.8962V47.2617C48.5923 49.7216 47.0958 50.852 45.2524 49.7859Z" fill="#FBE2B7" stroke="#F7C164" stroke-width="0.770734" stroke-miterlimit="10" stroke-linecap="round"/>
<path d="M82.1704 71.1023L57.4941 56.8565C55.6508 55.7903 54.1543 52.9386 54.1543 50.4787V47.1132C54.1543 44.6532 55.6508 43.5228 57.4941 44.589L82.1704 58.8347C84.0137 59.9009 85.5102 62.7526 85.5102 65.2126V68.5781C85.5102 71.038 84.0137 72.1684 82.1704 71.1023Z" fill="#FBE2B7" stroke="#F7C164" stroke-width="0.770734" stroke-miterlimit="10" stroke-linecap="round"/>
<path d="M119.083 92.4128L94.4062 78.1671C92.5629 77.1009 91.0664 74.2492 91.0664 71.7893V68.4237C91.0664 65.9638 92.5629 64.8334 94.4062 65.8996L119.083 80.1453C120.926 81.2115 122.422 84.0632 122.422 86.5231V89.8887C122.422 92.3486 120.926 93.479 119.083 92.4128Z" fill="#FBE2B7" stroke="#F7C164" stroke-width="0.770734" stroke-miterlimit="10" stroke-linecap="round"/>
<path d="M156 113.731L131.324 99.4854C129.481 98.4193 127.984 95.5675 127.984 93.1076V89.7421C127.984 87.2821 129.481 86.1517 131.324 87.2179L156 101.464C157.844 102.53 159.34 105.382 159.34 107.841V111.207C159.34 113.667 157.844 114.797 156 113.731Z" fill="#FBE2B7" stroke="#F7C164" stroke-width="0.770734" stroke-miterlimit="10" stroke-linecap="round"/>
<path d="M102.711 137.028L20.5761 89.6082C18.7328 88.542 17.2363 85.6903 17.2363 83.2304V44.4882C17.2363 42.0282 18.7328 40.8978 20.5761 41.964L102.711 89.3834C104.554 90.4496 106.05 93.3013 106.05 95.7612V134.503C106.05 136.963 104.554 138.094 102.711 137.028Z" fill="white" stroke="#F7C164" stroke-width="0.770734" stroke-linecap="round" stroke-linejoin="round"/>
<path d="M156.001 167.793L114.953 144.093C113.11 143.026 111.613 140.175 111.613 137.715V98.9725C111.613 96.5126 113.11 95.3822 114.953 96.4484L156.001 120.148C157.844 121.215 159.341 124.066 159.341 126.526V165.269C159.341 167.728 157.844 168.859 156.001 167.793Z" fill="white" stroke="#F7C164" stroke-width="0.770734" stroke-linecap="round" stroke-linejoin="round"/>
<path d="M39.0225 40.0547L42.099 41.8338" stroke="#F7C164" stroke-width="0.770734" stroke-linecap="round" stroke-linejoin="round"/>
<path d="M23.7295 31.2305L34.9308 37.6982" stroke="#F7C164" stroke-width="0.770734" stroke-linecap="round" stroke-linejoin="round"/>
<path d="M69.832 57.8457L79.0166 63.1509" stroke="#F7C164" stroke-width="0.770734" stroke-linecap="round" stroke-linejoin="round"/>
<path d="M60.6426 52.541L65.1835 55.1615" stroke="#F7C164" stroke-width="0.770734" stroke-linecap="round" stroke-linejoin="round"/>
<path d="M106.744 79.1582L115.935 84.4634" stroke="#F7C164" stroke-width="0.770734" stroke-linecap="round" stroke-linejoin="round"/>
<path d="M97.5596 73.8535L101.786 76.2942" stroke="#F7C164" stroke-width="0.770734" stroke-linecap="round" stroke-linejoin="round"/>
<path d="M134.471 95.1699L145.28 101.406" stroke="#F7C164" stroke-width="0.770734" stroke-linecap="round" stroke-linejoin="round"/>
<path d="M100.084 116.582C100.084 115.6 99.1591 114.488 98.4269 114.572C96.2367 114.816 94.0336 112.324 89.891 104.886C84.7206 95.6054 81.4193 99.4976 76.6857 102.735C71.9457 105.965 68.9334 96.1064 65.6321 87.7375C62.3308 79.3686 57.5908 73.6459 50.1275 81.2762C42.6643 88.9 37.6416 88.8165 32.3942 77.339C29.3883 70.7621 26.8128 69.2206 25.1557 69.0986C23.9482 69.0151 23.2031 70.0235 23.2031 71.5457V82.1432C23.2031 83.5627 24.1988 85.2904 25.4255 85.9969L97.8489 127.809C99.0756 128.516 100.071 127.944 100.071 126.525V116.589L100.084 116.582Z" fill="#FBE2B7" stroke="#F7C164" stroke-width="0.770734" stroke-linecap="round" stroke-linejoin="round"/>
<path d="M124.285 141.819C122.5 140.792 121.055 138.023 121.055 135.647V111.94C121.055 109.564 122.5 108.472 124.285 109.5C126.071 110.527 127.516 113.296 127.516 115.672V139.379C127.516 141.755 126.071 142.847 124.285 141.819Z" fill="#FEF6E7" stroke="#F7C164" stroke-width="0.770734" stroke-linecap="round" stroke-linejoin="round"/>
<path d="M174.17 82.1567V166.263C174.17 168.325 173.47 169.796 172.327 170.515C172.295 170.541 172.256 170.566 172.218 170.579L163.342 175.698C164.318 174.921 164.902 173.534 164.902 171.645V87.539C164.902 83.2807 161.916 78.1104 158.229 75.978L20.9483 -3.27914L18.3536 -4.77565C16.5552 -5.81614 14.9173 -5.93817 13.7227 -5.28947L22.5091 -10.357L22.522 -10.3699L23.2927 -10.8131C24.4552 -11.2883 25.971 -11.1085 27.6216 -10.1579L167.497 70.6021C171.184 72.7281 174.17 77.9049 174.17 82.1567Z" fill="#FBE2B7" stroke="#F7C164" stroke-width="0.770734" stroke-miterlimit="10" stroke-linecap="round"/>
</svg>
