<svg width="49" height="49" viewBox="0 0 49 49" fill="none" xmlns="http://www.w3.org/2000/svg">
<g id="guaranty_trust_bank_logo.svg" clip-path="url(#clip0_5358_53498)">
<g id="Page-1">
<g id="gtco-logo-new">
<path id="Rectangle" d="M48.5503 0.34375H0.5V48.3969H48.5503V0.34375Z" fill="#E04403"/>
<path id="Rectangle_2" d="M40.0198 7.17432H28.0059V19.1883H40.0198V7.17432Z" fill="white"/>
<path id="Path" d="M12.9389 39.2431C10.9817 39.2431 8.896 38.6979 8.896 33.9448C8.896 29.1918 11.4123 28.3531 13.5288 28.3531C14.3898 28.3413 15.2414 28.5329 16.0144 28.9122V30.6065C15.216 30.3102 14.3786 30.1322 13.5288 30.0781C12.4552 30.0781 11.0125 30.6541 11.0125 33.8162C11.0125 37.1713 12.1309 37.5739 12.9053 37.5739C13.3886 37.5605 13.87 37.5091 14.3452 37.4202V34.2021H12.9053L12.7543 32.5805H16.4645V38.6979C15.3157 39.0215 14.1318 39.2046 12.9389 39.2431Z" fill="white"/>
<path id="Path_2" d="M24.7043 30.31H22.3725V39.0919H20.2504V30.31H17.6782V28.4927H24.9476L24.7043 30.31Z" fill="white"/>
<path id="Path_3" d="M29.2334 39.2431C27.4608 39.2431 25.4785 38.6839 25.4785 33.791C25.4785 28.8982 27.9753 28.3418 29.4291 28.3418C30.1008 28.3279 30.7679 28.4566 31.3862 28.7193V30.4304C30.7902 30.2234 30.1681 30.1011 29.5382 30.0669C28.5093 30.0669 27.6006 30.6876 27.6006 33.791C27.6006 36.5646 28.252 37.5012 29.3872 37.5012C30.0688 37.4769 30.7427 37.3497 31.3862 37.1238V38.8349C30.7066 39.1249 29.9721 39.2641 29.2334 39.2431Z" fill="white"/>
<path id="Shape" d="M36.3013 39.243C34.6657 39.243 32.5156 38.9103 32.5156 33.791C32.5156 28.6717 34.8027 28.3418 36.3013 28.3418C37.7999 28.3418 40.0869 28.7053 40.0869 33.791C40.0869 38.955 37.9005 39.243 36.3013 39.243ZM36.3013 29.8544C35.2416 29.8544 34.6237 30.5506 34.6237 33.791C34.6237 37.079 35.3954 37.7304 36.3013 37.7304C37.2071 37.7304 37.9648 37.1237 37.9648 33.791C37.9648 30.6121 37.3413 29.8544 36.3013 29.8544Z" fill="white"/>
</g>
</g>
</g>
<defs>
<clipPath id="clip0_5358_53498">
<rect width="48" height="48" fill="white" transform="translate(0.5 0.34375)"/>
</clipPath>
</defs>
</svg>
