<svg width="49" height="49" viewBox="0 0 49 49" fill="none" xmlns="http://www.w3.org/2000/svg">
<g clip-path="url(#clip0_6386_110069)">
<path d="M48.8018 0.34375H0.751465V48.3969H48.8018V0.34375Z" fill="#1D2739"/>
<path d="M40.2708 7.17432H28.2568V19.1883H40.2708V7.17432Z" fill="white"/>
<path d="M13.1903 39.2431C11.2332 39.2431 9.14746 38.6979 9.14746 33.9448C9.14746 29.1918 11.6638 28.3531 13.7803 28.3531C14.6412 28.3413 15.4928 28.5329 16.2658 28.9122V30.6065C15.4675 30.3102 14.6301 30.1322 13.7803 30.0781C12.7066 30.0781 11.264 30.6541 11.264 33.8162C11.264 37.1713 12.3823 37.5739 13.1568 37.5739C13.64 37.5605 14.1215 37.5091 14.5967 37.4202V34.2021H13.1568L13.0058 32.5805H16.716V38.6979C15.5671 39.0215 14.3833 39.2046 13.1903 39.2431Z" fill="white"/>
<path d="M24.9558 30.3095H22.624V39.0914H20.5019V30.3095H17.9297V28.4922H25.199L24.9558 30.3095Z" fill="white"/>
<path d="M29.4849 39.2431C27.7123 39.2431 25.73 38.6839 25.73 33.791C25.73 28.8982 28.2267 28.3418 29.6806 28.3418C30.3523 28.3279 31.0193 28.4566 31.6377 28.7193V30.4304C31.0417 30.2234 30.4196 30.1011 29.7896 30.0669C28.7607 30.0669 27.8521 30.6876 27.8521 33.791C27.8521 36.5646 28.5035 37.5012 29.6386 37.5012C30.3202 37.4769 30.9942 37.3497 31.6377 37.1238V38.8349C30.958 39.1249 30.2236 39.2641 29.4849 39.2431Z" fill="white"/>
<path d="M36.5527 39.2425C34.9171 39.2425 32.7671 38.9098 32.7671 33.7905C32.7671 28.6712 35.0541 28.3413 36.5527 28.3413C38.0513 28.3413 40.3384 28.7048 40.3384 33.7905C40.3384 38.9545 38.152 39.2425 36.5527 39.2425ZM36.5527 29.8539C35.4931 29.8539 34.8752 30.5501 34.8752 33.7905C34.8752 37.0785 35.6469 37.7299 36.5527 37.7299C37.4586 37.7299 38.2163 37.1232 38.2163 33.7905C38.2163 30.6116 37.5928 29.8539 36.5527 29.8539Z" fill="white"/>
</g>
<defs>
<clipPath id="clip0_6386_110069">
<rect width="48" height="48" fill="white" transform="translate(0.75 0.34375)"/>
</clipPath>
</defs>
</svg>
