<svg xmlns="http://www.w3.org/2000/svg" width="81" height="80" fill="none"><rect width="77" height="77" x="2.1" y="1.5" fill="#E8F1FC" rx="38.5"/><rect width="77" height="77" x="2.1" y="1.5" stroke="#093160" stroke-width="3" rx="38.5"/><path fill="#093160" d="M53.044 27.957a1.564 1.564 0 0 0-2.211 0l-5.791 5.793h-8.083l-5.79-5.793a1.563 1.563 0 0 0-2.212 2.211l5.794 5.791v8.082l-5.793 5.791a1.563 1.563 0 0 0 2.21 2.211l5.791-5.793h8.082l5.792 5.793a1.565 1.565 0 0 0 2.55-.507 1.565 1.565 0 0 0-.34-1.704l-5.792-5.791v-8.082l5.793-5.791a1.563 1.563 0 0 0 0-2.211m-15.168 8.918h6.25v6.25h-6.25zm5.177-9.896a8.594 8.594 0 1 1 10.969 10.968 1.5 1.5 0 0 1-.521.1 1.562 1.562 0 0 1-.522-3.035 5.469 5.469 0 1 0-6.98-6.98 1.562 1.562 0 1 1-2.946-1.044zm16.698 23.177a8.594 8.594 0 0 1-16.698 2.866A1.563 1.563 0 0 1 46 51.978a5.47 5.47 0 1 0 6.98-6.98 1.562 1.562 0 0 1 1.043-2.945 8.61 8.61 0 0 1 5.729 8.103m-20.803 2.866a8.595 8.595 0 0 1-16.357-.482 8.593 8.593 0 0 1 5.388-10.487 1.562 1.562 0 0 1 1.043 2.945 5.47 5.47 0 1 0 6.98 6.98 1.563 1.563 0 0 1 2.946 1.044M22.25 29.844a8.594 8.594 0 0 1 16.697-2.866 1.565 1.565 0 0 1-.942 2.02 1.563 1.563 0 0 1-2.004-.977 5.468 5.468 0 1 0-6.98 6.981 1.562 1.562 0 0 1-.521 3.045c-.178 0-.355-.03-.522-.09a8.61 8.61 0 0 1-5.728-8.113"/></svg>