<svg width="81" height="80" viewBox="0 0 81 80" fill="none" xmlns="http://www.w3.org/2000/svg">
<rect x="2.1001" y="1.5" width="77" height="77" rx="38.5" fill="#E8F1FC"/>
<rect x="2.1001" y="1.5" width="77" height="77" rx="38.5" stroke="#093160" stroke-width="3"/>
<path d="M53.0435 27.957C52.8983 27.8118 52.726 27.6965 52.5363 27.6179C52.3466 27.5392 52.1433 27.4988 51.938 27.4988C51.7327 27.4988 51.5293 27.5392 51.3396 27.6179C51.15 27.6965 50.9776 27.8118 50.8325 27.957L45.0415 33.75H36.9595L31.1685 27.957C30.8753 27.6638 30.4776 27.4991 30.063 27.4991C29.6484 27.4991 29.2507 27.6638 28.9575 27.957C28.6643 28.2502 28.4996 28.6479 28.4996 29.0625C28.4996 29.4771 28.6643 29.8748 28.9575 30.168L34.7505 35.959V44.041L28.9575 49.832C28.6643 50.1252 28.4996 50.5229 28.4996 50.9375C28.4996 51.3521 28.6643 51.7498 28.9575 52.043C29.2507 52.3362 29.6484 52.5009 30.063 52.5009C30.4776 52.5009 30.8753 52.3362 31.1685 52.043L36.9595 46.25H45.0415L50.8325 52.043C50.9777 52.1881 51.15 52.3033 51.3397 52.3819C51.5294 52.4604 51.7327 52.5009 51.938 52.5009C52.1433 52.5009 52.3466 52.4604 52.5363 52.3819C52.7259 52.3033 52.8983 52.1881 53.0435 52.043C53.1886 51.8978 53.3038 51.7255 53.3824 51.5358C53.4609 51.3461 53.5014 51.1428 53.5014 50.9375C53.5014 50.7322 53.4609 50.5289 53.3824 50.3392C53.3038 50.1495 53.1886 49.9772 53.0435 49.832L47.2505 44.041V35.959L53.0435 30.168C53.1887 30.0229 53.304 29.8505 53.3826 29.6608C53.4612 29.4712 53.5017 29.2678 53.5017 29.0625C53.5017 28.8572 53.4612 28.6538 53.3826 28.4642C53.304 28.2745 53.1887 28.1021 53.0435 27.957ZM37.8755 36.875H44.1255V43.125H37.8755V36.875ZM43.0532 26.9785C43.5375 25.6103 44.3605 24.387 45.4454 23.4227C46.5302 22.4585 47.8416 21.7848 49.2572 21.4643C50.6729 21.1439 52.1466 21.1872 53.5409 21.5903C54.9353 21.9934 56.2048 22.743 57.2311 23.7693C58.2575 24.7957 59.0071 26.0652 59.4102 27.4596C59.8132 28.8539 59.8566 30.3276 59.5362 31.7432C59.2157 33.1589 58.542 34.4703 57.5778 35.5551C56.6135 36.64 55.3902 37.463 54.022 37.9473C53.8552 38.0105 53.6788 38.0442 53.5005 38.0469C53.1321 38.0467 52.7756 37.9164 52.494 37.6789C52.2123 37.4414 52.0236 37.112 51.9613 36.749C51.8989 36.3859 51.9668 36.0124 52.153 35.6946C52.3392 35.3767 52.6318 35.1348 52.979 35.0117C53.8496 34.7034 54.628 34.1797 55.2415 33.4893C55.855 32.7989 56.2837 31.9644 56.4875 31.0636C56.6914 30.1628 56.6638 29.225 56.4073 28.3378C56.1508 27.4505 55.6737 26.6427 55.0207 25.9896C54.3676 25.3365 53.5597 24.8595 52.6725 24.603C51.7852 24.3465 50.8475 24.3189 49.9466 24.5227C49.0458 24.7266 48.2113 25.1552 47.5209 25.7687C46.8306 26.3823 46.3068 27.1606 45.9985 28.0312C45.9327 28.228 45.8283 28.4097 45.6915 28.5657C45.5547 28.7217 45.3882 28.8489 45.2017 28.9398C45.0153 29.0308 44.8125 29.0837 44.6054 29.0955C44.3982 29.1072 44.1908 29.0776 43.9952 29.0084C43.7996 28.9391 43.6198 28.8316 43.4662 28.6921C43.3126 28.5526 43.1884 28.3839 43.1007 28.1958C43.013 28.0078 42.9636 27.8042 42.9555 27.5968C42.9473 27.3895 42.9806 27.1826 43.0532 26.9883V26.9785ZM59.7505 50.1562C59.7515 52.1842 59.0353 54.1471 57.7286 55.6979C56.4219 57.2487 54.6089 58.2874 52.6102 58.6304C50.6115 58.9734 48.5559 58.5985 46.8069 57.572C45.058 56.5456 43.7284 54.9337 43.0532 53.0215C42.9232 52.633 42.951 52.209 43.1306 51.8407C43.3102 51.4725 43.6272 51.1896 44.0134 51.0528C44.3996 50.9161 44.824 50.9365 45.1953 51.1096C45.5666 51.2827 45.8551 51.5948 45.9985 51.9785C46.3068 52.8491 46.8306 53.6275 47.5209 54.241C48.2113 54.8545 49.0458 55.2832 49.9466 55.4871C50.8475 55.6909 51.7852 55.6633 52.6725 55.4068C53.5597 55.1503 54.3676 54.6732 55.0207 54.0202C55.6737 53.3671 56.1508 52.5592 56.4073 51.672C56.6638 50.7847 56.6914 49.847 56.4875 48.9461C56.2837 48.0453 55.855 47.2108 55.2415 46.5204C54.628 45.8301 53.8496 45.3063 52.979 44.998C52.5953 44.8546 52.2832 44.5661 52.1101 44.1948C51.937 43.8236 51.9166 43.3991 52.0533 43.0129C52.1901 42.6268 52.473 42.3097 52.8412 42.1301C53.2094 41.9505 53.6335 41.9227 54.022 42.0527C55.6964 42.647 57.146 43.7449 58.1716 45.1958C59.1973 46.6467 59.7488 48.3794 59.7505 50.1562ZM38.9478 53.0215C38.4634 54.3897 37.6405 55.613 36.5556 56.5773C35.4708 57.5415 34.1594 58.2152 32.7437 58.5357C31.3281 58.8561 29.8544 58.8128 28.46 58.4097C27.0657 58.0066 25.7962 57.257 24.7698 56.2307C23.7435 55.2043 22.9939 53.9348 22.5908 52.5404C22.1877 51.1461 22.1444 49.6724 22.4648 48.2568C22.7852 46.8411 23.459 45.5297 24.4232 44.4449C25.3875 43.36 26.6108 42.537 27.979 42.0527C28.3675 41.9227 28.7915 41.9505 29.1597 42.1301C29.528 42.3097 29.8109 42.6268 29.9477 43.0129C30.0844 43.3991 30.064 43.8236 29.8909 44.1948C29.7177 44.5661 29.4057 44.8546 29.022 44.998C28.1513 45.3063 27.373 45.8301 26.7595 46.5204C26.146 47.2108 25.7173 48.0453 25.5134 48.9461C25.3096 49.847 25.3372 50.7847 25.5937 51.672C25.8502 52.5592 26.3272 53.3671 26.9803 54.0202C27.6334 54.6732 28.4412 55.1503 29.3285 55.4068C30.2158 55.6633 31.1535 55.6909 32.0543 55.4871C32.9552 55.2832 33.7897 54.8545 34.48 54.241C35.1704 53.6275 35.6942 52.8491 36.0024 51.9785C36.1459 51.5948 36.4344 51.2827 36.8056 51.1096C37.1769 50.9365 37.6014 50.9161 37.9876 51.0528C38.3737 51.1896 38.6908 51.4725 38.8704 51.8407C39.0499 52.209 39.0777 52.633 38.9478 53.0215ZM22.2505 29.8438C22.2495 27.8158 22.9657 25.8529 24.2724 24.3021C25.5791 22.7513 27.3921 21.7126 29.3908 21.3696C31.3895 21.0266 33.4451 21.4015 35.1941 22.428C36.943 23.4544 38.2726 25.0663 38.9478 26.9785C39.0204 27.1729 39.0536 27.3797 39.0455 27.5871C39.0374 27.7944 38.988 27.998 38.9003 28.1861C38.8126 28.3741 38.6884 28.5428 38.5348 28.6823C38.3812 28.8218 38.2014 28.9293 38.0058 28.9986C37.8102 29.0678 37.6028 29.0975 37.3956 29.0857C37.1885 29.0739 36.9857 29.021 36.7992 28.9301C36.6128 28.8391 36.4462 28.7119 36.3094 28.5559C36.1726 28.3999 36.0683 28.2182 36.0024 28.0215C35.6942 27.1509 35.1704 26.3725 34.48 25.759C33.7897 25.1455 32.9552 24.7168 32.0543 24.5129C31.1535 24.3091 30.2158 24.3367 29.3285 24.5932C28.4412 24.8497 27.6334 25.3268 26.9803 25.9798C26.3272 26.6329 25.8502 27.4408 25.5937 28.328C25.3372 29.2153 25.3096 30.153 25.5134 31.0538C25.7173 31.9547 26.146 32.7892 26.7595 33.4796C27.373 34.1699 28.1513 34.6937 29.022 35.002C29.3765 35.1198 29.677 35.3608 29.8691 35.6812C30.0612 36.0016 30.1321 36.3802 30.069 36.7484C30.006 37.1166 29.8131 37.45 29.5253 37.6882C29.2376 37.9264 28.874 38.0537 28.5005 38.0469C28.3228 38.0473 28.1463 38.0169 27.979 37.957C26.303 37.3622 24.8523 36.2628 23.8265 34.81C22.8007 33.3571 22.2502 31.6222 22.2505 29.8438Z" fill="#093160"/>
</svg>
