<svg width="32" height="33" viewBox="0 0 32 33" fill="none" xmlns="http://www.w3.org/2000/svg">
<g id="Social media logo">
<path id="Vector" d="M16.0007 4.84082C12.8406 4.84082 12.444 4.85464 11.2028 4.91112C9.96409 4.96785 9.11853 5.16397 8.37868 5.45173C7.61337 5.74894 6.96418 6.14652 6.31741 6.79355C5.67015 7.44034 5.27259 8.08955 4.97442 8.85464C4.68594 9.59476 4.48958 10.4406 4.43383 11.6789C4.37831 12.9201 4.36377 13.3169 4.36377 16.4772C4.36377 19.6374 4.37783 20.0328 4.43407 21.274C4.49104 22.5128 4.68715 23.3584 4.97466 24.0983C5.27211 24.8636 5.66967 25.5128 6.31668 26.1596C6.96321 26.8069 7.6124 27.2054 8.37722 27.5026C9.11757 27.7904 9.96336 27.9865 11.2019 28.0432C12.443 28.0997 12.8394 28.1135 15.9993 28.1135C19.1597 28.1135 19.5551 28.0997 20.7962 28.0432C22.035 27.9865 22.8815 27.7904 23.6219 27.5026C24.3869 27.2054 25.0351 26.8069 25.6817 26.1596C26.3289 25.5128 26.7265 24.8636 27.0247 24.0985C27.3107 23.3584 27.5071 22.5126 27.5652 21.2743C27.621 20.0331 27.6355 19.6374 27.6355 16.4772C27.6355 13.3169 27.621 12.9203 27.5652 11.6791C27.5071 10.4403 27.3107 9.59476 27.0247 8.85488C26.7265 8.08955 26.3289 7.44034 25.6817 6.79355C25.0344 6.14627 24.3872 5.7487 23.6211 5.45173C22.8793 5.16397 22.0333 4.96785 20.7945 4.91112C19.5534 4.85464 19.1582 4.84082 15.9971 4.84082H16.0007ZM14.9569 6.93779C15.2667 6.9373 15.6124 6.93779 16.0007 6.93779C19.1076 6.93779 19.4758 6.94894 20.7027 7.0047C21.8372 7.05658 22.4529 7.24615 22.8631 7.40543C23.4061 7.61634 23.7932 7.86846 24.2003 8.27573C24.6075 8.683 24.8596 9.07088 25.071 9.61391C25.2303 10.0236 25.4201 10.6394 25.4717 11.7739C25.5275 13.0006 25.5396 13.3691 25.5396 16.4745C25.5396 19.58 25.5275 19.9485 25.4717 21.1751C25.4199 22.3097 25.2303 22.9254 25.071 23.3351C24.8601 23.8782 24.6075 24.2648 24.2003 24.6719C23.793 25.0791 23.4063 25.3312 22.8631 25.5422C22.4534 25.7022 21.8372 25.8912 20.7027 25.9431C19.476 25.9989 19.1076 26.011 16.0007 26.011C12.8937 26.011 12.5255 25.9989 11.2988 25.9431C10.1643 25.8908 9.54858 25.7012 9.13817 25.5419C8.59516 25.331 8.20729 25.0789 7.80003 24.6716C7.39277 24.2643 7.14066 23.8774 6.92927 23.3342C6.77 22.9245 6.58019 22.3087 6.52855 21.1742C6.4728 19.9475 6.46165 19.579 6.46165 16.4716C6.46165 13.3642 6.4728 12.9977 6.52855 11.771C6.58043 10.6365 6.77 10.0207 6.92927 9.61052C7.14017 9.06749 7.39277 8.67961 7.80003 8.27234C8.20729 7.86506 8.59516 7.61294 9.13817 7.40155C9.54834 7.24155 10.1643 7.05246 11.2988 7.00034C12.3723 6.95185 12.7882 6.93731 14.9569 6.93488V6.93779ZM22.212 8.86991C21.4411 8.86991 20.8156 9.49464 20.8156 10.2658C20.8156 11.0367 21.4411 11.6622 22.212 11.6622C22.9828 11.6622 23.6083 11.0367 23.6083 10.2658C23.6083 9.49488 22.9828 8.86943 22.212 8.86943V8.86991ZM16.0007 10.5014C12.7007 10.5014 10.0252 13.1771 10.0252 16.4772C10.0252 19.7773 12.7007 22.4517 16.0007 22.4517C19.3008 22.4517 21.9754 19.7773 21.9754 16.4772C21.9754 13.1771 19.3005 10.5014 16.0005 10.5014H16.0007ZM16.0007 12.5984C18.1427 12.5984 19.8794 14.3349 19.8794 16.4772C19.8794 18.6192 18.1427 20.356 16.0007 20.356C13.8585 20.356 12.1221 18.6192 12.1221 16.4772C12.1221 14.3349 13.8585 12.5984 16.0007 12.5984Z" fill="white"/>
</g>
</svg>
