<svg xmlns="http://www.w3.org/2000/svg" width="76" height="76" fill="none"><path fill="#1574E5" d="M45.67 47.739c6.109-2.975 9.234-10.025 8.093-16.594-.505-2.912-1.716-5.835-3.768-8-1.723-1.816-4.011-3.058-6.459-3.569-5.362-1.119-10.96 1.073-14.318 5.359-3.642 4.65-5.046 11.781-2.028 17.1 1.407 2.476 3.64 4.394 6.189 5.625 3.038 1.468 6.63 2.154 9.932 1.254a12.7 12.7 0 0 0 2.47-.986c.513-.264.06-1.03-.453-.773-1.57.784-3.288 1.275-5.049 1.298-1.656.022-3.322-.303-4.886-.836-2.534-.862-4.867-2.459-6.474-4.61-3.409-4.565-2.866-11.204.057-15.878 2.67-4.27 7.594-7.017 12.666-6.71 2.275.14 4.504.921 6.334 2.294 2.11 1.589 3.46 3.878 4.282 6.357.97 2.927 1.171 6.072.342 9.058-.844 3.036-2.693 5.825-5.122 7.825a14 14 0 0 1-2.037 1.39c-.263.147-.034.524.23.395"/><path fill="#1574E5" d="M29.163 44.219a13 13 0 0 1-.317 3.654c-.285 1.19-.832 2.297-1.126 3.484-.226.915-.308 1.932 0 2.837.311.921.986 1.58 1.81 2.063.903.526 1.91.925 2.891 1.286 1.056.388 2.205.682 3.337.616 2.143-.125 3.36-2.013 4.127-3.81.899-2.11 1.604-4.503 3.82-5.59.325-.16.092-.736-.25-.594-1.632.676-2.54 2.222-3.21 3.778-.747 1.735-1.426 3.961-3.134 5.006-1.852 1.132-4.494-.212-6.263-.93-.893-.362-1.892-.789-2.373-1.683-.538-.995-.37-2.178-.045-3.208.364-1.165.899-2.264 1.157-3.463.24-1.158.268-2.35.082-3.518-.043-.286-.517-.218-.503.07z"/><path fill="#1574E5" d="M28.775 56.062c.2.32-.07.735-.18 1.046-.146.402-.196.824-.053 1.235.287.826 1.07 1.366 1.852 1.67.874.338 1.879.394 2.74-.01a2.48 2.48 0 0 0 1.407-1.935c.049-.388-.608-.476-.685-.093-.13.648-.623 1.157-1.236 1.389-.755.286-1.635.125-2.334-.243-.538-.282-1.175-.835-1.056-1.515.119-.666.64-1.343.08-1.954-.26-.282-.736.084-.533.41zm2.09-2.08a20 20 0 0 0 3.59 1.708q.925.32 1.887.51c.644.132 1.37.245 2.028.198.281-.02.369-.439.07-.51-.624-.15-1.284-.225-1.918-.342a22 22 0 0 1-1.838-.443 15.2 15.2 0 0 1-3.6-1.5c-.245-.14-.463.234-.222.379zm1.224-2.337c2.04 1.454 4.413 2.497 6.838 3.112.36.091.512-.475.153-.554-2.45-.532-4.704-1.515-6.814-2.86-.193-.122-.356.174-.177.302m1.337-1.703c1.126.597 2.264 1.188 3.467 1.618 1.147.413 2.482.779 3.706.615.413-.056.445-.69 0-.67-.591.024-1.189.06-1.78.004a9 9 0 0 1-1.801-.398c-1.189-.37-2.319-.899-3.44-1.432-.173-.082-.325.169-.152.26zm-1.667-3.973c1.639-.67 3.303-1.131 5.041-.5.69.253 1.312.66 1.82 1.19.55.574.852 1.24 1.12 1.975.151.412.896.396.833-.113-.216-1.78-1.759-3.23-3.367-3.845-1.813-.693-4.188-.38-5.713.835-.211.166.017.56.266.458"/><path fill="#1574E5" d="M33.665 45.312c1.337-1.23 2.089-2.866 2.567-4.593.5-1.855.838-3.75 1.01-5.663.18-1.9.067-3.918-.893-5.619-.347-.615-.967-1.007-1.618-.508-.651.5-.556 1.453-.318 2.135.58 1.654 2.199 2.668 3.73 3.323a13.05 13.05 0 0 0 5.84 1.056c1.378-.078 3.784-.34 3.723-2.216-.022-.645-.468-1.206-1.131-1.257-.819-.063-1.512.61-2.01 1.173-3.026 3.424-5.353 7.378-7.046 11.611-.17.428.543.634.7.192A34.2 34.2 0 0 1 44.182 34.5c.483-.58.98-1.288 1.63-1.69.337-.206.86-.375 1.127.037.184.287.09.71-.094.97-.432.611-1.328.74-2.014.838-3.026.436-6.746-.292-8.973-2.526-.513-.514-.967-1.191-1.026-1.937-.02-.242-.004-.582.176-.767.301-.31.6-.044.781.233.227.352.358.798.47 1.197.432 1.52.34 3.162.133 4.714a42 42 0 0 1-.926 4.94c-.413 1.606-1.042 3.189-2.182 4.426-.232.253.125.61.377.377zM30.51 17.784l-1.067-1.403a.42.42 0 0 0-.211-.166.35.35 0 0 0-.313.064.362.362 0 0 0-.036.537l1.152 1.337a.303.303 0 0 0 .4.024c.108-.084.17-.272.078-.393zm6.64-1.895-.479-1.538a.333.333 0 0 0-.404-.23c-.159.052-.29.232-.229.405l.544 1.52c.051.14.203.257.362.205a.3.3 0 0 0 .205-.362m6.591.101c.294-.51.444-1.091.432-1.68-.005-.222-.191-.434-.422-.422-.218.01-.44.187-.422.422q.017.274-.018.547l.015-.11a3 3 0 0 1-.142.583l-.019.05c-.006.016-.035.083-.009.024l-.005.013-.028.059q-.027.06-.058.117c-.096.182-.053.436.14.538a.4.4 0 0 0 .539-.14zm6.737 2.285.853-1.374a.396.396 0 0 0-.14-.538.4.4 0 0 0-.539.14l-.859 1.371a.4.4 0 0 0 .14.543.405.405 0 0 0 .543-.141zM54.6 22.11l.97-.475a.36.36 0 0 0-.362-.626l-.946.524a.34.34 0 0 0-.12.46.343.343 0 0 0 .458.119zm2.486 6.717a7.4 7.4 0 0 1 1.396-.357l.07-.01-.023.003.125-.016.251-.023c.224-.018.442-.186.43-.43-.008-.215-.19-.455-.43-.431a7.8 7.8 0 0 0-2.04.473c-.2.076-.36.281-.288.504.064.198.29.365.505.287zm-.034 5.823c.424.14.87.196 1.315.167a.304.304 0 0 0 .298-.297c-.007-.146-.132-.318-.298-.298a3.3 3.3 0 0 1-.767.003c-.01 0-.087-.006-.02 0a3 3 0 0 1-.388-.083.264.264 0 0 0-.141.508zm-.949 5.782 1.21.282a.34.34 0 0 0 .412-.234c.038-.165-.05-.377-.234-.412l-1.223-.238c-.16-.03-.343.045-.383.217a.316.316 0 0 0 .218.383zm-2.096 4.707c.546.254 1.089.518 1.649.74a.38.38 0 0 0 .296-.038.4.4 0 0 0 .157-.183.38.38 0 0 0-.157-.479c-.508-.259-1.034-.478-1.556-.704a.42.42 0 0 0-.297-.039.4.4 0 0 0-.231.178c-.09.17-.057.438.14.529zm-3.243 3.936.976 1.242a.3.3 0 0 0 .21.087.298.298 0 0 0 .212-.507l-1.035-1.185a.257.257 0 0 0-.362 0 .264.264 0 0 0 0 .363zm-3.583 3.302.188 1.034a.38.38 0 0 0 .386.276.375.375 0 0 0 .34-.473q-.112-.515-.221-1.028a.36.36 0 0 0-.444-.253.37.37 0 0 0-.212.165.4.4 0 0 0-.035.277zM24.337 44c-.704.352-1.407.693-2.097 1.072a.37.37 0 0 0-.132.5.376.376 0 0 0 .501.131c.704-.351 1.385-.736 2.073-1.112a.346.346 0 0 0 .123-.468.35.35 0 0 0-.468-.122M21.89 38.66a5 5 0 0 1-.602.148l-.093.015-.061.009h.02a10 10 0 0 1-.82.057c-.204 0-.4.177-.39.39a.396.396 0 0 0 .39.39 4.8 4.8 0 0 0 1.734-.372c.158-.065.288-.221.229-.404a.333.333 0 0 0-.404-.23zm.57-7.978-.779-.293c-.259-.097-.517-.201-.782-.282a.356.356 0 0 0-.433.247c-.047.203.062.36.246.433.257.102.523.182.786.269l.788.259a.33.33 0 0 0 .404-.23.336.336 0 0 0-.23-.403m2.34-6.762q-1.015-.472-2.022-.961a.322.322 0 1 0-.247.588q1.055.37 2.105.76c.223.083.381-.285.163-.387"/></svg>