<svg xmlns="http://www.w3.org/2000/svg" width="42" height="42" fill="none"><path fill="#0A66C2" d="M35.866 35.844h-6.199v-9.612c0-2.292-.041-5.242-3.224-5.242-3.228 0-3.722 2.497-3.722 5.075v9.778h-6.198V16.078h5.95v2.701h.083a6.5 6.5 0 0 1 2.49-2.4 6.6 6.6 0 0 1 3.381-.793c6.283 0 7.441 4.092 7.441 9.415zM9.529 13.376a3.6 3.6 0 0 1-1.999-.6 3.57 3.57 0 0 1-1.325-1.598 3.53 3.53 0 0 1 .779-3.881 3.63 3.63 0 0 1 3.92-.773 3.6 3.6 0 0 1 1.614 1.311 3.536 3.536 0 0 1-.446 4.498 3.6 3.6 0 0 1-2.543 1.043m3.099 22.468H6.423V16.078h6.205zM38.956.554H3.308c-.809-.01-1.589.3-2.167.86a3 3 0 0 0-.92 2.125v35.443c.01.802.34 1.567.919 2.127a3.07 3.07 0 0 0 2.168.862h35.648a3.08 3.08 0 0 0 2.174-.86c.581-.56.914-1.326.925-2.129V3.537a3.02 3.02 0 0 0-.925-2.128A3.08 3.08 0 0 0 38.956.55"/></svg>