<svg width="32" height="33" viewBox="0 0 32 33" fill="none" xmlns="http://www.w3.org/2000/svg">
<g id="Social media logo">
<path id="Vector" fill-rule="evenodd" clip-rule="evenodd" d="M6.27539 5.14355C5.38683 5.14355 4.6665 5.86388 4.6665 6.75244V26.2013C4.6665 27.0898 5.38683 27.8102 6.27539 27.8102H25.7243C26.6128 27.8102 27.3332 27.0898 27.3332 26.2013V6.75244C27.3332 5.86388 26.6128 5.14355 25.7243 5.14355H6.27539ZM9.75413 12.1827C10.8401 12.1827 11.7205 11.3023 11.7205 10.2164C11.7205 9.1304 10.8401 8.25004 9.75413 8.25004C8.66816 8.25004 7.7878 9.1304 7.7878 10.2164C7.7878 11.3023 8.66816 12.1827 9.75413 12.1827ZM13.5213 13.6359H16.7801V15.1288C16.7801 15.1288 17.6644 13.3601 20.0706 13.3601C22.217 13.3601 23.995 14.4175 23.995 17.6404V24.4366H20.6179V18.4639C20.6179 16.5627 19.6029 16.3536 18.8295 16.3536C17.2243 16.3536 16.9495 17.7381 16.9495 18.7119V24.4366H13.5213V13.6359ZM11.4682 13.6359H8.04003V24.4366H11.4682V13.6359Z" fill="white"/>
</g>
</svg>
