<svg xmlns="http://www.w3.org/2000/svg" width="20" height="20" fill="none"><path fill="#667185" d="M17.779 2.222a5 5 0 0 0-7.071 0L7.879 5.051a1 1 0 0 0 1.414 1.414l2.829-2.829a3 3 0 1 1 4.242 4.243l-2.828 2.829a1 1 0 0 0 1.414 1.414l2.829-2.829a5 5 0 0 0 0-7.07"/><path fill="#667185" d="M12.122 9.293a1 1 0 0 0-1.414-1.414l-2.829 2.829a1 1 0 1 0 1.414 1.414z"/><path fill="#667185" d="M6.465 9.293A1 1 0 0 0 5.05 7.88l-2.829 2.829a5 5 0 1 0 7.071 7.07l2.829-2.828a1 1 0 0 0-1.414-1.414l-2.829 2.828a3 3 0 1 1-4.243-4.242z"/></svg>