<svg xmlns="http://www.w3.org/2000/svg" width="224" height="40" fill="none"><g fill="#1574E5" clip-path="url(#a)"><path d="M18.193 25.757q0 2.114-1.066 4.006-1.065 1.893-3.313 3.065Q11.564 34 8.014 34a27 27 0 0 1-3.118-.16 14 14 0 0 1-2.497-.524q-1.155-.364-2.398-.95V26.11q2.114 1.066 4.265 1.626 2.149.56 3.891.56 1.048 0 1.715-.25.666-.248.985-.683.32-.435.32-1.004 0-.675-.47-1.146-.471-.47-1.502-.985a80 80 0 0 0-2.718-1.28 27 27 0 0 1-2.603-1.385 8.9 8.9 0 0 1-1.99-1.626 6.4 6.4 0 0 1-1.27-2.142Q.18 16.57.18 14.901q0-2.504 1.234-4.203Q2.648 9.003 4.861 8.15q2.212-.854 5.109-.854 2.54 0 4.575.57 2.034.567 3.65 1.297l-2.149 5.42a22.5 22.5 0 0 0-3.287-1.218q-1.618-.452-3.002-.453-.908 0-1.484.222-.578.222-.854.595a1.4 1.4 0 0 0-.275.853q0 .605.471 1.083.471.48 1.58 1.04 1.111.56 3.03 1.449 1.9.852 3.234 1.838 1.333.987 2.034 2.363.703 1.376.703 3.402zM30.861 13.16q2.931 0 5.064 1.021a7.3 7.3 0 0 1 3.287 3.065q1.155 2.044 1.154 5.117v3.09H27.947q.09 1.582 1.181 2.595 1.094 1.012 3.225 1.013 1.883 0 3.455-.373a17 17 0 0 0 3.242-1.155v4.992q-1.456.765-3.18 1.12-1.724.354-4.353.355-3.037 0-5.436-1.083t-3.775-3.359q-1.377-2.274-1.377-5.845c0-2.38.414-4.403 1.243-5.96q1.244-2.336 3.483-3.464 2.238-1.13 5.205-1.129zm.249 4.726q-1.226 0-2.052.773-.825.774-.968 2.424h5.97a4 4 0 0 0-.356-1.616 2.73 2.73 0 0 0-.986-1.155q-.648-.426-1.608-.426M51.24 33.646h-6.948V6h6.947zM63.001 33.646h-6.947V6h6.947zM79.79 13.053q-1.245 0-2.221.524-.978.524-1.67 1.518-.694.996-1.058 2.425-.364 1.43-.363 3.242 0 2.453.621 4.122t1.892 2.522 3.189.853q1.74 0 3.35-.48a34 34 0 0 0 3.241-1.155v5.934q-1.724.765-3.526 1.102a21 21 0 0 1-3.83.337q-4.227 0-6.92-1.678-2.692-1.68-3.962-4.664t-1.27-6.929q0-2.949.827-5.4.826-2.453 2.425-4.256t3.953-2.79q2.355-.985 5.393-.985 1.883 0 3.971.435 2.088.436 4.078 1.394l-2.15 5.525q-1.42-.675-2.878-1.137a10.2 10.2 0 0 0-3.09-.462zM103.579 13.16q.568 0 1.191.08.621.078.923.133l-.622 6.556a6 6 0 0 0-.87-.151 14 14 0 0 0-1.492-.062q-.657-.001-1.403.124a4 4 0 0 0-1.413.524q-.666.4-1.093 1.207-.426.81-.426 2.176v9.896h-6.947V13.516h5.17l1.084 3.216h.338a7.3 7.3 0 0 1 1.412-1.803 7 7 0 0 1 1.937-1.289 5.4 5.4 0 0 1 2.211-.48M117.562 13.16q2.931 0 5.064 1.021a7.3 7.3 0 0 1 3.287 3.065q1.154 2.044 1.154 5.117v3.09h-12.419q.09 1.582 1.181 2.595 1.093 1.012 3.225 1.013 1.884 0 3.455-.373a17 17 0 0 0 3.242-1.155v4.992q-1.457.765-3.18 1.12-1.724.354-4.353.355-3.038 0-5.436-1.083t-3.775-3.359q-1.377-2.274-1.377-5.845c0-2.38.414-4.403 1.243-5.96q1.243-2.336 3.483-3.464 2.238-1.13 5.205-1.129zm.249 4.726q-1.226 0-2.052.773-.825.774-.968 2.424h5.97a4 4 0 0 0-.356-1.616 2.7 2.7 0 0 0-.986-1.155q-.648-.426-1.608-.426M140.819 13.16q3.819 0 5.969 1.892 2.15 1.893 2.15 5.393v13.2h-4.815l-1.332-2.665h-.142q-.853 1.066-1.75 1.733a6 6 0 0 1-2.051.978q-1.155.31-2.826.31c-1.113 0-2.203-.236-3.126-.71q-1.386-.71-2.186-2.15-.8-1.438-.799-3.64 0-3.234 2.238-4.799 2.239-1.563 6.486-1.759l3.358-.107v-.284q0-1.35-.666-1.92-.667-.568-1.786-.568-1.19 0-2.656.418t-2.941 1.075l-2.007-4.583q1.74-.89 3.944-1.35 2.203-.464 4.939-.463zm1.209 11.495-1.599.071q-1.919.072-2.692.667t-.773 1.697q0 1.03.551 1.519.55.488 1.456.488 1.262 0 2.159-.8.897-.799.896-2.079v-1.563zM161.997 7.298q2.576 0 4.522.693 1.945.693 3.047 2.106t1.102 3.545q0 1.563-.578 2.745a6.5 6.5 0 0 1-1.581 2.06 10.4 10.4 0 0 1-2.318 1.519 21 21 0 0 1 2.433 1.616 8.5 8.5 0 0 1 2.008 2.176q.8 1.253.799 2.976 0 2.08-1.013 3.723t-3.11 2.593q-2.096.951-5.383.952-3.287 0-5.384-.907-2.097-.906-3.082-2.531t-.985-3.758q0-1.811.612-3.056a6.3 6.3 0 0 1 1.679-2.113q1.065-.871 2.434-1.564a12.6 12.6 0 0 1-1.99-1.652 7.2 7.2 0 0 1-1.439-2.114q-.533-1.19-.533-2.7 0-2.098 1.119-3.5 1.119-1.404 3.1-2.107 1.981-.702 4.54-.702zm-3.091 19.223q0 1.085.782 1.76.781.674 2.168.674 1.617 0 2.372-.612.754-.613.755-1.679 0-.8-.471-1.448a5.5 5.5 0 0 0-1.093-1.129q-.623-.48-1.083-.745l-.48-.285a10 10 0 0 0-1.466.916 4.5 4.5 0 0 0-1.075 1.137 2.54 2.54 0 0 0-.409 1.413zm3.056-14.16q-.871 0-1.511.507-.64.505-.64 1.377 0 .569.275 1.057.276.487.746.897.471.407 1.057.746.515-.302 1.013-.658.498-.354.835-.853.337-.498.337-1.19 0-.871-.631-1.377a2.3 2.3 0 0 0-1.484-.507z"/></g><defs><clipPath id="a"><path fill="#fff" d="M0 6h171.431v28H0z"/></clipPath></defs></svg>