<svg width="172" height="28" viewBox="0 0 172 28" fill="none" xmlns="http://www.w3.org/2000/svg">
<g clip-path="url(#clip0_1523_1543)">
<path d="M18.193 19.7566C18.193 21.1667 17.8372 22.5014 17.1269 23.7633C16.4166 25.0252 15.3121 26.0463 13.8134 26.8281C12.3147 27.6098 10.3809 28 8.01313 28C6.82794 28 5.78958 27.9471 4.8954 27.84C4.00122 27.7328 3.16921 27.5582 2.39937 27.3162C1.62953 27.0741 0.829263 26.7566 0.0012207 26.3651V20.1111C1.40995 20.8215 2.83191 21.3638 4.26577 21.7368C5.69831 22.1098 6.99593 22.2963 8.15731 22.2963C8.85572 22.2963 9.42715 22.213 9.87159 22.0476C10.316 21.8823 10.6441 21.6535 10.857 21.3638C11.07 21.0741 11.1771 20.7394 11.1771 20.3598C11.1771 19.9101 11.0197 19.5278 10.7063 19.2143C10.3928 18.9008 9.89143 18.5715 9.20493 18.2289C8.51842 17.885 7.61233 17.459 6.48667 16.9498C5.52768 16.5 4.65995 16.0384 3.8835 15.5635C3.10704 15.09 2.44434 14.5477 1.89408 13.9379C1.34381 13.3281 0.91921 12.6138 0.624237 11.7963C0.32794 10.9789 0.179792 10.0133 0.179792 8.90082C0.179792 7.23019 0.591168 5.83072 1.41392 4.69844C2.23667 3.56749 3.38614 2.71696 4.86101 2.1495C6.33588 1.58072 8.03826 1.29633 9.96948 1.29633C11.6626 1.29633 13.1877 1.48548 14.5449 1.86511C15.9007 2.24474 17.1176 2.67596 18.1957 3.16273L16.0462 8.58204C14.9324 8.07278 13.8372 7.6667 12.7592 7.36511C11.6811 7.06352 10.6798 6.91141 9.75651 6.91141C9.15202 6.91141 8.65731 6.98548 8.27239 7.13363C7.88747 7.28178 7.60307 7.48019 7.41921 7.72887C7.23535 7.97754 7.14408 8.26193 7.14408 8.58204C7.14408 8.98548 7.30149 9.34659 7.61498 9.66537C7.92847 9.98548 8.45625 10.332 9.19567 10.7051C9.93641 11.0781 10.9457 11.5609 12.2248 12.1535C13.492 12.7223 14.57 13.3347 15.4589 13.9921C16.3478 14.6495 17.025 15.4379 17.4933 16.3545C17.9615 17.2725 18.1957 18.4061 18.1957 19.7566H18.193Z" fill="#1574E5"/>
<path d="M30.861 7.1601C32.8147 7.1601 34.5025 7.50136 35.9245 8.18126C37.3465 8.86248 38.4417 9.88364 39.2115 11.2461C39.9814 12.6085 40.3663 14.3135 40.3663 16.3625V19.4537H27.947C28.0065 20.508 28.4007 21.3731 29.1282 22.0477C29.857 22.7223 30.9311 23.0609 32.3531 23.0609C33.6084 23.0609 34.7605 22.9366 35.8081 22.6879C36.8557 22.4392 37.9364 22.0543 39.0502 21.5331V26.5252C38.0793 27.0344 37.0184 27.4075 35.8703 27.6442C34.7208 27.881 33.2697 28 31.5171 28C29.492 28 27.6798 27.6389 26.0806 26.9167C24.4814 26.1945 23.2234 25.0754 22.3055 23.5582C21.3875 22.0424 20.9285 20.094 20.9285 17.713C20.9285 15.3321 21.3425 13.3096 22.1719 11.7527C23.0012 10.1958 24.1613 9.04105 25.6547 8.2884C27.1467 7.53576 28.8822 7.1601 30.8597 7.1601H30.861ZM31.1097 11.8863C30.2922 11.8863 29.6084 12.1442 29.0581 12.6588C28.5078 13.1746 28.1851 13.9828 28.0898 15.0834H34.0594C34.0475 14.4908 33.9285 13.9524 33.7036 13.467C33.4787 12.9815 33.1494 12.5966 32.7182 12.3122C32.2856 12.0278 31.7499 11.8863 31.1097 11.8863Z" fill="#1574E5"/>
<path d="M51.2393 27.6455H44.2922V0H51.2393V27.6455Z" fill="#1574E5"/>
<path d="M63.0013 27.6455H56.0542V0H63.0013V27.6455Z" fill="#1574E5"/>
<path d="M79.7896 7.05292C78.9603 7.05292 78.2195 7.22752 77.5687 7.57673C76.9166 7.92594 76.3611 8.43255 75.8981 9.09525C75.4365 9.75927 75.0833 10.5675 74.8412 11.5199C74.5978 12.4736 74.4775 13.5542 74.4775 14.7619C74.4775 16.3968 74.6851 17.7712 75.0992 18.8836C75.5132 19.9974 76.1441 20.8373 76.9907 21.4061C77.8373 21.9749 78.9007 22.2593 80.1798 22.2593C81.3399 22.2593 82.4563 22.0992 83.5291 21.7791C84.6005 21.459 85.6812 21.0741 86.7711 20.6244V26.5582C85.6216 27.0675 84.4471 27.4352 83.2447 27.6601C82.0423 27.8849 80.7658 27.9974 79.4153 27.9974C76.5965 27.9974 74.2896 27.4378 72.4947 26.3188C70.6997 25.1997 69.3796 23.6455 68.533 21.6548C67.6865 19.6654 67.2632 17.3558 67.2632 14.7262C67.2632 12.7606 67.5383 10.959 68.0899 9.32541C68.6402 7.69049 69.4497 6.2725 70.5145 5.07012C71.5806 3.86773 72.8981 2.93784 74.4682 2.28043C76.037 1.62303 77.8346 1.29498 79.8611 1.29498C81.1164 1.29498 82.4404 1.44049 83.832 1.73017C85.2235 2.02117 86.5833 2.48546 87.91 3.12435L85.7605 8.64948C84.8134 8.19975 83.8531 7.82012 82.8822 7.51191C81.9113 7.20371 80.8809 7.05027 79.791 7.05027L79.7896 7.05292Z" fill="#1574E5"/>
<path d="M103.579 7.1601C103.958 7.1601 104.354 7.18655 104.77 7.23946C105.184 7.29237 105.492 7.33734 105.693 7.37306L105.071 13.9286C104.847 13.8691 104.556 13.8188 104.201 13.7778C103.845 13.7368 103.348 13.7157 102.709 13.7157C102.271 13.7157 101.803 13.7567 101.306 13.84C100.808 13.9233 100.337 14.0979 99.8929 14.3638C99.4484 14.6297 99.0847 15.0331 98.8003 15.5715C98.5159 16.1112 98.3743 16.836 98.3743 17.7474V27.6429H91.4272V7.51592H96.5979L97.6812 10.7315H98.0185C98.3849 10.0688 98.8558 9.46697 99.4312 8.92861C100.005 8.39025 100.651 7.96036 101.368 7.64025C102.085 7.32015 102.821 7.1601 103.579 7.1601Z" fill="#1574E5"/>
<path d="M117.562 7.1601C119.516 7.1601 121.204 7.50136 122.626 8.18126C124.048 8.86248 125.143 9.88364 125.913 11.2461C126.683 12.6085 127.067 14.3135 127.067 16.3625V19.4537H114.648C114.708 20.508 115.102 21.3731 115.829 22.0477C116.558 22.7223 117.632 23.0609 119.054 23.0609C120.31 23.0609 121.462 22.9366 122.509 22.6879C123.557 22.4392 124.638 22.0543 125.751 21.5331V26.5252C124.78 27.0344 123.72 27.4075 122.571 27.6442C121.422 27.881 119.971 28 118.218 28C116.193 28 114.381 27.6389 112.782 26.9167C111.183 26.1945 109.925 25.0754 109.007 23.5582C108.089 22.0424 107.63 20.094 107.63 17.713C107.63 15.3321 108.044 13.3096 108.873 11.7527C109.702 10.1958 110.862 9.04105 112.356 8.2884C113.848 7.53576 115.583 7.1601 117.561 7.1601H117.562ZM117.811 11.8863C116.993 11.8863 116.31 12.1442 115.759 12.6588C115.209 13.1746 114.886 13.9828 114.791 15.0834H120.761C120.749 14.4908 120.63 13.9524 120.405 13.467C120.18 12.9815 119.851 12.5966 119.419 12.3122C118.987 12.0278 118.451 11.8863 117.811 11.8863Z" fill="#1574E5"/>
<path d="M140.819 7.1601C143.365 7.1601 145.354 7.79105 146.788 9.05163C148.221 10.3135 148.938 12.1112 148.938 14.4445V27.6455H144.123L142.791 24.9802H142.649C142.081 25.6905 141.497 26.2686 140.899 26.713C140.302 27.1575 139.618 27.4828 138.848 27.6905C138.078 27.8982 137.136 28.0014 136.022 28.0014C134.909 28.0014 133.819 27.7646 132.896 27.291C131.972 26.8175 131.243 26.1006 130.71 25.1416C130.177 24.1826 129.911 22.9683 129.911 21.5C129.911 19.344 130.657 17.7461 132.149 16.7024C133.642 15.6601 135.803 15.0741 138.635 14.9432L141.993 14.836V14.5516C141.993 13.6522 141.771 13.0119 141.327 12.6323C140.882 12.254 140.287 12.0635 139.541 12.0635C138.747 12.0635 137.862 12.2024 136.885 12.4815C135.907 12.7606 134.927 13.1178 133.944 13.5569L131.937 8.97359C133.097 8.38099 134.411 7.93126 135.881 7.62306C137.349 7.31486 138.996 7.16142 140.82 7.16142L140.819 7.1601ZM142.028 18.6548L140.429 18.7262C139.149 18.7739 138.253 18.9961 137.737 19.3929C137.221 19.7897 136.964 20.3559 136.964 21.09C136.964 21.7765 137.148 22.2831 137.515 22.6085C137.881 22.9339 138.368 23.0966 138.971 23.0966C139.812 23.0966 140.532 22.8307 141.13 22.2977C141.728 21.7646 142.026 21.0715 142.026 20.2183V18.6548H142.028Z" fill="#1574E5"/>
<path d="M161.997 1.29761C163.714 1.29761 165.222 1.52909 166.518 1.99073C167.816 2.45237 168.831 3.15475 169.566 4.09655C170.3 5.03835 170.668 6.21957 170.668 7.64152C170.668 8.68385 170.475 9.5992 170.09 10.3862C169.705 11.1746 169.177 11.8611 168.509 12.4471C167.84 13.0331 167.067 13.5397 166.19 13.9656C167.008 14.4272 167.819 14.9669 168.624 15.582C169.43 16.1984 170.099 16.9233 170.632 17.7579C171.165 18.5926 171.431 19.5846 171.431 20.7341C171.431 22.1204 171.094 23.3611 170.418 24.4563C169.743 25.5516 168.706 26.4167 167.308 27.0503C165.91 27.6839 164.116 28.0013 161.924 28.0013C159.733 28.0013 157.939 27.6997 156.541 27.0952C155.143 26.4907 154.116 25.6468 153.459 24.5635C152.801 23.4802 152.473 22.2275 152.473 20.8055C152.473 19.5979 152.677 18.5794 153.086 17.75C153.495 16.9206 154.054 16.2156 154.764 15.6362C155.475 15.0555 156.286 14.5344 157.198 14.0727C156.476 13.5873 155.812 13.037 155.209 12.4206C154.604 11.8055 154.126 11.1005 153.77 10.3069C153.414 9.51322 153.237 8.61375 153.237 7.60581C153.237 6.20898 153.61 5.04099 154.356 4.10581C155.102 3.17062 156.135 2.46824 157.456 1.99999C158.776 1.53173 160.29 1.29761 161.996 1.29761H161.997ZM158.906 20.5212C158.906 21.2434 159.167 21.8307 159.688 22.2804C160.209 22.7302 160.931 22.955 161.856 22.955C162.934 22.955 163.723 22.7513 164.227 22.3426C164.73 21.9339 164.983 21.3743 164.983 20.664C164.983 20.1309 164.825 19.6481 164.512 19.2156C164.198 18.7831 163.833 18.4074 163.419 18.0873C163.004 17.7672 162.643 17.5185 162.336 17.3413L161.856 17.0569C161.323 17.3294 160.835 17.6349 160.39 17.9722C159.946 18.3095 159.587 18.6891 159.315 19.1098C159.042 19.5304 158.906 20.0013 158.906 20.5225V20.5212ZM161.961 6.3611C161.381 6.3611 160.878 6.53041 160.451 6.86771C160.025 7.20502 159.811 7.66401 159.811 8.2447C159.811 8.62433 159.902 8.97618 160.086 9.30158C160.27 9.62697 160.518 9.92592 160.832 10.1984C161.145 10.4709 161.499 10.7196 161.889 10.9444C162.233 10.7434 162.57 10.5238 162.902 10.287C163.234 10.0503 163.512 9.76586 163.737 9.43385C163.961 9.10184 164.074 8.70502 164.074 8.24338C164.074 7.66269 163.864 7.20369 163.443 6.86639C163.022 6.52909 162.528 6.35978 161.959 6.35978L161.961 6.3611Z" fill="#1574E5"/>
</g>
<defs>
<clipPath id="clip0_1523_1543">
<rect width="171.431" height="28" fill="white"/>
</clipPath>
</defs>
</svg>
