<svg xmlns="http://www.w3.org/2000/svg" width="176" height="42" fill="none"><path fill="#011E3B" d="M5.774 28.873v4.02q0 2.715 2.528 2.714c1.687 0 2.509-.904 2.509-2.714v-.734c0-1.933-1.802-4.187-5.406-6.775Q0 21.527 0 15.998V8.41Q0 .004 8.283.004c5.52 0 8.302 2.802 8.302 8.406v5.385h-5.774V8.41q-.001-2.691-2.509-2.715h-.04q-2.487 0-2.488 2.715v7.465q0 2.673 5.406 6.548 5.405 3.857 5.405 9.244v1.222q0 8.424-8.283 8.425Q0 41.296 0 32.89v-4.02h5.774zM21.482.639h14.974V6.33h-9.2v6.14h7.918v5.71h-7.917v16.792h9.2v5.691H21.481V.635zM40.743 40.663V.635h5.774v34.333h9.2v5.691H40.743zM59.185 40.663V.635h5.775v34.333h9.2v5.691H59.184zM93.804 28.932v3.957q.001 8.406-8.302 8.425-8.281-.001-8.283-8.425V8.406Q77.219 0 85.502 0c5.52 0 8.302 2.802 8.302 8.406v5.385H88.03V8.406q-.001-2.691-2.508-2.715h-.04q-2.49 0-2.489 2.715v24.483q.001 2.715 2.509 2.714c1.67 0 2.528-.905 2.528-2.714v-3.957zM98.5.639h8.405q7.691.019 7.691 8.426v.65q0 5.286-4.548 6.958l6.489 23.99h-6.326l-5.203-22.97-.734.103v22.867h-5.775V.635zm5.77 5.691v6.1h1.325q1.204-.001 1.651-.163 1.572-.63 1.572-2.552v-.65q0-2.734-2.508-2.735zM118.696.639h14.974V6.33h-9.2v6.14h7.918v5.71h-7.918v16.792h9.2v5.691h-14.974V.635zM146.012 9.819l-4.079 30.844h-5.815L142.075.635h7.918l5.937 40.028h-5.834l-4.08-30.844zM167.697.004q8.304 0 8.303 8.406v6.957q-.001 3.935-3.163 5.568 3.162 1.632 3.163 5.568v6.386q.001 8.405-8.303 8.405t-8.302-8.405v-6.386q0-3.935 3.163-5.568-3.163-1.632-3.163-5.568V8.41q-.001-8.406 8.302-8.406m.552 18.014q.816 0 1.222-.246.755-.43.754-2.449V8.406q0-2.691-2.508-2.715h-.04q-2.51.018-2.508 2.715v6.917q-.001 2.02.754 2.449.409.245 1.223.246zm-.532 17.585c1.675-.012 2.508-.916 2.508-2.714v-6.386q0-2.183-.916-2.592-.49-.202-1.509-.202h-.202q-1.02 0-1.508.202-.917.41-.917 2.592v6.386q.001 2.69 2.508 2.714h.04z"/></svg>