<svg width="172" height="28" viewBox="0 0 172 28" fill="none" xmlns="http://www.w3.org/2000/svg">
<g clip-path="url(#clip0_3001_14840)">
<path d="M18.1933 19.7566C18.1933 21.1667 17.8374 22.5014 17.1271 23.7633C16.4168 25.0252 15.3123 26.0463 13.8136 26.8281C12.315 27.6098 10.3811 28 8.01337 28C6.82819 28 5.78983 27.9471 4.89565 27.84C4.00147 27.7328 3.16946 27.5582 2.39961 27.3162C1.62977 27.0741 0.829507 26.7566 0.00146484 26.3651V20.1111C1.4102 20.8215 2.83215 21.3638 4.26602 21.7368C5.69856 22.1098 6.99618 22.2963 8.15755 22.2963C8.85596 22.2963 9.42739 22.213 9.87184 22.0476C10.3163 21.8823 10.6443 21.6535 10.8573 21.3638C11.0703 21.0741 11.1774 20.7394 11.1774 20.3598C11.1774 19.9101 11.02 19.5278 10.7065 19.2143C10.393 18.9008 9.89168 18.5715 9.20517 18.2289C8.51866 17.885 7.61258 17.459 6.48692 16.9498C5.52792 16.5 4.6602 16.0384 3.88374 15.5635C3.10729 15.09 2.44459 14.5477 1.89432 13.9379C1.34406 13.3281 0.919454 12.6138 0.624481 11.7963C0.328184 10.9789 0.180036 10.0133 0.180036 8.90082C0.180036 7.23019 0.591412 5.83072 1.41416 4.69844C2.23692 3.56749 3.38639 2.71696 4.86125 2.1495C6.33612 1.58072 8.0385 1.29633 9.96972 1.29633C11.6628 1.29633 13.188 1.48548 14.5451 1.86511C15.9009 2.24474 17.1179 2.67596 18.1959 3.16273L16.0464 8.58204C14.9327 8.07278 13.8374 7.6667 12.7594 7.36511C11.6814 7.06352 10.68 6.91141 9.75676 6.91141C9.15226 6.91141 8.65755 6.98548 8.27263 7.13363C7.88771 7.28178 7.60332 7.48019 7.41946 7.72887C7.23559 7.97754 7.14432 8.26193 7.14432 8.58204C7.14432 8.98548 7.30173 9.34659 7.61522 9.66537C7.92872 9.98548 8.45649 10.332 9.19591 10.7051C9.93665 11.0781 10.9459 11.5609 12.225 12.1535C13.4922 12.7223 14.5703 13.3347 15.4591 13.9921C16.348 14.6495 17.0253 15.4379 17.4935 16.3545C17.9618 17.2725 18.1959 18.4061 18.1959 19.7566H18.1933Z" fill="white"/>
<path d="M30.8612 7.1601C32.815 7.1601 34.5028 7.50136 35.9247 8.18126C37.3467 8.86248 38.4419 9.88364 39.2118 11.2461C39.9816 12.6085 40.3665 14.3135 40.3665 16.3625V19.4537H27.9472C28.0068 20.508 28.4009 21.3731 29.1284 22.0477C29.8573 22.7223 30.9314 23.0609 32.3533 23.0609C33.6086 23.0609 34.7607 22.9366 35.8083 22.6879C36.856 22.4392 37.9366 22.0543 39.0504 21.5331V26.5252C38.0795 27.0344 37.0187 27.4075 35.8705 27.6442C34.721 27.881 33.27 28 31.5173 28C29.4922 28 27.68 27.6389 26.0808 26.9167C24.4816 26.1945 23.2237 25.0754 22.3057 23.5582C21.3877 22.0424 20.9287 20.094 20.9287 17.713C20.9287 15.3321 21.3427 13.3096 22.1721 11.7527C23.0015 10.1958 24.1615 9.04105 25.6549 8.2884C27.147 7.53576 28.8824 7.1601 30.8599 7.1601H30.8612ZM31.1099 11.8863C30.2925 11.8863 29.6086 12.1442 29.0583 12.6588C28.5081 13.1746 28.1853 13.9828 28.0901 15.0834H34.0597C34.0478 14.4908 33.9287 13.9524 33.7038 13.467C33.479 12.9815 33.1496 12.5966 32.7184 12.3122C32.2859 12.0278 31.7501 11.8863 31.1099 11.8863Z" fill="white"/>
<path d="M51.2396 27.6455H44.2925V0H51.2396V27.6455Z" fill="white"/>
<path d="M63.0013 27.6455H56.0542V0H63.0013V27.6455Z" fill="white"/>
<path d="M79.7896 7.05292C78.9603 7.05292 78.2195 7.22752 77.5687 7.57673C76.9166 7.92594 76.3611 8.43255 75.8981 9.09525C75.4365 9.75927 75.0833 10.5675 74.8412 11.5199C74.5978 12.4736 74.4775 13.5542 74.4775 14.7619C74.4775 16.3968 74.6851 17.7712 75.0992 18.8836C75.5132 19.9974 76.1441 20.8373 76.9907 21.4061C77.8373 21.9749 78.9007 22.2593 80.1798 22.2593C81.3399 22.2593 82.4563 22.0992 83.5291 21.7791C84.6005 21.459 85.6812 21.0741 86.7711 20.6244V26.5582C85.6216 27.0675 84.4471 27.4352 83.2447 27.6601C82.0423 27.8849 80.7658 27.9974 79.4153 27.9974C76.5965 27.9974 74.2896 27.4378 72.4947 26.3188C70.6997 25.1997 69.3796 23.6455 68.533 21.6548C67.6865 19.6654 67.2632 17.3558 67.2632 14.7262C67.2632 12.7606 67.5383 10.959 68.0899 9.32541C68.6402 7.69049 69.4497 6.2725 70.5145 5.07012C71.5806 3.86773 72.8981 2.93784 74.4682 2.28043C76.037 1.62303 77.8346 1.29498 79.8611 1.29498C81.1164 1.29498 82.4404 1.44049 83.832 1.73017C85.2235 2.02117 86.5833 2.48546 87.91 3.12435L85.7605 8.64948C84.8134 8.19975 83.8531 7.82012 82.8822 7.51191C81.9113 7.20371 80.8809 7.05027 79.791 7.05027L79.7896 7.05292Z" fill="white"/>
<path d="M103.579 7.1601C103.958 7.1601 104.354 7.18655 104.77 7.23946C105.184 7.29237 105.492 7.33734 105.693 7.37306L105.071 13.9286C104.847 13.8691 104.556 13.8188 104.201 13.7778C103.845 13.7368 103.348 13.7157 102.709 13.7157C102.271 13.7157 101.803 13.7567 101.306 13.84C100.808 13.9233 100.337 14.0979 99.8929 14.3638C99.4484 14.6297 99.0847 15.0331 98.8003 15.5715C98.5159 16.1112 98.3743 16.836 98.3743 17.7474V27.6429H91.4272V7.51592H96.5979L97.6812 10.7315H98.0185C98.3849 10.0688 98.8558 9.46697 99.4312 8.92861C100.005 8.39025 100.651 7.96036 101.368 7.64025C102.085 7.32015 102.821 7.1601 103.579 7.1601Z" fill="white"/>
<path d="M117.562 7.1601C119.516 7.1601 121.203 7.50136 122.625 8.18126C124.047 8.86248 125.143 9.88364 125.912 11.2461C126.682 12.6085 127.067 14.3135 127.067 16.3625V19.4537H114.648C114.707 20.508 115.102 21.3731 115.829 22.0477C116.558 22.7223 117.632 23.0609 119.054 23.0609C120.309 23.0609 121.461 22.9366 122.509 22.6879C123.557 22.4392 124.637 22.0543 125.751 21.5331V26.5252C124.78 27.0344 123.719 27.4075 122.571 27.6442C121.422 27.881 119.971 28 118.218 28C116.193 28 114.381 27.6389 112.782 26.9167C111.182 26.1945 109.924 25.0754 109.006 23.5582C108.088 22.0424 107.629 20.094 107.629 17.713C107.629 15.3321 108.043 13.3096 108.873 11.7527C109.702 10.1958 110.862 9.04105 112.356 8.2884C113.848 7.53576 115.583 7.1601 117.561 7.1601H117.562ZM117.811 11.8863C116.993 11.8863 116.309 12.1442 115.759 12.6588C115.209 13.1746 114.886 13.9828 114.791 15.0834H120.76C120.748 14.4908 120.629 13.9524 120.405 13.467C120.18 12.9815 119.85 12.5966 119.419 12.3122C118.987 12.0278 118.451 11.8863 117.811 11.8863Z" fill="white"/>
<path d="M140.819 7.1601C143.365 7.1601 145.354 7.79105 146.788 9.05163C148.221 10.3135 148.938 12.1112 148.938 14.4445V27.6455H144.123L142.791 24.9802H142.649C142.08 25.6905 141.497 26.2686 140.899 26.713C140.301 27.1575 139.617 27.4828 138.848 27.6905C138.078 27.8982 137.136 28.0014 136.022 28.0014C134.908 28.0014 133.819 27.7646 132.895 27.291C131.972 26.8175 131.243 26.1006 130.71 25.1416C130.177 24.1826 129.911 22.9683 129.911 21.5C129.911 19.344 130.657 17.7461 132.149 16.7024C133.641 15.6601 135.803 15.0741 138.635 14.9432L141.993 14.836V14.5516C141.993 13.6522 141.771 13.0119 141.326 12.6323C140.882 12.254 140.287 12.0635 139.541 12.0635C138.747 12.0635 137.862 12.2024 136.885 12.4815C135.907 12.7606 134.927 13.1178 133.944 13.5569L131.936 8.97359C133.096 8.38099 134.411 7.93126 135.881 7.62306C137.349 7.31486 138.996 7.16142 140.82 7.16142L140.819 7.1601ZM142.028 18.6548L140.428 18.7262C139.149 18.7739 138.252 18.9961 137.737 19.3929C137.221 19.7897 136.964 20.3559 136.964 21.09C136.964 21.7765 137.148 22.2831 137.514 22.6085C137.881 22.9339 138.367 23.0966 138.971 23.0966C139.812 23.0966 140.531 22.8307 141.129 22.2977C141.727 21.7646 142.026 21.0715 142.026 20.2183V18.6548H142.028Z" fill="white"/>
<path d="M161.997 1.29761C163.714 1.29761 165.222 1.52909 166.519 1.99073C167.816 2.45237 168.831 3.15475 169.566 4.09655C170.3 5.03835 170.668 6.21957 170.668 7.64152C170.668 8.68385 170.475 9.5992 170.09 10.3862C169.705 11.1746 169.177 11.8611 168.509 12.4471C167.84 13.0331 167.068 13.5397 166.191 13.9656C167.008 14.4272 167.819 14.9669 168.624 15.582C169.43 16.1984 170.099 16.9233 170.632 17.7579C171.165 18.5926 171.431 19.5846 171.431 20.7341C171.431 22.1204 171.094 23.3611 170.418 24.4563C169.743 25.5516 168.706 26.4167 167.308 27.0503C165.91 27.6839 164.117 28.0013 161.925 28.0013C159.733 28.0013 157.939 27.6997 156.541 27.0952C155.143 26.4907 154.116 25.6468 153.459 24.5635C152.802 23.4802 152.474 22.2275 152.474 20.8055C152.474 19.5979 152.677 18.5794 153.086 17.75C153.495 16.9206 154.054 16.2156 154.765 15.6362C155.475 15.0555 156.286 14.5344 157.199 14.0727C156.476 13.5873 155.812 13.037 155.209 12.4206C154.605 11.8055 154.126 11.1005 153.77 10.3069C153.414 9.51322 153.237 8.61375 153.237 7.60581C153.237 6.20898 153.61 5.04099 154.356 4.10581C155.102 3.17062 156.135 2.46824 157.456 1.99999C158.777 1.53173 160.29 1.29761 161.996 1.29761H161.997ZM158.906 20.5212C158.906 21.2434 159.167 21.8307 159.688 22.2804C160.209 22.7302 160.931 22.955 161.856 22.955C162.934 22.955 163.724 22.7513 164.228 22.3426C164.73 21.9339 164.983 21.3743 164.983 20.664C164.983 20.1309 164.825 19.6481 164.512 19.2156C164.199 18.7831 163.833 18.4074 163.419 18.0873C163.004 17.7672 162.643 17.5185 162.336 17.3413L161.856 17.0569C161.323 17.3294 160.835 17.6349 160.39 17.9722C159.946 18.3095 159.587 18.6891 159.315 19.1098C159.042 19.5304 158.906 20.0013 158.906 20.5225V20.5212ZM161.962 6.3611C161.381 6.3611 160.878 6.53041 160.451 6.86771C160.025 7.20502 159.811 7.66401 159.811 8.2447C159.811 8.62433 159.902 8.97618 160.086 9.30158C160.27 9.62697 160.519 9.92592 160.832 10.1984C161.146 10.4709 161.499 10.7196 161.889 10.9444C162.233 10.7434 162.57 10.5238 162.902 10.287C163.234 10.0503 163.512 9.76586 163.737 9.43385C163.962 9.10184 164.074 8.70502 164.074 8.24338C164.074 7.66269 163.864 7.20369 163.443 6.86639C163.023 6.52909 162.528 6.35978 161.959 6.35978L161.962 6.3611Z" fill="white"/>
</g>
<defs>
<clipPath id="clip0_3001_14840">
<rect width="171.431" height="28" fill="white"/>
</clipPath>
</defs>
</svg>
