<svg xmlns="http://www.w3.org/2000/svg" width="172" height="28" fill="none"><g fill="#fff" clip-path="url(#a)"><path d="M18.193 19.757q0 2.114-1.066 4.006-1.065 1.893-3.313 3.065T8.014 28q-1.778 0-3.118-.16a14 14 0 0 1-2.496-.524q-1.155-.364-2.399-.95V20.11a21.5 21.5 0 0 0 4.265 1.626q2.15.56 3.892.56 1.047 0 1.714-.25.666-.248.985-.683.32-.435.32-1.004 0-.675-.47-1.146-.471-.47-1.502-.985a79 79 0 0 0-2.718-1.28 27 27 0 0 1-2.603-1.386 8.9 8.9 0 0 1-1.99-1.625 6.4 6.4 0 0 1-1.27-2.142Q.18 10.57.18 8.901q0-2.504 1.234-4.203Q2.648 3.002 4.861 2.15q2.212-.854 5.109-.854 2.54 0 4.575.57 2.034.567 3.65 1.297l-2.149 5.419a22.5 22.5 0 0 0-3.287-1.217q-1.617-.453-3.002-.454-.908 0-1.484.223-.578.222-.854.595a1.4 1.4 0 0 0-.275.853q0 .605.471 1.083.471.48 1.58 1.04 1.111.56 3.03 1.448 1.9.854 3.234 1.84 1.332.985 2.035 2.362.702 1.376.702 3.402zM30.861 7.16q2.931 0 5.064 1.021a7.3 7.3 0 0 1 3.287 3.065q1.154 2.043 1.154 5.117v3.09H27.948q.09 1.582 1.181 2.595 1.093 1.012 3.225 1.013 1.884 0 3.455-.373a17 17 0 0 0 3.242-1.155v4.992q-1.456.765-3.18 1.12-1.723.355-4.353.355-3.038 0-5.436-1.083-2.399-1.084-3.775-3.359-1.377-2.274-1.377-5.845c0-2.38.414-4.403 1.243-5.96q1.244-2.335 3.483-3.465Q27.893 7.16 30.86 7.16zm.249 4.726q-1.226 0-2.052.773-.825.774-.968 2.424h5.97a4 4 0 0 0-.356-1.616 2.73 2.73 0 0 0-.986-1.155q-.648-.426-1.608-.426M51.24 27.646h-6.948V0h6.948zM63.001 27.646h-6.947V0h6.947zM79.79 7.053q-1.245 0-2.221.524-.977.524-1.67 1.518-.695.997-1.058 2.425-.364 1.43-.363 3.242 0 2.453.621 4.122t1.892 2.522 3.189.853q1.74 0 3.35-.48a34 34 0 0 0 3.241-1.155v5.934q-1.724.765-3.526 1.102a21 21 0 0 1-3.83.337q-4.227 0-6.92-1.678-2.692-1.68-3.962-4.664t-1.27-6.929q0-2.949.827-5.4.826-2.453 2.424-4.256 1.6-1.803 3.954-2.79 2.354-.985 5.393-.985 1.883 0 3.971.435 2.088.436 4.078 1.394L85.76 8.65q-1.421-.675-2.878-1.137a10.2 10.2 0 0 0-3.091-.462zM103.579 7.16q.567 0 1.19.08.622.078.924.133l-.622 6.556a6 6 0 0 0-.87-.151 14 14 0 0 0-1.492-.062q-.658-.001-1.404.124a4 4 0 0 0-1.413.524q-.666.4-1.092 1.207-.427.81-.426 2.176v9.896h-6.947V7.516h5.17l1.084 3.216h.337a7.3 7.3 0 0 1 1.413-1.803 7 7 0 0 1 1.936-1.289 5.4 5.4 0 0 1 2.212-.48M117.562 7.16q2.931 0 5.064 1.021a7.3 7.3 0 0 1 3.287 3.065q1.155 2.043 1.155 5.117v3.09h-12.42q.09 1.582 1.182 2.595 1.092 1.012 3.224 1.013 1.884 0 3.456-.373a17 17 0 0 0 3.242-1.155v4.992q-1.457.765-3.18 1.12-1.725.355-4.353.355-3.039 0-5.437-1.083-2.398-1.084-3.775-3.359t-1.377-5.845c0-2.38.414-4.403 1.243-5.96q1.244-2.335 3.483-3.465 2.239-1.128 5.205-1.128zm.249 4.726q-1.226 0-2.051.773-.826.774-.969 2.424h5.97a4 4 0 0 0-.356-1.616 2.73 2.73 0 0 0-.985-1.155q-.65-.426-1.609-.426M140.819 7.16q3.819 0 5.969 1.892 2.15 1.893 2.15 5.393v13.2h-4.815l-1.332-2.665h-.142q-.853 1.066-1.75 1.733a6 6 0 0 1-2.051.977q-1.155.312-2.826.311c-1.114 0-2.203-.236-3.127-.71q-1.385-.71-2.185-2.15-.8-1.438-.799-3.641 0-3.233 2.238-4.798 2.238-1.563 6.486-1.759l3.358-.107v-.284q0-1.35-.667-1.92-.666-.568-1.785-.569-1.19 0-2.656.418-1.467.419-2.941 1.076l-2.008-4.583q1.74-.89 3.945-1.35 2.203-.464 4.939-.463zm1.209 11.495-1.6.071q-1.918.072-2.691.667t-.773 1.697q0 1.03.55 1.518.55.489 1.457.489 1.261 0 2.158-.8.897-.799.897-2.079v-1.563zM161.997 1.298q2.576 0 4.522.693 1.945.692 3.047 2.106 1.102 1.412 1.102 3.545 0 1.563-.578 2.744a6.5 6.5 0 0 1-1.581 2.061 10.4 10.4 0 0 1-2.318 1.519 21 21 0 0 1 2.433 1.616 8.5 8.5 0 0 1 2.008 2.176q.8 1.252.799 2.976 0 2.08-1.013 3.722-1.013 1.643-3.11 2.594t-5.383.951q-3.287 0-5.384-.906t-3.082-2.531-.985-3.759q0-1.811.612-3.055a6.3 6.3 0 0 1 1.679-2.114q1.065-.87 2.434-1.563a12.6 12.6 0 0 1-1.99-1.652 7.2 7.2 0 0 1-1.439-2.114q-.533-1.19-.533-2.701 0-2.096 1.119-3.5t3.1-2.106 4.54-.702zm-3.091 19.223q0 1.084.782 1.76.781.675 2.168.674 1.617 0 2.372-.612.754-.615.755-1.679 0-.8-.471-1.448a5.5 5.5 0 0 0-1.093-1.129q-.623-.48-1.083-.746l-.48-.284a10 10 0 0 0-1.466.915 4.5 4.5 0 0 0-1.075 1.138q-.41.63-.409 1.413zm3.056-14.16q-.871 0-1.511.507-.64.506-.64 1.377 0 .569.275 1.057.276.488.746.896.471.41 1.057.746.515-.3 1.013-.657.498-.355.835-.853t.337-1.19q0-.871-.631-1.378a2.3 2.3 0 0 0-1.484-.506z"/></g><defs><clipPath id="a"><path fill="#fff" d="M0 0h171.431v28H0z"/></clipPath></defs></svg>