<svg width="65" height="33" viewBox="0 0 65 33" fill="none" xmlns="http://www.w3.org/2000/svg">
<g clip-path="url(#clip0_6386_110078)">
<path d="M32.7499 0.344238C15.0772 0.344238 0.750488 7.50828 0.750488 16.3442C0.750488 25.1802 15.0772 32.3442 32.7499 32.3442C50.4227 32.3442 64.7505 25.1802 64.7505 16.3442C64.7505 7.50828 50.4215 0.344238 32.7499 0.344238ZM32.7499 29.8189C16.4725 29.8189 3.27694 23.786 3.27694 16.3442C3.27694 8.90248 16.4725 2.87073 32.7499 2.87073C49.0273 2.87073 62.224 8.90248 62.224 16.3442C62.224 23.786 49.0285 29.8189 32.7499 29.8189ZM28.7153 13.5378V11.0113H37.7464V13.5378H34.4952V21.6806H31.9653V13.5378H28.7153ZM48.6401 11.0113V21.6806H46.1137L41.5315 15.3305V21.6806H39.0062V11.0113H41.5315L46.1137 17.3614V11.0113H48.6401ZM16.7863 21.6806V11.0113H19.3128L22.1192 15.3282L24.9256 11.0113H27.4521V21.6806H24.9256V15.6443L23.0065 18.5896H21.2285L19.3094 15.6443V21.6806H16.7863Z" fill="#1D2739"/>
</g>
<defs>
<clipPath id="clip0_6386_110078">
<rect width="64" height="32" fill="white" transform="translate(0.75 0.34375)"/>
</clipPath>
</defs>
</svg>
