<svg width="97" height="49" viewBox="0 0 97 49" fill="none" xmlns="http://www.w3.org/2000/svg">
<g id="mtn_nigeria_logo.svg" clip-path="url(#clip0_5358_53518)">
<path id="Vector" d="M48.4991 0.34375C21.9901 0.34375 0.5 11.0898 0.5 24.3438C0.5 37.5977 21.9901 48.3438 48.4991 48.3438C75.0082 48.3438 96.5 37.5977 96.5 24.3438C96.5 11.0898 75.0065 0.34375 48.4991 0.34375ZM48.4991 44.5557C24.083 44.5557 4.28967 35.5064 4.28967 24.3438C4.28967 13.1811 24.083 4.13349 48.4991 4.13349C72.9153 4.13349 92.7103 13.1811 92.7103 24.3438C92.7103 35.5064 72.917 44.5557 48.4991 44.5557ZM42.4472 20.1341V16.3443H55.9938V20.1341H51.117V32.3483H47.3223V20.1341H42.4472ZM72.3345 16.3443V32.3483H68.5448L61.6716 22.8231V32.3483H57.8836V16.3443H61.6716L68.5448 25.8695V16.3443H72.3345ZM24.5538 32.3483V16.3443H28.3434L32.5531 22.8197L36.7627 16.3443H40.5523V32.3483H36.7627V23.2939L33.884 27.7118H31.217L28.3384 23.2939V32.3483H24.5538Z" fill="#1D1D1B"/>
</g>
<defs>
<clipPath id="clip0_5358_53518">
<rect width="96" height="48" fill="white" transform="translate(0.5 0.34375)"/>
</clipPath>
</defs>
</svg>
