<svg width="102" height="25" viewBox="0 0 102 25" fill="none" xmlns="http://www.w3.org/2000/svg">
<path fill-rule="evenodd" clip-rule="evenodd" d="M12.5251 15.4683C7.41258 15.4104 4.10104 12.9815 4.10104 9.30923C4.10104 5.63694 7.41258 3.20802 12.5251 3.15019C17.6377 3.20802 20.9492 5.63694 20.9492 9.30923C20.9492 12.9815 17.6377 15.4393 12.5251 15.4683ZM12.6994 0.171875C12.6994 0.171875 12.5832 0.171875 12.5542 0.171875C12.4961 0.171875 12.4089 0.171875 12.4089 0.171875C5.37918 0.287538 0.499023 4.04657 0.499023 9.30923C0.499023 14.5719 5.37918 18.3309 12.3799 18.4466C12.3799 18.4466 12.4961 18.4466 12.5251 18.4466C12.5832 18.4466 12.6704 18.4466 12.6704 18.4466C19.6711 18.3598 24.5512 14.5719 24.5512 9.30923C24.5512 4.04657 19.6711 0.287538 12.6994 0.171875Z" fill="#1D2739"/>
<path fill-rule="evenodd" clip-rule="evenodd" d="M89.8816 15.4683C84.769 15.4104 81.4575 12.9815 81.4575 9.30923C81.4575 5.63694 84.769 3.20802 89.8816 3.15019C94.9941 3.20802 98.3056 5.63694 98.3056 9.30923C98.3056 12.9815 94.9941 15.4393 89.8816 15.4683ZM90.0268 0.171875C90.0268 0.171875 89.9106 0.171875 89.8816 0.171875C89.8235 0.171875 89.7363 0.171875 89.7363 0.171875C82.7356 0.287538 77.8555 4.04657 77.8555 9.30923C77.8555 14.5719 82.7356 18.3309 89.7363 18.4466C89.7363 18.4466 89.8525 18.4466 89.8816 18.4466C89.9397 18.4466 90.0268 18.4466 90.0268 18.4466C97.0275 18.3309 101.908 14.5719 101.908 9.30923C101.908 4.04657 97.0275 0.287538 90.0268 0.171875Z" fill="#1D2739"/>
<path fill-rule="evenodd" clip-rule="evenodd" d="M64.1443 15.4683C59.0317 15.4104 55.7202 12.9815 55.7202 9.30922C55.7202 5.63694 59.0317 3.20802 64.1443 3.15019C69.2568 3.20802 72.5683 5.63694 72.5683 9.30922C72.5683 12.9815 69.2568 15.4393 64.1443 15.4683ZM64.2895 0.171875C64.2895 0.171875 64.1733 0.171875 64.1443 0.171875C64.0862 0.171875 63.999 0.171875 63.999 0.171875C60.6584 0.229706 57.8117 1.09718 55.7492 2.57187V1.03934H52.1182V24.1719H55.7492V16.0466C57.8117 17.5213 60.6875 18.4177 63.999 18.4466C63.999 18.4466 64.1152 18.4466 64.1443 18.4466C64.2024 18.4466 64.2895 18.4466 64.2895 18.4466C71.2902 18.3309 76.1704 14.5719 76.1704 9.30922C76.1704 4.04657 71.2902 0.287538 64.2895 0.171875Z" fill="#1D2739"/>
<path fill-rule="evenodd" clip-rule="evenodd" d="M38.3491 15.4683C33.2365 15.4104 29.925 12.9815 29.925 9.30922C29.925 5.63694 33.2365 3.20802 38.3491 3.15019C43.4616 3.20802 46.7732 5.63694 46.7732 9.30922C46.7732 12.9815 43.4616 15.4393 38.3491 15.4683ZM38.4943 0.171875C38.4943 0.171875 38.3781 0.171875 38.3491 0.171875C38.291 0.171875 38.2038 0.171875 38.2038 0.171875C34.8633 0.229706 32.0165 1.09718 29.9541 2.57187V1.03934H26.2939V24.1719H29.925V16.0466C31.9875 17.5213 34.8633 18.4177 38.1748 18.4466C38.1748 18.4466 38.291 18.4466 38.32 18.4466C38.3781 18.4466 38.4653 18.4466 38.4653 18.4466C45.466 18.3309 50.3461 14.5719 50.3461 9.30922C50.3461 4.04657 45.495 0.287538 38.4943 0.171875Z" fill="#1D2739"/>
</svg>
