<svg width="204" height="49" viewBox="0 0 204 49" fill="none" xmlns="http://www.w3.org/2000/svg">
<g id="oppo_logo.svg">
<g id="Group">
<path id="Vector" fill-rule="evenodd" clip-rule="evenodd" d="M25.0522 30.5928C14.8271 30.4771 8.20404 25.6193 8.20404 18.2747C8.20404 10.9301 14.8271 6.07229 25.0522 5.95663C35.2773 6.07229 41.9003 10.9301 41.9003 18.2747C41.9003 25.6193 35.2773 30.5349 25.0522 30.5928ZM25.4008 0C25.4008 0 25.1684 0 25.1103 0C24.9941 0 24.8198 0 24.8198 0C10.7603 0.231325 1 7.7494 1 18.2747C1 28.8 10.7603 36.3181 24.7617 36.5494C24.7617 36.5494 24.9941 36.5494 25.0522 36.5494C25.1684 36.5494 25.3427 36.5494 25.3427 36.5494C39.3441 36.3759 49.1044 28.8 49.1044 18.2747C49.1044 7.7494 39.3441 0.231325 25.4008 0Z" fill="#046A38"/>
<path id="Vector_2" fill-rule="evenodd" clip-rule="evenodd" d="M179.765 30.5928C169.54 30.4771 162.917 25.6193 162.917 18.2747C162.917 10.9301 169.54 6.07229 179.765 5.95663C189.99 6.07229 196.613 10.9301 196.613 18.2747C196.613 25.6193 189.99 30.5349 179.765 30.5928ZM180.056 0C180.056 0 179.823 0 179.765 0C179.649 0 179.475 0 179.475 0C165.473 0.231325 155.713 7.7494 155.713 18.2747C155.713 28.8 165.473 36.3181 179.475 36.5494C179.475 36.5494 179.707 36.5494 179.765 36.5494C179.881 36.5494 180.056 36.5494 180.056 36.5494C194.057 36.3181 203.817 28.8 203.817 18.2747C203.817 7.7494 194.057 0.231325 180.056 0Z" fill="#046A38"/>
<path id="Vector_3" fill-rule="evenodd" clip-rule="evenodd" d="M128.29 30.5928C118.065 30.4771 111.442 25.6193 111.442 18.2747C111.442 10.9301 118.065 6.07229 128.29 5.95663C138.516 6.07229 145.139 10.9301 145.139 18.2747C145.139 25.6193 138.516 30.5349 128.29 30.5928ZM128.581 0C128.581 0 128.349 0 128.29 0C128.174 0 128 0 128 0C121.319 0.115663 115.625 1.8506 111.5 4.8V1.73494H104.238V48H111.5V31.7494C115.625 34.6988 121.377 36.4916 128 36.5494C128 36.5494 128.232 36.5494 128.29 36.5494C128.407 36.5494 128.581 36.5494 128.581 36.5494C142.582 36.3181 152.343 28.8 152.343 18.2747C152.343 7.7494 142.582 0.231325 128.581 0Z" fill="#046A38"/>
<path id="Vector_4" fill-rule="evenodd" clip-rule="evenodd" d="M76.7001 30.5928C66.475 30.4771 59.852 25.6193 59.852 18.2747C59.852 10.9301 66.475 6.07229 76.7001 5.95663C86.9252 6.07229 93.5483 10.9301 93.5483 18.2747C93.5483 25.6193 86.9252 30.5349 76.7001 30.5928ZM76.9906 0C76.9906 0 76.7582 0 76.7001 0C76.5839 0 76.4096 0 76.4096 0C69.7285 0.115663 64.035 1.8506 59.9101 4.8V1.73494H52.5898V48H59.852V31.7494C63.9769 34.6988 69.7285 36.4916 76.3515 36.5494C76.3515 36.5494 76.5839 36.5494 76.642 36.5494C76.7582 36.5494 76.9325 36.5494 76.9325 36.5494C90.9339 36.3181 100.694 28.8 100.694 18.2747C100.694 7.7494 90.992 0.231325 76.9906 0Z" fill="#046A38"/>
</g>
</g>
</svg>
