<svg width="90" height="91" viewBox="0 0 90 91" fill="none" xmlns="http://www.w3.org/2000/svg">
<g clip-path="url(#clip0_5509_32611)">
<rect y="0.34375" width="90" height="90" rx="45" fill="#E8F1FC"/>
<path d="M86.9736 90.2453L82.3463 92.9233L61.3904 105.02C60.2661 105.67 58.5598 105.738 57.588 105.178L18.9419 82.8663L16.0718 81.2109C15.6254 80.9567 15.4106 80.612 15.4106 80.256C15.4106 79.821 15.7271 79.369 16.343 79.013L41.9318 64.2383L86.9793 90.2453H86.9736Z" fill="#E8F1FC"/>
<path d="M86.9736 71.3292L82.3463 74.0073L61.3904 86.104C60.2661 86.7537 58.5598 86.8215 57.588 86.2621L18.9419 63.9503L16.0718 62.2949C15.6254 62.0406 15.4106 61.696 15.4106 61.34C15.4106 60.905 15.7271 60.453 16.343 60.097L41.9318 45.3223L86.9793 71.3292H86.9736Z" fill="#B6D4F7" stroke="#62A2EE" stroke-width="1.356" stroke-linecap="round" stroke-linejoin="round"/>
<path d="M86.9739 41.7852V71.3347L41.9321 45.3277V15.7839C41.9321 14.4787 42.7231 13.8798 43.6949 14.4505L85.211 38.4178C86.1828 38.9771 86.9796 40.4857 86.9796 41.7852H86.9739Z" fill="white" stroke="#62A2EE" stroke-width="1.356" stroke-linecap="round" stroke-linejoin="round"/>
<path d="M48.1073 73.9674L37.3553 67.758C36.3779 67.193 36.5022 66.2099 37.6265 65.5602L41.0505 63.5827C42.1748 62.9329 43.8811 62.8595 44.8529 63.4245L55.6049 69.6339C56.5823 70.1989 56.458 71.182 55.3337 71.8317L51.9098 73.8092C50.7854 74.459 49.0791 74.5324 48.1073 73.9674Z" fill="white" stroke="#62A2EE" stroke-width="1.356" stroke-linecap="round" stroke-linejoin="round"/>
<path d="M86.9738 71.3347V76.6796L61.3849 91.4544C60.2606 92.1041 58.5543 92.1719 57.5825 91.6126L16.0663 67.6453C15.6199 67.391 15.4053 67.0463 15.4053 66.6847V61.3398C15.4053 61.6958 15.6256 62.0405 16.0663 62.2947L18.9365 63.9501L57.5825 86.262C58.5543 86.8213 60.2606 86.7536 61.3849 86.1038L82.3408 74.0072L86.9681 71.3347H86.9738Z" fill="white" stroke="#62A2EE" stroke-width="1.356" stroke-linecap="round" stroke-linejoin="round"/>
<path d="M86.9736 71.3341V71.3291" stroke="#62A2EE" stroke-width="1.356" stroke-linecap="round" stroke-linejoin="round"/>
<path d="M65.2217 36.9092L79.9738 45.4238" stroke="#62A2EE" stroke-width="1.356" stroke-linecap="round" stroke-linejoin="round"/>
<path d="M58.1025 32.7959L61.6338 34.8355" stroke="#62A2EE" stroke-width="1.356" stroke-linecap="round" stroke-linejoin="round"/>
<path d="M72.8547 45.7965L58.1025 37.2764" stroke="#62A2EE" stroke-width="1.356" stroke-linecap="round" stroke-linejoin="round"/>
<path d="M79.9736 49.9039L76.4424 47.8643" stroke="#62A2EE" stroke-width="1.356" stroke-linecap="round" stroke-linejoin="round"/>
<path d="M65.2217 45.8701L79.9738 54.3904" stroke="#62A2EE" stroke-width="1.356" stroke-linecap="round" stroke-linejoin="round"/>
<path d="M58.1025 41.7568L61.6338 43.7965" stroke="#62A2EE" stroke-width="1.356" stroke-linecap="round" stroke-linejoin="round"/>
<path d="M72.8547 54.7575L58.1025 46.2373" stroke="#62A2EE" stroke-width="1.356" stroke-linecap="round" stroke-linejoin="round"/>
<path d="M79.9736 58.8707L76.4424 56.8311" stroke="#62A2EE" stroke-width="1.356" stroke-linecap="round" stroke-linejoin="round"/>
<path d="M52.2604 32.7675L38.7512 40.5758L25.2251 32.7675L38.7512 24.9648L52.2604 32.7675Z" fill="#E8F1FC" stroke="#62A2EE" stroke-width="1.356" stroke-linecap="round" stroke-linejoin="round"/>
<path d="M38.7512 40.5758V56.1698L25.2251 48.3672V32.7676L38.7512 40.5758Z" fill="#93BFF3" stroke="#62A2EE" stroke-width="1.356" stroke-linecap="round" stroke-linejoin="round"/>
<path d="M52.2607 32.7676V48.3672L38.7515 56.1698V40.5758L52.2607 32.7676Z" fill="#B6D4F7" stroke="#62A2EE" stroke-width="1.356" stroke-linecap="round" stroke-linejoin="round"/>
<path d="M28.7168 43.7905L30.2875 46.5137L35.2595 43.6436" stroke="#62A2EE" stroke-width="1.356" stroke-linecap="round" stroke-linejoin="round"/>
<path d="M44.1299 43.1123L47.7177 45.83" stroke="#62A2EE" stroke-width="1.356" stroke-linecap="round" stroke-linejoin="round"/>
<path d="M44.1299 47.8981L47.7177 41.0391" stroke="#62A2EE" stroke-width="1.356" stroke-linecap="round" stroke-linejoin="round"/>
</g>
<defs>
<clipPath id="clip0_5509_32611">
<rect y="0.34375" width="90" height="90" rx="45" fill="white"/>
</clipPath>
</defs>
</svg>
