<svg xmlns="http://www.w3.org/2000/svg" width="19" height="19" fill="none"><path fill="#475367" fill-rule="evenodd" d="M5.75 15.875C.873 13.625-.308 3.158 9.5 2.75c9-.375 9 10.875 5.624 10.875-.784 0-1.37-.09-1.805-.228-.32-.103-.682-.298-1.053-.498-.812-.438-1.676-.904-2.293-.502-.603.394-.901 1.014-.098 1.978 2.4 2.88-2.376 2.375-4.126 1.5m7.125-7.125a1.125 1.125 0 1 0 0-2.25 1.125 1.125 0 0 0 0 2.25M8.75 6.5a1.125 1.125 0 1 1-2.25 0 1.125 1.125 0 0 1 2.25 0m-2.625 6a1.125 1.125 0 1 0 0-2.25 1.125 1.125 0 0 0 0 2.25" clip-rule="evenodd"/></svg>