<svg width="10" height="11" viewBox="0 0 10 11" fill="none" xmlns="http://www.w3.org/2000/svg">
<path d="M1.28814 0.727483C0.995249 0.434589 0.520376 0.434589 0.227482 0.727483C-0.0654108 1.02038 -0.0654108 1.49525 0.227482 1.78814L3.93979 5.50045L0.227482 9.21276C-0.0654108 9.50566 -0.0654108 9.98053 0.227482 10.2734C0.520376 10.5663 0.995249 10.5663 1.28814 10.2734L5.00045 6.56111L8.71276 10.2734C9.00566 10.5663 9.48053 10.5663 9.77342 10.2734C10.0663 9.98053 10.0663 9.50566 9.77342 9.21276L6.06111 5.50045L9.77342 1.78814C10.0663 1.49525 10.0663 1.02038 9.77342 0.727483C9.48053 0.434589 9.00566 0.43459 8.71276 0.727483L5.00045 4.43979L1.28814 0.727483Z" fill="#CB1A14"/>
</svg>
