<svg width="12" height="13" viewBox="0 0 12 13" fill="none" xmlns="http://www.w3.org/2000/svg">
<path fill-rule="evenodd" clip-rule="evenodd" d="M2.25 0.5H9.75C10.9926 0.5 12 1.50736 12 2.75V10.25C12 11.4926 10.9926 12.5 9.75 12.5H2.25C1.00736 12.5 0 11.4926 0 10.25V2.75C0 1.50736 1.00736 0.5 2.25 0.5ZM9.5382 4.77235C9.82668 4.47511 9.81958 4.00029 9.52235 3.7118C9.22511 3.42332 8.75029 3.43042 8.4618 3.72765L4.63252 7.67313L3.5382 6.54559C3.24971 6.24836 2.77489 6.24126 2.47765 6.52974C2.18042 6.81823 2.17332 7.29305 2.4618 7.59028L4.09432 9.27235C4.23557 9.41787 4.42972 9.5 4.63252 9.5C4.83532 9.5 5.02947 9.41787 5.17072 9.27235L9.5382 4.77235Z" fill="#099137"/>
</svg>
