<svg width="91" height="91" viewBox="0 0 91 91" fill="none" xmlns="http://www.w3.org/2000/svg">
<g clip-path="url(#clip0_5509_32586)">
<rect x="0.333496" y="0.34375" width="90" height="90" rx="45" fill="#E8F1FC"/>
<path d="M86.1804 65.5852C86.0887 66.3777 85.6433 67.1637 84.8508 67.8514C84.5691 68.0938 84.2351 68.3296 83.8618 68.5458L5.1766 113.977C2.0457 115.784 -3.03056 115.784 -6.16801 113.977L-42.8153 92.82C-43.1952 92.5973 -43.5227 92.3681 -43.8109 92.1192C-44.6034 91.4315 -45.0488 90.6521 -45.1405 89.8595C-45.1667 89.6499 -45.1667 89.4402 -45.1405 89.2306C-45.0161 88.1499 -44.2432 87.0953 -42.8153 86.27L35.8699 40.8392C39.0008 39.0314 44.0836 39.0314 47.2145 40.8392L83.8618 61.9958C85.2897 62.8276 86.0625 63.8822 86.187 64.9564C86.2132 65.166 86.2132 65.3756 86.187 65.5852H86.1804Z" fill="#E8F1FC"/>
<path d="M84.8443 46.8987C84.5626 47.1411 84.2286 47.3769 83.8552 47.5931L5.17006 93.0239C2.03915 94.8317 -3.0371 94.8317 -6.17455 93.0239L-42.8218 71.8673C-43.2017 71.6446 -43.5292 71.4154 -43.8174 71.1665C-43.5292 70.9176 -43.2017 70.6884 -42.8218 70.4657L35.8633 25.0414C38.9942 23.2336 44.077 23.2336 47.208 25.0414L83.8552 46.1979C84.2351 46.4141 84.5561 46.6433 84.8443 46.8987Z" fill="white" stroke="#62A2EE" stroke-width="1.2" stroke-linecap="round" stroke-linejoin="round"/>
<path d="M86.1807 49.787V49.1582C86.2068 49.3678 86.2068 49.5774 86.1807 49.787Z" fill="white" stroke="#62A2EE" stroke-width="1.2" stroke-linecap="round" stroke-linejoin="round"/>
<path d="M86.1804 44.632C86.0887 45.4246 85.6433 46.2106 84.8508 46.8983C84.5691 47.1407 84.2351 47.3765 83.8618 47.5927L5.1766 93.0235C2.0457 94.8313 -3.03056 94.8313 -6.16801 93.0235L-42.8153 71.8669C-43.1952 71.6442 -43.5227 71.415 -43.8109 71.1661C-44.6034 70.4784 -45.0488 69.6989 -45.1405 68.9064C-45.1667 68.6968 -45.1667 68.4871 -45.1405 68.2775C-45.0161 67.1968 -44.2432 66.1422 -42.8153 65.3169L35.8699 19.8861C39.0008 18.0783 44.0836 18.0783 47.2145 19.8861L83.8618 41.0427C85.2897 41.8745 86.0625 42.9291 86.187 44.0033C86.2132 44.2129 86.2132 44.4224 86.187 44.632H86.1804Z" fill="white" stroke="#62A2EE" stroke-width="1.2" stroke-linecap="round" stroke-linejoin="round"/>
<path d="M79.6437 38.6124L-10.386 90.5932L-20.4927 84.7571L69.5305 32.7764L79.6437 38.6124Z" fill="#B6D4F7" stroke="#62A2EE" stroke-width="1.2" stroke-linecap="round" stroke-linejoin="round"/>
<path d="M40.8809 32.9078C44.0707 34.7483 44.0707 37.7351 40.8809 39.5822C37.691 41.4228 32.5165 41.4228 29.3201 39.5822C26.1303 37.7417 26.1303 34.7549 29.3201 32.9078C32.51 31.0672 37.6845 31.0672 40.8809 32.9078Z" fill="#93BFF3" stroke="#62A2EE" stroke-width="1.2" stroke-linecap="round" stroke-linejoin="round"/>
<path d="M48.374 28.5777C51.5639 30.4182 51.5639 33.4051 48.374 35.2522C45.1842 37.0993 40.0097 37.0927 36.8133 35.2522C33.6234 33.4116 33.6234 30.4248 36.8133 28.5777C40.0031 26.7371 45.1776 26.7371 48.374 28.5777Z" fill="#B6D4F7" stroke="#62A2EE" stroke-width="1.2" stroke-linecap="round" stroke-linejoin="round"/>
<path d="M-16.5562 66.5416L6.86662 53.0225" stroke="#62A2EE" stroke-width="1.2" stroke-linecap="round" stroke-linejoin="round"/>
<path d="M0.598145 63.5744L7.18089 59.7754" stroke="#62A2EE" stroke-width="1.2" stroke-linecap="round" stroke-linejoin="round"/>
<path d="M86.181 44.6318V49.7867C86.0566 50.8674 85.2837 51.922 83.8558 52.7473L5.17063 98.1781C2.03973 99.9859 -3.03653 99.9859 -6.17398 98.1781L-42.8212 77.0151C-44.2491 76.1898 -45.022 75.1352 -45.1465 74.0545V68.9062C-45.0548 69.6987 -44.6094 70.4781 -43.8168 71.1659C-43.5286 71.4148 -43.2011 71.644 -42.8212 71.8667L-6.17398 93.0232C-3.03653 94.831 2.03973 94.831 5.17063 93.0232L83.8558 47.5924C84.2291 47.3763 84.5632 47.1405 84.8448 46.8981C85.6374 46.2104 86.0828 45.4244 86.1745 44.6318H86.181Z" fill="#E8F1FC" stroke="#62A2EE" stroke-width="1.2" stroke-linecap="round" stroke-linejoin="round"/>
</g>
<defs>
<clipPath id="clip0_5509_32586">
<rect x="0.333496" y="0.34375" width="90" height="90" rx="45" fill="white"/>
</clipPath>
</defs>
</svg>
