<svg xmlns="http://www.w3.org/2000/svg" width="35" height="35" fill="none"><circle cx="17.5" cy="17.5" r="17.5" fill="#136AD0" opacity=".1"/><path fill="#093160" d="M23.01 9.006a5.25 5.25 0 0 1 2.762 2.763c.263.614.404 1.272.415 1.937a5 5 0 0 1-.665 2.573 1 1 0 1 1-1.73-1.002q.105-.18.182-.376c.147-.365.22-.76.213-1.162a3.1 3.1 0 0 0-.254-1.184 3.25 3.25 0 0 0-1.71-1.71 3.1 3.1 0 0 0-1.183-.254 3 3 0 0 0-1.539.396A1 1 0 0 1 18.5 9.256q.305-.176.634-.309a5 5 0 0 1 1.94-.356c.664.011 1.322.153 1.937.415M9.39 10.05l.536-.535a3 3 0 0 1 4.242 0l.93.929a3 3 0 0 1 .486 3.604l-.055.097c-.535.94-.532 2.104.102 2.98.316.437.673.89 1.012 1.229.34.339.792.696 1.229 1.012.876.634 2.04.637 2.98.102l.097-.055a3 3 0 0 1 3.604.487l.93.929a3 3 0 0 1 0 4.242l-.536.536c-.563.562-1.33.876-2.103.69-1.653-.398-4.84-1.632-8.676-5.468s-5.07-7.023-5.468-8.676c-.186-.774.128-1.54.69-2.103"/><path fill="#093160" d="M22.622 12.207c-.3-.3-.663-.522-1.062-.659a3 3 0 0 0-1.24-.147c-.42.035-.83.151-1.212.335q-.33.158-.622.378a1 1 0 0 0 1.2 1.6q.14-.104.29-.176c.174-.084.349-.13.51-.144.163-.014.306.006.427.047a.76.76 0 0 1 .294.18.76.76 0 0 1 .181.295c.041.12.06.264.047.426-.014.162-.06.337-.144.511a1.7 1.7 0 0 1-.177.29 1 1 0 0 0 1.6 1.2q.22-.293.379-.622c.184-.382.3-.793.335-1.212a3 3 0 0 0-.148-1.24 2.76 2.76 0 0 0-.659-1.062"/></svg>