<svg width="19" height="19" viewBox="0 0 19 19" fill="none" xmlns="http://www.w3.org/2000/svg">
<path fill-rule="evenodd" clip-rule="evenodd" d="M8.84906 13.0468C9.39847 13.5783 10.2704 13.5783 10.8198 13.0468C11.134 12.7429 11.5708 12.6009 12.0037 12.6622C12.7605 12.7692 13.4659 12.2567 13.598 11.5038C13.6735 11.0732 13.9435 10.7016 14.3297 10.4967C15.0049 10.1385 15.2744 9.30921 14.9387 8.62245C14.7467 8.22973 14.7467 7.77039 14.9387 7.37767C15.2744 6.69091 15.0049 5.86166 14.3297 5.50339C13.9435 5.29851 13.6735 4.9269 13.598 4.49634C13.4659 3.74342 12.7605 3.23091 12.0037 3.33797C11.5708 3.39919 11.134 3.25725 10.8198 2.95331C10.2704 2.42181 9.39847 2.42181 8.84906 2.95331C8.53488 3.25725 8.09803 3.39919 7.66521 3.33797C6.90832 3.23091 6.20292 3.74342 6.07084 4.49634C5.99532 4.9269 5.72533 5.29851 5.33918 5.50339C4.66392 5.86166 4.39448 6.69091 4.73019 7.37767C4.92216 7.77039 4.92216 8.22973 4.73019 8.62245C4.39448 9.30921 4.66392 10.1385 5.33918 10.4967C5.72533 10.7016 5.99532 11.0732 6.07084 11.5038C6.20292 12.2567 6.90832 12.7692 7.66521 12.6622C8.09803 12.6009 8.53488 12.7429 8.84906 13.0468ZM9.32496 6.4716C9.1646 6.95268 8.78709 7.33018 8.30601 7.49054C7.8164 7.65375 7.8164 8.34629 8.30601 8.50949C8.78709 8.66985 9.1646 9.04736 9.32496 9.52844C9.48816 10.018 10.1807 10.018 10.3439 9.52844C10.5043 9.04736 10.8818 8.66985 11.3629 8.50949C11.8525 8.34629 11.8525 7.65375 11.3629 7.49054C10.8818 7.33018 10.5043 6.95268 10.3439 6.4716C10.1807 5.98199 9.48816 5.98199 9.32496 6.4716Z" fill="#475367"/>
<path d="M11.567 13.5087L10.5053 14.0396C10.083 14.2508 9.58594 14.2508 9.16365 14.0396L8.10194 13.5087C7.91234 13.4139 7.6835 13.5172 7.62916 13.7221C7.59949 13.834 7.58447 13.9493 7.58447 14.065V16.5517C7.58447 17.3854 8.65682 17.7246 9.13623 17.0426C9.47615 16.559 10.1928 16.559 10.5327 17.0426C11.0121 17.7246 12.0845 17.3854 12.0845 16.5517V14.065C12.0845 13.9493 12.0695 13.834 12.0398 13.7221C11.9854 13.5172 11.7566 13.4139 11.567 13.5087Z" fill="#475367"/>
</svg>
