<svg xmlns="http://www.w3.org/2000/svg" width="19" height="19" fill="none"><path fill="#475367" fill-rule="evenodd" d="M8.515 13.047c.549.531 1.42.531 1.97 0a1.42 1.42 0 0 1 1.184-.385 1.417 1.417 0 0 0 1.595-1.158c.075-.43.345-.802.731-1.007a1.417 1.417 0 0 0 .61-1.875 1.42 1.42 0 0 1 0-1.244 1.417 1.417 0 0 0-.61-1.875 1.42 1.42 0 0 1-.731-1.007 1.417 1.417 0 0 0-1.595-1.158c-.433.061-.87-.08-1.184-.385a1.417 1.417 0 0 0-1.97 0 1.42 1.42 0 0 1-1.184.385 1.417 1.417 0 0 0-1.595 1.158c-.075.43-.345.802-.731 1.007a1.417 1.417 0 0 0-.61 1.875c.193.392.193.852 0 1.244a1.417 1.417 0 0 0 .61 1.875c.386.205.656.576.731 1.007a1.417 1.417 0 0 0 1.595 1.158c.433-.061.87.08 1.184.385m.475-6.575c-.16.48-.537.858-1.018 1.018a.537.537 0 0 0 0 1.02c.48.16.858.537 1.018 1.018.164.49.856.49 1.02 0 .16-.48.537-.858 1.018-1.019a.537.537 0 0 0 0-1.019 1.61 1.61 0 0 1-1.019-1.018.537.537 0 0 0-1.019 0" clip-rule="evenodd"/><path fill="#475367" d="m11.233 13.509-1.062.53a1.5 1.5 0 0 1-1.342 0l-1.062-.53a.334.334 0 0 0-.472.213q-.045.168-.045.343v2.487c0 .833 1.072 1.172 1.552.49a.854.854 0 0 1 1.396 0c.48.682 1.552.343 1.552-.49v-2.487q0-.175-.045-.343a.334.334 0 0 0-.473-.213"/></svg>