<svg xmlns="http://www.w3.org/2000/svg" width="80" height="80" fill="none"><rect width="77" height="77" x="1.5" y="1.5" fill="#E8F1FC" rx="38.5"/><rect width="77" height="77" x="1.5" y="1.5" stroke="#093160" stroke-width="3" rx="38.5"/><path stroke="#093160" stroke-linecap="round" stroke-linejoin="round" stroke-width="4" d="m53.408 58.275 5.594-19.792a2.084 2.084 0 0 0-2.007-2.65H45.037a1.14 1.14 0 0 1-1.111-1.395l.52-2.255a20.5 20.5 0 0 0 .455-6.312l-.096-1.15a5.23 5.23 0 0 0-1.513-3.263c-.8-.8-1.886-1.25-3.017-1.25h-.25a1.88 1.88 0 0 0-1.646.97l-2.77 4.983a13.5 13.5 0 0 1-5.337 5.297l-6.937 3.782a2.08 2.08 0 0 0-1.085 1.83v20.638a2.083 2.083 0 0 0 2.083 2.084h27.07a2.084 2.084 0 0 0 2.005-1.517"/></svg>