<svg width="90" height="91" viewBox="0 0 90 91" fill="none" xmlns="http://www.w3.org/2000/svg">
<g clip-path="url(#clip0_5509_32592)">
<rect y="0.34375" width="90" height="90" rx="45" fill="#E8F1FC"/>
<path d="M90.255 109.685C90.255 110.45 89.7 111.25 88.615 111.875L83.61 114.995C81.625 116.145 78.6299 116.26 76.9149 115.275L23.2949 84.5049L19.1599 82.1149C18.3849 81.6649 18 81.0649 18 80.4349C18 79.6749 18.555 78.8749 19.64 78.2449L24.65 75.1249C26.63 73.9849 29.63 73.8599 31.345 74.8499L89.095 108.01C89.87 108.46 90.255 109.055 90.255 109.685Z" fill="#E8F1FC"/>
<path d="M82.0552 57.6195V100.215C82.0552 102.005 81.4802 103.295 80.5552 103.935L80.2102 104.14C79.3052 104.58 78.1352 104.485 76.8602 103.75L24.5602 73.5545C21.6902 71.8945 19.3652 67.6295 19.3652 64.0195V21.4246C19.3652 19.5746 19.9802 18.2596 20.9602 17.6396L21.1652 17.5195C21.9402 17.1245 22.9152 17.1295 23.9902 17.5995C24.1752 17.6795 24.3652 17.7796 24.5602 17.8896L27.5652 19.6245L76.8602 48.0845C77.0402 48.1895 77.2153 48.2996 77.3903 48.4246C80.0053 50.2696 82.0552 54.2345 82.0552 57.6195Z" fill="white" stroke="#62A2EE" stroke-width="1.2" stroke-linecap="round" stroke-linejoin="round"/>
<path d="M82.0552 57.6195V63.4745L27.5652 32.0146L19.3652 27.2795V21.4246C19.3652 19.5746 19.9802 18.2596 20.9602 17.6396L21.1652 17.5195C21.9402 17.1245 22.9152 17.1295 23.9902 17.5995C24.1752 17.6795 24.3652 17.7796 24.5602 17.8896L27.5652 19.6245L76.8602 48.0845C77.0402 48.1895 77.2153 48.2996 77.3903 48.4246C80.0053 50.2696 82.0552 54.2345 82.0552 57.6195Z" fill="#B6D4F7" stroke="#62A2EE" stroke-width="1.2" stroke-linecap="round" stroke-linejoin="round"/>
<path d="M27.7402 25.9251C27.7402 26.8151 27.1152 27.1751 26.3452 26.7301C25.5752 26.2851 24.9502 25.2051 24.9502 24.3151C24.9502 23.4251 25.5752 23.0651 26.3452 23.5101C27.1152 23.9551 27.7402 25.0351 27.7402 25.9251Z" fill="#62A2EE"/>
<path d="M33.105 29.0198C33.105 29.9098 32.48 30.2698 31.71 29.8248C30.94 29.3798 30.3149 28.2998 30.3149 27.4098C30.3149 26.5198 30.94 26.1598 31.71 26.6048C32.48 27.0498 33.105 28.1298 33.105 29.0198Z" fill="#62A2EE"/>
<path d="M38.4751 32.1194C38.4751 33.0094 37.8501 33.3694 37.0801 32.9244C36.3101 32.4794 35.6851 31.3994 35.6851 30.5094C35.6851 29.6194 36.3101 29.2594 37.0801 29.7044C37.8501 30.1494 38.4751 31.2294 38.4751 32.1194Z" fill="#62A2EE"/>
<path d="M57.0801 56.0254L73.0901 65.2654" stroke="#62A2EE" stroke-width="1.2" stroke-linecap="round" stroke-linejoin="round"/>
<path d="M38.4751 45.2803L50.3751 52.1553" stroke="#62A2EE" stroke-width="1.2" stroke-linecap="round" stroke-linejoin="round"/>
<path d="M24.9551 37.4746L31.2101 41.0896" stroke="#62A2EE" stroke-width="1.2" stroke-linecap="round" stroke-linejoin="round"/>
<path d="M62.0249 66.3447L66.9698 69.1997" stroke="#62A2EE" stroke-width="1.2" stroke-linecap="round" stroke-linejoin="round"/>
<path d="M40.5698 53.9551L57.8048 63.9101" stroke="#62A2EE" stroke-width="1.2" stroke-linecap="round" stroke-linejoin="round"/>
<path d="M24.9551 44.9395L35.6901 51.1395" stroke="#62A2EE" stroke-width="1.2" stroke-linecap="round" stroke-linejoin="round"/>
<path d="M62.0249 81.7246L66.9698 84.5796" stroke="#62A2EE" stroke-width="1.2" stroke-linecap="round" stroke-linejoin="round"/>
<path d="M40.5698 69.335L57.8048 79.29" stroke="#62A2EE" stroke-width="1.2" stroke-linecap="round" stroke-linejoin="round"/>
<path d="M24.9551 60.3203L35.6901 66.5203" stroke="#62A2EE" stroke-width="1.2" stroke-linecap="round" stroke-linejoin="round"/>
<path d="M49.1899 66.4004L52.135 68.1004" stroke="#62A2EE" stroke-width="1.2" stroke-linecap="round" stroke-linejoin="round"/>
<path d="M33.4448 57.3096L44.4248 63.6496" stroke="#62A2EE" stroke-width="1.2" stroke-linecap="round" stroke-linejoin="round"/>
<path d="M24.9551 52.4053L28.7551 54.6003" stroke="#62A2EE" stroke-width="1.2" stroke-linecap="round" stroke-linejoin="round"/>
<path d="M33.4448 72.1504L44.4248 78.4904" stroke="#62A2EE" stroke-width="1.2" stroke-linecap="round" stroke-linejoin="round"/>
<path d="M24.9551 67.25L28.7551 69.44" stroke="#62A2EE" stroke-width="1.2" stroke-linecap="round" stroke-linejoin="round"/>
<path d="M90.2551 52.8849V58.7399L82.0551 63.4749V57.6199C82.0551 54.2349 80.0051 50.2699 77.3901 48.4249C77.2151 48.2999 77.0401 48.1899 76.8601 48.0849L27.5651 19.6249L24.5601 17.8899C24.3651 17.7799 24.1751 17.6799 23.9901 17.5999C22.9151 17.1299 21.94 17.1249 21.165 17.5199L29.0951 12.9399L29.3651 12.7849C30.2751 12.3199 31.4601 12.4099 32.7601 13.1599L85.0601 43.3549C87.9251 45.0099 90.2551 49.2749 90.2551 52.8849Z" fill="#93BFF3" stroke="#62A2EE" stroke-width="1.2" stroke-linecap="round" stroke-linejoin="round"/>
<path d="M90.2548 58.7402V95.4803C90.2548 97.2753 89.6798 98.5653 88.7498 99.2053L88.4147 99.4002L80.5547 103.935C81.4797 103.295 82.0547 102.005 82.0547 100.215V63.4753L90.2548 58.7402Z" fill="#E8F1FC" stroke="#62A2EE" stroke-width="1.2" stroke-miterlimit="10" stroke-linecap="round"/>
</g>
<defs>
<clipPath id="clip0_5509_32592">
<rect y="0.34375" width="90" height="90" rx="45" fill="white"/>
</clipPath>
</defs>
</svg>
