<svg xmlns="http://www.w3.org/2000/svg" width="81" height="80" fill="none"><rect width="77" height="77" x="2.3" y="1.5" fill="#E8F1FC" rx="38.5"/><rect width="77" height="77" x="2.3" y="1.5" stroke="#093160" stroke-width="3" rx="38.5"/><path fill="#093160" d="M37.675 50.938h12.5v3.124h-12.5zm-6.25 0h3.125v3.124h-3.125zm6.25-7.813h12.5v3.125h-12.5zm-6.25 0h3.125v3.125h-3.125zm6.25-7.812h12.5v3.124h-12.5zm-6.25 0h3.125v3.124h-3.125z"/><path fill="#093160" d="M54.863 22.813h-4.688V21.25a3.125 3.125 0 0 0-3.125-3.125h-12.5a3.125 3.125 0 0 0-3.125 3.125v1.563h-4.687a3.125 3.125 0 0 0-3.125 3.125V58.75a3.125 3.125 0 0 0 3.125 3.125h28.124a3.125 3.125 0 0 0 3.125-3.125V25.938a3.125 3.125 0 0 0-3.125-3.125M34.55 21.25h12.5v6.25h-12.5zm20.313 37.5H26.737V25.938h4.687v4.687h18.75v-4.687h4.688z"/></svg>