<svg xmlns="http://www.w3.org/2000/svg" width="76" height="76" fill="none"><path fill="#1574E5" d="M28.435 20.818c-.411 1.49-.596 3.037-.71 4.575a52 52 0 0 0-.107 5.344c.104 3.454.546 6.893 1.22 10.28.682 3.426 1.604 6.8 2.651 10.133.205.652.413 1.37 1 1.785.6.423 1.358.372 2.049.282.784-.1 1.572-.182 2.357-.282 2.079-.261 4.222-.563 6.184-1.317.77-.296 1.6-.675 2.152-1.311.844-.972.693-2.365.442-3.538-.38-1.77-.865-3.526-1.333-5.278-.472-1.767-.941-3.536-1.446-5.294-.953-3.334-1.938-6.684-3.212-9.918a41 41 0 0 0-2.04-4.454c-.75-1.387-1.584-2.797-2.626-3.985-.893-1.018-2.166-1.819-3.566-1.448-1.177.313-1.946 1.385-2.423 2.44-.279.634-.5 1.292-.664 1.966-.113.452.58.644.699.193.308-1.162.724-2.456 1.613-3.313.92-.89 2.198-.76 3.148.024.551.456.99 1.028 1.4 1.61q.675.956 1.267 1.97a36 36 0 0 1 2.061 4.152c1.246 2.947 2.195 6.017 3.118 9.078a185 185 0 0 1 2.749 10.084c.2.829.414 1.658.578 2.494.14.718.246 1.54-.024 2.244-.221.573-.853.98-1.4 1.262-1.723.889-3.77 1.2-5.666 1.478-.857.126-1.716.227-2.575.327-.939.11-2.252.51-2.804-.507-.358-.665-.519-1.478-.739-2.195q-.357-1.17-.69-2.345a92 92 0 0 1-1.226-4.824c-1.397-6.224-2.093-12.753-1.306-19.111.102-.821.242-1.64.422-2.447.082-.36-.454-.512-.553-.154"/><path fill="#1574E5" d="M30.308 47.262c-1.33 1.158-2.111 3.008-2.447 4.704-.38 1.93-.2 3.92.327 5.804.315 1.126.764 2.199 1.254 3.258.146.314.634.147.634-.171-.014-1.407.187-2.781.742-4.081a9.5 9.5 0 0 1 2.443-3.365c.294-.262-.141-.693-.433-.432-2.157 1.92-3.565 4.967-3.432 7.877l.633-.171c-1.088-2.173-1.796-4.645-1.694-7.087.04-1.081.252-2.149.629-3.162.397-1.056 1.012-1.934 1.725-2.795a.269.269 0 0 0-.38-.38zM44.594 43.775c.789.432 1.639.724 2.41 1.197a11.95 11.95 0 0 1 5.027 6.21c.338.984.52 2.015.538 3.055l.423-.241a25.9 25.9 0 0 0-8.103-3.822c-.414-.113-.592.536-.176.642a24.6 24.6 0 0 1 7.994 3.665c.175.123.423-.041.423-.24-.08-3.824-2.194-7.617-5.493-9.593-.877-.525-1.93-1.077-2.97-1.126a.14.14 0 0 0-.126.103.14.14 0 0 0 .055.152z"/><path fill="#1574E5" d="M33.855 53.365c.74.674.845 1.768 1.42 2.558.62.85 1.608 1.157 2.628 1.11 1.148-.052 2.252-.443 3.35-.746 1.12-.308 2.464-.456 3.075-1.579.672-1.242.808-2.846.644-4.222-.047-.39-.665-.393-.616 0 .148 1.196.044 2.429-.382 3.561-.204.541-.529.947-1.07 1.175-.54.228-1.118.347-1.675.497-1.591.43-4.371 1.495-5.508-.312-.525-.834-.715-1.833-1.563-2.431-.232-.164-.51.202-.303.392zM34.955 28.955c-1.581-.413-3.25.337-4.16 1.661-.968 1.407-.727 3.211.296 4.512 1.05 1.337 2.785 1.842 4.36 1.168 1.522-.653 2.651-2.256 2.44-3.945-.235-1.87-1.936-3.424-3.831-3.42-.375 0-.375.576 0 .583 1.433.026 2.697 1.113 3.078 2.475s-.327 2.738-1.507 3.442c-1.202.718-2.683.597-3.718-.361-.992-.915-1.44-2.42-.856-3.68.64-1.385 2.275-2.256 3.78-2.006.276.046.401-.355.118-.43M28.228 24.863c1.544-.344 3.05-.873 4.588-1.245 1.54-.371 3.104-.611 4.67-.868.334-.055.259-.618-.08-.593-1.6.122-3.212.433-4.776.785-1.548.352-3.17.75-4.597 1.457-.268.132-.075.523.195.463M30.254 45.686c.247.06.483-.03.723-.097.282-.08.563-.168.845-.25q.847-.246 1.695-.498a67 67 0 0 1 3.414-.919q1.72-.414 3.462-.727c1.16-.211 2.336-.327 3.492-.541.342-.064.266-.634-.082-.61-1.154.071-2.322.306-3.458.505a69 69 0 0 0-3.527.715q-1.724.397-3.423.888a31 31 0 0 0-2.516.848c-.242.093-.542.175-.704.383-.078.1-.065.268.08.303z"/><path fill="#1574E5" d="M37.57 56.827c-.227.7-.053 1.51.338 2.119.196.307.453.57.756.774.333.223.915.281.981.742.059.408-.016.795.125 1.196.13.354.341.672.616.93.672.644 1.628.86 2.515 1.01.263.046.379-.355.112-.405-.84-.154-1.76-.281-2.4-.901-.302-.294-.507-.686-.484-1.116.02-.363.152-.712.043-1.077-.099-.332-.384-.53-.689-.655-.327-.136-.618-.274-.871-.53-.523-.53-.729-1.24-.629-1.971.037-.266-.326-.384-.413-.114z"/><path fill="#1574E5" d="M43.5 63.426c.023-.456.03-.929.18-1.364.133-.384.4-.672.69-.946.458-.432 1.016-.87 1.109-1.534.102-.733-.4-1.287-.852-1.795-.601-.676-.939-1.423-.72-2.34.074-.313-.4-.446-.482-.134a2.78 2.78 0 0 0 .416 2.32c.39.542 1.272 1.115 1.18 1.87-.086.687-.862 1.126-1.282 1.6-.58.659-.673 1.477-.656 2.322.005.271.406.27.422 0zM37.104 45.844c-1.029.29-2.052.586-3.096.82-1.044.236-2.102.388-3.15.597-.342.07-.191.563.14.514 1.047-.159 2.094-.447 3.115-.723s2.062-.571 3.064-.935c.169-.062.103-.323-.075-.273zM35.793 48.146c-.737.16-1.483.267-2.22.43-.735.162-1.477.29-2.205.476-.368.094-.211.664.157.57.725-.186 1.44-.432 2.16-.642s1.427-.475 2.147-.69a.075.075 0 0 0 .052-.092.075.075 0 0 0-.092-.052M36.03 50.187a16.5 16.5 0 0 1-4.082.955.284.284 0 0 0-.275.325.285.285 0 0 0 .352.238 18.6 18.6 0 0 0 4.125-1.245c.155-.066.044-.334-.115-.274zM37.028 54.862a77 77 0 0 1-.484-1.108c-.158-.37-.262-.769-.449-1.125a.23.23 0 0 0-.31-.082.233.233 0 0 0-.081.31c.159.365.4.695.587 1.047.188.351.371.709.553 1.066.063.123.238.015.184-.107M38.62 54.226c-.078-.311-.155-.62-.221-.934-.034-.157-.07-.313-.097-.47l-.04-.219a1.5 1.5 0 0 0-.048-.255.227.227 0 0 0-.438.122q.032.125.086.244l.076.21c.055.151.103.303.154.455.1.304.19.61.281.915a.13.13 0 0 0 .25-.07zM40.634 54.058l-.237-.992a22 22 0 0 1-.11-.488q-.026-.117-.05-.235a1.4 1.4 0 0 1-.013-.27.21.21 0 1 0-.395.107q.06.11.102.226c.026.083.046.168.07.25q.066.242.126.485l.243.99c.042.172.306.1.265-.07zM42.251 53.296l-.12-.867-.059-.415a2 2 0 0 1-.036-.445.18.18 0 0 0-.205-.178c-.098.014-.192.123-.15.226q.07.217.09.443l.066.432.133.881a.146.146 0 0 0 .179.102.15.15 0 0 0 .102-.18M43.444 52.873q.073-.41.103-.825c.019-.273.01-.543.013-.816a.185.185 0 0 0-.37 0q.036.391.009.785a7 7 0 0 1-.08.766.173.173 0 0 0 .118.207.17.17 0 0 0 .207-.117M31.104 30.51c.132.875.281 1.747.461 2.613.18.867.33 1.747.57 2.594.07.243.429.14.377-.105-.184-.865-.422-1.716-.588-2.587-.167-.871-.32-1.74-.456-2.615-.036-.24-.4-.14-.364.1M31.863 29.919c.422 2.046.78 4.124 1.302 6.149.061.237.402.133.36-.1-.355-2.06-.886-4.098-1.34-6.138-.048-.211-.365-.12-.322.089M32.691 29.415c.606 2.234 1.151 4.496 1.824 6.711a.17.17 0 0 0 .204.108.17.17 0 0 0 .12-.197c-.524-2.252-1.183-4.487-1.775-6.725-.063-.24-.438-.14-.373.103M33.844 29.256a163 163 0 0 1 1.552 6.128c.05.21.374.121.325-.09a150 150 0 0 0-1.572-6.122c-.055-.196-.359-.113-.305.084M35.025 29.485c.434 1.857.811 3.74 1.309 5.582.07.248.443.14.385-.106-.43-1.857-.985-3.694-1.477-5.536-.038-.14-.25-.08-.217.06M36.142 30.4c.36 1.382.722 2.763 1.061 4.152.052.21.388.119.325-.09-.414-1.367-.805-2.74-1.197-4.114a.098.098 0 0 0-.188.052"/><path fill="#1574E5" d="M37.406 34.607c.356 0 .357-.553 0-.553s-.356.553 0 .553M47.3 46.43a5.1 5.1 0 0 0-1.939-.686c-.111-.015-.22.033-.235.157a.19.19 0 0 0 .186.215c.646.06 1.275.246 1.85.547a.135.135 0 0 0 .137-.233M47.213 48.024a5.3 5.3 0 0 0-1.316-.305.184.184 0 0 0 0 .367q.31.004.614.07.315.07.613.188a.17.17 0 0 0 .205-.116.17.17 0 0 0-.116-.205M30.016 50.866c.327-.491.7-.95 1.117-1.367.152-.153-.095-.396-.236-.236-.407.46-.77.958-1.082 1.485-.077.13.118.242.2.118M30.872 52.803l.562-.728c.184-.239.363-.482.556-.713a.177.177 0 1 0-.277-.211c-.177.255-.37.499-.557.746l-.563.745a.163.163 0 0 0 .058.222.166.166 0 0 0 .222-.058z"/></svg>