<svg xmlns="http://www.w3.org/2000/svg" width="56" height="56" fill="none"><rect width="56" height="56" fill="#E8F1FC" rx="28"/><path fill="#093160" fill-rule="evenodd" d="m34.29 21.087-1.548-.687-3.626-1.453a3 3 0 0 0-2.232 0L23.258 20.4l-1.548.687c-1.023.453-1.71 1.437-1.71 2.557 0 1.974.15 5.122.994 7.206 1.077 2.66 3.972 4.8 5.685 5.881a2.46 2.46 0 0 0 2.642 0c1.713-1.081 4.608-3.22 5.685-5.881.844-2.084.994-5.232.994-7.206 0-1.12-.687-2.104-1.71-2.557m-3.594 6.12a1 1 0 0 0-1.414-1.414l-1.939 1.939-.282-.282a1 1 0 0 0-1.414 1.414l.989.989a1 1 0 0 0 1.414 0z" clip-rule="evenodd"/></svg>