<svg xmlns="http://www.w3.org/2000/svg" width="76" height="76" fill="none"><path fill="#1574E5" d="M52.085 22.968c-9.532-10.284-26.44-9.54-34.317 1.877-5.516 7.195-6.817 17.277-1.626 25.593 6.415 10.279 20.31 12.68 30.393 6.662 12.046-7.19 15.244-23.674 5.55-34.132M18.151 49.263c-5.889-8.66-2.924-18.933 3.785-25.73 2.948-2.68 6.37-4.598 10.56-5.418 6.65-1.299 13.292 1.909 17.937 6.502 9.61 9.5 4.756 24.67-5.825 30.914-9 5.313-20.686 2.216-26.457-6.268"/><path fill="#1574E5" d="M31.174 35.748c.066-.07.123-.137.18-.207a.9.9 0 0 0 .256-.294c.806-1.548.746-3.506.185-5.124-.211-.611-1.038-1.145-1.653-.672-1.892 1.456-.952 3.53-.855 5.516.046.926 1.19 1.51 1.887.781M40.674 35.748c.066-.07.123-.137.18-.207a.9.9 0 0 0 .256-.294c.807-1.548.746-3.506.185-5.124-.21-.611-1.038-1.145-1.653-.672-1.893 1.456-.952 3.53-.855 5.516.043.926 1.183 1.51 1.887.781M49.97 42.307c.407-.053.685-.352.593-.779-.187-.871-1.307-1.315-2.062-1.606-.715-.276-1.548-.303-2.148.21a.18.18 0 0 0 0 .258c.307.295.666.486 1.032.677v.007c-1.454 4.467-6.551 6.311-10.744 7.097-5.895 1.106-10.377-1.868-13.543-6.712.53-.33.966-.68 1.357-1.26a.226.226 0 0 0-.135-.332c-.996-.244-1.748.027-2.604.538a4.7 4.7 0 0 0-1.102.94c-.281.32-.281.607-.422.981-.05.141.105.282.238.238.32-.103.629-.08.952-.221q.158-.072.319-.141c2.132 6.102 8.327 8.87 14.443 8.254 5.131-.52 11.218-3.158 12.638-8.527.38.239.781.434 1.188.378M58.225 45.36c-.89 3.264-2.177 6.328-4.47 8.858-2.278 2.515-5.244 3.85-8.178 5.404-.045.025-.013.09.034.08 6.697-1.498 12.07-7.547 12.765-14.322.01-.088-.128-.102-.15-.02M58.892 41.652a.066.066 0 0 0-.103-.035.07.07 0 0 0-.024.035c-.217.751-.364 1.738-.179 2.505a.07.07 0 0 0 .133 0c.205-.759.372-1.738.173-2.505M11.086 35.512c1.166-3.89 2.027-7.53 4.323-10.972 2.435-3.653 5.925-6.052 9.772-8.023.085-.043.024-.174-.064-.15-3.978 1.055-7.2 3.845-9.641 7.072-2.469 3.26-4.583 7.895-4.504 12.057a.06.06 0 0 0 .051.049.06.06 0 0 0 .063-.033M11.13 36.554a.1.1 0 0 0-.076-.096.1.1 0 0 0-.114.044c-.202.323-.203.765-.22 1.136-.03.538.056 1.076.255 1.577a.055.055 0 0 0 .108-.015c0-.465 0-.924-.008-1.39-.01-.415.1-.846.055-1.256"/></svg>