<svg xmlns="http://www.w3.org/2000/svg" width="18" height="19" fill="none"><path fill="#475367" fill-rule="evenodd" d="M3 4.25h2.048c.057-1.551 2.022-2.7 3.428-1.421l.899.817.899-.817c1.406-1.279 3.37-.13 3.428 1.421H15a1.5 1.5 0 0 1 1.5 1.5v1.417c0 .46-.373.833-.833.833H2.333a.833.833 0 0 1-.833-.833V5.75A1.5 1.5 0 0 1 3 4.25m4.81 0H6.568c.063-.376.548-.631.9-.312zm4.372 0c-.063-.376-.548-.631-.9-.312l-.342.312z" clip-rule="evenodd"/><path fill="#475367" d="M7.125 10.766V9.5H2.333v5.25A2.25 2.25 0 0 0 4.583 17h8.834a2.25 2.25 0 0 0 2.25-2.25V9.5h-4.792v1.266a.834.834 0 0 1-1.354.65.83.83 0 0 0-1.042 0 .834.834 0 0 1-1.354-.65"/></svg>