<svg width="18" height="19" viewBox="0 0 18 19" fill="none" xmlns="http://www.w3.org/2000/svg">
<path fill-rule="evenodd" clip-rule="evenodd" d="M3 4.24959H5.04808C5.10524 2.69819 7.07049 1.55008 8.47634 2.82812L9.375 3.64509L10.2737 2.82812C11.6795 1.55008 13.6448 2.69819 13.7019 4.24959H15C15.8284 4.24959 16.5 4.92117 16.5 5.74959V7.16626C16.5 7.6265 16.1269 7.99959 15.6667 7.99959H2.33333C1.8731 7.99959 1.5 7.6265 1.5 7.16626V5.74959C1.5 4.92117 2.17157 4.24959 3 4.24959ZM7.81004 4.24959H6.56805C6.6311 3.87343 7.11551 3.6182 7.46733 3.93803L7.81004 4.24959ZM12.1819 4.24959C12.1189 3.87343 11.6345 3.6182 11.2827 3.93803L10.94 4.24959H12.1819Z" fill="#475367"/>
<path d="M7.125 10.7653V9.49959H2.33331V14.7496C2.33331 15.9922 3.34067 16.9996 4.58331 16.9996H13.4166C14.6593 16.9996 15.6666 15.9922 15.6666 14.7496V9.49959H10.875V10.7653C10.875 11.4642 10.0665 11.8528 9.52072 11.4162C9.21629 11.1726 8.78371 11.1726 8.47928 11.4162C7.9335 11.8528 7.125 11.4642 7.125 10.7653Z" fill="#475367"/>
</svg>
