<svg width="18" height="19" viewBox="0 0 18 19" fill="none" xmlns="http://www.w3.org/2000/svg">
<path fill-rule="evenodd" clip-rule="evenodd" d="M3 4.25H5.04808C5.10524 2.69859 7.07049 1.55049 8.47634 2.82853L9.375 3.6455L10.2737 2.82853C11.6795 1.55049 13.6448 2.69859 13.7019 4.25H15C15.8284 4.25 16.5 4.92157 16.5 5.75V7.16667C16.5 7.6269 16.1269 8 15.6667 8H2.33333C1.8731 8 1.5 7.6269 1.5 7.16667V5.75C1.5 4.92157 2.17157 4.25 3 4.25ZM7.81004 4.25H6.56805C6.6311 3.87384 7.11551 3.6186 7.46733 3.93844L7.81004 4.25ZM12.1819 4.25C12.1189 3.87384 11.6345 3.6186 11.2827 3.93844L10.94 4.25H12.1819Z" fill="#475367"/>
<path d="M7.125 10.7657V9.5H2.33331V14.75C2.33331 15.9926 3.34067 17 4.58331 17H13.4166C14.6593 17 15.6666 15.9926 15.6666 14.75V9.5H10.875V10.7657C10.875 11.4646 10.0665 11.8532 9.52072 11.4166C9.21629 11.173 8.78371 11.173 8.47928 11.4166C7.9335 11.8532 7.125 11.4646 7.125 10.7657Z" fill="#475367"/>
</svg>
