<svg xmlns="http://www.w3.org/2000/svg" width="76" height="76" fill="none"><path fill="#fff" d="M64.943 41.719c-.292.058-.576.018-.864-.016a4 4 0 0 0-.386-.022q-1.185-.013-2.369-.02c-.563 0-1.126.006-1.689.008h-1.737a1 1 0 0 0-.144.015c-.217.038-.317.132-.332.352-.038.513-.033 1.025.105 1.537.223.09.45.063.673.07q.915.016 1.83.038.127.015.247.056c.15.217.122.431.131.638.016.352.025.709.043 1.062.012.242.037.482.053.722.027.418.056.836.07 1.254.01.24-.005.482-.01.723-.006.274-.02.547-.018.82.004.514.017 1.028.025 1.543 0 .032-.005.064-.006.096-.016.434-.037.867-.045 1.302a.95.95 0 0 0 .146.576q.31.021.618 0c.223-.035.45-.028.67.022q.12.027.24.033c.14.013.264-.041.307-.18.095-.304.211-.6.216-.934a15 15 0 0 0-.14-2.022c-.04-.32-.1-.64-.103-.96-.014-1.353-.011-2.707-.01-4.06q.01-.213.044-.423c.268-.078.503-.014.74.018q.406.055.814.102c.29.03.582-.03.838-.17.25-.13.454-.334.444-.64-.015-.435-.06-.868-.101-1.3-.02-.185-.123-.275-.3-.24m-7.274 1.309.192.44c-.235-.117-.268-.222-.192-.44m.703.123c-.017.008-.049-.013-.075-.021.014-.026.022-.07.042-.076s.057.014.086.024c-.018.026-.027.059-.05.073zm.919.122c-.008.005-.07-.034-.067-.038a1 1 0 0 1 .058-.113l.092.049a1 1 0 0 1-.081.102zm.227.178c-.011 0-.027-.048-.04-.074l.085-.033.055.067a.4.4 0 0 1-.098.04zm1.148 1.646h-.04l-.011-.212h.05zm.169 5.434v.009c.049.054.126.103.136.164.024.151.047.315-.058.45-.017.024-.081.01-.161.018.042-.157.087-.287.108-.422a.7.7 0 0 0-.026-.212l-.007-.006.005-.005a.74.74 0 0 1 .114-.624c.102.275.07.465-.114.624zm.145-3.546a.5.5 0 0 1 .026.118c0 .012-.047.024-.085.042a.6.6 0 0 1-.01-.128c.005-.01.047-.021.07-.032zm-.064-.637c.01-.006.023-.02.03-.018.008.002.017.02.024.03l-.015.034zm-.009-.69v.021l-.014.007a.3.3 0 0 1-.02.07c-.009.018-.03.03-.044.045 0-.027-.009-.06.004-.078a.13.13 0 0 1 .06-.035v-.017l.01-.01-.014-.23c.144.105.068.169.02.227zm.02-.832c-.007-.012-.022-.027-.02-.037a.4.4 0 0 1 .033-.075l.02.04a1 1 0 0 1-.03.072zm-.1-.556a.6.6 0 0 1-.013-.171c.006-.026.061-.04.094-.059q.015.086.017.17c.002.016-.044.03-.096.06zm.08 4.865c.125.25.125.25-.104.38l.106-.38zm.025-.5c-.079-.161-.041-.282.104-.413.005.166.024.295-.102.413zm.135-.891c-.008.037-.045.096-.07.096-.087 0-.088-.074-.076-.132a.7.7 0 0 1 .07-.159l.082.016q.007.09-.004.179zm.201 4.516c-.021-.015-.055-.026-.06-.045a.2.2 0 0 1 .01-.09h-.013a.1.1 0 0 1-.03.016c-.007 0-.015-.013-.023-.02l.053.005.007-.004.006.005a.2.2 0 0 1 .056.058c.012.018-.001.049-.004.075zm.377-.045a.05.05 0 0 1-.037-.011c-.005-.004.004-.023.007-.035l.04.013c-.004.012-.006.033-.01.033m.935-8.686-.006-.032.025.006zm1.145.272c.07-.15.149-.272.36-.308.027.135-.135.276.157.36-.223.036-.36.058-.517-.052m1.383-.658c-.174.115-.358.09-.53.077-.417-.03-.834-.08-1.25-.124-.211-.022-.416-.056-.625-.07s-.313.061-.372.281c-.024.092-.07.196-.053.282.111.434.005.867 0 1.3-.004 1.257-.048 2.515.045 3.771.043.578.123 1.152.174 1.73.04.433.078.868-.099 1.314-.386.11-.784.202-1.215.097a1 1 0 0 1-.04-.204c.02-1.113.048-2.225.064-3.337a67 67 0 0 0-.092-4.304c-.015-.282.01-.572.017-.871-.994-.141-1.993-.156-2.992-.316-.07-.281-.13-.543-.018-.838a2 2 0 0 1 .314-.06c1.11-.022 2.221-.05 3.33-.05.968 0 1.937.01 2.9.122.109.013.217.035.364.059.055.413.133.774.078 1.141"/><path fill="#fff" d="M63.04 45.666c-.02-.167-.033-.298-.056-.465-.024-.167-.086-.416-.114-.585-.005-.032-.025-.114-.03-.146-.006-.032-.033.029-.02.147.008.07.009.157.024.26.014.104.042.204.058.324.02.158.03.338.048.484.028.221.114.596.119.654 0 .035.028-.018.017-.16s-.03-.372-.047-.513M62.852 47.81c-.007-.127-.044-.314-.056-.44 0-.024-.014-.086-.016-.11-.002-.026-.035.02-.033.108 0 .05-.007.117 0 .194.007.078.022.154.026.244.006.118 0 .253 0 .362.006.166.054.45.054.492 0 .026.03-.012.033-.118a5 5 0 0 0 0-.384c-.001-.125-.001-.223-.008-.348M64.665 41.134c-.256.007-.455.011-.71.023-.254.01-.641.055-.899.07-.05 0-.177.018-.226.02s.038.036.218.03q.157.001.397-.004c.16-.004.314-.028.498-.035.24-.01.513-.006.735-.014.339-.012.915-.07 1.006-.07.053 0-.023-.029-.239-.029s-.563.003-.78.01M65.687 41.934c-.005-.061-.041-.151-.051-.211 0-.012-.013-.042-.016-.053-.002-.011-.035.011-.033.055a1 1 0 0 0-.005.096c0 .038.02.073.024.117.005.058-.005.124 0 .177.005.081.05.217.05.238s.03-.008.034-.06q.009-.093.006-.187c-.003-.063-.003-.111-.009-.172M29.178 28.8c-.292.059-.576.018-.864-.017a3 3 0 0 0-.386-.02c-.79-.008-1.58-.018-2.369-.02q-.844.002-1.689.007h-1.737a1 1 0 0 0-.14.015c-.218.038-.317.132-.333.348-.038.514-.033 1.026.105 1.538.224.09.45.063.673.067.61.012 1.221.021 1.83.038q.126.015.248.056c.145.221.114.432.126.643.016.352.024.708.043 1.062.012.241.037.481.052.722.026.418.057.835.07 1.253.01.24-.005.483-.01.724-.006.273-.02.546-.018.82.004.514.017 1.028.025 1.542q-.002.049-.005.097c-.017.434-.038.867-.046 1.3a.95.95 0 0 0 .147.578q.309.02.618 0a1.8 1.8 0 0 1 .67.023q.117.026.239.033c.14.012.265-.042.307-.18.095-.305.211-.6.216-.935a15 15 0 0 0-.14-2.022c-.04-.319-.1-.639-.102-.959-.014-1.354-.012-2.708-.01-4.061q.01-.212.043-.422c.268-.078.504-.013.74.019q.407.054.814.101c.291.027.583-.035.838-.177.25-.13.455-.334.444-.641-.014-.434-.06-.867-.101-1.3-.018-.177-.121-.267-.298-.232m-7.275 1.309.193.44c-.235-.116-.268-.22-.193-.44m.704.123c-.017.008-.05-.013-.076-.02.014-.027.022-.071.042-.077.02-.005.057.015.086.024-.014.026-.026.06-.05.073zm.914.122c-.006.005-.067-.034-.065-.038a1 1 0 0 1 .058-.113l.091.048a.7.7 0 0 1-.078.102zm.228.178c-.011 0-.026-.048-.04-.074l.085-.032q.03.033.056.067a.3.3 0 0 1-.095.04zm1.148 1.646h-.04l-.01-.211h.05zm.169 5.434v.009c.05.054.127.104.136.164.024.15.047.315-.057.45-.018.024-.082.011-.162.017.042-.156.087-.287.109-.422a.7.7 0 0 0-.026-.21l-.007-.007.005-.004a.74.74 0 0 1 .114-.625c.101.275.07.465-.114.625zm.145-3.545a.5.5 0 0 1 .027.117c0 .012-.047.024-.086.043a.6.6 0 0 1-.009-.13c.008-.013.05-.02.073-.03zm-.064-.638c.01-.007.023-.02.03-.017.009.003.017.018.025.029q-.008.016-.016.034a.2.2 0 0 0-.034-.046zm-.009-.69v.022l-.013.005a.3.3 0 0 1-.02.07.2.2 0 0 1-.045.045c0-.027-.008-.06.005-.078a.14.14 0 0 1 .06-.035q0-.008.003-.016l.01-.01-.014-.23c.144.106.069.166.02.228zm.02-.832c-.006-.012-.022-.026-.019-.037a.4.4 0 0 1 .033-.074l.02.039a.4.4 0 0 1-.028.072zm-.1-.556a.6.6 0 0 1-.012-.171c.005-.025.06-.04.093-.059q.015.085.017.171c.006.016-.04.029-.092.06zm.08 4.865c.125.251.125.251-.104.38zm.026-.5c-.08-.162-.043-.282.102-.412.01.163.03.293-.097.412zm.134-.89c-.008.036-.045.095-.07.096-.087 0-.088-.075-.076-.133a.8.8 0 0 1 .067-.16l.082.017q.01.09.003.18zm.2 4.514c-.02-.014-.053-.026-.058-.045q-.005-.046.009-.088h-.013a.1.1 0 0 1-.03.014c-.007 0-.016-.013-.024-.02l.054.006.006-.005.007.006a.2.2 0 0 1 .056.057c.015.02.003.05 0 .075zm.375-.044a.05.05 0 0 1-.037-.01c-.005-.005.005-.023.008-.035l.039.013c.003.011 0 .031-.004.032zm.942-8.685-.006-.032.025.007zm1.144.272c.07-.151.149-.272.361-.308.027.134-.135.277.157.36-.223.035-.36.056-.518-.053m1.385-.659c-.174.115-.357.09-.529.077-.417-.03-.834-.08-1.25-.124-.211-.022-.416-.056-.625-.07s-.313.061-.372.28c-.024.093-.07.197-.053.282.111.435.005.868 0 1.3-.004 1.258-.048 2.516.045 3.772.043.578.123 1.153.174 1.73.038.433.078.869-.099 1.314-.386.11-.785.202-1.215.097a1 1 0 0 1-.04-.204c.02-1.112.048-2.225.064-3.337.02-1.436-.02-2.87-.092-4.303-.015-.285.01-.573.017-.872-.994-.144-1.993-.156-2.992-.316-.07-.281-.13-.542-.018-.838q.155-.045.314-.061c1.11-.02 2.221-.049 3.33-.049.968 0 1.936.01 2.9.122.109.013.217.035.364.06.053.412.13.773.077 1.14"/><path fill="#fff" d="M27.274 32.747c-.019-.168-.032-.298-.056-.465-.023-.166-.085-.416-.113-.584-.005-.033-.025-.115-.03-.148-.006-.032-.034.03-.02.148.008.07.009.157.023.26.015.105.043.204.058.324.021.158.031.338.05.483.027.222.112.598.118.655.003.034.028-.018.017-.16s-.03-.372-.047-.513M27.087 34.892c-.007-.127-.044-.314-.056-.44 0-.025-.014-.087-.016-.111s-.036.02-.034.108c0 .05-.007.117 0 .195s.022.154.026.244c.006.118 0 .252 0 .361.006.166.054.45.054.493 0 .025.03-.013.033-.119s.006-.277.003-.383c-.004-.125-.004-.224-.01-.348M28.9 28.219c-.256.007-.455.01-.71.022s-.641.055-.9.07c-.049.004-.176.018-.226.02-.05.004.04.036.22.031.102-.003.237 0 .396-.005s.313-.027.497-.034c.241-.01.514-.007.736-.014.339-.012.918-.07 1.006-.07.052 0-.023-.03-.239-.03s-.565 0-.78.01M29.922 29.015c-.005-.062-.041-.151-.051-.21 0-.013-.014-.042-.016-.054s-.035.012-.034.054a1 1 0 0 0 0 .096c0 .038.02.074.024.118.004.057-.005.124 0 .177.005.081.05.217.049.238 0 .021.03-.007.035-.06.004-.053.007-.136.006-.188q-.003-.078-.013-.17M52.34 28.8c-.293.059-.577.018-.865-.017a3 3 0 0 0-.386-.02c-.79-.008-1.58-.018-2.369-.02q-.845.002-1.689.007h-1.737a1 1 0 0 0-.144.015c-.217.038-.316.132-.332.348-.038.514-.033 1.026.106 1.538.222.09.449.063.672.067.61.012 1.22.021 1.83.038q.127.015.248.056c.151.216.121.432.131.639.016.351.024.707.043 1.061.012.241.037.481.052.722.027.418.057.835.07 1.253.01.24-.005.483-.01.724-.005.273-.02.546-.017.82.004.514.017 1.028.025 1.543 0 .032-.005.064-.006.096-.016.434-.037.867-.045 1.301a.95.95 0 0 0 .146.577q.309.02.618 0c.223-.035.45-.028.67.023a1.5 1.5 0 0 0 .239.033c.14.012.265-.042.307-.18.096-.305.212-.6.217-.935a15 15 0 0 0-.141-2.022 9 9 0 0 1-.102-.959c-.014-1.354-.012-2.708-.01-4.061q.01-.212.044-.422c.268-.078.503-.013.74.019q.405.053.814.101c.29.03.582-.03.837-.17.25-.13.455-.334.444-.64-.014-.434-.059-.867-.1-1.3-.02-.18-.124-.27-.3-.235m-7.276 1.309.193.44c-.235-.116-.267-.22-.192-.44m.704.123c-.017.008-.05-.013-.075-.02.013-.027.021-.071.042-.077.021-.005.056.015.086.024-.015.026-.027.06-.05.073zm.915.122c-.006.005-.07-.034-.066-.038a1 1 0 0 1 .058-.113l.091.048a1 1 0 0 1-.077.102zm.227.178c-.01 0-.026-.048-.04-.074l.086-.032.055.067a.3.3 0 0 1-.095.04zm1.153 1.646h-.04l-.01-.211h.05zm.169 5.434v.009c.05.054.127.104.136.164.025.15.047.315-.057.45-.018.024-.082.011-.162.017.042-.156.087-.287.11-.422a.7.7 0 0 0-.027-.21l-.007-.007.005-.004a.75.75 0 0 1 .114-.625c.102.275.07.465-.114.625zm.145-3.545a.4.4 0 0 1 .026.117c0 .012-.047.024-.085.043a.6.6 0 0 1-.009-.13c.003-.013.045-.02.069-.03zm-.064-.638c.011-.007.024-.02.03-.017.008.003.017.018.025.029l-.016.034zm-.009-.69v.022l-.014.005a.3.3 0 0 1-.02.07c-.009.018-.029.031-.044.045 0-.027-.008-.06.004-.078a.14.14 0 0 1 .06-.035l.005-.016.008-.01-.014-.23c.14.106.064.166.016.228m.02-.832c-.006-.012-.022-.026-.019-.037a.4.4 0 0 1 .032-.074q.01.019.02.039-.014.036-.032.072m-.1-.556a.6.6 0 0 1-.012-.171c.005-.025.06-.04.093-.059q.015.085.018.171c0 .016-.045.029-.098.06m.08 4.865c.126.251.126.251-.104.38.041-.144.074-.264.105-.38m.026-.5c-.08-.162-.042-.282.103-.412.004.163.024.293-.102.412m.134-.89c-.008.036-.045.095-.07.096-.087 0-.088-.075-.076-.133a1 1 0 0 1 .07-.16l.082.017q.007.09-.005.18zm.201 4.514c-.02-.014-.055-.026-.06-.045q-.003-.046.01-.088h-.012a.1.1 0 0 1-.03.014c-.007 0-.016-.013-.024-.02l.054.006.006-.005.006.006a.2.2 0 0 1 .057.057c.01.02-.003.05-.006.075m.374-.044a.05.05 0 0 1-.037-.01c-.005-.005.005-.023.007-.035l.04.013c0 .011 0 .031-.01.032m.937-8.685-.006-.032.025.007zm1.145.272c.07-.151.149-.272.361-.308.026.134-.136.277.157.36-.224.035-.36.056-.519-.053m1.383-.658c-.174.115-.358.089-.53.076-.417-.03-.834-.08-1.25-.123-.211-.022-.416-.056-.624-.07-.209-.016-.314.061-.373.28-.024.093-.07.197-.052.282.11.435.004.868 0 1.3-.004 1.258-.048 2.516.044 3.772.043.578.124 1.152.175 1.73.039.432.079.868-.099 1.314-.386.11-.784.202-1.215.097a1 1 0 0 1-.04-.205c.02-1.112.048-2.224.064-3.337.02-1.435-.02-2.87-.092-4.303-.014-.285.01-.572.017-.871-.995-.144-1.993-.156-2.992-.316-.07-.281-.13-.543-.019-.839q.155-.044.315-.06c1.11-.02 2.22-.049 3.331-.049.967 0 1.935.01 2.898.122.11.013.218.035.365.059.054.412.131.773.077 1.14"/><path fill="#fff" d="M50.436 32.747c-.02-.168-.033-.298-.056-.465-.024-.166-.086-.416-.114-.584-.005-.033-.025-.115-.03-.148-.006-.032-.033.03-.02.148.008.07.009.157.024.26.014.105.042.204.058.324.021.158.03.338.048.483.029.222.114.598.12.655 0 .034.027-.018.016-.16s-.026-.372-.046-.513M50.248 34.892c-.007-.127-.044-.314-.055-.44 0-.025-.014-.087-.017-.111s-.035.02-.033.108c0 .05-.007.117 0 .195s.023.154.026.244c.006.118 0 .252 0 .361.007.166.054.45.054.493 0 .025.03-.013.033-.119.005-.106.006-.277.004-.383-.004-.125-.005-.224-.012-.348M52.06 28.219c-.254.007-.453.01-.709.022s-.64.055-.899.07c-.05.004-.177.018-.227.02-.05.004.04.036.22.031.103-.003.238 0 .396-.005s.314-.027.498-.034c.24-.01.513-.007.736-.014.338-.012.915-.07 1.005-.07.053 0-.022-.03-.238-.03s-.566 0-.781.01M53.084 29.015c-.007-.062-.042-.151-.052-.21 0-.013-.013-.042-.015-.054s-.036.012-.035.054a1 1 0 0 0-.004.096c.005.038.02.074.024.118.005.057-.005.124 0 .177.005.081.05.217.05.238-.001.021.03-.007.033-.06a2 2 0 0 0 .007-.188c-.003-.062-.002-.11-.008-.17M20.086 34.53c-.717-.542-1.498-.981-2.27-1.435-.503-.296-.948-.64-1.281-1.126-.15-.217-.24-.443-.193-.707-.01-.287.026-.563.193-.804a.45.45 0 0 1 .506-.202q.142.04.274.104c.305.142.572.355.777.623.093.121.179.261.344.294q.285.065.58.09c.488.028.866-.519.688-.986-.15-.39-.43-.685-.72-.97q-.72-.704-1.7-.455-.18.055-.37.07a1.45 1.45 0 0 0-.952.389c-.167.148-.343.287-.502.444-.408.396-.588.914-.704 1.446-.06.282-.094.587 0 .874q.147.46.34.902c.184.422.497.739.884.985q.585.373 1.228.638.687.265 1.314.653c.493.321.692.808.652 1.367-.026.38-.07.795-.503.99-.034.016-.05.07-.083.093a.6.6 0 0 1-.182.092c-.458.097-.915.031-1.374-.01a.5.5 0 0 1-.188-.088c-.37-.216-.674-.493-.857-.893-.047-.102-.108-.2-.239-.212l-.25-.028a.48.48 0 0 0-.473.21 1 1 0 0 0-.17.29c-.075.267-.135.54-.19.813a.48.48 0 0 0 .114.392c.214.297.499.536.828.694.266.123.523.266.79.387.56.253 1.136.376 1.76.26.597-.113 1.082-.438 1.564-.775a.5.5 0 0 0 .112-.124c.302-.422.608-.838.789-1.33.241-.659.347-1.31.111-2.01-.135-.391-.32-.698-.647-.946m-5.031-3.093a.7.7 0 0 1-.07.151c-.099-.216-.099-.216.07-.356q.008.103 0 .205m-.119 6.151a.2.2 0 0 1-.04.034l-.013.016q.001.032-.004.064v-.069c.004 0 .008-.007.013-.01a.2.2 0 0 0 .029-.037.1.1 0 0 0 .01-.035c.005.012.011.027.005.037m.106.38c-.009-.01-.025-.02-.024-.027a.4.4 0 0 1 .024-.064c.009.009.026.019.024.025a.4.4 0 0 1-.024.067m2.846-7.512c-.004-.01-.012-.02-.01-.028.001-.009.012-.016.019-.024.003.01.012.02.01.029-.001.009-.012.015-.019.023m.608.53c-.01.005-.034-.018-.052-.029l.058-.086c.02.028.045.048.041.06a.1.1 0 0 1-.047.055m-3.283-.324-.04-.04.032-.026.023.032zm.11 2.412c-.006.006-.051-.013-.053-.025s.012-.045.02-.07l.07.027a.2.2 0 0 1-.036.068m.13-2.372a.4.4 0 0 1 .02.064c0 .01-.01.023-.014.035l-.047-.04zm.038 2.745a1 1 0 0 1-.048-.14c0-.014.029-.046.038-.044a.1.1 0 0 1 .057.041c.007.014-.011.04-.047.141zm.057-.634-.03-.042.026-.016.016.028zm.14.732a.04.04 0 0 1 .028-.026c.141 0 .16.104.19.254-.143-.053-.239-.095-.22-.23zm.253-.15c-.021 0-.044-.016-.066-.025l.027-.056.07.025c-.015.016-.023.053-.034.054zm.171.367a.1.1 0 0 1 .007-.033c0-.006.017-.006.026-.008l.015.03zm.53.502c-.02-.004-.032-.041-.082-.113q.072.019.141.047a1 1 0 0 1 .092.075 1 1 0 0 1-.155-.01zm.397-.085-.062-.084c.012-.007.027-.022.034-.02.03.013.057.03.093.048zm.204.321c-.006 0-.028-.04-.057-.081a.5.5 0 0 1 .13-.07c.015-.004.043.054.064.084a1 1 0 0 1-.14.066zm.823.375c-.115-.045-.232-.066-.16-.206a.114.114 0 0 1 .174-.05c.076.042.076.073-.017.254zm.334.161-.128-.082.18-.126-.055.207zm.492.345-.03-.022c.01-.007.021-.018.032-.018s.018.013.028.02zm.255.33c.006-.031.047-.057.07-.084l.07.08-.076.081c-.025-.027-.07-.057-.065-.079zm-3.816 2.974c-.008 0-.02-.012-.03-.018l.03-.047.052.035a.3.3 0 0 1-.053.029zm1.531.743c-.022.006-.05-.012-.075-.02.013-.022.022-.056.04-.061.019-.006.048.013.071.021-.01.02-.02.055-.037.059zm.555.145c.076-.157.2-.18.428-.233-.15.173-.236.274-.428.232zm1.197-.216-.018.008-.027.046-.027-.023.054-.023.01-.016q.066-.05.14-.097h.007zm1.97-2.239c-.129.414-.296.804-.604 1.137a2.5 2.5 0 0 1-.821.563c-.801.365-1.626.352-2.463.118a2.76 2.76 0 0 1-1.144-.665c-.13-.123-.287-.24-.274-.45.015-.24.045-.475.22-.663.085-.093.106-.108.334-.175q.09.108.165.227c.199.362.553.546.87.774a.1.1 0 0 0 .04.016c.358.048.712.14 1.078.12.083-.005.165-.032.249-.038.598-.043 1-.385 1.322-.856.184-.248.29-.545.305-.854.014-.452-.149-.818-.44-1.143a3.7 3.7 0 0 0-1.327-.938c-.386-.166-.771-.337-1.17-.466a1.54 1.54 0 0 1-.884-.73c-.231-.414-.441-.845-.466-1.338-.026-.492-.01-.965.196-1.4.33-.696.887-1.137 1.662-1.28.57-.106 1.056.05 1.461.452.29.285.547.593.693 1.024l-.492.394c-.175-.07-.277-.203-.389-.327a8 8 0 0 0-.525-.541 1.7 1.7 0 0 0-.704-.367.62.62 0 0 0-.622.14c-.488.428-.698.97-.672 1.606q.016.19.11.356c.247.447.564.837 1.003 1.11.559.346 1.13.671 1.685 1.023.39.247.764.519 1.14.788.23.166.39.413.444.691.041.192.103.379.141.57.069.385-.01.76-.121 1.12z"/><path fill="#fff" d="M16.96 31.033a.8.8 0 0 0 .04.327q.075.195.211.352.19.239.45.397c.238.152.696.265.76.293.038.015-.007-.034-.166-.1a5 5 0 0 1-.555-.274 1.7 1.7 0 0 1-.416-.356 1.5 1.5 0 0 1-.19-.291.9.9 0 0 1-.072-.52c.008-.044-.054.017-.063.172M16.776 28.574q.236-.076.483-.108.309-.058.622-.033a2.5 2.5 0 0 1 .876.265q.339.164.622.412.196.168.352.376c.036.055.015-.044-.16-.259a2.6 2.6 0 0 0-.782-.616 2.5 2.5 0 0 0-.876-.256 2.3 2.3 0 0 0-.58.02q-.287.045-.559.148-.135.054-.263.12c-.065.032.053.008.265-.069M18.886 28.112c.034.01.075.035.127.049q.083.02.16.058.06.03.11.07.049.046.093.081c.03.024.052.037.082.056l.081.07c.052.046.098.083.108.095s.019-.024-.028-.086l-.086-.112a1 1 0 0 0-.104-.096.8.8 0 0 0-.21-.14 1 1 0 0 0-.155-.058c-.058-.01-.116-.017-.16-.028l-.08-.012c-.021-.01.003.033.062.052M21.369 35.678a1.7 1.7 0 0 0-.083-.282c-.035-.097-.065-.202-.11-.302-.102-.194-.182-.397-.286-.54l-.169-.254c-.036-.056-.004.064.12.27.078.113.14.281.225.476q.069.144.117.297a3 3 0 0 1 .103.328q.052.245.076.493c.003.168.024.332.016.48l-.015.383c-.005.137-.039.281-.056.41-.048.26-.12.474-.134.53-.013.058.037-.016.13-.294q.08-.252.12-.515.027-.139.03-.281l.015-.248c.006-.174-.014-.328-.02-.482s-.05-.295-.08-.47M27.524 49.74c-.064-.188-.1-.386-.153-.578a5 5 0 0 0-.191-.66c-.22-.525-.475-1.032-1.023-1.408q.153-.115.319-.211c.335-.16.55-.43.72-.749q.088-.188.21-.358c.385-.486.47-1.055.472-1.649a1.8 1.8 0 0 0-.085-.492c-.3-1.037-1.042-1.645-2.017-1.983-.92-.32-1.873-.3-2.823-.153-.286.044-.572.123-.73.414a.5.5 0 0 1-.128.132c-.27.207-.347.488-.336.814.016.475.016.951.026 1.427.007.43.028.86.023 1.289a153 153 0 0 1-.043 2.346 29 29 0 0 0 .104 3.634c.016.166 0 .34.117.52.505.158 1.031.277 1.568.09q.06-.166.14-.324c.152-.25.225-.54.212-.833-.009-.645 0-1.29 0-1.934 0-.093-.005-.185 0-.277.01-.153.107-.23.245-.19.267.078.53.174.712.4.211.26.422.526.615.801.292.414.566.84.853 1.256.273.397.681.615 1.108.793.146.05.3.068.453.053.252-.014.529-.274.58-.52q.066-.318.118-.634.014-.13.014-.26c-.631-.01-.889-.19-1.08-.756m-5.217-7.627c.023.014.06.024.065.043.004.018-.018.05-.028.076l-.07-.046zm.079.41c.009.292.07.525-.228.671.044-.23.07-.433.225-.672zm-.418.371c.091.078.076.141 0 .228zm-.005 1.074a.5.5 0 0 1-.016-.146c.006-.029.052-.05.079-.074.012.024.037.05.034.07a1 1 0 0 1-.046.151zm.259 1.921h.007c-.014-.205.07-.385.152-.563.035-.08.085-.166-.038-.264l-.24.287-.054-.028.271-1.047c-.024-.109-.222-.078-.165-.234.057-.155.07-.325.18-.471.028.036.056.055.058.075q.055 1.266.107 2.526c.005.14 0 .277 0 .415a.34.34 0 0 1-.13.273c-.108.098-.172.247-.309.455q.097-.533.257-1.05.046-.105.075-.217c.025-.132-.075-.141-.164-.154v.006c0 .005-.004.005-.007.008.005.126-.024.242-.188.382.081-.172.094-.294.188-.382zm.08 1.92a2 2 0 0 0-.162.188v.021l-.028.07.02-.075.01-.014c.028-.34.136-.67.317-.96.07.32.067.565-.16.77zm-.206 3.892-.03-.012v-.164h.03zm.282-.256c-.023-.028-.042-.041-.04-.05.03-.128.062-.255.113-.464.067.243.063.386-.073.514m.123-3.16q-.006.968-.024 1.934c-.004.253-.132.529-.393.844.083-.39.114-.739.292-1.056a.4.4 0 0 0 .037-.174c0-.017-.036-.04-.06-.053a.045.045 0 0 0-.042.007c-.074.106-.146.214-.276.405.077-.448.169-.783.324-1.102.04-.08.074-.162-.026-.275l-.237.322c.04-.396.114-.774.323-1.113.121.08.083.18.083.261zm.128 3.461c.008-.223.008-.223.24-.19-.02.141-.12.175-.24.19m.546.03c-.057-.025-.094-.029-.106-.049-.032-.047.032-.145.11-.16.03-.005.067.034.1.054zm.359-.058.004.016-.02.022c-.03.087-.058.173-.093.256-.006.014-.057.025-.07.015s-.038-.062-.03-.07c.062-.07.129-.133.195-.199l.01-.03.007-.008a.2.2 0 0 1-.013-.063c0-.019.022-.037.035-.055.007.02.026.044.021.061a.2.2 0 0 1-.045.055zm.609-3.518c0-.027-.014-.062 0-.078a.08.08 0 0 1 .074-.033c.019.005.026.046.047.086zm.226.264a.6.6 0 0 1-.128-.013c.016-.042.028-.093.038-.093q.06.008.114.03c-.007.027-.012.074-.024.076m.47.202.02-.043.008.034zm.176-.198c-.023-.019-.037-.049-.061-.065a1 1 0 0 0-.108-.052l.02-.055a.6.6 0 0 1 .129.01c.082.025.177.04.191.153.007.055-.101.062-.17.008m.406.915c-.066-.055-.144-.105-.118-.212a.042.042 0 0 1 .032-.025c.124-.003.096.127.155.18.009.009.007.028.015.07-.055-.01-.073-.007-.083-.015zm-.066-.747c.005-.017.041-.025.064-.037q.014.056.014.113c0 .013-.043.022-.08.04a.4.4 0 0 1 .003-.117zm.439.643-.04-.046c.011-.007.024-.02.032-.018s.016.02.024.03l-.016.033zm.093.482c-.011-.023-.038-.056-.03-.07a.4.4 0 0 1 .082-.077l.043.08zm1.652 1.912.034-.015v.03zm-.186-.176c-.037-.009-.096-.055-.092-.075.015-.082.08-.06.133-.038.052.021.094.051.21.117a1.4 1.4 0 0 1-.25-.005zm.462.237-.03-.01c.005-.01.006-.023.014-.03s.018.006.028.009l-.011.03zm.337-.202.017-.023.01.028zm.239-.795q.004.112-.014.22c-.08.319-.211.423-.526.373-.504-.074-.921-.281-1.221-.73-.263-.39-.423-.814-.578-1.248a3 3 0 0 0-.243-.542 1.4 1.4 0 0 0-.81-.646q-.507-.155-1.02-.29a1 1 0 0 0-.235 0c-.057.314 0 .604-.003.891-.004.288.024.584.022.875 0 .276-.02.553-.032.828-.013.288.038.582-.054.875-.223.02-.434.052-.645.057-.229.006-.34-.108-.352-.336-.006-.107.006-.211.01-.322.005-.092.038-.193.011-.274-.146-.438-.044-.885-.05-1.326-.013-1.229.02-2.457.006-3.686-.008-.659-.083-1.317-.116-1.976-.023-.444-.03-.89-.032-1.337a.444.444 0 0 1 .41-.474c.731-.105 1.464-.184 2.198-.013.179.042.362.07.537.129.826.264 1.468.758 1.859 1.544.403.812.195 2.197-.717 2.814a1 1 0 0 1-.235.141c-.45.15-.9.306-1.358.428-.235.062-.47.107-.69.291.103.012.205.026.309.034q.32.025.644.04c.41.016.732.21.992.513.325.38.521.828.656 1.305.07.25.122.506.187.758.13.513.403.892.954 1.01a.6.6 0 0 1 .136.074m-2.362-3.859-.032.012-.025-.02z"/><path fill="#fff" d="M26.09 45.31c.492-.5.648-1.255.262-1.994-.152-.29-.375-.522-.704-.626-.352-.11-.699-.227-1.05-.333a1.4 1.4 0 0 0-.316-.05c-.554-.03-.677.096-.633.66.06.825.117 1.649.089 2.477q.01.174.051.345c.728.106 1.388.054 2.01-.27q.161-.082.29-.21m.243-.76c0 .006-.024.009-.038.013a1 1 0 0 1 0-.08c0-.008.025-.012.041-.02q.002.044-.003.087m-.038-.71c.008-.006.038.013.06.022-.01.025-.014.061-.032.07s-.047-.014-.07-.023a.2.2 0 0 1 .042-.068m-.141-.377.015.034-.022.032c-.005-.012-.015-.024-.014-.035s.012-.023.02-.033zm-.096.915.02.03-.011.034a.2.2 0 0 1-.03-.038zm-.091-1.29.07.07a.5.5 0 0 1-.07.094c-.01.009-.047-.014-.07-.023zm-.166.625c0 .013.01.03.005.04-.004.012-.02.015-.031.022l-.026-.032zm-.286-.73c.032-.041.07-.08.103-.121l.085.08q-.057.06-.117.114c-.008.007-.028 0-.07 0-.005-.045-.011-.06-.005-.072zm.1.365-.058.22c-.194.005-.318-.1-.472-.21l.124-.231c.057.098.1.173.141.247zm-1.353-.813c.022-.015.047-.045.07-.044.328.008.649.1.931.266l-.123.211c-.092-.079-.156-.159-.24-.198-.082-.04-.199-.048-.336-.078l-.302.248zm.506.644q-.073-.024-.145-.053c-.008-.003-.008-.025-.012-.039a.2.2 0 0 1 .081-.025q.056.01.1.04c.008.005-.014.05-.022.077zm-.774 2.436a.6.6 0 0 1-.061-.16q-.044-1.08-.08-2.162c0-.025.029-.051.056-.096a1.1 1.1 0 0 1 .563.098c.266.12.527.25.793.368a.78.78 0 0 1 .437.453q.132.392.204.8a.396.396 0 0 1-.198.435c-.54.293-1.112.404-1.712.264z"/><path fill="#fff" d="M24.304 44.118c-.014-.088-.062-.212-.08-.302-.003-.017-.019-.058-.022-.075-.004-.017-.035.018-.028.08.005.035 0 .082.009.136s.03.104.04.167c.012.081.011.176.021.252.015.115.079.307.081.338 0 .017.029-.012.026-.087a4 4 0 0 0-.018-.268c-.01-.087-.016-.155-.03-.242M28.17 43.377q.189.261.305.563l.06.23c.007.08.018.16.023.24s-.005.16-.015.237q-.014.114-.04.218c-.085.427-.461 1.094-.522 1.19-.037.057.042-.008.191-.248.15-.24.364-.65.422-.935.08-.31.067-.635-.036-.938-.1-.337-.422-.743-.647-.99-.04-.052-.163-.166-.206-.212-.044-.045.008.06.16.237q.163.196.304.408M27.954 49.067a2.4 2.4 0 0 1-.219-.352c-.035-.066-.075-.15-.117-.236a1.5 1.5 0 0 1-.083-.252l-.033-.131c-.008-.03-.032.025-.017.135q.012.12.047.237.054.141.126.275.096.203.23.384.052.06.12.129c.044.045.1.082.146.119.098.07.19.117.212.135s.004-.033-.094-.114a2.3 2.3 0 0 1-.318-.329M43.552 36.82c-.064-.187-.1-.385-.152-.577a5 5 0 0 0-.192-.661c-.22-.525-.475-1.032-1.023-1.408q.152-.115.319-.21c.335-.161.55-.431.72-.75q.087-.188.207-.358c.385-.486.47-1.055.472-1.65a1.8 1.8 0 0 0-.085-.492c-.301-1.036-1.042-1.644-2.017-1.983-.916-.321-1.873-.302-2.823-.156-.286.045-.572.123-.731.415a.5.5 0 0 1-.127.131c-.27.208-.347.488-.336.814.016.476.016.952.025 1.427.008.43.028.86.024 1.29-.007.781-.024 1.563-.043 2.345a29 29 0 0 0 .104 3.636c.016.166 0 .339.117.52.505.158 1.031.277 1.567.09q.06-.166.141-.325c.151-.25.225-.54.211-.832-.008-.645 0-1.29 0-1.935 0-.092-.004-.184 0-.276.011-.153.107-.23.246-.19.267.078.53.173.712.399.211.261.422.527.614.802.298.41.571.838.86 1.255.274.396.682.614 1.11.792.145.05.299.068.452.053.252-.014.528-.274.58-.52q.065-.318.118-.634.015-.13.013-.26c-.634-.005-.891-.186-1.083-.752m-5.22-7.626c.023.013.06.024.065.042.004.018-.018.05-.028.076l-.07-.046zm.079.409c.01.293.07.526-.227.671.046-.226.073-.432.227-.672m-.417.374c.09.079.076.141 0 .229zm-.005 1.074a.5.5 0 0 1-.017-.145c.006-.03.051-.05.08-.075.011.025.036.05.032.07a1 1 0 0 1-.045.151zm.257 1.922h.008c-.013-.205.07-.385.152-.563.036-.08.084-.166-.037-.264l-.241.286-.053-.028.27-1.047c-.024-.109-.222-.078-.165-.234.057-.155.07-.325.179-.471.03.037.058.055.059.076q.056 1.262.107 2.526c.006.14 0 .276 0 .414a.34.34 0 0 1-.13.273c-.108.099-.172.247-.309.455q.097-.532.257-1.05.045-.105.076-.217c.024-.132-.076-.14-.165-.154v.006l-.007.008c.004.126-.025.242-.188.383.081-.173.094-.295.188-.383v-.019zm.08 1.92a2 2 0 0 0-.16.187v.021l-.029.07.02-.076.01-.014c.028-.34.137-.67.317-.96.073.317.07.563-.157.77zm-.2 3.89-.03-.011v-.167h.03zm.281-.255c-.021-.028-.04-.041-.038-.05.03-.128.06-.255.112-.464.064.241.06.383-.075.511zm.124-3.159q-.005.967-.024 1.933c-.004.253-.132.529-.392.845.082-.391.114-.74.291-1.056a.4.4 0 0 0 .037-.174c0-.017-.036-.04-.059-.053a.04.04 0 0 0-.042.007c-.075.106-.147.211-.277.405.077-.447.17-.783.324-1.1.04-.082.07-.164-.025-.278l-.24.32c.04-.396.113-.773.322-1.113.123.08.084.18.083.262zm.128 3.46c.009-.222.009-.222.241-.189-.023.138-.126.172-.242.187zm.546.03c-.057-.025-.093-.029-.106-.049-.031-.047.032-.145.11-.16.03-.005.067.035.1.054zm.359-.057.005.016-.022.022q-.04.13-.092.256a.08.08 0 0 1-.07.014c-.02-.012-.037-.062-.029-.07q.093-.103.194-.199l.01-.031.006-.007a.2.2 0 0 1-.012-.064c0-.019.022-.036.035-.054.008.02.027.044.021.061a.2.2 0 0 1-.048.053zm.609-3.519c0-.026-.013-.06 0-.078a.09.09 0 0 1 .07-.032c.02.006.027.046.047.087zm.226.265a.6.6 0 0 1-.128-.013c.017-.042.028-.093.038-.093q.06.008.114.03c-.009.022-.015.07-.026.072zm.47.201.02-.042.009.034zm.176-.197c-.023-.018-.037-.049-.06-.065a1 1 0 0 0-.109-.052l.02-.054a.5.5 0 0 1 .13.009c.081.025.176.04.19.153.006.052-.103.06-.172.005zm.407.915c-.067-.055-.145-.105-.119-.211a.04.04 0 0 1 .032-.025c.124 0 .096.126.156.18.008.008.006.027.014.07-.057-.014-.075-.012-.087-.02zm-.066-.746c.004-.017.04-.025.063-.037a.5.5 0 0 1 .015.113c0 .013-.043.021-.081.039a.4.4 0 0 1 .001-.121zm.438.643-.039-.047c.01-.006.023-.02.031-.017s.016.02.024.03zm.093.482c-.01-.023-.038-.057-.03-.067a.5.5 0 0 1 .083-.077l.041.08zm1.653 1.912.033-.015v.03zm-.187-.176c-.036-.009-.095-.055-.092-.076.016-.081.081-.058.133-.037s.094.05.211.116q-.127.008-.253-.009zm.462.238-.029-.01c.004-.01.006-.024.013-.031.008-.007.019.005.029.009zm.338-.202.016-.024.01.027zm.238-.798q.004.11-.014.22c-.08.319-.212.422-.527.373-.504-.07-.92-.282-1.222-.73-.261-.39-.422-.813-.576-1.248a3 3 0 0 0-.243-.543 1.4 1.4 0 0 0-.813-.652q-.507-.155-1.02-.29a1 1 0 0 0-.234 0c-.058.315 0 .605-.004.892-.003.287.024.584.023.875 0 .276-.02.552-.032.828-.013.289.038.581-.055.875-.223.021-.434.052-.645.057-.228.006-.34-.108-.352-.336-.005-.107.007-.215.011-.322.005-.092.038-.192.01-.273-.145-.44-.044-.886-.049-1.327-.013-1.228.02-2.458.006-3.686-.008-.659-.084-1.317-.117-1.976q-.031-.666-.032-1.337a.445.445 0 0 1 .411-.475c.73-.103 1.464-.183 2.197-.012.18.042.363.07.538.128.825.266 1.468.758 1.858 1.544.403.814.195 2.198-.717 2.815a1 1 0 0 1-.235.14c-.45.15-.9.307-1.358.428-.234.062-.47.107-.69.291.103.012.206.027.31.034.21.016.428.031.643.04.411.017.733.21.992.513.325.38.522.829.656 1.305.07.25.123.506.187.759.131.512.404.892.955 1.01a.6.6 0 0 1 .136.074zm-2.363-3.859-.031.011-.026-.02z"/><path fill="#fff" d="M42.118 32.39c.493-.499.648-1.255.262-1.993-.152-.29-.375-.522-.704-.625-.352-.112-.699-.228-1.05-.335a1.4 1.4 0 0 0-.316-.049c-.553-.03-.677.096-.633.66.06.825.117 1.649.089 2.476q.011.175.052.346c.727.105 1.387.053 2.01-.27q.16-.083.29-.21m.245-.76c0 .007-.025.01-.038.013a1 1 0 0 1 0-.08c0-.007.025-.012.04-.019q.002.043-.002.087m-.039-.71c.008-.008.039.013.06.02-.01.026-.013.062-.032.07-.018.01-.047-.013-.07-.022a.2.2 0 0 1 .04-.069zm-.14-.378.015.034-.022.032c-.005-.012-.015-.024-.014-.036q.005-.016.018-.031zm-.095.915.02.03-.012.034a.2.2 0 0 1-.032-.038c-.004-.003.017-.016.02-.028zm-.095-1.289.07.07a.5.5 0 0 1-.07.094c-.01.009-.047-.014-.07-.023l.068-.14zm-.165.624c0 .014.01.03.005.04-.004.012-.02.015-.032.023l-.025-.033zm-.287-.73q.051-.06.103-.12l.085.08q-.056.058-.116.113c-.009.007-.029 0-.07 0-.005-.043-.01-.062-.004-.07zm.105.366c-.02.077-.038.14-.058.22-.194.005-.318-.101-.472-.212q.058-.104.124-.23l.141.247zm-1.353-.814c.022-.014.047-.045.07-.044.328.01.647.1.929.267l-.123.211c-.093-.08-.157-.16-.24-.2-.083-.038-.199-.047-.337-.076l-.302.247zm.506.644q-.073-.025-.145-.052c-.008 0-.008-.026-.012-.04a.2.2 0 0 1 .081-.024.2.2 0 0 1 .1.04c.004.007-.018.05-.027.077zm-.774 2.436a.6.6 0 0 1-.061-.16q-.045-1.08-.08-2.162c0-.024.028-.05.056-.095a1.1 1.1 0 0 1 .563.097c.266.12.527.25.793.369a.77.77 0 0 1 .437.452q.132.392.204.8a.396.396 0 0 1-.199.435c-.543.292-1.115.406-1.714.265z"/><path fill="#fff" d="M40.332 31.198c-.014-.087-.062-.21-.08-.3 0-.017-.019-.06-.022-.076s-.034.018-.027.08c.004.034 0 .082.008.136.008.053.03.105.04.166.011.083.011.177.021.252.015.116.08.308.081.338 0 .018.029-.012.026-.086a5 5 0 0 0-.017-.268c-.01-.087-.017-.155-.03-.242M44.198 30.458q.19.26.306.563.03.111.059.23.014.12.023.24c-.006.08-.004.16-.015.236q-.014.115-.04.219c-.084.426-.46 1.094-.522 1.19-.037.056.042-.008.191-.249.15-.24.364-.65.423-.933a1.64 1.64 0 0 0-.037-.939c-.1-.338-.422-.743-.647-.991-.04-.05-.162-.165-.206-.211s.008.06.16.236q.163.196.304.409M43.982 36.148a2.4 2.4 0 0 1-.22-.352c-.035-.066-.075-.151-.116-.236a1.4 1.4 0 0 1-.083-.252l-.033-.131c-.008-.028-.033.025-.017.134q.011.12.046.237.054.142.127.276.095.203.23.384.051.06.119.129c.044.045.1.081.147.12.098.07.189.116.208.134.019.017.005-.034-.093-.114q-.174-.15-.316-.329M17.423 41.463c-1.158-.169-2.299.044-3.448.145a.35.35 0 0 0-.189.077c-.244.21-.442.45-.475.787q-.025.262-.011.524c.079 1.536.07 3.072.037 4.61-.022 1.062.053 2.127.09 3.191.012.366.03.733.064 1.098.023.249.127.358.362.366.352.012.699 0 1.047-.014a.3.3 0 0 0 .211-.125c.147-.256.327-.502.367-.804q.075-.465.098-.937c.013-.629 0-1.258-.005-1.887v-.451a3 3 0 0 1 .333 0q.677.078 1.352.17c.77.104 1.5.048 2.11-.509a1 1 0 0 1 .088-.057c.28-.21.512-.476.682-.782.263-.46.422-.953.571-1.456.277-.92.087-1.748-.538-2.44-.732-.811-1.643-1.345-2.746-1.507m-3.39 3.289c-.104.266-.25.515-.423.86-.07-.581.211-.963.335-1.456.056.106.092.145.095.185.006.138.04.29-.007.41m.019.612c.02.477-.176.844-.443 1.255.037-.513.207-.989.443-1.255m-.304-1.434v.017a.1.1 0 0 1 .016.03c0 .006-.012.016-.019.024v-.054l-.004-.007c.064-.146.026-.339.203-.438.117.228-.01.339-.196.428m.149-1.337c.048.342-.045.633-.297.941-.061-.407.136-.668.297-.941m-.375 5.716-.037-.006.019-.157.047.01zm.075.806a1 1 0 0 1-.013-.085c0-.01.018-.021.028-.032l.037.07zm.044-1.44.016-.047c.005-.016.008-.013.011-.02q.01-.213.057-.422c.07-.243.1-.502.232-.728.043.024.089.037.089.05 0 .155.036.326-.018.46-.092.225-.235.43-.36.643v.029zm.116 4.268c-.008 0-.032-.027-.03-.03a1 1 0 0 1 .05-.058l.054.057a.4.4 0 0 1-.074.03m-.062-2.436c.08-.352.134-.688.359-1.084.035.558.01.625-.359 1.084m.368 1.878a.4.4 0 0 1-.063.112c-.025-.041-.07-.081-.07-.123s.036-.092.106-.243q.027.125.027.254m-.01-.909c-.035.165-.137.315-.211.471l-.07-.032c.038-.148.083-.294.113-.444a.4.4 0 0 0-.016-.195c-.11-.316-.08-.492.177-.804.008.167.02.298.02.43.008.192.025.39-.013.574m-.253-2.138c-.035-.373.035-.633.22-.903.142.356 0 .598-.22.903m1.015 3.68c-.026 0-.053-.051-.08-.079l.11-.09c.017.025.035.048.087.116a.3.3 0 0 1-.117.053m.788-4.312a.2.2 0 0 1-.011-.05c0-.004.02-.007.03-.01zm.247.083.226-.256c-.049.271-.049.271-.226.256m.693.084-.01-.038.03.005zm.24-.47v-.03l.033.015zm.745.321-.009.006a.1.1 0 0 1-.009.029c0 .083.014.172-.1.218-.057-.116.064-.149.1-.218v-.037h.018l.17-.118c-.005.151-.091.13-.17.12m.155.302.388-.385.066.382zm.824-.619-.03-.016.031-.014zm.195.505c.042-.211.22-.265.27-.398l-.004-.007h.007l.04.006-.04-.005-.004.007c.11.231-.076.28-.271.397zm.921-.942c.007-.026.005-.06.02-.078.017-.017.055-.024.082-.036l.017.105zm-.281-.154c-.43.24-.882.417-1.393.39-.383-.021-.768-.008-1.15-.037a4.6 4.6 0 0 1-.664-.137c-.2-.047-.392-.151-.633-.085a4.9 4.9 0 0 0-.112 1.548c.078.87.096 1.743-.079 2.604-.017.084-.045.165-.07.262-.31.048-.603.205-.937.015a4 4 0 0 1-.04-.403c.004-.786.018-1.571.019-2.357 0-.523-.018-1.047-.03-1.57-.006-.297-.041-.594-.02-.888.071-.91-.038-1.814-.063-2.72-.014-.505-.035-1.01-.055-1.564.487-.157.957-.19 1.423-.238.156-.016.314-.014.47-.035.598-.08 1.19.007 1.767.126.659.136 1.231.484 1.751.906q.31.243.563.543c1.097 1.347.374 3.009-.748 3.64z"/><path fill="#fff" d="M18.321 43.03a5.3 5.3 0 0 0-1.248-.38 2.94 2.94 0 0 0-1.472.1 4 4 0 0 0-.064.508c0 .436.01.872.022 1.308.011.399 0 .799.053 1.228l1.062.268c.424.105.86.15 1.297.131a1.15 1.15 0 0 0 .864-.422c.252-.291.408-.653.447-1.037.079-.66-.352-1.434-.961-1.704m.714 1.585.031.079-.065.057q-.023-.053-.047-.102zm-.523-1.188.064.037q-.033.077-.07.152c-.025.051-.041.092-.063.141l-.11-.088zm-.377-.019-.017.06a.2.2 0 0 1-.012-.049c.001-.005.02-.008.03-.012zm-.352-.294c.03-.02.086-.008.128 0a.1.1 0 0 1 0 .087q-.066.07-.141.13c-.034-.048-.07-.077-.064-.094a.24.24 0 0 1 .08-.124zm0 .476v.035l-.04-.02zm-.563-.546c.065-.12.159-.16.282-.066a.2.2 0 0 1-.006.051.196.196 0 0 1-.233.13c-.022-.007-.053-.092-.04-.115zm.15.352-.037.017v-.03zm-.784-.417c.075-.129.174-.217.422-.094l-.414.261c-.003-.085-.022-.136-.006-.166zm.304.33h-.048c-.006-.01-.022-.028-.018-.034.003-.006.023-.018.036-.027zm1.463 2.514c-.044.07-.17.117-.266.134-.418.07-.836.024-1.245-.07-.339-.077-.67-.188-1.03-.29-.075-.677-.153-1.346-.022-2.052.323-.156.626-.097.908-.046.395.067.775.2 1.126.392.434.242.642.634.741 1.087.07.303-.058.591-.209.846zm.428-2.007-.043.026a1 1 0 0 1-.026-.08c0-.01.023-.02.037-.03z"/><path fill="#fff" d="M16.094 44.238c0-.018-.036.013-.038.075 0 .036-.013.083-.012.138 0 .054.014.108.014.171 0 .084-.014.178-.016.255 0 .117.033.318.03.348 0 .018.03-.007.039-.082.008-.075.02-.196.022-.27 0-.088.007-.156.007-.245-.001-.089-.03-.222-.034-.312zM15.964 48.594c0-.023-.038.014-.043.09-.003.043-.017.099-.02.166-.002.068.01.133.006.212-.005.1-.024.215-.03.308-.009.141.015.389.011.423 0 .021.03-.008.043-.099.013-.09.03-.237.037-.328.008-.107.016-.19.02-.298.003-.108-.018-.272-.018-.38.004-.02-.007-.073-.007-.095M20.89 42.406a2.5 2.5 0 0 0-.613-.604 2.3 2.3 0 0 0-.488-.25 3 3 0 0 0-.525-.14c-.058-.016-.211-.02-.272-.027-.06-.007.043.036.252.07q.228.053.445.141.279.098.526.26c.237.166.443.373.608.61q.21.286.345.614.095.225.14.464c.009.062.033-.031-.024-.286a2.6 2.6 0 0 0-.394-.852M34.95 42.492a2.8 2.8 0 0 0-.594-.563c-.958-.665-1.999-.651-3.049-.285a1.6 1.6 0 0 0-.822.674c-.283.452-.503.94-.653 1.453-.274.904-.463 1.83-.45 2.78q.006.18-.009.36c-.1 1 .05 1.988.161 2.975.05.392.168.773.345 1.126.16.324.415.591.732.764.335.192.704.255 1.068.352.859.236 1.7.103 2.539-.106a1 1 0 0 0 .18-.096c.563-.286.779-.844 1.045-1.358.126-.241.195-.512.278-.774a5 5 0 0 0 .191-.691c.15-.846.22-1.703.211-2.561v-.722c-.001-1.242-.413-2.35-1.173-3.328m-4.152-.177a.5.5 0 0 1-.027.16c-.049.083-.11.159-.166.238-.064-.197.018-.304.19-.398zm-.39 1.36c.031-.123.043-.268.226-.353-.08.394-.151.755-.228 1.142-.066-.042-.141-.07-.141-.09.04-.238.08-.471.14-.7zm-.182 1.31-.14.367c-.108-.195-.022-.299.137-.368zm-.241 2.603c-.148-.506.052-.87.07-1.303.114.246.087.777-.073 1.302zm.036 1.508-.053.043a1 1 0 0 1-.016-.08c0-.01.019-.021.03-.031zm-.03-3.178c0 .064.015.141-.013.19-.085.148-.147.321-.368.45.046-.3.227-.455.378-.641zm-.202 1.035c-.035.198-.07.326-.218.43-.07-.212-.016-.333.215-.431zm-.237 1.141c.012-.164.043-.324.227-.445.083.249.045.44-.091.615-.125-.006-.145-.086-.139-.171zm.305.37c.062.308.036.422-.183.724-.1-.302-.07-.54.18-.725zm-.02 1.543c-.215-.223.037-.375 0-.541.14-.018.16.047.163.116a.55.55 0 0 1-.163.425m.232.21c.099.157.062.286-.064.412-.181-.182.048-.276.063-.409zm.255.705a.16.16 0 0 1-.09.104.15.15 0 0 1-.12-.059.11.11 0 0 1 .038-.17c.042-.025.087-.044.161-.08q.02.104.01.21zm.234-.107.013-.038c.01 0 .027 0 .032.004q.009.019.01.04zm.105.646a.3.3 0 0 1-.009-.064c0-.01.021-.017.032-.026l.01.066zm.21.137.015-.035.033.014zm.334.153-.017-.038h.034zm.704.06-.078.02c0-.014-.003-.04 0-.042a1 1 0 0 1 .082-.017zm.314.218a.5.5 0 0 1-.135-.046c-.005 0 0-.043.005-.045a.5.5 0 0 1 .175-.048c.041 0 .081.044.192.11a1.5 1.5 0 0 1-.238.033zm.816-.112a.17.17 0 0 1-.2.114 1 1 0 0 1-.08-.036.4.4 0 0 1 .056-.108c.06-.058.128-.115.217-.056.014.015.017.067.006.091zm.343-.21-.017-.071a.1.1 0 0 1 .048.008c.008.006.008.025.012.038zm.723.145c0 .003-.024-.008-.036-.012a1 1 0 0 1 .042-.07l.038.014a1 1 0 0 1-.045.071zm1.709-3.196a3.8 3.8 0 0 1-.458 1.518c-.38.7-1.034 1.021-1.769 1.216-.633.17-1.258.07-1.884-.06a1.32 1.32 0 0 1-.795-.53c-.145-.19-.27-.396-.41-.592-.123-.175-.16-.376-.196-.58-.126-.698-.107-1.402-.057-2.105q.077-1.052.202-2.099.087-.87.303-1.716c.045-.164.065-.335.096-.503.096-.538.295-1.022.748-1.36a1 1 0 0 1 .41-.2c.837-.123 1.648-.075 2.344.488q.244.19.442.427a5.2 5.2 0 0 1 1.167 3.07c.014.343 0 .686 0 1.03h.018c-.051.667-.111 1.333-.163 2z"/><path fill="#fff" d="M33.079 42.978c-.236-.111-.48-.07-.647.153q-.239.303-.422.643a8.16 8.16 0 0 0-.87 4.038c.06.593.025 1.21.25 1.804.245.647.802 1.013 1.478.899q.253-.045.499-.121c.704-.22 1.18-.659 1.378-1.39.19-.712.273-1.45.245-2.186-.017-.492-.079-.99-.114-1.485-.078-1.182-.795-1.881-1.797-2.355m.752.899c.026-.066.07-.126.137-.064.026.023.007.114-.015.164a.173.173 0 0 1-.206.11zm-.14-.282a.1.1 0 0 1 .016.04c-.013 0-.031.014-.037.01a.05.05 0 0 1-.012-.039c-.001-.004.027-.012.03-.009zm-.034.95c.112.09.062.187.067.275l.01.008v.011l.14.078c-.025.037-.05.07-.075.11-.023-.018-.06-.033-.064-.055a.6.6 0 0 1-.004-.133l-.009-.004v-.015a.2.2 0 0 1-.065-.276m-.286-1.148c.015-.005.04.03.07.057l-.102.08c-.01-.026-.033-.054-.029-.071a.1.1 0 0 1 .061-.067m-.1.492.01.042-.033-.006zm-.205-.655.024.038-.015.042a.2.2 0 0 1-.036-.047c-.003-.008.017-.024.027-.036zm-.516.11q.024.037.046.076l-.038.023a1 1 0 0 1-.038-.07c-.002-.01.02-.025.03-.033zm1.354 6.121a1.2 1.2 0 0 1-.07.247c-.09.252-.217.464-.519.503a2 2 0 0 0-.246.07c-.716.197-1.238-.083-1.495-.784a3.5 3.5 0 0 1-.195-1.055c-.034-.652-.093-1.305.004-1.952.134-.899.32-1.79.774-2.595.137-.243.258-.281.5-.18.218.092.357.26.471.457.322.546.557 1.14.694 1.759q.089.454.121.915c.04.46.061.922.096 1.468-.039.326-.083.734-.135 1.142zm.258-4.807c.013-.095.07-.186.159-.407l.18.211-.357.462c-.123-.111.006-.187.018-.271zm.452.141.051.322-.544.599c.22-.775.24-.81.493-.928zm-.475 1.751c.153-.368.231-.774.5-1.09.123.07.093.159.06.233-.075.172-.165.338-.243.51q-.097.21-.174.426c-.02.061-.036.168-.004.194.22.179.07.31-.029.487-.065-.203-.149-.673-.11-.767zm.342-.016.188-.405c.102.19.102.19-.188.398zm-.157 1.366-.059.009c0-.014 0-.032.01-.042.009-.01.023-.005.035-.007zm-.11 1.36-.058-.018q.014-.082.032-.163l.082.024zm.079-.619c-.041-.268-.041-.268.157-.301zm.274.067c-.038-.173-.038-.173.116-.352.018.142 0 .258-.116.354zm.035-.755c-.034-.184-.034-.184.135-.464.07.236-.016.352-.135.467zm.208-.935c-.041.148-.167.224-.384.341l.255-.58.093.007c.014.08.055.166.036.235z"/><path fill="#fff" d="M32.147 45.069q-.065.149-.11.305c-.036.125-.045.254-.074.401q-.055.297-.07.599-.001.106.005.236c.004.085.02.172.028.252.025.161.059.294.062.33.002.036.026-.024.009-.197a5 5 0 0 1-.014-.628q.015-.283.06-.563l.06-.357q.033-.18.09-.352l.053-.176c.012-.035-.046.012-.1.15M36.522 44.51c-.061-.185-.13-.346-.191-.509-.062-.163-.146-.317-.229-.492-.083-.176-.22-.388-.352-.596-.146-.2-.281-.407-.408-.558l-.22-.267c-.052-.064.006.07.172.286.099.121.2.3.335.5.07.1.13.202.194.308s.136.211.196.34c.077.167.166.341.234.52.067.18.14.352.188.515l.136.416.123.455c.07.293.112.546.125.611.012.079.024-.036-.021-.364a7.5 7.5 0 0 0-.282-1.164"/><path fill="#fff" d="M42.547 42.04a2 2 0 0 0-.09-.29c-.337-.132-.668-.109-.991-.14-.372-.036-.744-.07-1.116-.086-.282-.01-.56.016-.84.026-.607.022-1.215.035-1.821.07-.628.034-.975.45-.923 1.084.034.404.076.806.11 1.21.038.44.075.48.526.542.076.011.153.026.231.03a.77.77 0 0 0 .774-.473c.055-.13.098-.263.141-.396a.32.32 0 0 1 .227-.215q.158-.042.321-.055c.502-.054.992.06 1.486.108a.304.304 0 0 1 .281.269c.057.274.117.549.147.827.036.339.02.682.116 1.018.036.129.007.277 0 .417-.005.108-.03.216-.03.325q0 .933.01 1.866a3.4 3.4 0 0 1-.342 1.488.74.74 0 0 1-.318.328c-.332.2-.691.35-1.066.448-.383-.188-.385-.189-.545-.526a12 12 0 0 1-.17-.383.385.385 0 0 0-.364-.249c-.395-.013-.774.043-1.116.265a.5.5 0 0 0-.243.471c.017.456.09.896.293 1.311.09.2.236.37.422.487.469.282.945.547 1.52.52a.8.8 0 0 1 .186.018c.473.095.934.014 1.38-.128.684-.218 1.203-.641 1.488-1.317.112-.258.181-.533.202-.813.04-.59.116-1.177.148-1.766.029-.528.015-1.055.023-1.585 0-.109.021-.217.024-.325.017-.575.041-1.151.042-1.726 0-.483-.044-.965-.032-1.447a6 6 0 0 0-.09-1.208m-5.51.985c-.01-.01-.031-.02-.03-.029a1 1 0 0 1 .025-.074l.035.027zm1.586-.117-.053-.055c.019-.016.039-.047.057-.046s.04.03.06.048zm1.216.22-.456-.029.458-.05q0 .035-.002.075zm.081-.206c-.07-.008-.147-.015-.22-.026-.006 0-.014-.027-.012-.039s.018-.034.027-.033q.104.01.216.025zm.461-.076.413.075c-.15.045-.304.118-.413-.079zm.282-.196h.042v.031zm-3.329 7.595a.08.08 0 0 1-.08-.011c-.083-.107-.088-.211.03-.298.015.016.031.026.034.038.02.093.137.178.016.27m.207 1.07c-.055-.177-.07-.29.07-.365.113.139.037.232-.07.368zm1.132.564a.093.093 0 0 1-.118-.043.1.1 0 0 1-.011-.044.3.3 0 0 1 .01-.08h-.009l-.01-.007-.418.07-.017-.351-.01-.006h-.005l-.226.131c-.105-.07-.066-.15 0-.248l.231.124.014-.008v.016q.219.136.435.276h.02v.008c.029-.004.064-.017.08-.004q.06.056.109.122c-.029.013-.05.039-.075.046zm.152.225c-.01 0-.026.012-.031.007-.005-.004-.01-.021-.016-.033l.053-.013zm1.423-.033a12 12 0 0 1-1.192-.067c.047-.06.07-.118.094-.117q.642.041 1.284.095c.025 0 .05.03.1.064q-.142.024-.286.028zm2.192-5.288c-.028.388-.036.774-.028 1.166.016.704-.088 1.395-.14 2.093-.035.373-.151.733-.342 1.055a.95.95 0 0 1-.386.394c-.346.183-.707.324-1.11.305a37 37 0 0 1-.887-.048 3.1 3.1 0 0 1-1.281-.403 1.04 1.04 0 0 1-.516-.58c-.084-.249-.147-.506-.211-.761a.22.22 0 0 1 .108-.24c.235-.164.484-.287.822-.185.064.129.141.281.211.433.235.524.663.723 1.207.703a2.4 2.4 0 0 0 1.11-.33.93.93 0 0 0 .438-.637c.076-.347.17-.692.157-1.055-.01-.325.023-.652.044-.978.077-1.17-.048-2.333-.09-3.5-.01-.248-.035-.497-.042-.746-.007-.281-.036-.558-.19-.84a2.1 2.1 0 0 0-.871-.196c-.638-.01-1.276.005-1.912.012q-.114.012-.224.04l.034.704q.009.141 0 .282c-.026.24-.114.334-.345.367-.185.026-.373.058-.56-.063a1 1 0 0 1-.036-.166 8 8 0 0 1 0-.514c.006-.416.014-.833.022-1.267q.168-.036.34-.053 1.33-.045 2.66-.08.188-.003.374.019c.356.034.712.065 1.067.11q.22.041.435.11c.182.457.202.904.192 1.357-.006.311-.02.624 0 .933.054.853.014 1.707-.05 2.561zm-1.221 2.598a.2.2 0 0 1-.026.05l.009-.042.013-.07v-.026l.01-.004.045-.15c.057.082.031.126-.045.15l-.004.015v.014a.3.3 0 0 1-.002.065zm.007-4.73a.86.86 0 0 1 .026.544zm.024-.774h-.07l-.01-.216c.089-.028.106.04.113.091.01.045-.02.089-.033.13zm.133 2.708a1.8 1.8 0 0 1 .013-.607c.063.237.132 1.478.106 1.754-.005.055-.038.108-.098.266-.026-.207-.076-.318-.046-.4.121-.336.052-.672.025-1.013M41.037 41.343c.078 0 .156-.01.247-.006.12.005.255.025.365.03.169.008.459-.016.502-.012.025 0-.01-.03-.117-.043a9 9 0 0 0-.387-.036c-.126-.008-.225-.016-.352-.02-.126-.003-.32.018-.449.018-.024 0-.087.007-.112.007-.025.001.017.037.106.043.052.003.116.017.196.019M43.086 44.128c-.017-.21-.029-.38-.05-.593-.02-.213-.08-.535-.105-.75-.005-.042-.024-.148-.029-.19-.005-.04-.034.035-.021.187.006.085.005.2.02.332s.039.261.053.415c.02.202.026.431.042.617.025.282.106.766.11.84 0 .043.028-.022.02-.203a23 23 0 0 0-.04-.655M43.025 46.272c0-.03-.01-.109-.012-.141-.001-.033-.036.023-.038.134 0 .063-.012.146-.01.244.001.098.015.194.016.307 0 .149-.014.316-.014.453 0 .211.035.563.033.62 0 .033.03-.013.038-.146s.017-.348.02-.48c0-.158.005-.282.004-.438-.002-.155-.031-.394-.037-.553M37.034 37.437c-.148-.723-.266-1.451-.415-2.174-.264-1.284-.525-2.57-.82-3.848a20 20 0 0 0-.572-1.912c-.097-.285-.275-.541-.422-.808a.42.42 0 0 0-.4-.225q-.432.006-.864.01c-.447.008-.86.089-1.133.493a.6.6 0 0 1-.12.108 1.4 1.4 0 0 0-.437.668c-.29.904-.655 1.785-.795 2.736-.076.514-.253 1.013-.345 1.525s-.276.996-.387 1.502c-.195.895-.409 1.784-.585 2.683-.013.07-.032.14-.038.21-.036.441.082.648.522.741q.713.145 1.439.19c.407.028.663-.23.721-.646.013-.088 0-.181.023-.268.161-.721.277-1.447.262-2.19a.95.95 0 0 1 .161-.575c.643-.02 1.244.153 1.852.304.37.971.34 1.994.537 3.008.467.174.698.193 1.235.159.272-.015.528-.133.715-.33a.42.42 0 0 0 .117-.484 7 7 0 0 1-.251-.877m-4.326-8.345a.1.1 0 0 1-.003.043c-.005.007-.024.006-.037.009l-.017-.039zm-.588 2.002.006-.01c-.037-.18-.08-.363.113-.527.008.333.005.339-.113.527l.003.017-.008.011c0 .079 0 .161.005.29-.105-.14-.07-.218-.005-.29zm-.153-1.046c.009.015.023.03.023.044s-.015.03-.024.044l-.039-.018zm-.376 1.192.006-.011.018-.021.027-.088c.007.012.023.031.02.036l-.047.052q-.002.015-.009.03h-.015l-.038.077c-.046-.067-.004-.07.038-.079zm.19.251c-.093.634-.206.9-.522 1.267-.065-.415.045-.695.522-1.27zm-.784 2.24c.043.047.08.08.076.085a2 2 0 0 1-.115.14c-.01-.013-.032-.03-.029-.04.018-.061.041-.117.069-.188zm0 .785c0-.01.006-.02.008-.03h.013l.011-.079.07.07h.023c.14-.145.158-.338.211-.52.062-.211.053-.458.294-.692-.078.352-.13.628-.202.9-.102.38-.218.758-.333 1.135a.4.4 0 0 1-.09.12v.019l-.007-.012.005-.006c-.026-.256-.022-.503.106-.738.03-.055.011-.136.015-.205q-.006.005-.01.012l-.012-.01-.085.01v.012l-.019.019c-.06.284-.17.554-.328.798.014-.428.054-.527.333-.807zm-.378 2.024c.029-.21.044-.344.201-.414v-.012l.01-.02.012-.14.058.02-.07.122v.027l-.008.004c.017.142.009.28-.201.41zm-.417 2.03-.04-.023.044-.014zm.204.404a1 1 0 0 1-.14-.042c-.016-.008-.015-.05-.018-.076a.3.3 0 0 1 .046-.012q.062.041.12.087c.01 0-.002.025-.006.04zm-.243-1.373c-.07-.348-.07-.348.317-.568-.043.231-.157.388-.315.564zm.211-1.303v.012c0 .005-.01.023-.013.035-.005.012 0 .033 0 .049a.1.1 0 0 1 0-.035q.001-.006.005-.014 0-.023.003-.045h.013c.036-.127.078-.248.232-.271v-.012l.016-.026.012-.078c.007.01.022.024.02.028l-.032.05-.005.035h-.014c-.039.124-.055.269-.235.269zm.873 2.724c-.007-.012-.018-.024-.018-.036 0-.01.014-.02.022-.031l.019.034zm2.063-3.54c-.014 0-.027-.017-.041-.026l.06-.066.025.078c-.012-.002-.028.012-.042.01zm.233-.312-.042-.026a.3.3 0 0 1 .07-.038c.011 0 .028.016.042.024zm.245.281a.3.3 0 0 1-.035-.044c0-.003.018-.018.028-.028l.022.035zm.558.163a.12.12 0 0 1 .012-.096c.017-.028.052-.044.093-.076l.198.172c-.223.081-.251.083-.301 0zm.844 1.369.014-.04.02.038zm-.017-.957.02-.034.01.039zm.375 2.322a.5.5 0 0 1-.03-.086c0-.008.021-.022.033-.034a.5.5 0 0 1 .032.087c.005.01-.02.024-.032.037zm.77.035c-.371-.009-.487-.09-.582-.435a5 5 0 0 1-.1-.584c-.06-.427-.11-.855-.174-1.282a2.3 2.3 0 0 0-.097-.365c-.134-.413-.39-.666-.85-.71-.518-.05-1.033-.142-1.548-.206q-.142 0-.281.026c-.024.117-.054.217-.065.32-.057.572-.098 1.146-.166 1.717-.054.445-.137.886-.215 1.327q-.038.131-.103.25c-.329.086-.654.048-.972.015-.239-.023-.407-.21-.607-.369a3 3 0 0 1 .05-.309c.325-1.16.665-2.315.976-3.477.273-1.025.508-2.06.774-3.086.189-.73.403-1.453.604-2.182.048-.174.162-.297.335-.309.376-.024.754-.034 1.13-.02.086 0 .199.098.248.181.154.262.319.526.416.811a25 25 0 0 1 .995 4.025c.147.904.367 1.795.547 2.694.07.352.123.709.188 1.062.049.264.105.526.166.834-.234.104-.452.08-.665.074z"/><path fill="#fff" d="M34.37 30.677a2.2 2.2 0 0 0-.346-.539c-.113-.14-.327-.087-.378.094-.05.18-.07.352-.104.527-.08.44-.151.88-.236 1.32-.09.456-.195.91-.287 1.366-.058.291.013.386.31.437q.08.014.16.018c.376.022.752.047 1.127.064.266.012.402-.087.465-.344q.031-.182.04-.366c-.07-.307-.188-.65-.227-1.003-.06-.567-.326-1.058-.523-1.574m-1.09 2.97c-.108-.22-.02-.417.014-.598.086-.45.099-.923.307-1.344l.114.01.413 1.897c-.301.121-.573.095-.848.034m.732-2.371c-.058-.184.043-.303.137-.426.039.016.089.022.098.045.088.21.17.422.263.661l-.276.14.06-.478zm.388.887-.017.038q0-.015.007-.03zl.013-.028.008-.005c-.015-.138-.006-.265.15-.332.046.195.046.199-.15.332v.013zm.218.45c-.009.008-.027.004-.04.006a.2.2 0 0 1-.027-.043c-.02-.1.037-.211.11-.211a.05.05 0 0 1 .043.022c.038.1-.02.166-.086.226m.112.381c-.005 0-.015-.022-.022-.035l.075-.056.033.065a1 1 0 0 1-.086.026M32.943 36.254c0-.03-.036.022-.04.12 0 .057-.012.131-.012.218.01.226-.019.452-.084.669q-.014.07-.026.156c-.009.056-.025.113-.037.166-.023.107-.041.198-.05.22-.007.023.032 0 .075-.113q.083-.203.128-.416a2.3 2.3 0 0 0 .074-.644 5 5 0 0 1-.017-.25c-.002-.028-.009-.099-.01-.126M35.427 29.57c.016.056.043.108.06.173.023.084.035.184.055.263.03.12.119.315.125.347.003.018.026-.016.014-.095a5 5 0 0 0-.052-.281c-.021-.09-.036-.162-.062-.251-.025-.09-.088-.22-.118-.308-.005-.018-.026-.06-.032-.078-.007-.017-.032.023-.016.087.008.038.01.088.026.144M36.044 31.59c.013.06.038.118.052.189.017.092.023.2.038.285.023.13.099.348.103.382 0 .02.028-.014.021-.099a5 5 0 0 0-.036-.304c-.016-.098-.026-.176-.045-.273-.02-.098-.076-.242-.1-.34-.005-.02-.023-.066-.028-.085-.004-.02-.033.02-.021.09.006.04.002.091.016.154M36.435 33.44c.01.042.008.094.016.132q.03.087.07.17c0 .008.029-.012.027-.051a1 1 0 0 0-.012-.141c-.009-.045-.013-.081-.025-.125-.012-.045-.057-.106-.07-.15l-.022-.037c-.003-.008-.033.016-.028.048q0 .035.007.07c.009.028.03.052.037.084M63.08 37.272c-.148-.723-.267-1.451-.415-2.174-.265-1.285-.525-2.57-.82-3.849a20 20 0 0 0-.572-1.912c-.097-.281-.276-.542-.422-.807a.42.42 0 0 0-.4-.227c-.289.007-.576.008-.864.012-.447.007-.86.088-1.134.493a.6.6 0 0 1-.12.108 1.4 1.4 0 0 0-.436.667c-.291.905-.656 1.785-.796 2.737-.075.513-.252 1.012-.344 1.524-.093.513-.277.996-.388 1.503-.194.894-.408 1.784-.584 2.682q-.026.105-.038.211c-.036.441.081.648.522.74q.714.147 1.441.192c.407.028.664-.23.722-.646.012-.09 0-.182.022-.269.162-.72.277-1.447.262-2.19a.95.95 0 0 1 .161-.574c.644-.02 1.245.152 1.852.303.371.972.34 1.994.538 3.008.467.174.698.194 1.234.16a1.07 1.07 0 0 0 .713-.33.42.42 0 0 0 .117-.486 7 7 0 0 1-.252-.876m-4.326-8.346a.1.1 0 0 1 0 .043c-.005.008-.024.007-.037.01l-.018-.04zm-.589 2.002.006-.009c-.037-.18-.08-.364.113-.528.008.333.006.34-.113.528l.003.017-.008.01c0 .08 0 .161.005.291-.105-.14-.07-.218-.005-.29zm-.152-1.049c.008.015.023.03.023.044s-.016.03-.024.044l-.039-.018zm-.376 1.192.005-.012q.01-.01.02-.02l.026-.087c.006.011.023.03.02.035a1 1 0 0 1-.047.052c0 .01-.006.02-.009.03h-.015l-.038.076c-.047-.062-.004-.068.038-.074m.19.251c-.094.634-.206.899-.522 1.267-.066-.412.047-.691.522-1.267m-.784 2.24a.6.6 0 0 1 .077.085q-.056.07-.116.14c-.01-.013-.032-.03-.03-.039.018-.059.041-.111.069-.186m0 .784c0-.01.005-.019.007-.03h.013l.011-.077.07.07h.023c.141-.145.158-.338.212-.52.062-.211.052-.458.293-.693-.077.352-.13.629-.202.9-.102.381-.217.758-.333 1.136a.4.4 0 0 1-.09.12v.018l-.008-.011.006-.006c-.026-.256-.023-.504.105-.739.03-.055.013-.136.016-.205q-.005.007-.011.013l-.011-.01-.086.009v.013l-.018.018c-.059.282-.168.55-.322.794.006-.42.049-.52.327-.8zm-.379 2.025c.03-.211.045-.344.201-.415v-.011c0-.004.008-.013.012-.02l.01-.14.059.02-.07.122v.026l-.01.005c.019.145.01.283-.2.413zm-.416 2.03-.04-.023.043-.014zm.204.405a1 1 0 0 1-.141-.043c-.016-.008-.015-.05-.018-.076a.3.3 0 0 1 .047-.012q.061.042.119.087c.01.004-.002.029-.005.044zm-.244-1.374c-.067-.348-.067-.348.317-.568-.043.235-.158.392-.315.568zm.211-1.303v.012l-.013.036c-.004.011 0 .032 0 .048v-.034q-.001-.008.005-.014 0-.023.003-.047h.014c.036-.127.078-.248.231-.27v-.013l.016-.025.012-.078c.007.01.022.023.02.027l-.032.05-.005.035h-.014c-.038.13-.054.273-.234.273zm.872 2.724c-.006-.012-.017-.024-.017-.035s.014-.021.021-.032l.02.034zm2.064-3.54c-.014 0-.027-.017-.041-.026l.059-.065.026.077c-.012.005-.028.016-.042.013zm.233-.312-.042-.026a.4.4 0 0 1 .07-.038c.012 0 .028.015.042.024zm.245.285a.2.2 0 0 1-.036-.045l.028-.027.023.034zm.557.162a.12.12 0 0 1 .013-.096c.016-.028.052-.044.092-.076l.199.172c-.223.082-.25.084-.3 0zm.845 1.37.014-.041.02.038zm-.013-.957.02-.034.009.038zm.374 2.322a1 1 0 0 1-.03-.085c0-.01.021-.023.033-.034a.5.5 0 0 1 .032.087c.002.01-.022.023-.035.033zm.771.035c-.372-.008-.488-.09-.583-.435a5 5 0 0 1-.1-.584c-.059-.427-.11-.855-.173-1.282a2.3 2.3 0 0 0-.097-.365c-.135-.413-.392-.666-.85-.71-.52-.05-1.033-.141-1.549-.205q-.141 0-.281.025-.041.16-.066.32c-.057.572-.097 1.146-.166 1.717-.053.445-.136.886-.21 1.328a1.2 1.2 0 0 1-.104.25c-.328.085-.653.047-.972.015-.239-.024-.407-.211-.607-.37q.017-.156.05-.308c.325-1.16.665-2.316.976-3.479.274-1.024.508-2.059.775-3.086.189-.73.403-1.453.604-2.181.048-.175.162-.298.335-.309q.566-.039 1.126-.022c.086 0 .199.1.248.183.154.262.319.526.416.81a25 25 0 0 1 .995 4.025c.147.904.367 1.796.548 2.695.07.352.122.708.188 1.062.048.264.104.526.166.833-.238.105-.456.08-.669.074z"/><path fill="#fff" d="M60.417 30.512a2.2 2.2 0 0 0-.347-.54c-.114-.14-.328-.086-.378.095-.051.18-.07.352-.104.527-.08.44-.152.88-.237 1.32-.09.456-.195.91-.286 1.366-.059.291.013.385.31.436q.08.014.16.02c.376.02.751.046 1.126.062.267.012.402-.086.466-.343q.03-.181.04-.366c-.07-.307-.188-.65-.227-1.003-.062-.567-.326-1.059-.523-1.574m-1.091 2.969c-.108-.219-.021-.416.014-.597.086-.452.098-.923.307-1.344l.114.01.413 1.9c-.301.117-.57.092-.848.031m.732-2.37c-.059-.184.043-.303.137-.427.039.017.088.023.098.046.088.21.17.422.264.661l-.278.14.061-.479zm.387.887-.017.038q0-.015.008-.03zl.012-.029.009-.005c-.015-.14-.007-.265.149-.33.047.194.047.197-.15.33v.014zm.22.45c-.01.008-.028.004-.042.006a.2.2 0 0 1-.026-.043c-.02-.1.037-.211.11-.211a.05.05 0 0 1 .042.022c.04.1-.02.166-.085.226m.111.381c-.006 0-.015-.023-.022-.035l.074-.056.034.065a1 1 0 0 1-.086.026M58.989 36.089c0-.03-.037.022-.04.12 0 .057-.012.13-.012.217.001.087 0 .173-.008.273a2.6 2.6 0 0 1-.077.397q-.013.07-.025.155c-.008.056-.026.114-.038.167-.023.106-.041.198-.049.22-.008.023.032 0 .07-.114a2.4 2.4 0 0 0 .129-.416 2.3 2.3 0 0 0 .074-.643c-.007-.09-.015-.18-.017-.251.001-.027-.005-.098-.007-.125M61.472 29.406c.016.056.044.107.061.172.023.084.035.184.054.263.03.12.12.315.125.346.004.019.027-.015.015-.094a4 4 0 0 0-.053-.281c-.021-.09-.036-.162-.06-.251-.025-.09-.09-.22-.12-.31-.005-.016-.026-.058-.032-.076s-.032.023-.016.087c.008.038.01.088.026.144M62.09 31.424c.012.061.038.118.051.189.018.093.023.2.038.286.023.13.1.348.104.382 0 .02.028-.015.02-.099a6 6 0 0 0-.035-.304c-.016-.099-.026-.176-.046-.274s-.076-.242-.1-.34c-.005-.02-.022-.066-.027-.085s-.033.021-.022.091c.006.04.005.094.017.154M62.48 33.275c.01.042.009.093.017.132q.03.087.07.169c0 .009.029-.011.027-.051a1 1 0 0 0-.012-.141c-.009-.045-.013-.081-.025-.126-.012-.044-.056-.105-.07-.149-.004-.008-.018-.029-.021-.037s-.034.015-.029.048q0 .035.007.07c.008.028.029.052.036.085M56.054 48.754c-.315-.081-.628-.125-.89.11-.103.26-.19.515-.303.757q-.1.204-.257.368c-.258.274-.463.31-.809.147-.181-.087-.352-.195-.528-.293-.422-.233-.694-.577-.782-1.055a3 3 0 0 1-.065-.347c-.046-.687-.11-1.375-.118-2.063-.006-.587.046-1.175.098-1.76a5 5 0 0 1 .17-.785.4.4 0 0 1 .128-.211c.326-.235.68-.368 1.089-.246.312.093.6.231.787.51.128.192.304.256.515.259q.404.001.807-.005a.58.58 0 0 0 .48-.24c.21-.292.281-.63.116-.951-.151-.296-.344-.584-.628-.778a9 9 0 0 0-.94-.582c-.366-.19-.767-.26-1.172-.135q-.72.225-1.428.487c-.25.102-.474.26-.655.46-.27.282-.492.591-.612.972-.235.774-.412 1.556-.331 2.375a2.3 2.3 0 0 1-.022.4c-.011.151-.035.301-.035.452 0 .655.027 1.31.017 1.965-.014.92.223 1.798.416 2.684a.8.8 0 0 0 .414.542c.464.274.989.429 1.527.453a9 9 0 0 0 1.008.006c.563-.046 1.097-.193 1.496-.627.238-.26.45-.542.673-.815a.3.3 0 0 0 .05-.087c.116-.368.26-.73.337-1.106.116-.573.007-.718-.553-.861m-2.443-5.617-.01-.06c.016 0 .034 0 .044.007.011.008.006.025.008.037zm.455.124-.094-.07c.023-.014.051-.044.07-.038q.06.027.112.067zm.434.207c-.02-.031-.064-.08-.055-.092a.3.3 0 0 1 .103-.07l.044.091zm.703.467c-.007 0-.021-.016-.033-.025l.058-.065.049.053a1 1 0 0 1-.07.038zm.5 0a.3.3 0 0 1-.085-.056c.024-.014.048-.041.07-.041s.043.029.066.046c-.012.02-.036.055-.048.052zm.478-.128a.3.3 0 0 1-.07-.018l.044-.08q.024.027.04.06a.05.05 0 0 1-.01.039zm-4.92.463.023-.016.04-.07c.003.014.015.037.01.04a.3.3 0 0 1-.05.033l-.012.024-.023.039a.3.3 0 0 0 .016-.05zm-.268 2.009.066.008c0 .07-.008.134-.012.201l-.092-.019zm-.095-1.159.02-.036q.011.018.02.036zm.21 2.028c.04.25.042.251-.148.516-.012-.34-.008-.339.148-.516m.084.98c.07.235-.097.381-.185.622-.12-.31.031-.468.185-.624zm.114.591c.185.423-.083.719-.191 1.038a1.4 1.4 0 0 1 .191-1.04zm-.031 1.706c-.035-.276.038-.506.117-.76.168.374.168.374-.117.758zm.236.746c-.074-.253-.01-.481.106-.737.207.303.012.514-.106.737m.462.368c-.035.05-.157.028-.164-.03-.014-.125-.016-.252-.026-.414.204.027.292.104.292.23-.001.073-.06.149-.105.214zm.36.079-.036-.117c.028-.008.07-.03.082-.02.011.011.02.055.03.084zm.341.203c-.014-.043-.053-.104-.037-.124a.3.3 0 0 1 .148-.092c.02-.005.058.06.117.124zm.521-.051c-.015.01-.048-.01-.07-.018.014-.026.022-.07.043-.076.021-.007.057.012.087.02-.025.026-.038.06-.064.074zm.41.039c-.005-.03-.025-.07-.013-.085a.4.4 0 0 1 .098-.08c.024.035.038.056.054.077zm.553.185.087-.323-.153-.011c.024-.035.044-.093.07-.098.07-.012.108.032.088.109.098.035.172.09.154.21-.008.066-.047.083-.25.113zm.6-.396c-.01-.013-.028-.03-.025-.04q.024-.056.055-.11l.07.06zm.156.206s-.052-.034-.05-.045a.12.12 0 0 1 .05-.07c.016-.008.048.012.089.025q-.044.048-.092.09zm.444-.462c-.016.023-.051.031-.079.044-.009-.027-.033-.064-.024-.08.01-.017.053-.025.08-.036.006.024.029.06.02.072zm.422-.575c-.242.182-.52.312-.816.38-.41.087-.82.182-1.234.254-.35.06-.709.038-1.049-.063-.387-.111-.662-.346-.76-.735-.149-.584-.349-1.16-.345-1.776q-.01-.15-.049-.298a12.7 12.7 0 0 1-.236-2.202c-.008-.542.086-1.068.177-1.6q.19-1.017.55-1.987c.064-.191.182-.36.341-.484a2.98 2.98 0 0 1 1.664-.652c.338-.035.678.045.965.226q.34.218.683.43c.205.121.36.31.44.534.05.14.116.272.179.417-.25.186-.526.23-.809.262-.21-.189-.403-.373-.605-.548-.423-.363-.905-.448-1.408-.23-.582.252-.993.668-1.126 1.324q-.136.617-.162 1.248c-.009.386-.047.774-.059 1.157-.024.76.083 1.51.176 2.26.07.558.327.98.816 1.26.176.1.343.21.52.308.427.227.857.281 1.29.008.112-.07.238-.12.397-.198l.408-.998c.212-.083.423-.046.614.009.037.047.07.07.07.1.074.643-.086 1.198-.634 1.593z"/><path fill="#fff" d="M52.755 45.852c0-.118.017-.234.025-.366s.012-.3.021-.466.034-.331.051-.464l.025-.235c.006-.052-.041.031-.07.217-.017.106-.05.243-.07.407-.022.164-.015.328-.032.518-.007.126-.028.259-.031.39q-.005.2-.008.377c0 .088 0 .192.005.3.005.109.024.218.036.322.024.205.046.378.048.422s.028-.026.02-.25l-.02-.404c-.007-.146 0-.292 0-.403-.002-.13-.001-.248 0-.365M52.943 46.617c0 .01.03-.004.039-.047a2 2 0 0 0 .022-.158c0-.051.007-.091.006-.14 0-.05-.029-.13-.034-.182 0-.01-.01-.035-.011-.045-.002-.01-.037.007-.039.043a1 1 0 0 0-.012.08c0 .032.015.063.015.1 0 .05-.015.104-.016.148q.009.102.03.2M49.828 50.299c-.927-.01-1.854-.014-2.781-.026-.4.002-.797-.049-1.182-.152-.046-.316.039-1.425.133-1.766.53-.15 1.107.063 1.666-.164.063-.14.158-.285.194-.444a1.7 1.7 0 0 0 .038-.549c-.038-.362.034-.74-.146-1.108a10 10 0 0 0-1.006-.004c-.332.007-.672.066-1.02-.104-.07-.73-.132-1.46-.14-2.2.192-.106.375-.064.557-.051q.425.03.857.038c.185 0 .369-.023.554-.025.438 0 .876-.02 1.312.008.422.027.704-.177.95-.469a.77.77 0 0 0 .205-.6 5 5 0 0 1 .008-.656c.008-.17.007-.337-.104-.515-.1.005-.215.004-.33.016-.233.026-.466.078-.703.083-.403.009-.807-.014-1.211-.016-1.046-.006-2.089.054-3.132.107-.271.015-.53.112-.745.278a.56.56 0 0 0-.236.612q.18.919.239 1.853c.022.419.122.833.064 1.258q0 .1.021.2c.024.335.056.67.07 1.006.014.387 0 .774.017 1.162q.038.938-.093 1.865c-.08.6-.165 1.197-.237 1.8-.017.145-.053.303.064.458.406.13.845.12 1.278.15.403.027.808.02 1.212.024.606.007 1.212.026 1.818.012.47-.01.938-.077 1.407-.092.346-.011.623-.108.806-.422a2 2 0 0 1 .228-.268c-.054-.422-.01-.844-.14-1.284-.162-.003-.327-.013-.492-.015m-6.052-7.904a.1.1 0 0 1-.006-.032c0-.004.017-.007.026-.01 0 .01.008.023.01.034zm.118.596c-.008-.01-.022-.023-.022-.034s.014-.023.022-.035l.023.036zm.05.704-.013-.028h.027zm2.064 4.2c-.01-.028-.033-.071-.028-.077q.071-.044.147-.077l.043.081zm.318.21-.033-.013.034-.013zm.844-.145a3 3 0 0 1-.317-.063l.007-.056.378-.016c.05.093.012.14-.067.133zm-1.588-4.806a.6.6 0 0 1 .074-.123c.02.047.047.081.038.1a.5.5 0 0 1-.08.105c-.014-.029-.038-.062-.03-.084zm.102.338q.123-.126.258-.239c.099-.07.136-.048.237.137l.312-.041.025.18c-.412.064-.412.064-.83-.04zm1.055.09c.235-.177.292-.189.539-.09-.17.067-.337.131-.54.087zm.626-.353c-.232.032-.454.064-.667-.083-.056-.038-.156-.01-.236-.013.44-.135.855-.01 1.318.029-.063.055-.096.11-.127.108-.097-.007-.197-.056-.289-.044zm.295.26c.114-.12.223-.187.384-.163-.08.226-.08.226-.385.163m.726.06a.4.4 0 0 1-.042-.06c0-.004.02-.018.03-.027l.039.057zm.128-.388-.036-.011a.3.3 0 0 1 .043-.036l.027.026zm.324.368c.16-.24.184-.24.301-.054-.075.142-.196.038-.302.051zm.62-.419c-.01 0-.02-.014-.03-.023l.064.008c-.012.003-.022.014-.035.013zm-5.198.586c.052.253.14.471-.145.613-.048-.286-.046-.286.144-.616zm-.076 7.46c.013-.181.042-.33.154-.467.113.289.11.289-.154.463zm.152.686c-.028-.013-.07-.02-.078-.04s.014-.059.022-.088c.027.014.07.022.079.044.008.023-.016.052-.026.081zm-.164-1.504v.017c-.017.013 0-.008-.008-.008l.01-.009c.019-.23.087-.454.202-.655.143.354.143.359-.204.652zm0-3.357h.033q.008.044.01.087l-.06-.006.015-.083zm-.032-.893-.011-.085c.012 0 .03 0 .032.006a.07.07 0 0 1 .006.044c-.006.01-.02.021-.03.033zm.11 2.083.016.042-.063.012q0-.022.009-.045c.003-.01.022-.01.035-.012zm.01.941c.028-.408.047-.473.227-.783-.013.292.121.57-.229.78zm.014-1.38c0-.31 0-.31.137-.579.09.223.055.401-.139.577zm.044-1.442q.007-.072.019-.14s.022 0 .046-.007c0 .048.005.095.003.14a.4.4 0 0 1-.07.005zm-.153-.83c-.05-.24-.05-.24.163-.77.038.361.112.606-.163.77m-.096 5.439-.114.19c-.039-.132.005-.18.114-.189zm-.032 1.166c-.14-.007-.211-.09-.159-.298.215.225.215.225.715.277-.224.012-.39.03-.556.022zm1.915-.075c-.252.01-.505 0-.746.102-.11.047-.232.06-.33-.118.266-.15.496.004.722-.02.211-.024.428-.045.644.024zm.6.171c-.018 0-.07-.078-.064-.084q.062-.063.133-.114l.095.13a.6.6 0 0 1-.166.068zm.412-.14c.061-.212.061-.212.312-.228-.023.166-.147.189-.315.226zm.319.15c-.006 0-.031-.028-.03-.032a1 1 0 0 1 .055-.064l.053.055a1 1 0 0 1-.081.04zm.694-.009c-.009-.027-.032-.06-.023-.077a.1.1 0 0 1 .075-.04c.015 0 .03.036.056.07zm-.06-.231c-.057.031-.141.128-.185.005-.015-.043.06-.14.118-.18.059-.038.146-.019.309-.034a2 2 0 0 1-.245.207zm.971.13a.16.16 0 0 1-.1.084c-.041.01-.09-.015-.161-.03l.081-.212h-.005v-.011l-.23.023c-.087-.126-.022-.18.095-.2.162-.03.121.094.135.177h.012l-.005.013.091.018c.073.01.11.065.085.137zm.368-.191c-.02.007-.061-.048-.092-.076l.131-.13.102.112a.6.6 0 0 1-.144.093zm.224.168.454-.368c.029.283-.008.316-.457.366zm.703-.679q-.136.069-.285.105-.451.067-.905.07-1.216-.03-2.419.145-.603.07-1.211.07a1.8 1.8 0 0 1-.76-.14c.009-.372.01-.738.028-1.102.047-.993.086-1.986.04-2.98-.048-1.078-.09-2.157-.14-3.237a6.4 6.4 0 0 0-.12-1c-.074-.362-.077-.738-.105-1.107a1 1 0 0 1 .032-.205 1 1 0 0 1 .242-.082c.774-.032 1.541-.129 2.322-.104.825.026 1.65-.02 2.477-.031.115 0 .23.007.357.012.113.313.086.606.024.899a1.6 1.6 0 0 1-.834.211c-.185 0-.37.018-.556.03a6 6 0 0 1-1.21-.022c-.483-.063-.974-.077-1.46-.106a2 2 0 0 0-.263.027q-.037.12-.055.247c-.023.352.119 2.806.172 3.076.128.136.3.136.468.14.371.007.742 0 1.113.008.132 0 .264.016.409.024.148.404.147.804.145 1.233-.096.027-.187.076-.277.07-.403-.014-.808.04-1.21-.05-.125-.027-.262-.004-.405-.004a.8.8 0 0 0-.062.205c.009.825-.053 1.645-.102 2.467 0 .027.033.057.065.107.713.141 1.454.103 2.191.137s1.478-.055 2.222.053c.11.282.094.546.072.833zM46.13 41.362c.104 0 .207-.016.327-.016.16 0 .339.013.484.013.223 0 .605-.035.663-.033.034 0-.015-.03-.157-.038a14 14 0 0 0-.513-.02c-.167 0-.299-.005-.466-.004-.168.002-.423.032-.593.038-.033 0-.117.01-.149.012-.032.001.025.036.14.038.07 0 .156.012.264.01M50.268 41.733a1 1 0 0 1 .06.135q.026.106.023.216a1 1 0 0 0 .014.083q-.001.048.005.093c.005.059.01.11.008.123-.003.012.029 0 .042-.07a.8.8 0 0 0 .021-.244.74.74 0 0 0-.09-.352c-.03-.042-.06-.083-.08-.117-.008-.013-.03-.045-.04-.057s-.026.03-.004.078c.012.03.018.07.04.112"/><path fill="#fff" d="M46.68 44.109c-.096.003-.17.005-.267.012-.095.008-.24.047-.336.059-.019 0-.066.015-.084.017s.016.036.084.033c.039 0 .09.006.15 0s.117-.023.186-.028c.09-.006.194 0 .281 0 .128-.007.344-.057.377-.058.02 0-.01-.029-.093-.032a5 5 0 0 0-.298-.003M48.12 46.304c-.005-.03-.021-.103-.025-.133-.005-.029-.034.026-.026.132.005.06 0 .14.011.234.013.093.033.182.043.29.015.14.016.302.027.432.018.2.086.537.089.588 0 .031.029-.015.025-.14a13 13 0 0 0-.024-.46c-.012-.15-.019-.267-.035-.416-.016-.15-.066-.377-.086-.527"/></svg>