<svg width="19" height="19" viewBox="0 0 19 19" fill="none" xmlns="http://www.w3.org/2000/svg">
<path d="M3.91797 4.1748H11.418C12.6606 4.1748 13.668 5.18216 13.668 6.4248V8.94932C13.6066 8.94144 13.544 8.93738 13.4805 8.93738C12.6751 8.93738 12.0221 9.5903 12.0221 10.3957V11.3374C11.3778 11.3374 10.8555 11.8597 10.8555 12.504V13.7748H8.6055V14.4498H9.54297C9.95718 14.4498 10.293 14.7856 10.293 15.1998C10.293 15.6141 9.95718 15.9498 9.54297 15.9498H6.16797C5.75376 15.9498 5.41797 15.6141 5.41797 15.1998C5.41797 14.7856 5.75376 14.4498 6.16797 14.4498H7.1055V13.7748H3.91797C2.67533 13.7748 1.66797 12.7674 1.66797 11.5248V6.42481C1.66797 5.18217 2.67533 4.1748 3.91797 4.1748Z" fill="#475367"/>
<path fill-rule="evenodd" clip-rule="evenodd" d="M11.418 14.4999V12.7415C11.418 12.0972 11.9403 11.5749 12.5846 11.5749V10.9582C12.5846 10.1528 13.2376 9.49988 14.043 9.49988C14.8484 9.49988 15.5013 10.1528 15.5013 10.9582V11.5749C16.1456 11.5749 16.668 12.0972 16.668 12.7415V14.4999C16.668 14.9141 16.3322 15.2499 15.918 15.2499H12.168C11.7538 15.2499 11.418 14.9141 11.418 14.4999ZM14.043 10.4374C14.2501 10.4374 14.418 10.6053 14.418 10.8124V11.4874H13.668V10.8124C13.668 10.6053 13.8359 10.4374 14.043 10.4374Z" fill="#475367"/>
</svg>
