<svg width="20" height="21" viewBox="0 0 20 21" fill="none" xmlns="http://www.w3.org/2000/svg">
<path d="M13.9229 11.9229L10.5896 15.2562C10.2641 15.5817 9.73651 15.5817 9.41107 15.2562L6.07774 11.9229C5.7523 11.5975 5.7523 11.0698 6.07774 10.7444C6.40317 10.419 6.93081 10.419 7.25625 10.7444L9.16699 12.6551V3.00033C9.16699 2.54009 9.54009 2.16699 10.0003 2.16699C10.4606 2.16699 10.8337 2.54009 10.8337 3.00033V12.6551L12.7444 10.7444C13.0698 10.419 13.5975 10.419 13.9229 10.7444C14.2484 11.0698 14.2484 11.5975 13.9229 11.9229Z" fill="#136AD0"/>
<path d="M3.33366 15.0837C3.33366 14.6234 2.96056 14.2503 2.50033 14.2503C2.04009 14.2503 1.66699 14.6234 1.66699 15.0837V16.3337C1.66699 18.1746 3.15938 19.667 5.00033 19.667H15.0003C16.8413 19.667 18.3337 18.1746 18.3337 16.3337V15.0837C18.3337 14.6234 17.9606 14.2503 17.5003 14.2503C17.0401 14.2503 16.667 14.6234 16.667 15.0837V16.3337C16.667 17.2541 15.9208 18.0003 15.0003 18.0003H5.00033C4.07985 18.0003 3.33366 17.2541 3.33366 16.3337V15.0837Z" fill="#136AD0"/>
</svg>
