<svg width="90" height="91" viewBox="0 0 90 91" fill="none" xmlns="http://www.w3.org/2000/svg">
<g clip-path="url(#clip0_5509_32605)">
<rect y="0.34375" width="90" height="90" rx="45" fill="#E8F1FC"/>
<path d="M64.0503 92.2904C64.0503 93.6008 63.8068 94.9112 63.3196 96.1964C62.0764 99.464 59.2624 102.564 54.8608 105.1C42.6052 112.173 22.7393 112.173 10.4837 105.1C6.0821 102.564 3.25964 99.4556 2.02484 96.1964C1.53764 94.9112 1.29395 93.6008 1.29395 92.2904C1.29395 87.6536 4.3517 83.0252 10.4837 79.4804C22.7393 72.4076 42.6052 72.4076 54.8608 79.4804C60.9844 83.0168 64.0503 87.6536 64.0503 92.2904Z" fill="#E8F1FC"/>
<path d="M68.1577 70.9455L56.1204 77.9006C62.3364 74.255 62.328 62.5622 56.0784 51.7346C51.072 43.0658 43.571 37.5722 37.565 37.5722C36.0614 37.5722 34.65 37.9166 33.3984 38.639L29.7445 40.7474L26.0904 34.4138C22.05 27.4166 16.3885 22.4859 11.1973 20.8479C8.38326 19.9575 5.70373 20.0331 3.50293 21.2679L15.4982 14.3463C21.7646 10.7343 31.9118 16.5891 38.1782 27.4335L41.832 33.7671L45.4861 31.6587C46.7377 30.9363 48.1489 30.5919 49.6525 30.5919C55.6585 30.5919 63.1597 36.0771 68.1661 44.7543C74.4325 55.5987 74.4325 67.3251 68.1661 70.9371L68.1577 70.9455Z" fill="#E8F1FC" stroke="#62A2EE" stroke-width="2.016" stroke-linecap="round" stroke-linejoin="round"/>
<path d="M56.1209 77.9009C56.1209 77.9009 56.0873 77.9178 56.0789 77.9262L41.8241 86.1582L29.7366 93.1301L3.4025 47.5098C0.2693 42.0918 -1.29297 36.4469 -1.29297 31.7093C-1.29297 26.9717 0.252648 23.1834 3.34385 21.3606C3.36065 21.3438 3.3857 21.3354 3.4025 21.327C3.4361 21.3102 3.46979 21.2934 3.49499 21.2766C5.69579 20.0418 8.37532 19.9662 11.1893 20.8566C16.3805 22.4946 22.0421 27.4169 26.0825 34.4225L29.7366 40.7562L33.3905 38.6478C34.6421 37.9254 36.0534 37.5809 37.557 37.5809C43.563 37.5809 51.0557 43.0661 56.0705 51.7433C62.3201 62.5625 62.3285 74.2638 56.1125 77.9094L56.1209 77.9009Z" fill="white" stroke="#62A2EE" stroke-width="2.016" stroke-linecap="round" stroke-linejoin="round"/>
<path d="M41.8238 33.7842L29.7363 40.7562" stroke="#62A2EE" stroke-width="2.016" stroke-linecap="round" stroke-linejoin="round"/>
<path d="M33.8946 67.6283L21.5298 60.4883" stroke="#62A2EE" stroke-width="2.016" stroke-linecap="round" stroke-linejoin="round"/>
<path d="M42.5891 72.6504L38.2798 70.1641" stroke="#62A2EE" stroke-width="2.016" stroke-linecap="round" stroke-linejoin="round"/>
<path d="M20.1021 52.0285L15.6416 49.458" stroke="#62A2EE" stroke-width="2.016" stroke-linecap="round" stroke-linejoin="round"/>
<path d="M42.5886 65.0151L25.335 55.0527" stroke="#62A2EE" stroke-width="2.016" stroke-linecap="round" stroke-linejoin="round"/>
<path d="M42.5892 57.7315L33.9624 52.7588" stroke="#62A2EE" stroke-width="2.016" stroke-linecap="round" stroke-linejoin="round"/>
</g>
<defs>
<clipPath id="clip0_5509_32605">
<rect y="0.34375" width="90" height="90" rx="45" fill="white"/>
</clipPath>
</defs>
</svg>
