<svg width="90" height="91" viewBox="0 0 90 91" fill="none" xmlns="http://www.w3.org/2000/svg">
<g clip-path="url(#clip0_5509_32574)">
<rect y="0.34375" width="90" height="90" rx="45" fill="#E8F1FC"/>
<path d="M75.4148 76.0571C75.4148 77.3603 74.5578 78.6635 72.8298 79.6571L69.4098 81.6371L63.4986 85.0499L59.1354 82.5299C55.0026 80.1395 48.2994 80.1395 44.1666 82.5299C40.0338 84.9131 40.0338 88.7795 44.1666 91.1699L46.6651 92.6099L48.5372 93.6899L41.0633 97.9955L39.1986 99.0755C35.757 101.063 30.1772 101.063 26.7284 99.0755L24.8633 98.0027L17.3972 93.6899L19.2693 92.6099L21.7604 91.1699C25.8932 88.7795 25.8932 84.9131 21.7604 82.5299C17.6276 80.1395 10.9314 80.1395 6.79863 82.5299L2.43539 85.0499L-3.48281 81.6371L-6.90281 79.6571C-8.62361 78.6635 -9.48047 77.3603 -9.48047 76.0571C-9.48047 74.7539 -8.62361 73.4579 -6.90281 72.4571L-5.03074 71.3771L2.43539 67.0715L0.56332 65.9915L-1.93488 64.5515C-4.00128 63.3635 -5.03074 61.7939 -5.03074 60.2315C-5.03074 58.6691 -4.00128 57.0995 -1.93488 55.9115C2.19792 53.5283 8.90114 53.5283 13.0339 55.9115L17.3972 58.4315L26.7284 53.0458C30.1772 51.0514 35.757 51.0586 39.1986 53.0458L48.5372 58.4315L52.9004 55.9115C57.0332 53.5283 63.7291 53.5283 67.8619 55.9115C69.9283 57.0995 70.9577 58.6691 70.9577 60.2315C70.9577 61.7939 69.9283 63.3635 67.8619 64.5515L65.3707 65.9915L63.4986 67.0715L70.9577 71.3771L72.8298 72.4571C74.5578 73.4579 75.4148 74.7539 75.4148 76.0571Z" fill="#E8F1FC"/>
<path d="M2.43539 56.6168V67.7624L-6.90281 62.3768C-8.62361 61.3832 -9.48047 60.08 -9.48047 58.7768V47.624C-9.48047 48.9272 -8.62361 50.2304 -6.90281 51.224L-3.48281 53.204L2.43539 56.6168Z" fill="#B6D4F7" stroke="#62A2EE" stroke-width="1.728" stroke-linecap="round" stroke-linejoin="round"/>
<path d="M21.7606 62.7365L19.2694 64.1765C15.2662 62.9381 10.1756 63.2909 6.79879 65.2421L2.43555 67.7621V56.6165L6.79879 54.0965C10.9316 51.7061 17.6278 51.7061 21.7606 54.0965C25.8934 56.4797 25.8934 60.3461 21.7606 62.7365Z" fill="#93BFF3" stroke="#62A2EE" stroke-width="3" stroke-linecap="round" stroke-linejoin="round"/>
<path d="M75.4148 47.6244C75.4148 48.9276 74.5578 50.2308 72.8298 51.2244L69.4098 53.2044L63.4986 56.6172L59.1354 54.0972C55.0026 51.7068 48.2994 51.7068 44.1666 54.0972C40.0338 56.4804 40.0338 60.3468 44.1666 62.7372L46.6651 64.1772L48.5372 65.2572L41.0633 69.5628L39.1986 70.6428C35.757 72.63 30.1772 72.63 26.7284 70.6428L24.8633 69.57L17.3972 65.2572L19.2693 64.1772L21.7604 62.7372C25.8932 60.3468 25.8932 56.4804 21.7604 54.0972C17.6276 51.7068 10.9314 51.7068 6.79863 54.0972L2.43539 56.6172L-3.48281 53.2044L-6.90281 51.2244C-8.62361 50.2308 -9.48047 48.9276 -9.48047 47.6244C-9.48047 46.3212 -8.62361 45.0252 -6.90281 44.0244L-5.03074 42.9444L2.43539 38.6388L0.56332 37.5588L-1.93488 36.1188C-4.00128 34.9308 -5.03074 33.3612 -5.03074 31.7988C-5.03074 30.2364 -4.00128 28.6668 -1.93488 27.4788C2.19792 25.0956 8.90114 25.0956 13.0339 27.4788L17.3972 29.9988L26.7284 24.6132C30.1772 22.6188 35.757 22.626 39.1986 24.6132L48.5372 29.9988L52.9004 27.4788C57.0332 25.0956 63.7291 25.0956 67.8619 27.4788C69.9283 28.6668 70.9577 30.2364 70.9577 31.7988C70.9577 33.3612 69.9283 34.9308 67.8619 36.1188L65.3707 37.5588L63.4986 38.6388L70.9577 42.9444L72.8298 44.0244C74.5578 45.0252 75.4148 46.3212 75.4148 47.6244Z" fill="white" stroke="#62A2EE" stroke-width="1.728" stroke-linecap="round" stroke-linejoin="round"/>
<path d="M48.5375 65.2568V76.4024L39.1989 81.7952C35.7573 83.7824 30.1774 83.7824 26.7286 81.7952L17.3975 76.4024V65.2568L24.8636 69.5624L26.7286 70.6424C30.1774 72.6296 35.7573 72.6296 39.1989 70.6424L41.0636 69.5696L48.5375 65.2568Z" fill="#B6D4F7" stroke="#62A2EE" stroke-width="1.728" stroke-linecap="round" stroke-linejoin="round"/>
<path d="M63.499 56.6165V67.7621L59.1358 65.2421C55.759 63.2981 50.6687 62.9381 46.6655 64.1765L44.167 62.7365C40.0342 60.3461 40.0342 56.4797 44.167 54.0965C48.2998 51.7061 55.003 51.7061 59.1358 54.0965L63.499 56.6165Z" fill="#93BFF3" stroke="#62A2EE" stroke-width="3" stroke-linecap="round" stroke-linejoin="round"/>
<path d="M75.4143 47.624V58.7768C75.4143 60.08 74.5572 61.3832 72.8292 62.3768L63.498 67.7624V56.6168L69.4092 53.204L72.8292 51.224C74.5572 50.2304 75.4143 48.9272 75.4143 47.624Z" fill="#B6D4F7" stroke="#62A2EE" stroke-width="1.728" stroke-linecap="round" stroke-linejoin="round"/>
<path d="M70.9571 31.7998V42.9454L63.498 38.6398L65.3701 37.5598L67.8613 36.1198C69.9277 34.9318 70.9571 33.3622 70.9571 31.7998Z" fill="#93BFF3" stroke="#62A2EE" stroke-width="3" stroke-linecap="round" stroke-linejoin="round"/>
<path d="M70.958 31.7994V31.6914" stroke="#62A2EE" stroke-width="1.728" stroke-linecap="round" stroke-linejoin="round"/>
<path d="M2.43488 38.6398L-5.03125 42.9454V31.7998C-5.03125 33.3622 -4.00179 34.9318 -1.93539 36.1198L0.562812 37.5598L2.43488 38.6398Z" fill="#93BFF3" stroke="#62A2EE" stroke-width="3" stroke-linecap="round" stroke-linejoin="round"/>
</g>
<defs>
<clipPath id="clip0_5509_32574">
<rect y="0.34375" width="90" height="90" rx="45" fill="white"/>
</clipPath>
</defs>
</svg>
