<svg xmlns="http://www.w3.org/2000/svg" width="36" height="35" fill="none"><ellipse cx="18" cy="17.5" fill="#093160" opacity=".1" rx="17.494" ry="17.5"/><path fill="#093160" d="M24.071 9H11.885a1.905 1.905 0 0 0-1.904 1.905v12.19c0 1.052.853 1.905 1.904 1.905h12.186a1.905 1.905 0 0 0 1.905-1.905v-12.19A1.905 1.905 0 0 0 24.07 9m-9.14 6.095v7.238h-2.284v-7.238zm-2.284-2.106c0-.534.457-.941 1.142-.941.686 0 1.116.407 1.143.94 0 .534-.427.964-1.143.964-.685 0-1.142-.43-1.142-.963m10.663 9.344h-2.285v-3.81c0-.761-.381-1.523-1.333-1.538h-.03c-.922 0-1.303.785-1.303 1.539v3.81h-2.285v-7.239h2.285v.975s.735-.975 2.213-.975c1.512 0 2.738 1.04 2.738 3.147z"/></svg>