<svg xmlns="http://www.w3.org/2000/svg" width="35" height="35" fill="none"><ellipse cx="17.506" cy="17.5" fill="#093160" opacity=".1" rx="17.494" ry="17.5"/><path fill="#093160" d="M24.99 20.643c0 2.73-1.628 4.357-4.36 4.357h-.894a.753.753 0 0 1-.75-.75v-4.328c0-.202.165-.375.367-.375l1.321-.022a.24.24 0 0 0 .218-.187l.263-1.433a.227.227 0 0 0-.225-.263l-1.6.023a.38.38 0 0 1-.382-.367l-.03-1.838c0-.12.097-.225.225-.225l1.802-.03a.22.22 0 0 0 .225-.225l-.03-1.8a.22.22 0 0 0-.225-.225l-2.027.03a2.25 2.25 0 0 0-2.215 2.288l.038 2.062a.37.37 0 0 1-.368.383l-.9.015a.22.22 0 0 0-.226.224l.022 1.425c0 .128.098.226.226.226l.9-.015c.21 0 .376.165.383.367l.068 4.275a.75.75 0 0 1-.75.765h-1.727c-2.733 0-4.362-1.628-4.362-4.365v-6.278c0-2.73 1.629-4.357 4.362-4.357h6.29c2.733 0 4.362 1.627 4.362 4.358z"/></svg>