<svg width="96" height="33" viewBox="0 0 96 33" fill="none" xmlns="http://www.w3.org/2000/svg">
<g clip-path="url(#clip0_6386_110080)">
<path fill-rule="evenodd" clip-rule="evenodd" d="M67.8765 31.8911C69.7499 23.153 71.6173 14.4439 73.492 5.69971C73.5358 5.77978 73.563 5.82674 73.5876 5.87508C76.4317 11.4921 79.2916 17.1013 82.1084 22.732C82.8032 24.1205 83.2286 25.6105 83.1617 27.1955C83.1002 28.6516 82.4514 29.7759 81.2221 30.5602C80.3497 31.1169 79.3789 31.4127 78.3732 31.6061C77.3047 31.8117 76.2251 31.8965 75.1363 31.8933C72.7985 31.8862 70.4606 31.8911 68.1228 31.8911H67.8765Z" fill="#1D2739"/>
<path fill-rule="evenodd" clip-rule="evenodd" d="M95.3303 0.347184C93.4567 9.08623 91.5907 17.7897 89.716 26.5334C89.6704 26.4542 89.6427 26.4107 89.6196 26.3648C86.7757 20.7479 83.9185 15.1376 81.0989 9.50833C80.4414 8.19577 80.0368 6.78736 80.0376 5.29416C80.0388 3.57461 80.8064 2.3086 82.311 1.48492C83.1556 1.02251 84.0695 0.767201 85.0102 0.598612C86.065 0.409798 87.129 0.340257 88.2006 0.344413C90.4943 0.353417 92.7877 0.347184 95.0812 0.347184H95.3303Z" fill="#1D2739"/>
<path fill-rule="evenodd" clip-rule="evenodd" d="M51.8577 17.4979C50.3745 19.7475 48.9192 21.9552 47.4529 24.1792H53.4894C52.9466 21.9568 52.408 19.751 51.8577 17.4979ZM59.417 31.0028H55.0366C54.9694 30.6851 54.9011 30.3652 54.8343 30.0451C54.6385 29.109 54.4412 28.173 54.2503 27.2359C54.2297 27.1347 54.1909 27.1053 54.0899 27.1053C51.319 27.1079 48.548 27.1064 45.7771 27.1128C45.7098 27.1129 45.6195 27.1774 45.579 27.2378C44.7647 28.4475 43.9549 29.6603 43.1488 30.8756C43.0846 30.9723 43.0204 31.0111 42.9016 31.0107C41.7997 31.0057 40.6979 31.0078 39.5961 31.0078H39.417C39.4687 30.9282 39.5067 30.8665 39.5476 30.8067C43.6757 24.7686 47.8039 18.7307 51.932 12.6927C52.2869 12.1736 52.6448 11.6562 52.995 11.1339C53.0569 11.0415 53.1228 11.0092 53.2327 11.0108C53.6631 11.017 54.0937 11.0134 54.5358 11.0134C56.1624 17.675 57.7875 24.3297 59.417 31.0028Z" fill="#1D2739"/>
<path fill-rule="evenodd" clip-rule="evenodd" d="M28.5887 19.8347C28.6367 19.8397 28.6686 19.8459 28.7004 19.8459C29.6181 19.8464 30.5358 19.8467 31.4534 19.8456C31.4959 19.8455 31.5418 19.8404 31.5803 19.8242C32.3698 19.4918 33.1442 19.1316 33.8228 18.6023C34.4072 18.1468 34.853 17.5932 35.0337 16.8658C35.0971 16.6109 35.1214 16.3467 35.1752 16.0892C35.3515 15.2456 35.0878 14.5255 34.4123 14.0724C33.8499 13.6952 33.2148 13.5235 32.5412 13.528C31.7057 13.5337 30.8707 13.5785 30.0352 13.5887C29.8437 13.591 29.7941 13.6573 29.7626 13.8275C29.5915 14.7478 29.4072 15.6659 29.227 16.5846C29.0157 17.6615 28.8039 18.7383 28.5887 19.8347ZM26.6452 28.5978H26.8204C27.7433 28.5979 28.6661 28.6006 29.589 28.5968C30.0987 28.5948 30.6007 28.528 31.0929 28.3946C32.4952 28.0148 33.5058 27.1441 34.2618 25.9479C34.4637 25.6283 34.6257 25.3002 34.6467 24.9172C34.6529 24.8044 34.6703 24.6922 34.6762 24.5794C34.7259 23.6384 34.4925 22.7993 33.7241 22.182C32.8987 21.5187 31.9076 21.2676 30.8757 21.2258C30.0322 21.1916 29.1843 21.2672 28.3383 21.2879C28.2195 21.2908 28.1731 21.3211 28.1473 21.4434C27.6554 23.7752 27.1572 26.1058 26.661 28.4369C26.6513 28.4824 26.6516 28.5299 26.6452 28.5978ZM34.6662 20.1651C34.9563 20.2233 35.2233 20.2694 35.4864 20.3315C36.1776 20.4948 36.8328 20.7431 37.3917 21.189C38.1959 21.8308 38.6256 22.6682 38.6171 23.6876C38.5915 26.7832 37.0353 28.8851 34.2299 30.1443C33.1573 30.6256 32.0173 30.8723 30.8444 30.9619C30.4093 30.995 29.9717 31.0074 29.5352 31.0082C27.1364 31.0124 24.7377 31.0101 22.3389 31.0101H22.0835C22.1409 30.7293 22.1914 30.4736 22.2455 30.2184C22.8426 27.4013 23.44 24.5843 24.0375 21.7673C24.6215 19.0134 25.2056 16.2596 25.7902 13.5057C25.9565 12.7213 26.1269 11.9375 26.2875 11.1518C26.3101 11.0414 26.3535 11.017 26.4584 11.017C29.3489 11.0194 32.2397 10.9934 35.1296 11.0326C36.1593 11.0466 37.1441 11.3507 38.0011 11.9556C38.8126 12.5282 39.2408 13.3269 39.3701 14.2904C39.4533 14.9103 39.4238 15.5305 39.2942 16.139C39.1748 16.6993 38.8889 17.1933 38.5599 17.66C37.8829 18.6211 36.9392 19.2455 35.8699 19.7029C35.4856 19.8675 35.089 20.0037 34.6662 20.1651Z" fill="#1D2739"/>
<path fill-rule="evenodd" clip-rule="evenodd" d="M3.69697 11.0107H7.7772C7.74874 11.1721 7.72468 11.3244 7.69498 11.4756C6.94122 15.3225 6.18815 19.1698 5.4315 23.0164C5.23708 24.0051 5.09697 24.9989 5.12832 26.0109C5.14578 26.5725 5.22017 27.1251 5.40716 27.657C5.80302 28.7844 6.59816 29.42 7.73651 29.5634C9.93619 29.8409 12.2184 28.9005 13.4469 26.4684C13.9408 25.4908 14.2282 24.4514 14.4442 23.378C15.0395 20.4199 15.6591 17.467 16.2695 14.5121C16.5054 13.3689 16.7426 12.2258 16.9795 11.0826C16.9838 11.0614 16.9908 11.0407 16.9982 11.0134H20.7505C20.6981 11.2708 20.6489 11.5222 20.5959 11.7728C19.6185 16.4078 18.6407 21.0428 17.6612 25.6773C17.6403 25.7757 17.603 25.8716 17.5637 25.9644C16.9957 27.3037 16.2512 28.522 15.2282 29.5476C13.8379 30.9415 12.1598 31.748 10.2654 32.1069C8.90441 32.3646 7.53328 32.4011 6.15831 32.2704C5.34061 32.1926 4.54024 32.0248 3.77576 31.7022C2.168 31.0238 1.23384 29.7859 0.911137 28.0455C0.738853 27.1162 0.682204 26.1709 0.856138 25.245C1.30479 22.8556 1.80061 20.4757 2.27772 18.092C2.73476 15.8079 3.19167 13.5237 3.64871 11.2396C3.66301 11.168 3.67882 11.0967 3.69697 11.0107Z" fill="#1D2739"/>
</g>
<defs>
<clipPath id="clip0_6386_110080">
<rect width="94.6667" height="32" fill="white" transform="translate(0.75 0.34375)"/>
</clipPath>
</defs>
</svg>
