<svg width="143" height="49" viewBox="0 0 143 49" fill="none" xmlns="http://www.w3.org/2000/svg">
<g id="Logo Alternative.svg" clip-path="url(#clip0_5358_53507)">
<g id="Page-1">
<g id="Global-site">
<g id="Footer">
<g id="UBA-Logo">
<g id="symbol">
<path id="Fill-1" fill-rule="evenodd" clip-rule="evenodd" d="M101.189 47.6645C104 34.5574 106.801 21.4937 109.613 8.37744C109.678 8.49755 109.719 8.56799 109.756 8.64051C114.022 17.0661 118.312 25.4798 122.537 33.9259C123.579 36.0086 124.218 38.2436 124.117 40.6212C124.025 42.8053 123.052 44.4917 121.208 45.6682C119.899 46.5032 118.443 46.947 116.934 47.2371C115.332 47.5454 113.712 47.6726 112.079 47.6678C108.573 47.6572 105.066 47.6645 101.559 47.6645H101.189Z" fill="#D21006"/>
<path id="Fill-3" fill-rule="evenodd" clip-rule="evenodd" d="M142.37 0.348168C139.559 13.4567 136.76 26.5119 133.948 39.6275C133.88 39.5087 133.838 39.4434 133.804 39.3747C129.538 30.9493 125.252 22.5337 121.023 14.0899C120.036 12.1211 119.429 10.0084 119.431 7.76864C119.433 5.18931 120.584 3.2903 122.841 2.05477C124.108 1.36116 125.478 0.978194 126.89 0.725311C128.472 0.44209 130.068 0.337778 131.675 0.344012C135.116 0.357519 138.556 0.348168 141.996 0.348168H142.37Z" fill="#D21006"/>
</g>
<path id="Fill-10" fill-rule="evenodd" clip-rule="evenodd" d="M77.1611 26.0744C74.9363 29.4489 72.7533 32.7604 70.5539 36.0964H79.6086C78.7944 32.7628 77.9865 29.4541 77.1611 26.0744ZM88.5 46.3318H81.9295C81.8286 45.8552 81.7261 45.3755 81.6259 44.8953C81.3323 43.4911 81.0363 42.0871 80.7499 40.6815C80.719 40.5297 80.6609 40.4856 80.5093 40.4856C76.353 40.4895 72.1965 40.4872 68.0401 40.4968C67.9393 40.497 67.8038 40.5938 67.7431 40.6843C66.5216 42.4989 65.3068 44.3181 64.0978 46.141C64.0014 46.2861 63.9051 46.3444 63.7269 46.3437C62.0741 46.3362 60.4214 46.3393 58.7686 46.3393H58.5C58.5775 46.2199 58.6346 46.1274 58.696 46.0377C64.888 36.9805 71.0803 27.9237 77.2726 18.8667C77.8049 18.088 78.3417 17.3119 78.867 16.5285C78.9599 16.3899 79.0587 16.3414 79.2236 16.3438C79.8692 16.3532 80.5151 16.3477 81.1783 16.3477C83.618 26.3401 86.0557 36.3221 88.5 46.3318Z" fill="#D21006"/>
<path id="Fill-5" fill-rule="evenodd" clip-rule="evenodd" d="M42.2577 29.5797C42.3299 29.5872 42.3776 29.5965 42.4254 29.5965C43.8019 29.5973 45.1785 29.5977 46.5549 29.5961C46.6186 29.5959 46.6875 29.5882 46.7452 29.5639C47.9294 29.0654 49.091 28.525 50.109 27.7311C50.9856 27.0478 51.6542 26.2174 51.9253 25.1263C52.0204 24.7439 52.0569 24.3476 52.1376 23.9614C52.4019 22.6961 52.0065 21.6159 50.9932 20.9362C50.1496 20.3704 49.197 20.1129 48.1866 20.1196C46.9333 20.1283 45.6807 20.1954 44.4275 20.2107C44.1402 20.2141 44.0659 20.3136 44.0187 20.5688C43.762 21.9493 43.4856 23.3264 43.2153 24.7045C42.8983 26.3199 42.5807 27.935 42.2577 29.5797ZM39.3425 42.7243H39.6054C40.9898 42.7245 42.3739 42.7285 43.7583 42.7229C44.5228 42.7198 45.2758 42.6196 46.0141 42.4195C48.1175 41.8498 49.6334 40.5439 50.7674 38.7494C51.0702 38.2701 51.3133 37.778 51.3448 37.2034C51.354 37.0342 51.3803 36.8659 51.3891 36.6967C51.4637 35.2853 51.1135 34.0266 49.9609 33.1006C48.7228 32.1057 47.2362 31.729 45.6883 31.6664C44.423 31.615 43.1511 31.7284 41.8821 31.7595C41.7041 31.7638 41.6344 31.8092 41.5957 31.9927C40.8578 35.4904 40.1105 38.9863 39.3663 42.483C39.3517 42.5513 39.3521 42.6224 39.3425 42.7243ZM51.3741 30.0752C51.8091 30.1626 52.2097 30.2317 52.6044 30.3248C53.6412 30.5698 54.624 30.9422 55.4622 31.6112C56.6685 32.5738 57.3132 33.83 57.3005 35.3591C57.262 40.0024 54.9276 43.1553 50.7196 45.0441C49.1107 45.766 47.4007 46.1361 45.6414 46.2705C44.9888 46.3202 44.3322 46.3388 43.6776 46.34C40.0794 46.3462 36.4814 46.3428 32.8832 46.3428H32.5C32.5861 45.9216 32.6619 45.5381 32.743 45.1553C33.6387 40.9297 34.5347 36.704 35.431 32.4786C36.307 28.3477 37.1832 24.2171 38.06 20.0862C38.3096 18.9096 38.5651 17.7338 38.8061 16.5554C38.8399 16.3897 38.905 16.3531 39.0624 16.3531C43.3981 16.3567 47.7343 16.3177 52.0692 16.3765C53.6138 16.3976 55.091 16.8537 56.3763 17.7611C57.5937 18.62 58.2359 19.818 58.4299 21.2632C58.5547 22.1931 58.5105 23.1233 58.316 24.0362C58.1369 24.8765 57.708 25.6176 57.2146 26.3177C56.1991 27.7592 54.7836 28.6959 53.1796 29.3821C52.6032 29.6288 52.0083 29.8331 51.3741 30.0752Z" fill="#D21006"/>
<path id="Fill-7" fill-rule="evenodd" clip-rule="evenodd" d="M4.91972 16.3438H11.0401C10.9974 16.5858 10.9613 16.8142 10.9167 17.041C9.7861 22.8114 8.65649 28.5823 7.52152 34.3523C7.22989 35.8352 7.01972 37.326 7.06674 38.844C7.09294 39.6863 7.20452 40.5153 7.48501 41.3131C8.07879 43.0042 9.27151 43.9577 10.979 44.1728C14.2785 44.589 17.7018 43.1783 19.5446 39.5302C20.2855 38.0638 20.7165 36.5047 21.0405 34.8947C21.9336 30.4574 22.8629 26.0281 23.7784 21.5957C24.1324 19.8809 24.4881 18.1663 24.8435 16.4515C24.8499 16.4197 24.8604 16.3887 24.8716 16.3478H30.5C30.4214 16.7338 30.3476 17.111 30.2682 17.4869C28.802 24.4393 27.3354 31.3919 25.8661 38.3436C25.8347 38.4912 25.7788 38.6351 25.7198 38.7742C24.8678 40.7832 23.751 42.6107 22.2165 44.149C20.1312 46.2399 17.614 47.4497 14.7723 47.988C12.7309 48.3745 10.6742 48.4293 8.61173 48.2333C7.38519 48.1166 6.18463 47.8648 5.0379 47.3809C2.62627 46.3634 1.22503 44.5064 0.740973 41.8958C0.482547 40.502 0.397574 39.0839 0.658475 37.6951C1.33146 34.1111 2.07518 30.5412 2.79085 26.9657C3.47641 23.5394 4.16177 20.1132 4.84733 16.687C4.86878 16.5796 4.8925 16.4727 4.91972 16.3438Z" fill="#D21006"/>
</g>
</g>
</g>
</g>
</g>
<defs>
<clipPath id="clip0_5358_53507">
<rect width="142" height="48" fill="white" transform="translate(0.5 0.34375)"/>
</clipPath>
</defs>
</svg>
