<svg xmlns="http://www.w3.org/2000/svg" width="32" height="32" fill="none"><rect width="31" height="31" x=".5" y=".5" fill="#E8F1FC" rx="7.5"/><rect width="31" height="31" x=".5" y=".5" stroke="#B6D4F7" rx="7.5"/><path fill="#4490EA" fill-rule="evenodd" d="M18 11.332h-6.667a2 2 0 0 0-2 2v5.333a2 2 0 0 0 2 2H18a2 2 0 0 0 2-2V18l1.6 1.2a.667.667 0 0 0 1.067-.534v-5.333A.667.667 0 0 0 21.6 12.8L20 14v-.667a2 2 0 0 0-2-2m-6.938 3.087c.32.107.572.359.68.68.108.326.57.326.678 0 .107-.321.36-.573.68-.68a.358.358 0 0 0 0-.68 1.07 1.07 0 0 1-.68-.678.358.358 0 0 0-.679 0c-.107.32-.358.572-.68.679a.358.358 0 0 0 0 .68" clip-rule="evenodd"/></svg>