<svg width="317" height="240" viewBox="0 0 317 240" fill="none" xmlns="http://www.w3.org/2000/svg">
<path d="M311.681 218.202C311.681 219.88 310.573 221.551 308.356 222.833L307.295 223.443L298.253 228.669C293.828 231.226 286.655 231.226 282.221 228.669C280.012 227.394 277.106 226.753 274.208 226.753C271.311 226.753 268.405 227.394 266.196 228.669H266.172C261.747 231.242 261.747 235.382 266.172 237.932C266.552 238.146 266.901 238.383 267.21 238.621C268.643 239.713 269.387 241.004 269.482 242.302V242.381C269.49 242.445 269.49 242.492 269.49 242.556C269.49 242.659 269.49 242.761 269.482 242.872C269.347 244.432 268.247 245.992 266.172 247.179L265.199 247.741L208.55 280.448C204.116 283.005 196.935 283.005 192.517 280.448C190.308 279.173 187.403 278.532 184.505 278.532C181.607 278.532 178.694 279.173 176.485 280.448H176.477C172.043 283.021 172.043 287.154 176.477 289.711C176.857 289.925 177.197 290.163 177.514 290.4C179.026 291.564 179.786 292.957 179.786 294.343C179.786 296.021 178.686 297.692 176.477 298.975L175.503 299.537L166.382 304.802C161.948 307.359 154.783 307.359 150.35 304.802L9.43654 223.443L8.37565 222.826C6.33297 221.654 5.24034 220.142 5.07408 218.598V218.574C4.89198 216.777 5.99252 214.94 8.37565 213.562L18.4782 207.727C22.904 205.178 30.0771 205.178 34.5029 207.727C36.7277 209.01 39.6254 209.651 42.5232 209.651C44.9934 209.651 47.4557 209.192 49.5063 208.25C49.8626 208.099 50.203 207.917 50.5355 207.727H50.5592C54.6288 205.376 54.9534 201.67 51.5331 199.121C51.2323 198.891 50.9076 198.678 50.5592 198.472H50.5513C48.477 197.268 47.3844 195.724 47.2498 194.165V194.133C47.1152 192.352 48.2157 190.562 50.5513 189.216L108.182 155.948C112.608 153.39 119.781 153.39 124.214 155.948C126.423 157.222 129.329 157.864 132.227 157.864C134.705 157.864 137.183 157.405 139.234 156.462C139.582 156.312 139.922 156.13 140.255 155.948H140.263C144.332 153.58 144.657 149.883 141.237 147.326C140.936 147.096 140.611 146.882 140.263 146.677C138.054 145.394 136.938 143.723 136.938 142.045C136.938 140.366 138.046 138.696 140.263 137.413L150.365 131.578C154.791 129.021 161.964 129.021 166.398 131.578L308.372 213.546C310.581 214.821 311.697 216.508 311.697 218.178L311.681 218.202Z" fill="#E0E8F7"/>
<path d="M269.498 223.016C269.506 223.119 269.506 223.221 269.506 223.324C269.506 223.419 269.506 223.507 269.498 223.602V223.016Z" fill="#E0E8F7" stroke="#4490EA" stroke-width="0.950082" stroke-linecap="round" stroke-linejoin="round"/>
<path d="M140.255 126.249H140.247C139.915 126.447 139.582 126.621 139.226 126.772C137.706 125.608 136.93 124.222 136.93 122.829V112.362C136.93 114.041 138.038 115.703 140.255 116.994C140.603 117.2 140.936 117.414 141.229 117.643C144.641 120.193 144.324 123.898 140.255 126.249Z" fill="#E0E8F7" stroke="#4490EA" stroke-width="0.950082" stroke-linecap="round" stroke-linejoin="round"/>
<path d="M50.5596 178.045H50.5358C50.2033 178.243 49.8708 178.417 49.5066 178.567C48.1052 177.499 47.3609 176.24 47.2422 174.981V164.482C47.3768 166.042 48.4694 167.586 50.5438 168.789H50.5516C50.9 168.995 51.2326 169.209 51.5255 169.439C54.9379 171.988 54.6211 175.693 50.5516 178.045H50.5596Z" fill="#E0E8F7" stroke="#4490EA" stroke-width="0.950082" stroke-linecap="round" stroke-linejoin="round"/>
<path d="M307.302 193.737L298.26 198.962C293.835 201.519 286.661 201.519 282.228 198.962C280.019 197.687 277.113 197.046 274.215 197.046C271.318 197.046 268.412 197.687 266.203 198.962H266.179C261.753 201.535 261.753 205.676 266.179 208.225C266.559 208.439 266.908 208.677 267.216 208.914C266.868 209.081 266.528 209.255 266.195 209.437H266.171C262.102 211.788 261.777 215.494 265.198 218.043L208.549 250.749C204.115 253.307 196.934 253.307 192.516 250.749C190.307 249.475 187.402 248.834 184.504 248.834C181.606 248.834 178.693 249.475 176.484 250.749H176.476C172.042 253.323 172.042 257.456 176.476 260.013C176.856 260.227 177.196 260.464 177.513 260.702C177.157 260.868 176.816 261.042 176.484 261.224H176.476C172.39 263.576 172.074 267.281 175.502 269.83L166.381 275.095C161.947 277.653 154.782 277.653 150.349 275.095L9.43555 193.737L18.4772 188.511C22.903 185.954 30.0761 185.954 34.5019 188.511C36.7267 189.786 39.6244 190.427 42.5222 190.427C45.4199 190.427 48.3256 189.786 50.5345 188.511H50.5583C54.984 185.938 54.984 181.797 50.5583 179.248H50.5503C50.1703 179.034 49.8298 178.797 49.5132 178.559C49.8694 178.409 50.2099 178.227 50.5424 178.037H50.5662C54.6357 175.685 54.9603 171.98 51.54 169.43L108.189 136.724C112.614 134.167 119.788 134.167 124.221 136.724C126.43 137.999 129.336 138.64 132.234 138.64C135.131 138.64 138.037 137.999 140.254 136.724H140.262C144.688 134.151 144.688 130.018 140.262 127.461C139.89 127.247 139.541 127.017 139.233 126.772C139.581 126.621 139.921 126.439 140.254 126.257H140.262C144.331 123.89 144.656 120.192 141.236 117.635L150.356 112.37C154.782 109.813 161.955 109.813 166.389 112.37L307.302 193.729V193.737Z" fill="#E0E8F7" stroke="#4490EA" stroke-width="0.950082" stroke-linecap="round" stroke-linejoin="round"/>
<path d="M311.681 188.504C311.681 190.182 310.573 191.853 308.356 193.135L307.295 193.745L298.253 198.97C293.828 201.528 286.655 201.528 282.221 198.97C280.012 197.696 277.106 197.054 274.208 197.054C271.311 197.054 268.405 197.696 266.196 198.97H266.172C261.747 201.543 261.747 205.684 266.172 208.234C266.552 208.447 266.901 208.685 267.21 208.922C268.643 210.015 269.387 211.306 269.482 212.604V212.683C269.49 212.747 269.49 212.794 269.49 212.857C269.49 212.96 269.49 213.063 269.482 213.174C269.347 214.734 268.247 216.293 266.172 217.481L265.199 218.043L208.55 250.75C204.116 253.307 196.935 253.307 192.517 250.75C190.308 249.475 187.403 248.834 184.505 248.834C181.607 248.834 178.694 249.475 176.485 250.75H176.477C172.043 253.323 172.043 257.456 176.477 260.013C176.857 260.227 177.197 260.464 177.514 260.702C179.026 261.866 179.786 263.259 179.786 264.645C179.786 266.323 178.686 267.994 176.477 269.276L175.503 269.839L166.382 275.104C161.948 277.661 154.783 277.661 150.35 275.104L9.43654 193.745L8.37565 193.127C6.33297 191.956 5.24034 190.443 5.07408 188.899V188.876C4.89198 187.078 5.99252 185.242 8.37565 183.864L18.4782 178.029C22.904 175.48 30.0771 175.48 34.5029 178.029C36.7277 179.312 39.6254 179.953 42.5232 179.953C44.9934 179.953 47.4557 179.494 49.5063 178.551C49.8626 178.401 50.203 178.219 50.5355 178.029H50.5592C54.6288 175.677 54.9534 171.972 51.5331 169.423C51.2323 169.193 50.9076 168.979 50.5592 168.774H50.5513C48.477 167.57 47.3844 166.026 47.2498 164.467V164.435C47.1152 162.653 48.2157 160.864 50.5513 159.518L108.182 126.25C112.608 123.692 119.781 123.692 124.214 126.25C126.423 127.524 129.329 128.165 132.227 128.165C134.705 128.165 137.183 127.706 139.234 126.764C139.582 126.614 139.922 126.432 140.255 126.25H140.263C144.332 123.882 144.657 120.185 141.237 117.628C140.936 117.398 140.611 117.184 140.263 116.978C138.054 115.696 136.938 114.025 136.938 112.347C136.938 110.668 138.046 108.998 140.263 107.715L150.365 101.88C154.791 99.3226 161.964 99.3226 166.398 101.88L308.372 183.848C310.581 185.123 311.697 186.809 311.697 188.48L311.681 188.504Z" fill="white" stroke="#4490EA" stroke-width="0.950082" stroke-linecap="round" stroke-linejoin="round"/>
<path d="M311.682 188.504V198.986C311.682 200.665 310.573 202.328 308.356 203.618L298.254 209.453C293.828 212.003 286.655 212.003 282.221 209.453C280.012 208.178 277.107 207.529 274.209 207.529C271.731 207.529 269.261 208.004 267.218 208.931C266.909 208.693 266.561 208.456 266.181 208.242C261.755 205.692 261.755 201.544 266.181 198.986H266.204C268.413 197.704 271.319 197.063 274.217 197.063C277.115 197.063 280.02 197.704 282.229 198.979C286.663 201.536 293.844 201.536 298.262 198.979L307.303 193.753L308.364 193.143C310.573 191.869 311.69 190.19 311.69 188.512L311.682 188.504Z" fill="#E0E8F7" stroke="#4490EA" stroke-width="0.950082" stroke-linecap="round" stroke-linejoin="round"/>
<path d="M311.682 199.43V198.979" stroke="#4490EA" stroke-width="0.950082" stroke-linecap="round" stroke-linejoin="round"/>
<path d="M269.498 213.174V223.601C269.388 225.184 268.287 226.744 266.189 227.948L208.566 261.224C204.133 263.774 196.952 263.774 192.534 261.224C190.325 259.95 187.419 259.3 184.521 259.3C182.051 259.3 179.573 259.775 177.53 260.702C177.214 260.464 176.873 260.227 176.493 260.013C172.06 257.456 172.06 253.315 176.493 250.757H176.501C178.71 249.475 181.624 248.834 184.521 248.834C187.419 248.834 190.325 249.475 192.534 250.75C196.96 253.307 204.133 253.307 208.566 250.75L265.215 218.043L266.189 217.481C268.263 216.285 269.364 214.734 269.498 213.174Z" fill="#E0E8F7" stroke="#4490EA" stroke-width="0.950082" stroke-linecap="round" stroke-linejoin="round"/>
<path d="M269.498 213.174V212.683V212.596" stroke="#4490EA" stroke-width="0.950082" stroke-linecap="round" stroke-linejoin="round"/>
<path d="M179.802 264.645V275.111C179.802 276.79 178.702 278.461 176.493 279.743L166.39 285.57C161.956 288.128 154.791 288.128 150.357 285.57L8.3836 203.602C6.34092 202.422 5.2483 200.91 5.08203 199.374V188.892C5.2483 190.435 6.33301 191.948 8.3836 193.119L9.4445 193.737L150.357 275.096C154.791 277.653 161.956 277.653 166.39 275.096L175.511 269.831L176.485 269.268C178.694 267.994 179.794 266.315 179.794 264.637L179.802 264.645Z" fill="#E0E8F7" stroke="#4490EA" stroke-width="0.950082" stroke-linecap="round" stroke-linejoin="round"/>
<path d="M5.08203 188.908V188.884" stroke="#4490EA" stroke-width="0.950082" stroke-linecap="round" stroke-linejoin="round"/>
<path d="M47.2422 164.482V164.442" stroke="#4490EA" stroke-width="0.950082" stroke-linecap="round" stroke-linejoin="round"/>
<path d="M239.927 214.963C239.056 215.462 239.056 216.277 239.927 216.776C240.798 217.275 242.199 217.275 243.07 216.776C243.941 216.277 243.941 215.462 243.07 214.963C242.199 214.464 240.798 214.464 239.927 214.963Z" fill="#4490EA"/>
<path d="M231.931 219.57C231.06 220.069 231.06 220.885 231.931 221.383C232.801 221.882 234.203 221.882 235.074 221.383C235.945 220.885 235.945 220.069 235.074 219.57C234.203 219.072 232.801 219.072 231.931 219.57Z" fill="#4490EA"/>
<path d="M223.94 224.187C223.069 224.685 223.069 225.501 223.94 226C224.811 226.498 226.213 226.498 227.084 226C227.954 225.501 227.954 224.685 227.084 224.187C226.213 223.688 224.811 223.688 223.94 224.187Z" fill="#4490EA"/>
<path d="M215.944 228.803C215.073 229.302 215.073 230.117 215.944 230.616C216.815 231.115 218.216 231.115 219.087 230.616C219.958 230.117 219.958 229.302 219.087 228.803C218.216 228.304 216.815 228.304 215.944 228.803Z" fill="#4490EA"/>
<path d="M207.956 233.418C207.085 233.917 207.085 234.732 207.956 235.231C208.827 235.73 210.228 235.73 211.099 235.231C211.97 234.732 211.97 233.917 211.099 233.418C210.228 232.919 208.827 232.919 207.956 233.418Z" fill="#4490EA"/>
<path d="M67.0116 214.029L60.2344 210.118" stroke="#4490EA" stroke-width="0.950082" stroke-linecap="round" stroke-linejoin="round"/>
<path d="M101.516 233.949L74.8262 218.542" stroke="#4490EA" stroke-width="0.950082" stroke-linecap="round" stroke-linejoin="round"/>
<path d="M123.667 246.744L108.387 237.916" stroke="#4490EA" stroke-width="0.950082" stroke-linecap="round" stroke-linejoin="round"/>
<path d="M91.9512 202.224V202.192" stroke="#4490EA" stroke-width="0.950082" stroke-linecap="round" stroke-linejoin="round"/>
<path d="M128.236 130.295V130.2" stroke="#4490EA" stroke-width="0.950082" stroke-linecap="round" stroke-linejoin="round"/>
<path d="M266.79 178.495V189.049C266.79 189.659 266.363 190.245 265.611 190.688L242.405 204.084C240.829 205.003 238.288 205.003 236.72 204.084L232.366 201.575C230.798 200.672 228.257 200.672 226.681 201.575L189.287 223.165L184.038 226.197C182.882 226.862 182.581 227.844 183.144 228.676L165.179 239.055C164.427 239.483 163.406 239.736 162.345 239.736H144.079C143.129 239.736 142.211 239.546 141.49 239.198L144.594 237.401C146.162 236.498 146.162 235.033 144.594 234.123L139.107 230.956L144.594 227.781C146.162 226.878 146.162 225.414 144.594 224.503L126.178 213.87C124.611 212.968 122.069 212.968 120.494 213.87L117.825 215.406C116.25 216.325 113.708 216.325 112.141 215.406L93.2658 204.512C93.1549 204.433 93.0441 204.353 92.9174 204.282L89.8851 202.532C89.3388 202.121 89.0617 201.63 89.0617 201.131V202.057L74.5017 193.649C72.9261 192.747 70.3846 192.747 68.817 193.649L60.2188 198.621C58.6511 199.524 56.1097 199.524 54.5341 198.621L49.3008 195.589C48.5407 195.161 48.1211 194.568 48.1211 193.95V183.404C48.1211 182.795 48.5407 182.209 49.3008 181.765L72.5065 168.369C74.0821 167.467 76.6235 167.467 78.1912 168.369L82.5378 170.879C84.1133 171.782 86.6548 171.782 88.2224 170.879L130.873 146.256C132.441 145.353 132.441 143.881 130.873 142.97L126.527 140.461C126.123 140.223 125.822 139.954 125.632 139.661L130.873 136.628C132.029 135.963 132.33 134.982 131.768 134.15L149.74 123.771C150.492 123.343 151.514 123.09 152.575 123.09H170.84C171.79 123.09 172.708 123.28 173.429 123.628L170.325 125.425C168.758 126.328 168.758 127.793 170.325 128.703L175.812 131.87L170.325 135.045C168.758 135.948 168.758 137.412 170.325 138.323L188.733 148.956C190.309 149.858 192.85 149.858 194.418 148.956L197.102 147.412C198.669 146.509 201.211 146.509 202.786 147.412L221.63 158.29L224.686 160.056C224.828 160.135 224.963 160.23 225.082 160.325C226.246 161.228 226.103 162.51 224.686 163.334L222.002 164.878C220.434 165.78 220.434 167.253 222.002 168.163L240.418 178.796C241.993 179.699 244.535 179.699 246.102 178.796L254.701 173.824C256.268 172.922 258.81 172.922 260.385 173.824L265.618 176.857C266.379 177.292 266.798 177.878 266.798 178.495H266.79Z" fill="#62A2EE" stroke="#4490EA" stroke-width="0.950082" stroke-linecap="round" stroke-linejoin="round"/>
<path d="M266.79 168.876V179.43C266.79 180.04 266.363 180.626 265.611 181.069L242.405 194.465C240.829 195.368 238.288 195.368 236.72 194.465L232.366 191.955C230.798 191.053 228.257 191.053 226.681 191.955L184.03 216.578C182.463 217.481 182.463 218.945 184.03 219.856L188.385 222.374C188.789 222.611 189.089 222.88 189.279 223.173C189.462 223.443 189.557 223.72 189.557 223.997V224.013C189.557 224.606 189.161 225.2 188.385 225.651L183.136 228.684L165.171 239.063C164.419 239.491 163.398 239.744 162.337 239.744H144.071C143.121 239.744 142.203 239.554 141.482 239.206C141.387 239.158 141.308 239.111 141.229 239.071L135.988 236.039C135.204 235.588 134.816 234.994 134.816 234.4C134.816 233.806 135.204 233.213 135.988 232.761L139.099 230.964L144.586 227.789C146.154 226.887 146.154 225.422 144.586 224.511L126.17 213.878C124.603 212.976 122.061 212.976 120.486 213.878L117.817 215.414C116.242 216.333 113.7 216.333 112.133 215.414L93.2578 204.52L90.2413 202.778C90.1147 202.707 89.9959 202.62 89.8851 202.541C89.3388 202.129 89.0617 201.638 89.0617 201.139V201.116C89.0696 200.53 89.4654 199.944 90.2413 199.493L92.9095 197.957C94.485 197.054 94.485 195.581 92.9095 194.671L74.5017 184.038C72.9261 183.135 70.3846 183.135 68.817 184.038L60.2188 189.01C58.6511 189.913 56.1097 189.913 54.5341 189.01L49.3008 185.978C48.5407 185.55 48.1211 184.956 48.1211 184.339V173.793C48.1211 173.183 48.5407 172.597 49.3008 172.154L72.5065 158.758C74.0821 157.855 76.6235 157.855 78.1912 158.758L82.5378 161.268C84.1133 162.17 86.6548 162.17 88.2224 161.268L125.355 139.827L125.632 139.669L130.873 136.637C132.029 135.972 132.33 134.99 131.768 134.159C131.586 133.866 131.285 133.589 130.873 133.351L126.527 130.841C125.751 130.382 125.355 129.796 125.355 129.202C125.355 128.609 125.751 128.023 126.527 127.563L149.74 114.159C150.492 113.732 151.514 113.479 152.575 113.479H170.84C171.909 113.479 172.93 113.724 173.682 114.159L178.916 117.192C179.699 117.651 180.095 118.229 180.095 118.823C180.095 119.424 179.699 120.01 178.916 120.47L173.429 123.644L170.325 125.442C168.758 126.344 168.758 127.809 170.325 128.719L175.812 131.886L188.733 139.352C190.309 140.255 192.85 140.255 194.418 139.352L197.102 137.809C198.669 136.906 201.211 136.906 202.786 137.809L224.686 150.453C225.446 150.888 225.826 151.458 225.858 152.036V152.091C225.858 152.685 225.47 153.271 224.686 153.73L222.002 155.274C220.577 156.098 220.45 157.396 221.63 158.307C221.741 158.402 221.867 158.481 222.002 158.56L225.074 160.333L225.85 160.785L240.418 169.193C241.993 170.095 244.535 170.095 246.102 169.193L254.701 164.221C256.268 163.318 258.81 163.318 260.385 164.221L265.618 167.253C266.379 167.689 266.798 168.274 266.798 168.892L266.79 168.876Z" fill="#B6D4F7" stroke="#4490EA" stroke-width="0.950082" stroke-linecap="round" stroke-linejoin="round"/>
<path d="M189.565 224.004V233.655C189.549 234.241 189.153 234.811 188.393 235.255L165.179 248.659C164.427 249.094 163.406 249.34 162.345 249.34H144.08C143.011 249.34 141.989 249.102 141.237 248.659L135.996 245.626C135.212 245.167 134.824 244.581 134.824 243.988V234.368C134.824 234.962 135.212 235.556 135.996 236.007L141.237 239.039C141.316 239.087 141.404 239.134 141.491 239.174C142.211 239.522 143.13 239.712 144.08 239.712H162.345C163.406 239.712 164.435 239.467 165.179 239.031L183.144 228.652L188.393 225.619C189.169 225.168 189.565 224.574 189.565 223.98V224.004Z" fill="#62A2EE" stroke="#4490EA" stroke-width="0.950082" stroke-linecap="round" stroke-linejoin="round"/>
<path d="M189.564 224.013V223.989" stroke="#4490EA" stroke-width="0.950082" stroke-linecap="round" stroke-linejoin="round"/>
<path d="M144.595 227.774L139.108 230.949L126.179 223.482C124.611 222.58 122.07 222.58 120.494 223.482L117.826 225.026C116.251 225.929 113.709 225.929 112.142 225.026L90.2422 212.382C89.4742 211.931 89.0783 211.369 89.0625 210.775V201.132C89.0625 201.623 89.3396 202.121 89.8859 202.533C89.9968 202.612 90.1155 202.699 90.2422 202.771L93.2587 204.513L112.134 215.407C113.701 216.325 116.243 216.325 117.818 215.407L120.486 213.871C122.062 212.968 124.603 212.968 126.171 213.871L144.587 224.504C146.154 225.406 146.154 226.871 144.587 227.782L144.595 227.774Z" fill="#62A2EE" stroke="#4490EA" stroke-width="0.950082" stroke-linecap="round" stroke-linejoin="round"/>
<path d="M89.0625 201.131V201.1" stroke="#4490EA" stroke-width="0.950082" stroke-linecap="round" stroke-linejoin="round"/>
<path d="M130.866 136.636L125.625 139.669L125.348 139.827V129.21C125.348 129.804 125.744 130.39 126.519 130.849L130.866 133.359C131.278 133.596 131.579 133.873 131.761 134.166C132.323 134.998 132.014 135.979 130.866 136.644V136.636Z" fill="#62A2EE" stroke="#4490EA" stroke-width="0.950082" stroke-linecap="round" stroke-linejoin="round"/>
<path d="M125.348 129.202V129.115" stroke="#4490EA" stroke-width="0.950082" stroke-linecap="round" stroke-linejoin="round"/>
<path d="M180.094 118.83V128.45C180.094 129.043 179.698 129.637 178.914 130.089L175.811 131.886L170.324 128.719C168.757 127.816 168.757 126.352 170.324 125.441L173.428 123.644L178.914 120.469C179.698 120.01 180.094 119.424 180.094 118.83Z" fill="#62A2EE" stroke="#4490EA" stroke-width="0.950082" stroke-linecap="round" stroke-linejoin="round"/>
<path d="M180.096 129.115V128.442" stroke="#4490EA" stroke-width="0.950082" stroke-linecap="round" stroke-linejoin="round"/>
<path d="M225.842 152.075V160.769L225.066 160.317C224.947 160.222 224.821 160.135 224.67 160.048L221.614 158.283C220.434 157.38 220.561 156.074 221.986 155.25L224.67 153.706C225.454 153.247 225.842 152.661 225.842 152.067V152.075Z" fill="#62A2EE" stroke="#4490EA" stroke-width="0.950082" stroke-linecap="round" stroke-linejoin="round"/>
<path d="M225.842 152.076V152.028" stroke="#4490EA" stroke-width="0.950082" stroke-linecap="round" stroke-linejoin="round"/>
<path d="M210.981 174.918V182.21C210.981 182.21 206.08 188.75 193.935 188.75C181.79 188.75 176.889 182.21 176.889 182.21V174.918C176.889 174.918 181.797 181.458 193.935 181.458C206.072 181.458 210.981 174.918 210.981 174.918Z" fill="#62A2EE" stroke="#4490EA" stroke-width="0.950082" stroke-miterlimit="10"/>
<path d="M210.981 162.107V174.918C210.981 174.918 206.08 181.457 193.935 181.457C181.79 181.457 176.889 174.918 176.889 174.918V162.107C176.889 162.107 181.797 168.647 193.935 168.647C206.072 168.647 210.981 162.107 210.981 162.107Z" fill="#B6D4F7" stroke="#4490EA" stroke-width="0.950082" stroke-linecap="round" stroke-linejoin="round"/>
<path d="M210.981 104.129V162.108C210.981 162.108 206.08 168.647 193.935 168.647C189.865 168.647 186.619 167.911 184.094 166.937L184.355 166.858V109.053L193.943 66.8936L210.989 104.129H210.981Z" fill="white" stroke="#4490EA" stroke-width="0.950082" stroke-linecap="round" stroke-linejoin="round"/>
<path d="M193.927 66.8936L184.339 109.053V166.858L184.078 166.937C179.05 165.005 176.873 162.108 176.873 162.108V104.129L193.919 66.8936H193.927Z" fill="#E0E8F7" stroke="#4490EA" stroke-width="0.950082" stroke-linecap="round" stroke-linejoin="round"/>
<path d="M176.889 104.129C176.889 104.129 181.79 110.669 193.935 110.669C206.08 110.669 210.981 104.129 210.981 104.129" stroke="#4490EA" stroke-width="0.950082" stroke-miterlimit="10"/>
<path d="M103.938 174.918V182.21C103.938 182.21 108.838 188.75 120.984 188.75C133.121 188.75 138.03 182.21 138.03 182.21V174.918C138.03 174.918 133.121 181.458 120.984 181.458C108.838 181.458 103.938 174.918 103.938 174.918Z" fill="#62A2EE" stroke="#4490EA" stroke-width="0.950082" stroke-miterlimit="10"/>
<path d="M103.938 162.107V174.918C103.938 174.918 108.838 181.457 120.984 181.457C133.121 181.457 138.03 174.918 138.03 174.918V162.107C138.03 162.107 133.121 168.647 120.984 168.647C108.838 168.647 103.938 162.107 103.938 162.107Z" fill="#B6D4F7" stroke="#4490EA" stroke-width="0.950082" stroke-linecap="round" stroke-linejoin="round"/>
<path d="M103.938 104.129V162.108C103.938 162.108 108.838 168.647 120.984 168.647C125.053 168.647 128.299 167.911 130.825 166.937L130.564 166.858V109.053L120.976 66.8936L103.93 104.129H103.938Z" fill="#E0E8F7" stroke="#4490EA" stroke-width="0.950082" stroke-linecap="round" stroke-linejoin="round"/>
<path d="M120.984 66.8936L130.572 109.053V166.858L130.834 166.937C135.861 165.005 138.038 162.108 138.038 162.108V104.129L120.992 66.8936H120.984Z" fill="#E0E8F7" stroke="#4490EA" stroke-width="0.950082" stroke-linecap="round" stroke-linejoin="round"/>
<path d="M138.03 104.129C138.03 104.129 133.129 110.669 120.984 110.669C108.838 110.669 103.938 104.129 103.938 104.129" stroke="#4490EA" stroke-width="0.950082" stroke-miterlimit="10"/>
<path d="M193.927 63.623V176.691C193.927 180.459 192.177 184.244 188.678 187.577C187.189 189.01 185.384 190.348 183.247 191.583C168.995 199.801 145.9 199.801 131.665 191.583C129.535 190.348 127.722 189.01 126.234 187.585C122.726 184.244 120.977 180.467 120.977 176.691V63.623C120.977 68.1439 123.344 72.3796 128.498 76.4017C128.696 76.5679 128.902 76.7263 129.1 76.8767C129.884 77.4626 130.747 77.9852 131.657 78.5077C145.9 86.7338 168.995 86.7338 183.239 78.5077C184.149 77.9852 185.004 77.4389 185.796 76.8767C191.211 73.021 193.919 68.318 193.919 63.623H193.927Z" fill="#62A2EE" stroke="#4490EA" stroke-width="0.950082" stroke-miterlimit="10"/>
<path d="M193.927 -80.9707V20.6168C193.927 24.3854 192.177 28.1699 188.678 31.5031C187.189 32.9362 185.384 34.2742 183.247 35.5093C168.995 43.7275 145.9 43.7275 131.665 35.5093C129.535 34.2742 127.722 32.9361 126.234 31.511C122.726 28.1699 120.977 24.3933 120.977 20.6168V-80.9707C120.977 -76.4499 123.344 -72.2142 128.498 -68.1921C128.696 -68.0259 128.902 -67.8675 129.1 -67.7171C129.884 -67.1312 130.747 -66.6086 131.657 -66.0861C145.9 -57.86 168.995 -57.86 183.239 -66.0861C184.149 -66.6086 185.004 -67.1549 185.796 -67.7171C191.211 -71.5728 193.919 -76.2757 193.919 -80.9707H193.927Z" fill="#E0E8F7" stroke="#4490EA" stroke-width="0.950082" stroke-linecap="round" stroke-linejoin="round"/>
<path d="M193.927 20.6162V65.4759C193.927 69.2445 192.177 73.029 188.678 76.3622C187.189 77.7953 185.384 79.1333 183.247 80.3684C168.995 88.5866 145.9 88.5866 131.665 80.3684C129.535 79.1333 127.722 77.7953 126.234 76.3702C122.726 73.029 120.977 69.2525 120.977 65.4759V20.6162C120.977 25.137 123.344 29.3728 128.498 33.3948C128.696 33.561 128.902 33.7194 129.1 33.8698C129.884 34.4557 130.747 34.9783 131.657 35.5008C145.9 43.7269 168.995 43.7269 183.239 35.5008C184.149 34.9783 185.004 34.432 185.796 33.8698C191.211 30.0141 193.919 25.3112 193.919 20.6162H193.927Z" fill="#B6D4F7" stroke="#4490EA" stroke-width="0.950082" stroke-linecap="round" stroke-linejoin="round"/>
<path d="M193.927 -0.443359C193.927 3.3253 192.177 7.10979 188.678 10.443C187.189 11.876 185.384 13.2141 183.247 14.4492C168.995 22.6674 145.9 22.6674 131.665 14.4492C129.535 13.2141 127.722 11.876 126.234 10.4509C122.726 7.1098 120.977 3.33322 120.977 -0.443359" stroke="#4490EA" stroke-width="0.950082" stroke-linecap="round" stroke-linejoin="round"/>
<path d="M193.927 27.0215C193.927 30.7901 192.177 34.5746 188.678 37.9078C187.189 39.3409 185.384 40.6789 183.247 41.914C168.995 50.1322 145.9 50.1322 131.665 41.914C129.535 40.6789 127.722 39.3409 126.234 37.9158C122.726 34.5746 120.977 30.7981 120.977 27.0215" stroke="#4490EA" stroke-width="0.950082" stroke-linecap="round" stroke-linejoin="round"/>
<path d="M193.927 33.4346C193.927 37.2032 192.177 40.9877 188.678 44.3209C187.189 45.754 185.384 47.092 183.247 48.3271C168.995 56.5453 145.9 56.5453 131.665 48.3271C129.535 47.092 127.722 45.7539 126.234 44.3288C122.726 40.9877 120.977 37.2111 120.977 33.4346" stroke="#4490EA" stroke-width="0.950082" stroke-linecap="round" stroke-linejoin="round"/>
<path d="M193.927 39.8398C193.927 43.6085 192.177 47.393 188.678 50.7262C187.189 52.1592 185.384 53.4973 183.247 54.7324C168.995 62.9506 145.9 62.9506 131.665 54.7324C129.535 53.4973 127.722 52.1592 126.234 50.7341C122.726 47.393 120.977 43.6164 120.977 39.8398" stroke="#4490EA" stroke-width="0.950082" stroke-linecap="round" stroke-linejoin="round"/>
<path d="M193.927 46.2529C193.927 50.0216 192.177 53.8061 188.678 57.1393C187.189 58.5723 185.384 59.9104 183.247 61.1455C168.995 69.3637 145.9 69.3637 131.665 61.1455C129.535 59.9104 127.722 58.5723 126.234 57.1472C122.726 53.806 120.977 50.0295 120.977 46.2529" stroke="#4490EA" stroke-width="0.950082" stroke-linecap="round" stroke-linejoin="round"/>
<path d="M193.927 52.6582C193.927 56.4269 192.177 60.2114 188.678 63.5446C187.189 64.9776 185.384 66.3156 183.247 67.5507C168.995 75.7689 145.9 75.7689 131.665 67.5507C129.535 66.3156 127.722 64.9776 126.234 63.5525C122.726 60.2114 120.977 56.4348 120.977 52.6582" stroke="#4490EA" stroke-width="0.950082" stroke-linecap="round" stroke-linejoin="round"/>
<path d="M193.927 59.0713C193.927 62.8399 192.177 66.6244 188.678 69.9576C187.189 71.3907 185.384 72.7288 183.247 73.9639C168.995 82.1821 145.9 82.1821 131.665 73.9639C129.535 72.7288 127.722 71.3907 126.234 69.9656C122.726 66.6244 120.977 62.8479 120.977 59.0713" stroke="#4490EA" stroke-width="0.950082" stroke-linecap="round" stroke-linejoin="round"/>
<path d="M161.441 -16.2549H153.468C152.594 -16.2549 151.885 -15.5459 151.885 -14.6714V0.11026C151.885 0.984785 152.594 1.69373 153.468 1.69373H161.441C162.315 1.69373 163.024 0.984785 163.024 0.11026V-14.6714C163.024 -15.5459 162.315 -16.2549 161.441 -16.2549Z" fill="#B6D4F7" stroke="#4490EA" stroke-width="0.950082" stroke-linecap="round" stroke-linejoin="round"/>
<path d="M129.906 23.0001C129.906 24.3539 129.083 24.9715 128.069 24.3856C127.056 23.7997 126.232 22.2321 126.232 20.8782C126.232 19.5243 127.056 18.9068 128.069 19.4927C129.083 20.0786 129.906 21.6462 129.906 23.0001Z" fill="#4490EA"/>
<path d="M185.004 23.0001C185.004 24.3539 185.827 24.9715 186.841 24.3856C187.854 23.7997 188.678 22.2321 188.678 20.8782C188.678 19.5243 187.854 18.9068 186.841 19.4927C185.827 20.0786 185.004 21.6462 185.004 23.0001Z" fill="#4490EA"/>
<path d="M157.459 34.6303C158.832 34.6303 159.945 33.5173 159.945 32.1443C159.945 30.7713 158.832 29.6582 157.459 29.6582C156.086 29.6582 154.973 30.7713 154.973 32.1443C154.973 33.5173 156.086 34.6303 157.459 34.6303Z" fill="#4490EA"/>
<path d="M196.467 190.293V197.585C196.467 197.585 191.566 204.125 179.421 204.125C167.276 204.125 162.375 197.585 162.375 197.585V190.293C162.375 190.293 167.284 196.833 179.421 196.833C191.558 196.833 196.467 190.293 196.467 190.293Z" fill="#62A2EE" stroke="#4490EA" stroke-width="0.950082" stroke-miterlimit="10"/>
<path d="M196.467 177.482V190.293C196.467 190.293 191.566 196.832 179.421 196.832C167.276 196.832 162.375 190.293 162.375 190.293V177.482C162.375 177.482 167.284 184.022 179.421 184.022C191.558 184.022 196.467 177.482 196.467 177.482Z" fill="#B6D4F7" stroke="#4490EA" stroke-width="0.950082" stroke-linecap="round" stroke-linejoin="round"/>
<path d="M196.467 119.504V177.483C196.467 177.483 191.567 184.022 179.421 184.022C175.352 184.022 172.106 183.286 169.58 182.312L169.841 182.233V124.428L179.429 82.2686L196.475 119.504H196.467Z" fill="white" stroke="#4490EA" stroke-width="0.950082" stroke-linecap="round" stroke-linejoin="round"/>
<path d="M179.421 82.2686L169.833 124.428V182.233L169.572 182.312C164.544 180.38 162.367 177.483 162.367 177.483V119.504L179.413 82.2686H179.421Z" fill="#E0E8F7" stroke="#4490EA" stroke-width="0.950082" stroke-linecap="round" stroke-linejoin="round"/>
<path d="M162.375 119.504C162.375 119.504 167.276 126.044 179.421 126.044C191.566 126.044 196.467 119.504 196.467 119.504" stroke="#4490EA" stroke-width="0.950082" stroke-miterlimit="10"/>
<path d="M152.541 190.293V197.585C152.541 197.585 147.641 204.125 135.495 204.125C123.358 204.125 118.449 197.585 118.449 197.585V190.293C118.449 190.293 123.358 196.833 135.495 196.833C147.633 196.833 152.541 190.293 152.541 190.293Z" fill="#62A2EE" stroke="#4490EA" stroke-width="0.950082" stroke-miterlimit="10"/>
<path d="M152.541 177.482V190.293C152.541 190.293 147.641 196.832 135.495 196.832C123.35 196.832 118.449 190.293 118.449 190.293V177.482C118.449 177.482 123.358 184.022 135.495 184.022C147.633 184.022 152.541 177.482 152.541 177.482Z" fill="#B6D4F7" stroke="#4490EA" stroke-width="0.950082" stroke-linecap="round" stroke-linejoin="round"/>
<path d="M152.542 119.504V177.483C152.542 177.483 147.641 184.022 135.496 184.022C131.426 184.022 128.18 183.286 125.654 182.312L125.916 182.233V124.428L135.503 82.2686L152.55 119.504H152.542Z" fill="white" stroke="#4490EA" stroke-width="0.950082" stroke-linecap="round" stroke-linejoin="round"/>
<path d="M135.495 82.2686L125.908 124.428V182.233L125.646 182.312C120.619 180.38 118.441 177.483 118.441 177.483V119.504L135.487 82.2686H135.495Z" fill="#E0E8F7" stroke="#4490EA" stroke-width="0.950082" stroke-linecap="round" stroke-linejoin="round"/>
<path d="M118.449 119.504C118.449 119.504 123.35 126.044 135.495 126.044C147.641 126.044 152.541 119.504 152.541 119.504" stroke="#4490EA" stroke-width="0.950082" stroke-miterlimit="10"/>
</svg>
