<svg width="246" height="240" viewBox="0 0 246 240" fill="none" xmlns="http://www.w3.org/2000/svg">
<path d="M245.132 241.251C245.132 243.765 243.885 246.279 241.39 247.725L219.712 260.246L134.331 309.537C127.395 313.544 118.843 313.544 111.906 309.537L26.5161 260.246L4.83787 247.725C2.34307 246.279 1.0957 243.765 1.0957 241.251C1.0957 238.738 2.34307 236.215 4.83787 234.769L111.906 172.956C118.843 168.949 127.395 168.949 134.331 172.956L241.39 234.778C243.885 236.224 245.132 238.738 245.132 241.251Z" fill="#FBEAE9"/>
<path d="M245.132 180.771C245.132 183.285 243.885 185.798 241.39 187.244L219.712 199.765L134.331 249.057C127.395 253.063 118.843 253.063 111.906 249.057L26.5161 199.765L4.83787 187.244C2.34307 185.798 1.0957 183.285 1.0957 180.771C1.0957 178.257 2.34307 175.734 4.83787 174.288L111.906 112.476C118.843 108.469 127.395 108.469 134.331 112.476L241.39 174.298C243.885 175.744 245.132 178.257 245.132 180.771Z" fill="white" stroke="#EB9B98" stroke-width="0.777" stroke-linecap="round" stroke-linejoin="round"/>
<path d="M245.132 180.771V218.751C245.132 221.265 243.885 223.778 241.39 225.224L134.331 287.037C127.395 291.044 118.843 291.044 111.906 287.037L4.83787 225.224C2.34307 223.778 1.0957 221.265 1.0957 218.751V180.771C1.0957 183.285 2.34307 185.799 4.83787 187.245L26.5161 199.766L111.906 249.057C118.843 253.064 127.395 253.064 134.331 249.057L219.712 199.766L241.39 187.245C243.885 185.799 245.132 183.285 245.132 180.771Z" fill="#FBEAE9" stroke="#EB9B98" stroke-width="0.777" stroke-linecap="round" stroke-linejoin="round"/>
<path d="M222.85 179.288C222.85 179.996 222.718 180.705 222.453 181.395C221.782 183.162 220.261 184.835 217.889 186.205C211.274 190.023 200.539 190.023 193.914 186.205C191.542 184.835 190.011 183.153 189.35 181.395C189.085 180.705 188.953 179.996 188.953 179.288C188.953 176.783 190.607 174.279 193.914 172.37C200.529 168.552 211.264 168.552 217.889 172.37C221.196 174.279 222.85 176.783 222.85 179.288Z" fill="#FBEAE9" stroke="#EB9B98" stroke-width="0.777" stroke-miterlimit="10" stroke-linecap="round"/>
<path d="M215.309 154.906C215.309 149.709 211.094 145.494 205.897 145.494C200.699 145.494 196.484 149.709 196.484 154.906V179.297C196.484 179.561 196.56 179.826 196.702 180.091C197.07 180.752 197.921 181.385 199.244 181.896C202.92 183.332 208.883 183.332 212.559 181.896C213.882 181.376 214.723 180.752 215.101 180.091C215.252 179.826 215.318 179.561 215.318 179.297V154.906H215.309Z" fill="white" stroke="#EB9B98" stroke-width="0.777" stroke-linecap="round" stroke-linejoin="round"/>
<path d="M205.896 155.001V182.973" stroke="#EB9B98" stroke-width="0.777" stroke-linecap="round" stroke-linejoin="round"/>
<path d="M57.2859 179.288C57.2859 179.996 57.1537 180.705 56.8891 181.395C56.2182 183.162 54.6966 184.835 52.3247 186.205C45.7097 190.023 34.9744 190.023 28.3499 186.205C25.978 184.835 24.4472 183.153 23.7857 181.395C23.5211 180.705 23.3887 179.996 23.3887 179.288C23.3887 176.783 25.0424 174.279 28.3499 172.37C34.9649 168.552 45.7002 168.552 52.3247 172.37C55.6322 174.279 57.2859 176.783 57.2859 179.288Z" fill="#FBEAE9" stroke="#EB9B98" stroke-width="0.777" stroke-miterlimit="10" stroke-linecap="round"/>
<path d="M49.7542 154.906C49.7542 149.709 45.5396 145.494 40.3421 145.494C35.1446 145.494 30.9297 149.709 30.9297 154.906V179.297C30.9297 179.561 31.0055 179.826 31.1472 180.091C31.5158 180.752 32.3662 181.385 33.6892 181.896C37.3653 183.332 43.3281 183.332 47.0041 181.896C48.3271 181.376 49.1684 180.752 49.5464 180.091C49.6976 179.826 49.7637 179.561 49.7637 179.297V154.906H49.7542Z" fill="white" stroke="#EB9B98" stroke-width="0.777" stroke-linecap="round" stroke-linejoin="round"/>
<path d="M40.332 155.001V182.973" stroke="#EB9B98" stroke-width="0.777" stroke-linecap="round" stroke-linejoin="round"/>
<path d="M174.039 164.764C174.039 166.89 173.642 169.016 172.849 171.105C170.826 176.406 166.262 181.443 159.118 185.563C139.235 197.045 106.982 197.045 87.0993 185.563C79.9646 181.443 75.3813 176.406 73.3684 171.105C72.5746 169.026 72.1777 166.89 72.1777 164.764C72.1777 157.241 77.1485 149.719 87.0993 143.974C106.982 132.492 139.235 132.492 159.118 143.974C169.059 149.719 174.039 157.241 174.039 164.764Z" fill="white" stroke="#EB9B98" stroke-width="0.777" stroke-miterlimit="10" stroke-linecap="round"/>
<path d="M174.039 164.764V180.772C174.039 188.294 169.059 195.816 159.118 201.562C139.235 213.044 106.982 213.044 87.0993 201.562C77.1485 195.816 72.1777 188.294 72.1777 180.772V164.764C72.1777 166.89 72.5746 169.016 73.3684 171.105C75.3813 176.406 79.9551 181.443 87.0993 185.563C106.982 197.045 139.235 197.045 159.118 185.563C166.252 181.443 170.826 176.406 172.849 171.105C173.642 169.026 174.039 166.89 174.039 164.764Z" fill="#FBEAE9" stroke="#EB9B98" stroke-width="0.777" stroke-miterlimit="10" stroke-linecap="round"/>
<path d="M159.901 149.294C159.901 150.824 159.617 152.365 159.041 153.867C157.585 157.695 154.278 161.333 149.128 164.31C134.764 172.607 111.479 172.607 97.1147 164.31C91.955 161.333 88.6475 157.695 87.2017 153.867C86.6252 152.365 86.3418 150.824 86.3418 149.294C86.3418 143.86 89.9327 138.426 97.1147 134.278C111.479 125.98 134.764 125.98 149.128 134.278C156.31 138.426 159.901 143.86 159.901 149.294Z" fill="white" stroke="#EB9B98" stroke-width="0.777" stroke-miterlimit="10" stroke-linecap="round"/>
<path d="M159.901 149.294V160.851C159.901 166.285 156.31 171.719 149.128 175.867C134.764 184.164 111.479 184.164 97.1147 175.867C89.9233 171.719 86.3418 166.285 86.3418 160.851V149.294C86.3418 150.825 86.6252 152.365 87.2017 153.868C88.657 157.695 91.9645 161.333 97.1147 164.31C111.479 172.607 134.764 172.607 149.128 164.31C154.287 161.333 157.585 157.695 159.041 153.868C159.617 152.365 159.901 150.825 159.901 149.294Z" fill="#FBEAE9" stroke="#EB9B98" stroke-width="0.777" stroke-miterlimit="10" stroke-linecap="round"/>
<path d="M183.527 56.6079C183.527 71.709 177.98 85.5343 168.823 96.1183L148.505 118.76L140.416 127.776C139.566 128.22 138.687 128.626 137.761 128.976C128.963 132.463 117.263 132.463 108.466 128.976C107.539 128.626 106.66 128.22 105.81 127.776L97.721 118.76L97.3428 118.345L77.4035 96.1183C68.237 85.5343 62.6992 71.709 62.6992 56.6079C62.6992 23.2399 89.7451 -3.81543 123.113 -3.81543C139.792 -3.81543 154.884 2.94128 165.818 13.8655C176.761 24.8086 183.527 39.9097 183.527 56.6079Z" fill="#FBEAE9" stroke="#EB9B98" stroke-width="0.777" stroke-linecap="round" stroke-linejoin="round"/>
<path d="M183.528 56.6076C183.528 71.7087 177.981 85.5341 168.824 96.1181L148.506 118.76L140.417 127.776C139.566 128.22 138.688 128.626 137.761 128.976C128.963 132.463 117.264 132.463 108.466 128.976C107.54 128.626 106.661 128.22 105.811 127.776L97.7219 118.76L97.3438 118.344H113.399C116.716 118.344 119.986 117.853 123.114 116.918C128.689 115.254 133.811 112.164 137.913 107.874C138.3 107.458 138.707 107.042 139.113 106.608C150.047 95.0124 165.318 77.029 170.354 63.3643C177.262 44.6533 169.91 23.3247 165.818 13.8652C176.762 24.8083 183.528 39.9095 183.528 56.6076Z" fill="#EB9B98" stroke="#EB9B98" stroke-width="0.777" stroke-miterlimit="10" stroke-linecap="round"/>
<path d="M105.233 61.2666C109.703 61.2666 109.703 66.9366 114.173 66.9366C118.643 66.9366 118.643 61.2666 123.113 61.2666C127.582 61.2666 127.582 66.9366 132.052 66.9366C136.522 66.9366 136.522 61.2666 140.992 61.2666H147.617L123.103 85.7799L98.5898 61.2666H105.214H105.233Z" stroke="#EB9B98" stroke-width="0.777" stroke-miterlimit="10"/>
<path d="M123.113 85.7803V124.951" stroke="#EB9B98" stroke-width="0.777" stroke-linecap="round" stroke-linejoin="round"/>
<path d="M98.5605 12.4012C101.896 10.3694 105.431 8.64955 109.154 7.2793" stroke="#EB9B98" stroke-width="0.777" stroke-miterlimit="10" stroke-linecap="round"/>
<path d="M75.1152 38.7286C78.848 30.6394 84.3102 23.5141 91.0386 17.8252" stroke="#EB9B98" stroke-width="0.777" stroke-miterlimit="10" stroke-linecap="round"/>
<path d="M140.662 127.653V131.84C140.662 132.577 140.227 133.248 139.556 133.56C138.97 133.834 138.375 134.089 137.76 134.325C128.962 137.812 117.263 137.812 108.465 134.325C107.851 134.089 107.246 133.834 106.67 133.56C105.999 133.248 105.564 132.577 105.564 131.84V127.663C106.491 128.154 107.445 128.608 108.456 128.986C117.254 132.473 128.953 132.473 137.751 128.986C138.762 128.598 139.726 128.154 140.652 127.653H140.662Z" fill="#EB9B98" stroke="#EB9B98" stroke-width="0.777" stroke-miterlimit="10" stroke-linecap="round"/>
<path d="M140.662 139.872V142.537C140.662 143.274 140.227 143.945 139.556 144.257C138.97 144.531 138.375 144.786 137.76 145.032C128.962 148.519 117.263 148.519 108.465 145.032C107.851 144.796 107.256 144.531 106.67 144.257C105.999 143.945 105.564 143.274 105.564 142.537V139.872C105.564 139.183 106.273 138.729 106.897 139.012C107.407 139.249 107.927 139.466 108.465 139.674C117.263 143.161 128.962 143.161 137.76 139.674C138.29 139.466 138.819 139.239 139.329 139.012C139.953 138.729 140.662 139.183 140.662 139.872Z" fill="#EB9B98" stroke="#EB9B98" stroke-width="0.777" stroke-miterlimit="10" stroke-linecap="round"/>
<path d="M140.662 150.532V153.197C140.662 153.934 140.227 154.605 139.556 154.916C138.97 155.19 138.375 155.446 137.76 155.691C128.962 159.178 117.263 159.178 108.465 155.691C107.851 155.455 107.256 155.19 106.67 154.916C105.999 154.605 105.564 153.934 105.564 153.197V150.532C105.564 149.842 106.273 149.388 106.897 149.672C107.407 149.908 107.927 150.125 108.465 150.333C117.263 153.82 128.962 153.82 137.76 150.333C138.29 150.125 138.819 149.898 139.329 149.672C139.953 149.388 140.662 149.842 140.662 150.532Z" fill="#EB9B98" stroke="#EB9B98" stroke-width="0.777" stroke-miterlimit="10" stroke-linecap="round"/>
<path d="M137.76 145.032V150.371C128.962 153.859 117.263 153.859 108.465 150.371V145.032C117.263 148.519 128.962 148.519 137.76 145.032Z" fill="#FBEAE9" stroke="#EB9B98" stroke-width="0.777" stroke-linecap="round" stroke-linejoin="round"/>
<path d="M137.76 134.335V139.684C128.962 143.171 117.263 143.171 108.465 139.684V134.335C117.263 137.822 128.962 137.822 137.76 134.335Z" fill="#FBEAE9" stroke="#EB9B98" stroke-width="0.777" stroke-linecap="round" stroke-linejoin="round"/>
<path d="M133.792 208.573C133.792 209.017 133.707 209.461 133.546 209.905C133.121 211.021 132.166 212.069 130.673 212.939C126.506 215.349 119.749 215.349 115.581 212.939C114.088 212.079 113.124 211.021 112.709 209.905C112.538 209.471 112.463 209.027 112.463 208.573C112.463 206.995 113.502 205.417 115.591 204.216C119.758 201.807 126.515 201.807 130.683 204.216C132.771 205.417 133.811 206.995 133.811 208.573H133.792Z" fill="#FBEAE9" stroke="#EB9B98" stroke-width="0.777" stroke-linecap="round" stroke-linejoin="round"/>
<path d="M133.793 208.573V225.413C133.793 226.991 132.753 228.569 130.665 229.77C126.497 232.179 119.741 232.179 115.573 229.77C113.485 228.569 112.445 226.991 112.445 225.413V208.573C112.445 209.017 112.53 209.462 112.691 209.906C113.116 211.021 114.071 212.07 115.564 212.939C119.731 215.349 126.488 215.349 130.655 212.939C132.149 212.079 133.113 211.021 133.528 209.906C133.698 209.471 133.774 209.027 133.774 208.573H133.793Z" fill="#EB9B98" stroke="#EB9B98" stroke-width="0.777" stroke-miterlimit="10"/>
<path d="M133.793 232.671V225.413" stroke="#EB9B98" stroke-width="0.777" stroke-linecap="round" stroke-linejoin="round"/>
<path d="M129.162 236.696V230.487" stroke="#EB9B98" stroke-width="0.777" stroke-linecap="round" stroke-linejoin="round"/>
<path d="M117.076 236.696V230.487" stroke="#EB9B98" stroke-width="0.777" stroke-linecap="round" stroke-linejoin="round"/>
<path d="M123.115 237.773V231.574" stroke="#EB9B98" stroke-width="0.777" stroke-linecap="round" stroke-linejoin="round"/>
<path d="M112.445 232.671V225.413" stroke="#EB9B98" stroke-width="0.777" stroke-linecap="round" stroke-linejoin="round"/>
<path d="M146.191 258.611C149.452 256.731 149.452 264.158 152.712 262.278C155.972 260.397 155.972 252.97 159.232 251.089C162.492 249.208 162.493 256.636 165.753 254.756C169.013 252.875 169.013 245.447 172.264 243.567C175.515 241.686 175.524 249.114 178.784 247.233C182.045 245.353 182.045 237.925 185.305 236.045C188.565 234.164 188.565 241.592 191.825 239.711C195.086 237.831 195.086 230.403 198.346 228.513C201.606 226.632 201.606 234.06 204.866 232.18" stroke="#EB9B98" stroke-width="0.777" stroke-miterlimit="10"/>
<path d="M238.064 208.47C238.064 202.044 234.161 199.095 229.341 201.874C224.522 204.652 220.619 212.117 220.619 218.543C220.619 224.969 224.522 227.918 229.341 225.14C234.161 222.361 238.064 214.896 238.064 208.47Z" fill="#FBEAE9" stroke="#EB9B98" stroke-width="0.777" stroke-linecap="round" stroke-linejoin="round"/>
<path d="M229.332 213.507L233.991 207.771" stroke="#EB9B98" stroke-width="0.777" stroke-linecap="round" stroke-linejoin="round"/>
<path d="M19.0983 215.528C19.0983 217.305 18.0115 218.127 16.679 217.352C15.3466 216.577 14.2598 214.508 14.2598 212.731C14.2598 210.954 15.3466 210.132 16.679 210.907C18.0115 211.682 19.0983 213.752 19.0983 215.528Z" fill="#EB9B98"/>
<path d="M29.4928 221.529C29.4928 223.306 28.406 224.128 27.0736 223.353C25.7411 222.578 24.6543 220.509 24.6543 218.732C24.6543 216.955 25.7411 216.133 27.0736 216.908C28.406 217.683 29.4928 219.753 29.4928 221.529Z" fill="#EB9B98"/>
<path d="M39.8969 227.539C39.8969 229.316 38.8103 230.138 37.4778 229.363C36.1454 228.588 35.0586 226.518 35.0586 224.742C35.0586 222.965 36.1454 222.143 37.4778 222.918C38.8103 223.693 39.8969 225.762 39.8969 227.539Z" fill="#EB9B98"/>
<path d="M57.2852 236.536L66.6122 241.913" stroke="#EB9B98" stroke-width="0.777" stroke-linecap="round" stroke-linejoin="round"/>
</svg>
