<svg width="336" height="227" viewBox="0 0 336 227" fill="none" xmlns="http://www.w3.org/2000/svg">
<path d="M489.094 222.176C489.094 223.305 488.415 224.38 487.022 225.191L481.42 228.414L359.903 298.579L318.879 322.26C318.758 322.326 318.649 322.391 318.528 322.435C318.528 322.435 318.506 322.435 318.495 322.446C317.815 322.786 317.059 323.038 316.237 323.203C316.028 323.247 315.82 323.279 315.612 323.312C315.403 323.345 315.184 323.367 314.965 323.389C314.537 323.433 314.088 323.455 313.649 323.455C313.2 323.455 312.75 323.433 312.301 323.389C312.092 323.378 311.884 323.345 311.676 323.323C311.588 323.312 311.511 323.301 311.435 323.279C311.095 323.235 310.755 323.181 310.426 323.104C310.36 323.093 310.305 323.082 310.24 323.06C310.075 323.016 309.911 322.983 309.746 322.94C309.681 322.929 309.626 322.907 309.571 322.885C309.373 322.841 309.187 322.786 309.001 322.709C308.792 322.643 308.573 322.567 308.376 322.49C307.839 322.282 307.312 322.03 306.83 321.755L9.03487 149.818L4.29866 147.089C4.17807 147.012 4.06835 146.946 3.93679 146.869C3.79427 146.782 3.66285 146.694 3.53129 146.595C3.13661 146.31 2.79682 146.003 2.51178 145.707C2.34733 145.554 2.2266 145.389 2.09504 145.214C1.59073 144.534 1.34961 143.843 1.34961 143.153C1.34961 142.024 2.04019 140.949 3.43252 140.138L44.4463 116.457L171.554 43.0693C174.646 41.2823 180.04 41.5125 183.603 43.5626L486.124 218.229C488.075 219.359 489.073 220.806 489.073 222.165L489.094 222.176Z" fill="#F0E6E6"/>
<path d="M489.094 181.886C489.094 183.015 488.415 184.09 487.022 184.901L481.42 188.124L359.903 258.289L318.879 281.97C318.758 282.035 318.649 282.101 318.528 282.145C318.528 282.145 318.506 282.145 318.495 282.156C317.815 282.496 317.059 282.748 316.237 282.913C316.028 282.957 315.82 282.989 315.612 283.022C315.403 283.055 315.184 283.077 314.965 283.099C314.537 283.143 314.088 283.165 313.649 283.165C313.2 283.165 312.75 283.143 312.301 283.099C312.092 283.088 311.884 283.055 311.676 283.033C311.588 283.022 311.511 283.011 311.435 282.989C311.095 282.945 310.755 282.891 310.426 282.814C310.36 282.803 310.305 282.792 310.24 282.77C310.075 282.726 309.911 282.693 309.746 282.65C309.681 282.639 309.626 282.617 309.571 282.595C309.373 282.551 309.187 282.496 309.001 282.419C308.792 282.353 308.573 282.277 308.376 282.2C307.839 281.992 307.312 281.74 306.83 281.465L9.03487 109.528L4.29866 106.799C4.17807 106.722 4.06835 106.656 3.93679 106.579C3.79427 106.492 3.66285 106.404 3.53129 106.305C3.13661 106.02 2.79682 105.713 2.51178 105.417C2.34733 105.264 2.2266 105.099 2.09504 104.924C1.59073 104.244 1.34961 103.553 1.34961 102.863C1.34961 101.733 2.04019 100.659 3.43252 99.8478L44.4463 76.1673L171.554 2.77927C174.646 0.992256 180.04 1.22243 183.603 3.27256L486.124 177.939C488.075 179.069 489.073 180.516 489.073 181.875L489.094 181.886Z" fill="white" stroke="#CDC4C4" stroke-width="1.31559" stroke-linecap="round" stroke-linejoin="round"/>
<path d="M359.903 258.278L318.889 281.958C318.758 282.035 318.626 282.101 318.505 282.156C315.82 283.515 311.675 283.482 308.386 282.211C307.849 281.991 307.334 281.75 306.851 281.465L9.05635 109.539L4.32015 106.809C4.19955 106.733 4.07888 106.667 3.96925 106.59C3.39916 106.239 2.91698 105.834 2.53326 105.428C2.37978 105.263 2.24808 105.11 2.11652 104.935C1.62317 104.255 1.37109 103.553 1.37109 102.862C1.37109 101.733 2.06167 100.659 3.45401 99.8475L44.4678 76.167L55.6502 82.6242L359.903 258.278Z" fill="#FBF1F1" stroke="#CDC4C4" stroke-width="1.31559" stroke-linecap="round" stroke-linejoin="round"/>
<path d="M28.1984 100.221C29.5578 100.999 29.7004 102.183 28.5273 102.863C27.3543 103.543 25.3039 103.455 23.9445 102.677C22.5851 101.898 22.4427 100.714 23.6158 100.035C24.7889 99.3549 26.8389 99.4425 28.1984 100.221Z" fill="#CDC4C4"/>
<path d="M35.9271 95.6713C37.2865 96.4497 37.4291 97.6336 36.256 98.3133C35.0829 98.993 33.0326 98.9054 31.6732 98.127C30.3137 97.3486 30.1711 96.1644 31.3442 95.4847C32.5173 94.805 34.5676 94.8929 35.9271 95.6713Z" fill="#CDC4C4"/>
<path d="M43.8978 90.9787C45.2572 91.7571 45.3995 92.9411 44.2264 93.6208C43.0534 94.3005 41.0033 94.2129 39.6439 93.4345C38.2844 92.6561 38.1419 91.4722 39.3149 90.7924C40.488 90.1127 42.5383 90.2003 43.8978 90.9787Z" fill="#CDC4C4"/>
<path d="M359.903 258.278V272.585L318.879 296.265C318.758 296.342 318.616 296.408 318.495 296.463C315.809 297.811 311.665 297.778 308.376 296.507C307.839 296.298 307.312 296.046 306.83 295.772L4.30964 121.105C2.34721 119.976 1.34961 118.529 1.34961 117.169V102.862C1.34961 103.553 1.59073 104.255 2.09504 104.924C2.21563 105.099 2.34733 105.263 2.51178 105.417C2.79682 105.724 3.13661 106.02 3.53129 106.305C3.66285 106.404 3.79427 106.491 3.93679 106.579C4.05739 106.656 4.17807 106.721 4.29866 106.798L9.03487 109.528L306.83 281.465C307.312 281.739 307.839 281.991 308.376 282.199C308.584 282.276 308.792 282.353 309.001 282.419C309.187 282.484 309.373 282.539 309.571 282.594C309.626 282.616 309.681 282.638 309.746 282.649C309.911 282.693 310.075 282.737 310.24 282.77C310.305 282.781 310.36 282.792 310.426 282.814C310.755 282.89 311.095 282.956 311.435 282.989C311.511 283 311.588 283.011 311.676 283.033C311.884 283.055 312.081 283.077 312.301 283.099C312.75 283.142 313.2 283.164 313.649 283.164C314.099 283.164 314.537 283.142 314.965 283.099C315.184 283.077 315.392 283.055 315.612 283.022C315.82 282.989 316.028 282.956 316.237 282.912C317.048 282.748 317.826 282.495 318.495 282.156C318.495 282.156 318.517 282.156 318.528 282.145C318.649 282.101 318.758 282.035 318.879 281.969L359.903 258.289V258.278Z" fill="#F0E6E6" stroke="#CDC4C4" stroke-width="1.31559" stroke-linecap="round" stroke-linejoin="round"/>
<path d="M63.2598 121.457L76.3059 113.925" stroke="#CDC4C4" stroke-width="1.31559" stroke-miterlimit="10" stroke-linecap="round"/>
<path d="M78.3008 81.3972L96.8069 70.708" stroke="#CDC4C4" stroke-width="1.31559" stroke-miterlimit="10" stroke-linecap="round"/>
<path d="M122.209 71.124L142.776 59.251" stroke="#CDC4C4" stroke-width="1.31559" stroke-miterlimit="10" stroke-linecap="round"/>
<path d="M135.102 78.7649L146.218 72.3516" stroke="#CDC4C4" stroke-width="1.31559" stroke-miterlimit="10" stroke-linecap="round"/>
<path d="M161.381 93.763L177.332 84.5537" stroke="#CDC4C4" stroke-width="1.31559" stroke-miterlimit="10" stroke-linecap="round"/>
<path d="M187.518 108.838L215.539 92.6562" stroke="#CDC4C4" stroke-width="1.31559" stroke-miterlimit="10" stroke-linecap="round"/>
<path d="M200.322 116.227L210.068 110.592" stroke="#CDC4C4" stroke-width="1.31559" stroke-miterlimit="10" stroke-linecap="round"/>
<path d="M239.768 138.998L255.686 129.811" stroke="#CDC4C4" stroke-width="1.31559" stroke-miterlimit="10" stroke-linecap="round"/>
<path d="M278.699 161.768L289.98 155.256" stroke="#CDC4C4" stroke-width="1.31559" stroke-miterlimit="10" stroke-linecap="round"/>
<path d="M331.289 191.797L363.203 173.367" stroke="#CDC4C4" stroke-width="1.31559" stroke-miterlimit="10" stroke-linecap="round"/>
<path d="M326.389 224.731L338.898 217.506" stroke="#CDC4C4" stroke-width="1.31559" stroke-miterlimit="10" stroke-linecap="round"/>
<path d="M287.283 202.059L334.59 174.749" stroke="#CDC4C4" stroke-width="1.31559" stroke-miterlimit="10" stroke-linecap="round"/>
<path d="M296.152 151.693L344.511 123.77" stroke="#CDC4C4" stroke-width="1.31559" stroke-miterlimit="10" stroke-linecap="round"/>
<path d="M265.85 154.106L297.807 135.654" stroke="#CDC4C4" stroke-width="1.31559" stroke-miterlimit="10" stroke-linecap="round"/>
<path d="M303.826 132.179L342.088 110.088" stroke="#CDC4C4" stroke-width="1.31559" stroke-miterlimit="10" stroke-linecap="round"/>
<path d="M221.975 164.345L234.319 157.229" stroke="#CDC4C4" stroke-width="1.31559" stroke-miterlimit="10" stroke-linecap="round"/>
<path d="M240.383 153.721L308.465 114.418" stroke="#CDC4C4" stroke-width="1.31559" stroke-miterlimit="10" stroke-linecap="round"/>
<path d="M261.859 126.247L305.581 100.999" stroke="#CDC4C4" stroke-width="1.31559" stroke-miterlimit="10" stroke-linecap="round"/>
<path d="M226.645 131.488L258.635 113.015" stroke="#CDC4C4" stroke-width="1.31559" stroke-miterlimit="10" stroke-linecap="round"/>
<path d="M265.346 109.178L302.873 87.5254" stroke="#CDC4C4" stroke-width="1.31559" stroke-miterlimit="10" stroke-linecap="round"/>
<path d="M236.293 110.843L269.15 91.8662" stroke="#CDC4C4" stroke-width="1.31559" stroke-miterlimit="10" stroke-linecap="round"/>
<path d="M182.791 141.728L230.097 114.418" stroke="#CDC4C4" stroke-width="1.31559" stroke-miterlimit="10" stroke-linecap="round"/>
<path d="M256.377 83.8528L266.134 78.2285" stroke="#CDC4C4" stroke-width="1.31559" stroke-miterlimit="10" stroke-linecap="round"/>
<path d="M215.736 107.325L250.347 87.3389" stroke="#CDC4C4" stroke-width="1.31559" stroke-miterlimit="10" stroke-linecap="round"/>
<path d="M221.668 89.1144L263.613 64.8965" stroke="#CDC4C4" stroke-width="1.31559" stroke-miterlimit="10" stroke-linecap="round"/>
<path d="M174.492 101.273L222.753 73.415" stroke="#CDC4C4" stroke-width="1.31559" stroke-miterlimit="10" stroke-linecap="round"/>
<path d="M228.957 69.8306L250.555 57.3545" stroke="#CDC4C4" stroke-width="1.31559" stroke-miterlimit="10" stroke-linecap="round"/>
<path d="M183.35 81.0786L227.345 55.6768" stroke="#CDC4C4" stroke-width="1.31559" stroke-miterlimit="10" stroke-linecap="round"/>
<path d="M148.246 86.2639L180.303 67.7471" stroke="#CDC4C4" stroke-width="1.31559" stroke-miterlimit="10" stroke-linecap="round"/>
<path d="M186.389 64.2395L224.431 42.2803" stroke="#CDC4C4" stroke-width="1.31559" stroke-miterlimit="10" stroke-linecap="round"/>
<path d="M152.203 68.8986L201.099 40.6572" stroke="#CDC4C4" stroke-width="1.31559" stroke-miterlimit="10" stroke-linecap="round"/>
<path d="M149.014 55.655L177.683 39.1113" stroke="#CDC4C4" stroke-width="1.31559" stroke-miterlimit="10" stroke-linecap="round"/>
<path d="M103.066 67.1006L154.309 37.5107" stroke="#CDC4C4" stroke-width="1.31559" stroke-miterlimit="10" stroke-linecap="round"/>
<path d="M75.0996 128.298L88.1458 120.755" stroke="#CDC4C4" stroke-width="1.31559" stroke-miterlimit="10" stroke-linecap="round"/>
<path d="M86.9395 135.128L99.9856 127.596" stroke="#CDC4C4" stroke-width="1.31559" stroke-miterlimit="10" stroke-linecap="round"/>
<path d="M98.7676 141.958L111.825 134.426" stroke="#CDC4C4" stroke-width="1.31559" stroke-miterlimit="10" stroke-linecap="round"/>
<path d="M134.289 162.47L147.335 154.938" stroke="#CDC4C4" stroke-width="1.31559" stroke-miterlimit="10" stroke-linecap="round"/>
<path d="M146.131 169.3L159.177 161.769" stroke="#CDC4C4" stroke-width="1.31559" stroke-miterlimit="10" stroke-linecap="round"/>
<path d="M157.971 176.141L171.017 168.609" stroke="#CDC4C4" stroke-width="1.31559" stroke-miterlimit="10" stroke-linecap="round"/>
<path d="M169.811 182.971L182.857 175.439" stroke="#CDC4C4" stroke-width="1.31559" stroke-miterlimit="10" stroke-linecap="round"/>
<path d="M181.641 189.812L194.698 182.27" stroke="#CDC4C4" stroke-width="1.31559" stroke-miterlimit="10" stroke-linecap="round"/>
<path d="M193.48 196.642L206.527 189.11" stroke="#CDC4C4" stroke-width="1.31559" stroke-miterlimit="10" stroke-linecap="round"/>
<path d="M205.32 203.472L218.366 195.94" stroke="#CDC4C4" stroke-width="1.31559" stroke-miterlimit="10" stroke-linecap="round"/>
<path d="M240.842 223.985L253.888 216.453" stroke="#CDC4C4" stroke-width="1.31559" stroke-miterlimit="10" stroke-linecap="round"/>
<path d="M252.672 230.815L265.729 223.283" stroke="#CDC4C4" stroke-width="1.31559" stroke-miterlimit="10" stroke-linecap="round"/>
</svg>
