<svg width="342" height="225" viewBox="0 0 342 225" fill="none" xmlns="http://www.w3.org/2000/svg">
<path d="M347.603 256.566C347.603 258.853 346.464 261.14 344.203 262.449L335.686 267.37L267.423 306.785C262.17 309.828 255.685 309.828 250.423 306.793L12.5081 169.441L3.99961 164.528C1.73011 163.219 0.599609 160.924 0.599609 158.638C0.599609 156.351 1.73011 154.057 3.99961 152.748L89.2801 103.516L344.203 250.676C346.464 251.985 347.603 254.271 347.603 256.566Z" fill="#91D6A8"/>
<path d="M347.603 214.066C347.603 216.353 346.464 218.64 344.203 219.949L335.686 224.87L267.423 264.285C262.17 267.328 255.685 267.328 250.423 264.293L12.5081 126.941L3.99961 122.028C1.73011 120.719 0.599609 118.424 0.599609 116.138C0.599609 113.851 1.73011 111.557 3.99961 110.248L89.2801 61.0156L344.203 208.176C346.464 209.485 347.603 211.771 347.603 214.066Z" fill="white" stroke="#5FC381" stroke-width="0.914674" stroke-linecap="round" stroke-linejoin="round"/>
<path d="M318.143 195.367L305.631 202.592L266.285 225.313C262.222 227.659 255.626 227.659 251.563 225.313L42.5733 104.664L30.0612 97.4387C28.0212 96.2657 27.0098 94.7272 27.0098 93.1887C27.0098 91.6502 28.0212 90.1117 30.0612 88.9387L81.9197 59.0017C85.9827 56.6557 92.5703 56.6557 96.6418 59.0017L318.143 186.867C319.852 187.853 320.838 189.103 321.101 190.378C321.492 192.154 320.498 194.007 318.143 195.367Z" fill="white" stroke="#5FC381" stroke-width="0.914674" stroke-linecap="round" stroke-linejoin="round"/>
<path d="M321.195 190.378V213.905H321.178C321.263 215.495 320.243 217.101 318.143 218.317L266.285 248.254C262.222 250.608 255.626 250.608 251.563 248.254L30.0612 120.388C28.0212 119.215 27.0098 117.677 27.0098 116.138V93.1885C27.0098 94.727 28.0212 96.2655 30.0612 97.4385L42.5733 104.663L251.563 225.312C255.626 227.658 262.222 227.658 266.285 225.312L305.631 202.592L318.143 195.367C320.498 194.007 321.492 192.154 321.101 190.378H321.195Z" fill="#91D6A8" stroke="#5FC381" stroke-width="0.914674" stroke-linecap="round" stroke-linejoin="round"/>
<path d="M50.9626 121.349L41.1621 115.688" stroke="#5FC381" stroke-width="0.914674" stroke-linecap="round" stroke-linejoin="round"/>
<path d="M100.841 150.138L62.2598 127.868" stroke="#5FC381" stroke-width="0.914674" stroke-linecap="round" stroke-linejoin="round"/>
<path d="M132.859 168.626L110.768 155.867" stroke="#5FC381" stroke-width="0.914674" stroke-linecap="round" stroke-linejoin="round"/>
<path d="M222.041 220.382C222.041 222.108 223.257 224.216 224.753 225.083C226.249 225.95 227.464 225.244 227.464 223.519C227.464 221.793 226.249 219.685 224.753 218.818C223.257 217.951 222.041 218.657 222.041 220.382Z" fill="#5FC381"/>
<path d="M207.609 212.052C207.609 213.778 208.825 215.886 210.321 216.753C211.817 217.62 213.032 216.914 213.032 215.189C213.032 213.463 211.817 211.355 210.321 210.488C208.825 209.621 207.609 210.327 207.609 212.052Z" fill="#5FC381"/>
<path d="M193.176 203.713C193.176 205.439 194.391 207.547 195.887 208.414C197.383 209.281 198.599 208.575 198.599 206.85C198.599 205.124 197.383 203.016 195.887 202.149C194.391 201.282 193.176 201.988 193.176 203.713Z" fill="#5FC381"/>
<path d="M347.603 214.067V235.674C347.603 237.961 346.464 240.247 344.203 241.556L267.423 285.901C262.17 288.935 255.685 288.935 250.423 285.901L3.99961 143.636C1.73011 142.327 0.599609 140.032 0.599609 137.746V116.139C0.599609 118.425 1.73011 120.72 3.99961 122.029L12.5081 126.942L250.423 264.294C255.685 267.328 262.17 267.328 267.423 264.285L335.686 224.871L344.203 219.949C346.464 218.64 347.603 216.354 347.603 214.067Z" fill="#91D6A8" stroke="#5FC381" stroke-width="0.914674" stroke-linecap="round" stroke-linejoin="round"/>
<path d="M165.049 226.265L13.9102 139.004" stroke="#5FC381" stroke-width="0.914674" stroke-linecap="round" stroke-linejoin="round"/>
<path d="M196.694 70.8584V90.1704C196.694 91.2244 196.175 92.287 195.121 92.8905L173.013 105.657C171.058 106.779 168.661 106.779 166.723 105.657L144.597 92.8905C143.552 92.287 143.033 91.2244 143.033 90.1704V70.8584C143.033 71.9124 143.552 72.9749 144.597 73.5784L166.714 86.3454C168.661 87.4674 171.058 87.4674 173.004 86.3454L195.113 73.5784C196.167 72.9749 196.685 71.9124 196.685 70.8584H196.694Z" fill="#B5E3C4" stroke="#5FC381" stroke-width="0.914674" stroke-linecap="round" stroke-linejoin="round"/>
<path d="M196.694 90.1709V137.618C196.694 138.663 196.176 139.734 195.113 140.338L173.013 153.105C171.05 154.227 168.67 154.227 166.723 153.105L144.606 140.338C143.561 139.726 143.042 138.663 143.042 137.618H143.025V90.1709C143.025 91.2164 143.544 92.2876 144.589 92.8911L166.715 105.658C168.661 106.78 171.05 106.78 173.005 105.658L195.105 92.8911C196.167 92.2791 196.686 91.2164 196.686 90.1709H196.694Z" fill="#91D6A8" stroke="#5FC381" stroke-width="0.914674" stroke-linecap="round" stroke-linejoin="round"/>
<path d="M196.694 117.32V137.627C196.694 138.672 196.176 139.743 195.113 140.347L173.013 153.114C171.05 154.236 168.67 154.236 166.723 153.114L144.606 140.347C143.561 139.735 143.042 138.672 143.042 137.627H143.025V117.32C143.025 118.366 143.544 119.437 144.589 120.04L166.715 132.807C168.661 133.929 171.05 133.929 173.005 132.807L195.105 120.04C196.167 119.428 196.686 118.366 196.686 117.32H196.694Z" fill="white" stroke="#5FC381" stroke-width="0.914674" stroke-linecap="round" stroke-linejoin="round"/>
<path d="M196.695 70.8587C196.695 71.9127 196.176 72.9752 195.122 73.5787L173.014 86.3457C171.059 87.4677 168.662 87.4677 166.724 86.3457L144.607 73.5787C143.561 72.9752 143.043 71.9127 143.043 70.8587C143.043 69.8047 143.561 68.7338 144.607 68.1303L166.724 55.3718C168.67 54.2498 171.067 54.2498 173.014 55.3718L195.122 68.1303C196.176 68.7338 196.695 69.7962 196.695 70.8587Z" fill="#E7F6EC" stroke="#5FC381" stroke-width="0.914674" stroke-linecap="round" stroke-linejoin="round"/>
<path d="M240.461 17.4785V48.8862C240.461 49.9402 239.943 51.0026 238.889 51.6061L216.78 64.3731C214.825 65.4952 212.428 65.4952 210.49 64.3731L188.365 51.6061C187.319 51.0026 186.801 49.9402 186.801 48.8862V17.4785C186.801 18.5325 187.319 19.5952 188.365 20.1987L210.482 32.9657C212.428 34.0877 214.825 34.0877 216.772 32.9657L238.88 20.1987C239.934 19.5952 240.453 18.5325 240.453 17.4785H240.461Z" fill="#B5E3C4" stroke="#5FC381" stroke-width="0.914674" stroke-linecap="round" stroke-linejoin="round"/>
<path d="M240.462 48.8955V162.897C240.462 163.96 239.926 165.022 238.881 165.634L216.764 178.401C214.817 179.523 212.42 179.523 210.474 178.401L188.357 165.634C187.312 165.022 186.793 163.96 186.793 162.897V48.8955C186.793 49.941 187.312 51.012 188.357 51.6155L210.474 64.3825C212.42 65.5045 214.817 65.5045 216.764 64.3825L238.881 51.6155C239.926 51.0035 240.462 49.941 240.462 48.8955Z" fill="#91D6A8" stroke="#5FC381" stroke-width="0.914674" stroke-linecap="round" stroke-linejoin="round"/>
<path d="M240.462 114.064V162.897C240.462 163.959 239.926 165.022 238.881 165.634L216.764 178.401C214.817 179.523 212.42 179.523 210.474 178.401L188.357 165.634C187.312 165.022 186.793 163.959 186.793 162.897V114.064C186.793 115.11 187.312 116.181 188.357 116.784L210.474 129.551C212.42 130.673 214.817 130.673 216.764 129.551L238.881 116.784C239.926 116.172 240.462 115.11 240.462 114.064Z" fill="white" stroke="#5FC381" stroke-width="0.914674" stroke-linecap="round" stroke-linejoin="round"/>
<path d="M240.463 17.4789C240.463 18.5329 239.944 19.5955 238.89 20.199L216.782 32.966C214.827 34.088 212.43 34.088 210.492 32.966L188.375 20.199C187.329 19.5955 186.811 18.5329 186.811 17.4789C186.811 16.4249 187.329 15.3539 188.375 14.7504L210.492 1.99189C212.438 0.869891 214.835 0.869891 216.782 1.99189L238.89 14.7504C239.944 15.3539 240.463 16.4164 240.463 17.4789Z" fill="#E7F6EC" stroke="#5FC381" stroke-width="0.914674" stroke-linecap="round" stroke-linejoin="round"/>
<path d="M287.092 83.7373V106.084C287.092 107.138 286.574 108.2 285.52 108.804L263.411 121.571C261.456 122.693 259.059 122.693 257.121 121.571L234.996 108.804C233.95 108.2 233.432 107.138 233.432 106.084V83.7373C233.432 84.7913 233.95 85.8538 234.996 86.4573L257.113 99.2243C259.059 100.346 261.456 100.346 263.403 99.2243L285.511 86.4573C286.565 85.8538 287.084 84.7913 287.084 83.7373H287.092Z" fill="#B5E3C4" stroke="#5FC381" stroke-width="0.914674" stroke-linecap="round" stroke-linejoin="round"/>
<path d="M287.084 106.092V189.834C287.084 190.879 286.565 191.95 285.52 192.554L263.403 205.321C261.456 206.443 259.059 206.443 257.113 205.321L234.996 192.554C233.95 191.942 233.432 190.879 233.432 189.834V106.092C233.432 107.137 233.95 108.208 234.996 108.812L257.113 121.579C259.059 122.701 261.456 122.701 263.403 121.579L285.52 108.812C286.565 108.2 287.084 107.137 287.084 106.092Z" fill="#91D6A8" stroke="#5FC381" stroke-width="0.914674" stroke-linecap="round" stroke-linejoin="round"/>
<path d="M287.084 154.372V189.834C287.084 190.88 286.565 191.951 285.52 192.554L263.403 205.321C261.456 206.443 259.059 206.443 257.113 205.321L234.996 192.554C233.95 191.942 233.432 190.88 233.432 189.834V154.372C233.432 155.418 233.95 156.489 234.996 157.092L257.113 169.859C259.059 170.981 261.456 170.981 263.403 169.859L285.52 157.092C286.565 156.48 287.084 155.418 287.084 154.372Z" fill="white" stroke="#5FC381" stroke-width="0.914674" stroke-linecap="round" stroke-linejoin="round"/>
<path d="M287.091 83.7369C287.091 84.7909 286.573 85.8533 285.519 86.4568L263.41 99.2239C261.455 100.346 259.058 100.346 257.12 99.2239L235.003 86.4568C233.958 85.8533 233.439 84.7909 233.439 83.7369C233.439 82.6829 233.958 81.6117 235.003 81.0082L257.12 68.2497C259.067 67.1277 261.464 67.1277 263.41 68.2497L285.519 81.0082C286.573 81.6117 287.091 82.6744 287.091 83.7369Z" fill="#E7F6EC" stroke="#5FC381" stroke-width="0.914674" stroke-linecap="round" stroke-linejoin="round"/>
<path d="M132.859 68.3174C132.859 70.8079 132.136 73.307 130.683 75.6785C129.068 78.3305 126.552 80.8379 123.135 83.0479C122.65 83.3624 122.149 83.6685 121.63 83.966C119.684 85.088 117.584 86.0655 115.365 86.8985L95.416 68.3174L113.64 49.1328C116.496 50.0763 119.191 51.2579 121.63 52.6689C129.119 56.9869 132.859 62.6564 132.859 68.3174Z" fill="#91D6A8" stroke="#5FC381" stroke-width="0.914674" stroke-linecap="round" stroke-linejoin="round"/>
<path d="M115.357 86.8985C100.499 92.466 80.4305 91.4885 67.4 83.966C66.8815 83.6685 66.38 83.3624 65.8955 83.0479C62.4785 80.8379 59.9625 78.3305 58.3475 75.6785C57.1575 73.7405 56.4605 71.7175 56.248 69.6945L95.4075 68.3174L115.357 86.8985Z" fill="#E7F6EC" stroke="#5FC381" stroke-width="0.914674" stroke-linecap="round" stroke-linejoin="round"/>
<path d="M113.64 49.1241L95.4156 68.3087L56.2562 69.6858C56.2052 69.2268 56.1797 68.7677 56.1797 68.3087C56.1797 62.6392 59.9197 56.9783 67.4082 52.6603C79.9372 45.4268 98.9857 44.2451 113.64 49.1241Z" fill="white" stroke="#5FC381" stroke-width="0.914674" stroke-linecap="round" stroke-linejoin="round"/>
<path d="M132.85 68.3174V91.4544C132.85 97.1239 129.11 102.785 121.622 107.103C106.653 115.747 82.3773 115.747 67.4003 107.103C59.9203 102.776 56.1719 97.1154 56.1719 91.4544V68.3174C56.1719 70.8079 56.8943 73.307 58.3478 75.6785C59.9628 78.3305 62.4788 80.8379 65.8958 83.0479C66.3803 83.3624 66.8818 83.6685 67.4003 83.966C82.3688 92.6105 106.645 92.6105 121.622 83.966C122.14 83.6685 122.642 83.3624 123.126 83.0479C126.543 80.8379 129.059 78.3305 130.674 75.6785C132.128 73.2985 132.85 70.8079 132.85 68.3174Z" fill="#B5E3C4" stroke="#5FC381" stroke-width="0.914674" stroke-linecap="round" stroke-linejoin="round"/>
</svg>
