<svg width="709" height="615" viewBox="0 0 709 615" fill="none" xmlns="http://www.w3.org/2000/svg">
<g opacity="0.5" clip-path="url(#clip0_5372_150881)">
<mask id="path-1-inside-1_5372_150881" fill="white">
<path d="M0 -47H88.5903V41.5903H0V-47Z"/>
</mask>
<path d="M88.5903 40.852H0V42.3285H88.5903V40.852Z" fill="white" mask="url(#path-1-inside-1_5372_150881)"/>
<mask id="path-3-inside-2_5372_150881" fill="white">
<path d="M88.5903 -47H177.181V41.5903H88.5903V-47Z"/>
</mask>
<path d="M88.5903 41.5903H87.8521V42.3285H88.5903V41.5903ZM177.181 40.852H88.5903V42.3285H177.181V40.852ZM89.3286 41.5903V-47H87.8521V41.5903H89.3286Z" fill="white" mask="url(#path-3-inside-2_5372_150881)"/>
<mask id="path-5-inside-3_5372_150881" fill="white">
<path d="M177.181 -47H265.771V41.5903H177.181V-47Z"/>
</mask>
<path d="M177.181 41.5903H176.442V42.3285H177.181V41.5903ZM265.771 40.852H177.181V42.3285H265.771V40.852ZM177.919 41.5903V-47H176.442V41.5903H177.919Z" fill="white" mask="url(#path-5-inside-3_5372_150881)"/>
<mask id="path-7-inside-4_5372_150881" fill="white">
<path d="M265.771 -47H354.361V41.5903H265.771V-47Z"/>
</mask>
<path d="M265.771 41.5903H265.033V42.3285H265.771V41.5903ZM354.361 40.852H265.771V42.3285H354.361V40.852ZM266.509 41.5903V-47H265.033V41.5903H266.509Z" fill="white" mask="url(#path-7-inside-4_5372_150881)"/>
<mask id="path-9-inside-5_5372_150881" fill="white">
<path d="M354.361 -47H442.952V41.5903H354.361V-47Z"/>
</mask>
<path d="M354.361 41.5903H353.623V42.3285H354.361V41.5903ZM442.952 40.852H354.361V42.3285H442.952V40.852ZM355.1 41.5903V-47H353.623V41.5903H355.1Z" fill="white" mask="url(#path-9-inside-5_5372_150881)"/>
<mask id="path-11-inside-6_5372_150881" fill="white">
<path d="M442.951 -47H531.541V41.5903H442.951V-47Z"/>
</mask>
<path d="M442.951 -47H531.541V41.5903H442.951V-47Z" fill="white" fill-opacity="0.3"/>
<path d="M442.951 41.5903H442.213V42.3285H442.951V41.5903ZM531.541 40.852H442.951V42.3285H531.541V40.852ZM443.689 41.5903V-47H442.213V41.5903H443.689Z" fill="white" mask="url(#path-11-inside-6_5372_150881)"/>
<mask id="path-13-inside-7_5372_150881" fill="white">
<path d="M531.542 -47H620.132V41.5903H531.542V-47Z"/>
</mask>
<path d="M531.542 41.5903H530.803V42.3285H531.542V41.5903ZM620.132 40.852H531.542V42.3285H620.132V40.852ZM532.28 41.5903V-47H530.803V41.5903H532.28Z" fill="white" mask="url(#path-13-inside-7_5372_150881)"/>
<mask id="path-15-inside-8_5372_150881" fill="white">
<path d="M620.132 -47H708.722V41.5903H620.132V-47Z"/>
</mask>
<path d="M620.132 41.5903H619.394V42.3285H620.132V41.5903ZM708.722 40.852H620.132V42.3285H708.722V40.852ZM620.87 41.5903V-47H619.394V41.5903H620.87Z" fill="white" mask="url(#path-15-inside-8_5372_150881)"/>
<mask id="path-17-inside-9_5372_150881" fill="white">
<path d="M0 41.5903H88.5903V130.181H0V41.5903Z"/>
</mask>
<path d="M88.5903 129.442H0V130.919H88.5903V129.442Z" fill="white" mask="url(#path-17-inside-9_5372_150881)"/>
<mask id="path-19-inside-10_5372_150881" fill="white">
<path d="M88.5903 41.5903H177.181V130.181H88.5903V41.5903Z"/>
</mask>
<path d="M88.5903 130.181H87.8521V130.919H88.5903V130.181ZM177.181 129.442H88.5903V130.919H177.181V129.442ZM89.3286 130.181V41.5903H87.8521V130.181H89.3286Z" fill="white" mask="url(#path-19-inside-10_5372_150881)"/>
<mask id="path-21-inside-11_5372_150881" fill="white">
<path d="M177.181 41.5903H265.771V130.181H177.181V41.5903Z"/>
</mask>
<path d="M177.181 41.5903H265.771V130.181H177.181V41.5903Z" fill="white" fill-opacity="0.3"/>
<path d="M177.181 130.181H176.442V130.919H177.181V130.181ZM265.771 129.442H177.181V130.919H265.771V129.442ZM177.919 130.181V41.5903H176.442V130.181H177.919Z" fill="white" mask="url(#path-21-inside-11_5372_150881)"/>
<mask id="path-23-inside-12_5372_150881" fill="white">
<path d="M265.771 41.5903H354.361V130.181H265.771V41.5903Z"/>
</mask>
<path d="M265.771 130.181H265.033V130.919H265.771V130.181ZM354.361 129.442H265.771V130.919H354.361V129.442ZM266.509 130.181V41.5903H265.033V130.181H266.509Z" fill="white" mask="url(#path-23-inside-12_5372_150881)"/>
<mask id="path-25-inside-13_5372_150881" fill="white">
<path d="M354.361 41.5903H442.952V130.181H354.361V41.5903Z"/>
</mask>
<path d="M354.361 130.181H353.623V130.919H354.361V130.181ZM442.952 129.442H354.361V130.919H442.952V129.442ZM355.1 130.181V41.5903H353.623V130.181H355.1Z" fill="white" mask="url(#path-25-inside-13_5372_150881)"/>
<mask id="path-27-inside-14_5372_150881" fill="white">
<path d="M442.951 41.5903H531.541V130.181H442.951V41.5903Z"/>
</mask>
<path d="M442.951 130.181H442.213V130.919H442.951V130.181ZM531.541 129.442H442.951V130.919H531.541V129.442ZM443.689 130.181V41.5903H442.213V130.181H443.689Z" fill="white" mask="url(#path-27-inside-14_5372_150881)"/>
<mask id="path-29-inside-15_5372_150881" fill="white">
<path d="M531.542 41.5903H620.132V130.181H531.542V41.5903Z"/>
</mask>
<path d="M531.542 130.181H530.803V130.919H531.542V130.181ZM620.132 129.442H531.542V130.919H620.132V129.442ZM532.28 130.181V41.5903H530.803V130.181H532.28Z" fill="white" mask="url(#path-29-inside-15_5372_150881)"/>
<mask id="path-31-inside-16_5372_150881" fill="white">
<path d="M620.132 41.5903H708.722V130.181H620.132V41.5903Z"/>
</mask>
<path d="M620.132 130.181H619.394V130.919H620.132V130.181ZM708.722 129.442H620.132V130.919H708.722V129.442ZM620.87 130.181V41.5903H619.394V130.181H620.87Z" fill="white" mask="url(#path-31-inside-16_5372_150881)"/>
<mask id="path-33-inside-17_5372_150881" fill="white">
<path d="M0 130.181H88.5903V218.771H0V130.181Z"/>
</mask>
<path d="M88.5903 218.033H0V219.509H88.5903V218.033Z" fill="white" mask="url(#path-33-inside-17_5372_150881)"/>
<mask id="path-35-inside-18_5372_150881" fill="white">
<path d="M88.5903 130.181H177.181V218.771H88.5903V130.181Z"/>
</mask>
<path d="M88.5903 218.771H87.8521V219.509H88.5903V218.771ZM177.181 218.033H88.5903V219.509H177.181V218.033ZM89.3286 218.771V130.181H87.8521V218.771H89.3286Z" fill="white" mask="url(#path-35-inside-18_5372_150881)"/>
<mask id="path-37-inside-19_5372_150881" fill="white">
<path d="M177.181 130.181H265.771V218.771H177.181V130.181Z"/>
</mask>
<path d="M177.181 218.771H176.442V219.509H177.181V218.771ZM265.771 218.033H177.181V219.509H265.771V218.033ZM177.919 218.771V130.181H176.442V218.771H177.919Z" fill="white" mask="url(#path-37-inside-19_5372_150881)"/>
<mask id="path-39-inside-20_5372_150881" fill="white">
<path d="M265.771 130.181H354.361V218.771H265.771V130.181Z"/>
</mask>
<path d="M265.771 218.771H265.033V219.509H265.771V218.771ZM354.361 218.033H265.771V219.509H354.361V218.033ZM266.509 218.771V130.181H265.033V218.771H266.509Z" fill="white" mask="url(#path-39-inside-20_5372_150881)"/>
<mask id="path-41-inside-21_5372_150881" fill="white">
<path d="M354.361 130.181H442.952V218.771H354.361V130.181Z"/>
</mask>
<path d="M354.361 218.771H353.623V219.509H354.361V218.771ZM442.952 218.033H354.361V219.509H442.952V218.033ZM355.1 218.771V130.181H353.623V218.771H355.1Z" fill="white" mask="url(#path-41-inside-21_5372_150881)"/>
<mask id="path-43-inside-22_5372_150881" fill="white">
<path d="M442.951 130.181H531.541V218.771H442.951V130.181Z"/>
</mask>
<path d="M442.951 130.181H531.541V218.771H442.951V130.181Z" fill="white" fill-opacity="0.3"/>
<path d="M442.951 218.771H442.213V219.509H442.951V218.771ZM531.541 218.033H442.951V219.509H531.541V218.033ZM443.689 218.771V130.181H442.213V218.771H443.689Z" fill="white" mask="url(#path-43-inside-22_5372_150881)"/>
<mask id="path-45-inside-23_5372_150881" fill="white">
<path d="M531.542 130.181H620.132V218.771H531.542V130.181Z"/>
</mask>
<path d="M531.542 218.771H530.803V219.509H531.542V218.771ZM620.132 218.033H531.542V219.509H620.132V218.033ZM532.28 218.771V130.181H530.803V218.771H532.28Z" fill="white" mask="url(#path-45-inside-23_5372_150881)"/>
<mask id="path-47-inside-24_5372_150881" fill="white">
<path d="M620.132 130.181H708.722V218.771H620.132V130.181Z"/>
</mask>
<path d="M620.132 218.771H619.394V219.509H620.132V218.771ZM708.722 218.033H620.132V219.509H708.722V218.033ZM620.87 218.771V130.181H619.394V218.771H620.87Z" fill="white" mask="url(#path-47-inside-24_5372_150881)"/>
<mask id="path-49-inside-25_5372_150881" fill="white">
<path d="M0 218.771H88.5903V307.361H0V218.771Z"/>
</mask>
<path d="M0 218.771H88.5903V307.361H0V218.771Z" fill="white" fill-opacity="0.3"/>
<path d="M88.5903 306.623H0V308.1H88.5903V306.623Z" fill="white" mask="url(#path-49-inside-25_5372_150881)"/>
<mask id="path-51-inside-26_5372_150881" fill="white">
<path d="M88.5903 218.771H177.181V307.361H88.5903V218.771Z"/>
</mask>
<path d="M88.5903 307.361H87.8521V308.1H88.5903V307.361ZM177.181 306.623H88.5903V308.1H177.181V306.623ZM89.3286 307.361V218.771H87.8521V307.361H89.3286Z" fill="white" mask="url(#path-51-inside-26_5372_150881)"/>
<mask id="path-53-inside-27_5372_150881" fill="white">
<path d="M177.181 218.771H265.771V307.361H177.181V218.771Z"/>
</mask>
<path d="M177.181 307.361H176.442V308.1H177.181V307.361ZM265.771 306.623H177.181V308.1H265.771V306.623ZM177.919 307.361V218.771H176.442V307.361H177.919Z" fill="white" mask="url(#path-53-inside-27_5372_150881)"/>
<mask id="path-55-inside-28_5372_150881" fill="white">
<path d="M265.771 218.771H354.361V307.361H265.771V218.771Z"/>
</mask>
<path d="M265.771 218.771H354.361V307.361H265.771V218.771Z" fill="white" fill-opacity="0.3"/>
<path d="M265.771 307.361H265.033V308.1H265.771V307.361ZM354.361 306.623H265.771V308.1H354.361V306.623ZM266.509 307.361V218.771H265.033V307.361H266.509Z" fill="white" mask="url(#path-55-inside-28_5372_150881)"/>
<mask id="path-57-inside-29_5372_150881" fill="white">
<path d="M354.361 218.771H442.952V307.361H354.361V218.771Z"/>
</mask>
<path d="M354.361 307.361H353.623V308.1H354.361V307.361ZM442.952 306.623H354.361V308.1H442.952V306.623ZM355.1 307.361V218.771H353.623V307.361H355.1Z" fill="white" mask="url(#path-57-inside-29_5372_150881)"/>
<mask id="path-59-inside-30_5372_150881" fill="white">
<path d="M442.951 218.771H531.541V307.361H442.951V218.771Z"/>
</mask>
<path d="M442.951 307.361H442.213V308.1H442.951V307.361ZM531.541 306.623H442.951V308.1H531.541V306.623ZM443.689 307.361V218.771H442.213V307.361H443.689Z" fill="white" mask="url(#path-59-inside-30_5372_150881)"/>
<mask id="path-61-inside-31_5372_150881" fill="white">
<path d="M531.542 218.771H620.132V307.361H531.542V218.771Z"/>
</mask>
<path d="M531.542 307.361H530.803V308.1H531.542V307.361ZM620.132 306.623H531.542V308.1H620.132V306.623ZM532.28 307.361V218.771H530.803V307.361H532.28Z" fill="white" mask="url(#path-61-inside-31_5372_150881)"/>
<mask id="path-63-inside-32_5372_150881" fill="white">
<path d="M620.132 218.771H708.722V307.361H620.132V218.771Z"/>
</mask>
<path d="M620.132 307.361H619.394V308.1H620.132V307.361ZM708.722 306.623H620.132V308.1H708.722V306.623ZM620.87 307.361V218.771H619.394V307.361H620.87Z" fill="white" mask="url(#path-63-inside-32_5372_150881)"/>
<mask id="path-65-inside-33_5372_150881" fill="white">
<path d="M0 307.361H88.5903V395.952H0V307.361Z"/>
</mask>
<path d="M88.5903 395.213H0V396.69H88.5903V395.213Z" fill="white" mask="url(#path-65-inside-33_5372_150881)"/>
<mask id="path-67-inside-34_5372_150881" fill="white">
<path d="M88.5903 307.361H177.181V395.952H88.5903V307.361Z"/>
</mask>
<path d="M88.5903 307.361H177.181V395.952H88.5903V307.361Z" fill="white" fill-opacity="0.3"/>
<path d="M88.5903 395.952H87.8521V396.69H88.5903V395.952ZM177.181 395.213H88.5903V396.69H177.181V395.213ZM89.3286 395.952V307.361H87.8521V395.952H89.3286Z" fill="white" mask="url(#path-67-inside-34_5372_150881)"/>
<mask id="path-69-inside-35_5372_150881" fill="white">
<path d="M177.181 307.361H265.771V395.952H177.181V307.361Z"/>
</mask>
<path d="M177.181 395.952H176.442V396.69H177.181V395.952ZM265.771 395.213H177.181V396.69H265.771V395.213ZM177.919 395.952V307.361H176.442V395.952H177.919Z" fill="white" mask="url(#path-69-inside-35_5372_150881)"/>
<mask id="path-71-inside-36_5372_150881" fill="white">
<path d="M265.771 307.361H354.361V395.952H265.771V307.361Z"/>
</mask>
<path d="M265.771 395.952H265.033V396.69H265.771V395.952ZM354.361 395.213H265.771V396.69H354.361V395.213ZM266.509 395.952V307.361H265.033V395.952H266.509Z" fill="white" mask="url(#path-71-inside-36_5372_150881)"/>
<mask id="path-73-inside-37_5372_150881" fill="white">
<path d="M354.361 307.361H442.952V395.952H354.361V307.361Z"/>
</mask>
<path d="M354.361 395.952H353.623V396.69H354.361V395.952ZM442.952 395.213H354.361V396.69H442.952V395.213ZM355.1 395.952V307.361H353.623V395.952H355.1Z" fill="white" mask="url(#path-73-inside-37_5372_150881)"/>
<mask id="path-75-inside-38_5372_150881" fill="white">
<path d="M442.951 307.361H531.541V395.952H442.951V307.361Z"/>
</mask>
<path d="M442.951 395.952H442.213V396.69H442.951V395.952ZM531.541 395.213H442.951V396.69H531.541V395.213ZM443.689 395.952V307.361H442.213V395.952H443.689Z" fill="white" mask="url(#path-75-inside-38_5372_150881)"/>
<mask id="path-77-inside-39_5372_150881" fill="white">
<path d="M531.542 307.361H620.132V395.952H531.542V307.361Z"/>
</mask>
<path d="M531.542 307.361H620.132V395.952H531.542V307.361Z" fill="white" fill-opacity="0.3"/>
<path d="M531.542 395.952H530.803V396.69H531.542V395.952ZM620.132 395.213H531.542V396.69H620.132V395.213ZM532.28 395.952V307.361H530.803V395.952H532.28Z" fill="white" mask="url(#path-77-inside-39_5372_150881)"/>
<mask id="path-79-inside-40_5372_150881" fill="white">
<path d="M620.132 307.361H708.722V395.952H620.132V307.361Z"/>
</mask>
<path d="M620.132 395.952H619.394V396.69H620.132V395.952ZM708.722 395.213H620.132V396.69H708.722V395.213ZM620.87 395.952V307.361H619.394V395.952H620.87Z" fill="white" mask="url(#path-79-inside-40_5372_150881)"/>
<mask id="path-81-inside-41_5372_150881" fill="white">
<path d="M0 395.951H88.5903V484.541H0V395.951Z"/>
</mask>
<path d="M88.5903 483.803H0V485.28H88.5903V483.803Z" fill="white" mask="url(#path-81-inside-41_5372_150881)"/>
<mask id="path-83-inside-42_5372_150881" fill="white">
<path d="M88.5903 395.951H177.181V484.541H88.5903V395.951Z"/>
</mask>
<path d="M88.5903 484.541H87.8521V485.28H88.5903V484.541ZM177.181 483.803H88.5903V485.28H177.181V483.803ZM89.3286 484.541V395.951H87.8521V484.541H89.3286Z" fill="white" mask="url(#path-83-inside-42_5372_150881)"/>
<mask id="path-85-inside-43_5372_150881" fill="white">
<path d="M177.181 395.951H265.771V484.541H177.181V395.951Z"/>
</mask>
<path d="M177.181 484.541H176.442V485.28H177.181V484.541ZM265.771 483.803H177.181V485.28H265.771V483.803ZM177.919 484.541V395.951H176.442V484.541H177.919Z" fill="white" mask="url(#path-85-inside-43_5372_150881)"/>
<mask id="path-87-inside-44_5372_150881" fill="white">
<path d="M265.771 395.951H354.361V484.541H265.771V395.951Z"/>
</mask>
<path d="M265.771 484.541H265.033V485.28H265.771V484.541ZM354.361 483.803H265.771V485.28H354.361V483.803ZM266.509 484.541V395.951H265.033V484.541H266.509Z" fill="white" mask="url(#path-87-inside-44_5372_150881)"/>
<mask id="path-89-inside-45_5372_150881" fill="white">
<path d="M354.361 395.951H442.952V484.541H354.361V395.951Z"/>
</mask>
<path d="M354.361 395.951H442.952V484.541H354.361V395.951Z" fill="white" fill-opacity="0.3"/>
<path d="M354.361 484.541H353.623V485.28H354.361V484.541ZM442.952 483.803H354.361V485.28H442.952V483.803ZM355.1 484.541V395.951H353.623V484.541H355.1Z" fill="white" mask="url(#path-89-inside-45_5372_150881)"/>
<mask id="path-91-inside-46_5372_150881" fill="white">
<path d="M442.951 395.951H531.541V484.541H442.951V395.951Z"/>
</mask>
<path d="M442.951 484.541H442.213V485.28H442.951V484.541ZM531.541 483.803H442.951V485.28H531.541V483.803ZM443.689 484.541V395.951H442.213V484.541H443.689Z" fill="white" mask="url(#path-91-inside-46_5372_150881)"/>
<mask id="path-93-inside-47_5372_150881" fill="white">
<path d="M531.542 395.951H620.132V484.541H531.542V395.951Z"/>
</mask>
<path d="M531.542 484.541H530.803V485.28H531.542V484.541ZM620.132 483.803H531.542V485.28H620.132V483.803ZM532.28 484.541V395.951H530.803V484.541H532.28Z" fill="white" mask="url(#path-93-inside-47_5372_150881)"/>
<mask id="path-95-inside-48_5372_150881" fill="white">
<path d="M620.132 395.951H708.722V484.541H620.132V395.951Z"/>
</mask>
<path d="M620.132 484.541H619.394V485.28H620.132V484.541ZM708.722 483.803H620.132V485.28H708.722V483.803ZM620.87 484.541V395.951H619.394V484.541H620.87Z" fill="white" mask="url(#path-95-inside-48_5372_150881)"/>
<mask id="path-97-inside-49_5372_150881" fill="white">
<path d="M0 484.542H88.5903V573.132H0V484.542Z"/>
</mask>
<path d="M88.5903 572.394H0V573.87H88.5903V572.394Z" fill="white" mask="url(#path-97-inside-49_5372_150881)"/>
<mask id="path-99-inside-50_5372_150881" fill="white">
<path d="M88.5903 484.542H177.181V573.132H88.5903V484.542Z"/>
</mask>
<path d="M88.5903 573.132H87.8521V573.87H88.5903V573.132ZM177.181 572.394H88.5903V573.87H177.181V572.394ZM89.3286 573.132V484.542H87.8521V573.132H89.3286Z" fill="white" mask="url(#path-99-inside-50_5372_150881)"/>
<mask id="path-101-inside-51_5372_150881" fill="white">
<path d="M177.181 484.542H265.771V573.132H177.181V484.542Z"/>
</mask>
<path d="M177.181 573.132H176.442V573.87H177.181V573.132ZM265.771 572.394H177.181V573.87H265.771V572.394ZM177.919 573.132V484.542H176.442V573.132H177.919Z" fill="white" mask="url(#path-101-inside-51_5372_150881)"/>
<mask id="path-103-inside-52_5372_150881" fill="white">
<path d="M265.771 484.542H354.361V573.132H265.771V484.542Z"/>
</mask>
<path d="M265.771 484.542H354.361V573.132H265.771V484.542Z" fill="white" fill-opacity="0.3"/>
<path d="M265.771 573.132H265.033V573.87H265.771V573.132ZM354.361 572.394H265.771V573.87H354.361V572.394ZM266.509 573.132V484.542H265.033V573.132H266.509Z" fill="white" mask="url(#path-103-inside-52_5372_150881)"/>
<mask id="path-105-inside-53_5372_150881" fill="white">
<path d="M354.361 484.542H442.952V573.132H354.361V484.542Z"/>
</mask>
<path d="M354.361 573.132H353.623V573.87H354.361V573.132ZM442.952 572.394H354.361V573.87H442.952V572.394ZM355.1 573.132V484.542H353.623V573.132H355.1Z" fill="white" mask="url(#path-105-inside-53_5372_150881)"/>
<mask id="path-107-inside-54_5372_150881" fill="white">
<path d="M442.951 484.542H531.541V573.132H442.951V484.542Z"/>
</mask>
<path d="M442.951 573.132H442.213V573.87H442.951V573.132ZM531.541 572.394H442.951V573.87H531.541V572.394ZM443.689 573.132V484.542H442.213V573.132H443.689Z" fill="white" mask="url(#path-107-inside-54_5372_150881)"/>
<mask id="path-109-inside-55_5372_150881" fill="white">
<path d="M531.542 484.542H620.132V573.132H531.542V484.542Z"/>
</mask>
<path d="M531.542 573.132H530.803V573.87H531.542V573.132ZM620.132 572.394H531.542V573.87H620.132V572.394ZM532.28 573.132V484.542H530.803V573.132H532.28Z" fill="white" mask="url(#path-109-inside-55_5372_150881)"/>
<mask id="path-111-inside-56_5372_150881" fill="white">
<path d="M620.132 484.542H708.722V573.132H620.132V484.542Z"/>
</mask>
<path d="M620.132 573.132H619.394V573.87H620.132V573.132ZM708.722 572.394H620.132V573.87H708.722V572.394ZM620.87 573.132V484.542H619.394V573.132H620.87Z" fill="white" mask="url(#path-111-inside-56_5372_150881)"/>
<mask id="path-113-inside-57_5372_150881" fill="white">
<path d="M88.5903 573.132H177.181V661.722H88.5903V573.132Z"/>
</mask>
<path d="M89.3286 661.722V573.132H87.8521V661.722H89.3286Z" fill="white" mask="url(#path-113-inside-57_5372_150881)"/>
<mask id="path-115-inside-58_5372_150881" fill="white">
<path d="M177.181 573.132H265.771V661.722H177.181V573.132Z"/>
</mask>
<path d="M177.919 661.722V573.132H176.442V661.722H177.919Z" fill="white" mask="url(#path-115-inside-58_5372_150881)"/>
<mask id="path-117-inside-59_5372_150881" fill="white">
<path d="M265.771 573.132H354.361V661.722H265.771V573.132Z"/>
</mask>
<path d="M266.509 661.722V573.132H265.033V661.722H266.509Z" fill="white" mask="url(#path-117-inside-59_5372_150881)"/>
<mask id="path-119-inside-60_5372_150881" fill="white">
<path d="M354.361 573.132H442.952V661.722H354.361V573.132Z"/>
</mask>
<path d="M355.1 661.722V573.132H353.623V661.722H355.1Z" fill="white" mask="url(#path-119-inside-60_5372_150881)"/>
<mask id="path-121-inside-61_5372_150881" fill="white">
<path d="M442.951 573.132H531.541V661.722H442.951V573.132Z"/>
</mask>
<path d="M443.689 661.722V573.132H442.213V661.722H443.689Z" fill="white" mask="url(#path-121-inside-61_5372_150881)"/>
<mask id="path-123-inside-62_5372_150881" fill="white">
<path d="M531.542 573.132H620.132V661.722H531.542V573.132Z"/>
</mask>
<path d="M532.28 661.722V573.132H530.803V661.722H532.28Z" fill="white" mask="url(#path-123-inside-62_5372_150881)"/>
<mask id="path-125-inside-63_5372_150881" fill="white">
<path d="M620.132 573.132H708.722V661.722H620.132V573.132Z"/>
</mask>
<path d="M620.87 661.722V573.132H619.394V661.722H620.87Z" fill="white" mask="url(#path-125-inside-63_5372_150881)"/>
<g filter="url(#filter0_f_5372_150881)">
<circle cx="337.362" cy="290.361" r="671.911" fill="url(#paint0_radial_5372_150881)"/>
</g>
</g>
<defs>
<filter id="filter0_f_5372_150881" x="-545.4" y="-592.4" width="1765.52" height="1765.52" filterUnits="userSpaceOnUse" color-interpolation-filters="sRGB">
<feFlood flood-opacity="0" result="BackgroundImageFix"/>
<feBlend mode="normal" in="SourceGraphic" in2="BackgroundImageFix" result="shape"/>
<feGaussianBlur stdDeviation="105.425" result="effect1_foregroundBlur_5372_150881"/>
</filter>
<radialGradient id="paint0_radial_5372_150881" cx="0" cy="0" r="1" gradientUnits="userSpaceOnUse" gradientTransform="translate(337.362 290.361) rotate(90) scale(671.911)">
<stop stop-color="#136AD0" stop-opacity="0"/>
<stop offset="0.46589" stop-color="#136AD0"/>
</radialGradient>
<clipPath id="clip0_5372_150881">
<rect width="708.722" height="708.722" fill="white" transform="translate(0 -47)"/>
</clipPath>
</defs>
</svg>
