<svg width="269" height="230" viewBox="0 0 269 230" fill="none" xmlns="http://www.w3.org/2000/svg">
<path d="M130.076 205.569V265.778C130.076 265.979 130.023 266.179 129.928 266.369C129.685 266.865 129.137 267.329 128.282 267.719C125.898 268.785 122.037 268.785 119.652 267.719C118.798 267.329 118.249 266.865 118.017 266.369C117.922 266.179 117.869 265.979 117.869 265.778V205.569H130.076Z" fill="#FBE2B7" stroke="#F7C164" stroke-width="1.032" stroke-linecap="round" stroke-linejoin="round"/>
<path d="M130.076 165.795H117.869V205.568H130.076V165.795Z" fill="#FBE2B7" stroke="#F7C164" stroke-width="1.032" stroke-miterlimit="10" stroke-linecap="round"/>
<path d="M252.751 162.684V300.836C252.751 303.937 251.791 306.216 250.188 307.493L250.145 307.524C249.766 307.82 249.354 308.062 248.911 308.231C247.002 309.033 244.512 308.738 241.79 307.166L12.0319 174.521C5.97621 171.018 1.07031 162.525 1.07031 155.531V17.3784C1.07031 14.0129 2.20979 11.6181 4.05604 10.4154L4.42514 10.2044C6.38744 9.13884 9.07791 9.33928 12.0319 11.0484L16.2939 13.5065L241.79 143.694C247.846 147.196 252.751 155.689 252.751 162.684Z" fill="white" stroke="#F7C164" stroke-width="1.032" stroke-linecap="round" stroke-linejoin="round"/>
<path d="M252.751 162.684V183.446L16.2939 46.9289L1.07031 38.1408V17.3784C1.07031 14.0129 2.20979 11.6181 4.05604 10.4154L4.42514 10.2044C6.38744 9.13884 9.07791 9.33928 12.0319 11.0484L16.2939 13.5065L241.79 143.694C247.846 147.196 252.751 155.689 252.751 162.684Z" fill="#FEF6E7" stroke="#F7C164" stroke-width="1.032" stroke-linecap="round" stroke-linejoin="round"/>
<path d="M23.1095 34.1523C23.1095 36.7793 21.2631 37.8554 18.9843 36.5366C16.7055 35.2179 14.8594 32.0212 14.8594 29.3943C14.8594 26.7673 16.7055 25.6912 18.9843 27.01C21.2631 28.3287 23.1095 31.5254 23.1095 34.1523Z" fill="#F7C164"/>
<path d="M40.2639 44.0586C40.2639 46.6855 38.4174 47.7616 36.1386 46.4429C33.8598 45.1241 32.0137 41.9275 32.0137 39.3005C32.0137 36.6736 33.8598 35.5975 36.1386 36.9162C38.4174 38.235 40.2639 41.4316 40.2639 44.0586Z" fill="#F7C164"/>
<path d="M57.4181 53.955C57.4181 56.582 55.5717 57.6581 53.2929 56.3393C51.0141 55.0206 49.168 51.824 49.168 49.197C49.168 46.5701 51.0141 45.4939 53.2929 46.8127C55.5717 48.1314 57.4181 51.3281 57.4181 53.955Z" fill="#F7C164"/>
<path d="M56.2162 100.67L15.6832 77.27C12.6554 75.5187 10.1973 70.8345 10.1973 66.7938V61.2656C10.1973 57.225 12.6554 55.3682 15.6832 57.1195L56.2162 80.5194C59.2441 82.2707 61.7022 86.9549 61.7022 90.9955V96.5237C61.7022 100.564 59.2441 102.421 56.2162 100.67Z" fill="#FBE2B7" stroke="#F7C164" stroke-width="1.032" stroke-miterlimit="10" stroke-linecap="round"/>
<path d="M116.857 135.686L76.3238 112.286C73.296 110.534 70.8379 105.85 70.8379 101.809V96.2813C70.8379 92.2406 73.296 90.3838 76.3238 92.1351L116.857 115.535C119.885 117.286 122.343 121.971 122.343 126.011V131.539C122.343 135.58 119.885 137.437 116.857 135.686Z" fill="#FBE2B7" stroke="#F7C164" stroke-width="1.032" stroke-miterlimit="10" stroke-linecap="round"/>
<path d="M177.488 170.69L136.955 147.29C133.927 145.539 131.469 140.855 131.469 136.814V131.286C131.469 127.245 133.927 125.389 136.955 127.14L177.488 150.54C180.516 152.291 182.974 156.975 182.974 161.016V166.544C182.974 170.585 180.516 172.442 177.488 170.69Z" fill="#FBE2B7" stroke="#F7C164" stroke-width="1.032" stroke-miterlimit="10" stroke-linecap="round"/>
<path d="M238.128 205.706L197.595 182.306C194.567 180.555 192.109 175.871 192.109 171.83V166.302C192.109 162.261 194.567 160.404 197.595 162.156L238.128 185.556C241.156 187.307 243.615 191.991 243.615 196.032V201.56C243.615 205.601 241.156 207.457 238.128 205.706Z" fill="#FBE2B7" stroke="#F7C164" stroke-width="1.032" stroke-miterlimit="10" stroke-linecap="round"/>
<path d="M150.596 243.971L15.6832 166.081C12.6554 164.329 10.1973 159.645 10.1973 155.604V91.9668C10.1973 87.9261 12.6554 86.0693 15.6832 87.8206L150.596 165.711C153.624 167.463 156.082 172.147 156.082 176.187V239.825C156.082 243.866 153.624 245.723 150.596 243.971Z" fill="white" stroke="#F7C164" stroke-width="1.032" stroke-linecap="round" stroke-linejoin="round"/>
<path d="M238.128 294.505L170.703 255.576C167.675 253.824 165.217 249.14 165.217 245.099V181.462C165.217 177.421 167.675 175.564 170.703 177.316L238.128 216.245C241.156 217.997 243.614 222.681 243.614 226.721V290.359C243.614 294.4 241.156 296.256 238.128 294.505Z" fill="white" stroke="#F7C164" stroke-width="1.032" stroke-linecap="round" stroke-linejoin="round"/>
<path d="M45.9824 84.6865L51.0359 87.6089" stroke="#F7C164" stroke-width="1.032" stroke-linecap="round" stroke-linejoin="round"/>
<path d="M20.8613 70.1914L39.2605 80.8153" stroke="#F7C164" stroke-width="1.032" stroke-linecap="round" stroke-linejoin="round"/>
<path d="M96.5898 113.91L111.676 122.624" stroke="#F7C164" stroke-width="1.032" stroke-linecap="round" stroke-linejoin="round"/>
<path d="M81.4922 105.196L88.9511 109.501" stroke="#F7C164" stroke-width="1.032" stroke-linecap="round" stroke-linejoin="round"/>
<path d="M157.221 148.915L172.318 157.629" stroke="#F7C164" stroke-width="1.032" stroke-linecap="round" stroke-linejoin="round"/>
<path d="M142.135 140.201L149.077 144.21" stroke="#F7C164" stroke-width="1.032" stroke-linecap="round" stroke-linejoin="round"/>
<path d="M228.475 190.05L232.948 192.635" stroke="#F7C164" stroke-width="1.032" stroke-linecap="round" stroke-linejoin="round"/>
<path d="M202.766 175.217L220.521 185.461" stroke="#F7C164" stroke-width="1.032" stroke-linecap="round" stroke-linejoin="round"/>
<path d="M146.28 210.39C146.28 208.776 144.761 206.951 143.558 207.088C139.96 207.489 136.342 203.395 129.537 191.178C121.044 175.934 115.621 182.327 107.846 187.644C100.06 192.951 95.1122 176.756 89.6895 163.01C84.2668 149.263 76.481 139.863 64.2219 152.396C51.9628 164.919 43.7126 164.782 35.0932 145.929C30.1558 135.126 25.9252 132.594 23.2033 132.394C21.2199 132.257 19.9961 133.913 19.9961 136.413V153.821C19.9961 156.152 21.6316 158.99 23.6466 160.151L142.608 228.831C144.623 229.992 146.259 229.053 146.259 226.721V210.4L146.28 210.39Z" fill="#FBE2B7" stroke="#F7C164" stroke-width="1.032" stroke-linecap="round" stroke-linejoin="round"/>
<path d="M186.033 251.842C183.1 250.154 180.727 245.607 180.727 241.703V202.763C180.727 198.86 183.1 197.066 186.033 198.754C188.966 200.442 191.34 204.989 191.34 208.893V247.833C191.34 251.736 188.966 253.53 186.033 251.842Z" fill="#FEF6E7" stroke="#F7C164" stroke-width="1.032" stroke-linecap="round" stroke-linejoin="round"/>
<path d="M222.801 273.068C219.868 271.38 217.494 266.833 217.494 262.93V235.69C217.494 231.786 219.868 229.993 222.801 231.681C225.734 233.369 228.107 237.916 228.107 241.819V269.059C228.107 272.963 225.734 274.756 222.801 273.068Z" fill="#FEF6E7" stroke="#F7C164" stroke-width="1.032" stroke-linecap="round" stroke-linejoin="round"/>
<path d="M267.975 153.842V291.995C267.975 295.381 266.826 297.797 264.948 298.979C264.895 299.021 264.831 299.063 264.768 299.084L250.188 307.492C251.792 306.216 252.752 303.937 252.752 300.835V162.683C252.752 155.688 247.846 147.196 241.79 143.693L16.2945 13.5061L12.0325 11.048C9.07855 9.33888 6.38808 9.13843 4.42578 10.204L18.8584 1.88003L18.8795 1.85893L20.1454 1.13098C22.055 0.350282 24.5448 0.64568 27.2561 2.20708L257.014 134.863C263.07 138.355 267.975 146.858 267.975 153.842Z" fill="#FBE2B7" stroke="#F7C164" stroke-width="1.032" stroke-miterlimit="10" stroke-linecap="round"/>
</svg>
