<svg width="170" height="175" viewBox="0 0 170 175" fill="none" xmlns="http://www.w3.org/2000/svg">
<path d="M132.851 150.519H28.7992C28.4914 150.519 28.252 150.279 28.252 149.971V130.837C28.252 128.406 30.2359 126.421 32.6644 126.421H128.986C131.415 126.421 133.399 128.406 133.399 130.837V149.971C133.433 150.279 133.159 150.519 132.851 150.519Z" fill="#D5DDEA"/>
<path opacity="0.1" d="M132.85 140.491H28.9357C28.6283 140.491 28.3892 140.352 28.3892 140.172V129.029C28.3892 127.613 30.3704 126.457 32.7958 126.457H128.99C131.415 126.457 133.396 127.613 133.396 129.029V140.172C133.43 140.352 133.157 140.491 132.85 140.491Z" fill="#989FB0"/>
<path d="M135.999 135.698H25.6529C24.9004 135.698 24.2847 135.082 24.2847 134.329V11.6838C24.2847 5.69362 29.1418 0.833008 35.1277 0.833008H126.558C132.544 0.833008 137.401 5.69362 137.401 11.6838V134.329C137.401 135.082 136.786 135.698 135.999 135.698Z" fill="#EAEEF9"/>
<path opacity="0.5" d="M129.664 15.1013V86.1729C129.664 88.0065 128.259 89.4734 126.502 89.4734H34.7052C33.7216 89.4734 32.8784 88.9966 32.2812 88.2999C31.8245 87.7498 31.5435 86.9796 31.5435 86.2095V15.1013C31.5435 13.2677 32.9487 11.8008 34.7052 11.8008H126.537C127.345 11.8008 128.083 12.0942 128.645 12.6443C129.277 13.231 129.664 14.1112 129.664 15.1013Z" fill="white"/>
<path opacity="0.7" d="M129.663 15.0477V86.1712C129.663 88.0062 128.258 89.4742 126.501 89.4742H34.6857C33.7019 89.4742 32.8586 88.9971 32.2612 88.2998L128.609 12.5889C129.277 13.1761 129.663 14.0568 129.663 15.0477Z" fill="#D5DDEA"/>
<path d="M117.324 17.6406H43.885C40.1224 17.6406 37.0781 20.6871 37.0781 24.4523V76.858C37.0781 80.6233 40.1224 83.6697 43.885 83.6697H117.289C121.052 83.6697 124.096 80.6233 124.096 76.858V24.4181C124.096 20.6871 121.052 17.6406 117.324 17.6406Z" fill="url(#paint0_linear_6155_97729)"/>
<path d="M99.6943 35.5771L92.3076 42.9691" stroke="white" stroke-width="3.33333" stroke-miterlimit="10" stroke-linecap="round" stroke-linejoin="round"/>
<path d="M92.3076 35.5771L99.6943 42.9691" stroke="white" stroke-width="3.33333" stroke-miterlimit="10" stroke-linecap="round" stroke-linejoin="round"/>
<path d="M70.7601 35.5771L63.3374 42.9691" stroke="white" stroke-width="3.33333" stroke-miterlimit="10" stroke-linecap="round" stroke-linejoin="round"/>
<path d="M63.3374 35.5771L70.7601 42.9691" stroke="white" stroke-width="3.33333" stroke-miterlimit="10" stroke-linecap="round" stroke-linejoin="round"/>
<path d="M76.1299 51.3711L78.8323 54.1115H84.2012L86.7595 51.3711" stroke="white" stroke-width="3.33333" stroke-miterlimit="10" stroke-linecap="round" stroke-linejoin="round"/>
<path d="M70.9766 63.9551H90.0738L95.2264 68.0657" stroke="white" stroke-width="3.33333" stroke-miterlimit="10" stroke-linecap="round" stroke-linejoin="round"/>
<path opacity="0.1" d="M124.239 21.7558C123.201 19.3405 120.796 17.6406 118.009 17.6406H44.5173C40.752 17.6406 37.7056 20.6871 37.7056 24.4523V24.7946H38.8156C40.0317 22.9386 42.13 21.714 44.5173 21.714H123.485C123.74 21.714 123.992 21.7282 124.239 21.7558Z" fill="#1F2229"/>
<path d="M40.087 116.769H35.7087C34.101 116.769 32.8354 115.468 32.8354 113.893V109.512C32.8354 107.903 34.1352 106.637 35.7087 106.637H40.087C41.6946 106.637 42.9602 107.937 42.9602 109.512V113.893C42.9944 115.468 41.6946 116.769 40.087 116.769Z" fill="#D5DDEA"/>
<path d="M113.286 111.019H122.795C123.514 111.019 124.095 110.437 124.095 109.718V106.295C124.095 105.576 123.514 104.994 122.795 104.994H113.286C112.568 104.994 111.987 105.576 111.987 106.295C111.987 106.465 111.849 106.603 111.679 106.603H82.0912C81.4755 106.603 80.9624 107.116 80.9624 107.732V108.246C80.9624 108.862 81.4755 109.376 82.0912 109.376H111.644C111.833 109.376 111.987 109.529 111.987 109.718C111.987 110.437 112.568 111.019 113.286 111.019Z" fill="#989FB0"/>
<path opacity="0.2" d="M31.4075 1.74023C27.5797 3.41704 24.9038 7.23975 24.9038 11.6843V134.329C24.9038 135.082 25.5199 135.698 26.273 135.698H31.4075V1.74023Z" fill="#D5DDEA"/>
<path d="M161.003 167.921C163.343 167.921 165.239 165.995 165.239 163.619C165.239 161.243 163.343 159.317 161.003 159.317C158.663 159.317 156.766 161.243 156.766 163.619C156.766 165.995 158.663 167.921 161.003 167.921Z" fill="#D5DDEA"/>
<path d="M15.6885 159.317H9.61606C8.15156 159.317 6.96436 160.505 6.96436 161.969C6.96436 163.434 8.15157 164.621 9.61606 164.621H15.6885C17.153 164.621 18.3402 163.434 18.3402 161.969C18.3402 160.505 17.153 159.317 15.6885 159.317Z" fill="#D5DDEA"/>
<path d="M25.73 159.317H23.14C21.6755 159.317 20.4883 160.505 20.4883 161.969C20.4883 163.434 21.6755 164.621 23.14 164.621H25.73C27.1945 164.621 28.3817 163.434 28.3817 161.969C28.3817 160.505 27.1945 159.317 25.73 159.317Z" fill="#D5DDEA"/>
<path d="M122.211 164.626L128.284 164.626C129.748 164.626 130.936 163.439 130.936 161.974C130.936 160.51 129.748 159.323 128.284 159.323L122.211 159.323C120.747 159.323 119.56 160.51 119.56 161.974C119.56 163.439 120.747 164.626 122.211 164.626Z" fill="#D5DDEA"/>
<path d="M112.139 164.626L114.729 164.626C116.194 164.626 117.381 163.439 117.381 161.974C117.381 160.51 116.194 159.323 114.729 159.323L112.139 159.323C110.675 159.323 109.487 160.51 109.487 161.974C109.487 163.439 110.675 164.626 112.139 164.626Z" fill="#D5DDEA"/>
<path d="M103.91 159.317H33.7611C32.2966 159.317 31.1094 160.505 31.1094 161.969C31.1094 163.434 32.2966 164.621 33.7611 164.621H103.91C105.374 164.621 106.562 163.434 106.562 161.969C106.562 160.505 105.374 159.317 103.91 159.317Z" fill="#D5DDEA"/>
<path d="M134.595 174.168H2.84397C1.27688 174.168 0 172.871 0 171.28V168.57V165.859C0 164.268 1.27688 162.972 2.84397 162.972H134.653C136.22 162.972 137.497 164.268 137.497 165.859V171.28C137.439 172.871 136.162 174.168 134.595 174.168Z" fill="#EAEEF9"/>
<path d="M167.155 174.168H149.337C147.77 174.168 146.493 172.871 146.493 171.28V168.57V165.859C146.493 164.268 147.77 162.972 149.337 162.972H167.155C168.723 162.972 169.999 164.268 169.999 165.859V171.28C169.999 172.871 168.723 174.168 167.155 174.168Z" fill="#EAEEF9"/>
<path d="M137.439 168.568H0" stroke="#D5DDEA" stroke-width="2.66667" stroke-miterlimit="10"/>
<path d="M170 168.568H146.552" stroke="#D5DDEA" stroke-width="2.66667" stroke-miterlimit="10"/>
<defs>
<linearGradient id="paint0_linear_6155_97729" x1="120.644" y1="17.6408" x2="39.7323" y2="18.012" gradientUnits="userSpaceOnUse">
<stop stop-color="#B0BACC"/>
<stop offset="1" stop-color="#969EAE"/>
</linearGradient>
</defs>
</svg>
