<svg width="56" height="57" viewBox="0 0 56 57" fill="none" xmlns="http://www.w3.org/2000/svg">
<rect y="0.5" width="56" height="56" rx="28" fill="#E8F1FC"/>
<path fill-rule="evenodd" clip-rule="evenodd" d="M37 28.5C37 33.4706 32.9706 37.5 28 37.5C23.0294 37.5 19 33.4706 19 28.5C19 23.5294 23.0294 19.5 28 19.5C32.9706 19.5 37 23.5294 37 28.5ZM28.1401 26.6449C28.4224 26.4332 28.4901 26.0379 28.2944 25.7443C28.0617 25.3953 27.5678 25.3464 27.2712 25.643L26.7071 26.2071C26.3166 26.5976 25.6834 26.5976 25.2929 26.2071C24.9024 25.8166 24.9024 25.1834 25.2929 24.7929L25.857 24.2288C27.046 23.0397 29.0257 23.2358 29.9585 24.6349C30.743 25.8117 30.4715 27.3963 29.3401 28.2449L29.2916 28.2813C29.108 28.419 29 28.635 29 28.8645L29 29C29 29.5523 28.5523 30 28 30C27.4477 30 27 29.5523 27 29L27 28.8645C27 28.0055 27.4044 27.1967 28.0916 26.6813L28.1401 26.6449ZM27 32C27 32.5523 27.4477 33 28 33C28.5523 33 29 32.5523 29 32C29 31.4477 28.5523 31 28 31C27.4477 31 27 31.4477 27 32Z" fill="#093160"/>
</svg>
