<svg width="56" height="57" viewBox="0 0 56 57" fill="none" xmlns="http://www.w3.org/2000/svg">
<rect y="0.5" width="56" height="56" rx="28" fill="#E8F1FC"/>
<path fill-rule="evenodd" clip-rule="evenodd" d="M34.2898 21.5865L32.7423 20.9L29.1157 19.447C28.3996 19.1601 27.6004 19.1601 26.8843 19.447L23.2577 20.9L21.7102 21.5865C20.6871 22.0403 19.9999 23.0245 20 24.1436C20.0002 26.1176 20.1502 29.2662 20.9938 31.35C22.0707 34.0103 24.9661 36.1496 26.679 37.2311C27.4913 37.7441 28.5087 37.7441 29.321 37.2311C31.0339 36.1496 33.9293 34.0103 35.0062 31.35C35.8498 29.2662 35.9998 26.1176 36 24.1436C36.0001 23.0245 35.3129 22.0403 34.2898 21.5865ZM30.6961 27.7071C31.0866 27.3166 31.0866 26.6834 30.6961 26.2929C30.3056 25.9024 29.6724 25.9024 29.2819 26.2929L27.3431 28.2316L27.0613 27.9497C26.6707 27.5592 26.0376 27.5592 25.647 27.9497C25.2565 28.3403 25.2565 28.9734 25.647 29.3639L26.636 30.3529C27.0266 30.7435 27.6597 30.7435 28.0503 30.3529L30.6961 27.7071Z" fill="#093160"/>
</svg>
