<svg width="56" height="57" viewBox="0 0 56 57" fill="none" xmlns="http://www.w3.org/2000/svg">
<rect y="0.5" width="56" height="56" rx="28" fill="#E8F1FC"/>
<path fill-rule="evenodd" clip-rule="evenodd" d="M22.6667 19.5H33.3333C34.8061 19.5 36 20.7088 36 22.2V32.4863C36.0051 32.8532 35.8072 33.2012 35.4741 33.3805C35.4701 33.4121 35.4671 33.4725 35.4789 33.5716C35.5212 33.9286 35.6957 34.3945 35.9349 34.9899L35.9638 35.0619C36.0656 35.3148 36.1757 35.5887 36.2647 35.846C36.3597 36.1203 36.4562 36.446 36.4843 36.7681C36.5112 37.0781 36.4903 37.5721 36.1297 37.9838C35.7606 38.4051 35.249 38.5 34.8536 38.5H23.8594C21.6839 38.5 20.0109 36.6591 20.0001 34.4999L20 34.4789V22.2C20 20.7088 21.1939 19.5 22.6667 19.5ZM22 34.4789C22 33.9383 22.4383 33.5 22.9789 33.5H33.4711C33.4732 33.6065 33.4812 33.7094 33.4928 33.8069C33.5716 34.4723 33.8596 35.1892 34.0734 35.7215L34.1045 35.7987C34.2109 36.0636 34.3026 36.2917 34.3747 36.5L23.8594 36.5C22.8836 36.5 22 35.6477 22 34.4789ZM34.8897 36.4987L34.8937 36.4982C34.8938 36.4983 34.8925 36.4985 34.8897 36.4987Z" fill="#093160"/>
</svg>
