<svg width="56" height="57" viewBox="0 0 56 57" fill="none" xmlns="http://www.w3.org/2000/svg">
<rect y="0.5" width="56" height="56" rx="28" fill="#E8F1FC"/>
<path fill-rule="evenodd" clip-rule="evenodd" d="M37 28.5C37 33.4706 32.9706 37.5 28 37.5C23.0294 37.5 19 33.4706 19 28.5C19 23.5294 23.0294 19.5 28 19.5C32.9706 19.5 37 23.5294 37 28.5ZM28 22.5C28.5523 22.5 29 22.9477 29 23.5V30.5C29 31.0523 28.5523 31.5 28 31.5C27.4477 31.5 27 31.0523 27 30.5L27 23.5C27 22.9477 27.4477 22.5 28 22.5ZM26.75 33.25C26.75 33.9404 27.3096 34.5 28 34.5C28.6904 34.5 29.25 33.9404 29.25 33.25C29.25 32.5596 28.6904 32 28 32C27.3096 32 26.75 32.5596 26.75 33.25Z" fill="#093160"/>
</svg>
