<svg width="56" height="57" viewBox="0 0 56 57" fill="none" xmlns="http://www.w3.org/2000/svg">
<rect y="0.5" width="56" height="56" rx="28" fill="#E8F1FC"/>
<path d="M24.3803 24.8038L29.4954 20.3707C30.1046 19.8461 30.9688 19.7373 31.689 20.0945L31.7014 20.1007L31.7188 20.1094C32.6987 20.6046 33.0962 21.7971 32.6094 22.7812L31.8416 24.3167C31.2913 25.4174 31.0161 25.9678 31.199 26.3942C31.2381 26.4853 31.2905 26.57 31.3545 26.6457C31.6541 27 32.2694 27 33.5 27H33.6305C35.3895 27 36.269 27 36.8399 27.5152C36.8907 27.561 36.939 27.6093 36.9848 27.6601C37.5 28.231 37.5 29.1105 37.5 30.8695V32.1849C37.5 33.0783 37.5 33.525 37.3213 33.9189C37.1425 34.3128 36.8064 34.6069 36.134 35.1952L34.6311 36.5103C34.0718 36.9997 33.7921 37.2444 33.452 37.3722C33.1119 37.5 32.7403 37.5 31.9971 37.5H28.1472C27.5774 37.5 27.2925 37.5 27.0222 37.4225C26.752 37.345 26.5104 37.194 26.0272 36.892L24.88 36.175C23.961 35.6006 23.5014 35.3134 23.2507 34.861C23 34.4087 23 33.8668 23 32.783V35C23 35.8284 22.3284 36.5 21.5 36.5H20.5C19.3954 36.5 18.5 35.6046 18.5 34.5V26.5C18.5 25.3954 19.3954 24.5 20.5 24.5H21.5C22.3284 24.5 23 25.1716 23 26V27.8265C23 26.9277 23 26.4782 23.1807 26.0825C23.3614 25.6868 23.701 25.3924 24.3803 24.8038Z" fill="#093160"/>
</svg>
