<svg width="24" height="24" viewBox="0 0 24 24" fill="none" xmlns="http://www.w3.org/2000/svg">
<path fill-rule="evenodd" clip-rule="evenodd" d="M20.8404 3.66128C19.2783 2.09919 16.7457 2.09919 15.1836 3.66128L14.5519 4.29301L4.57698 14.2679C3.96499 14.8799 3.56801 15.6738 3.44561 16.5306L3.06849 19.1705C2.87992 20.4904 4.0113 21.6218 5.33123 21.4332L7.97109 21.0561C8.82788 20.9337 9.62185 20.5367 10.2338 19.9247L20.2087 9.94987L20.8404 9.31814C22.4025 7.75604 22.4025 5.22338 20.8404 3.66128ZM19.4262 5.0755C20.182 5.83126 20.2065 7.04139 19.4996 7.82657L16.6751 5.00209C17.4603 4.29527 18.6705 4.31974 19.4262 5.0755ZM15.259 6.41433L18.0874 9.24276L8.81962 18.5105C8.51363 18.8165 8.11664 19.015 7.68825 19.0762L5.04839 19.4533L5.42551 16.8135C5.48671 16.3851 5.6852 15.9881 5.99119 15.6821L15.259 6.41433Z" fill="#667185"/>
</svg>
