<svg width="160" height="38" viewBox="0 0 160 38" fill="none" xmlns="http://www.w3.org/2000/svg">
<path d="M5.24948 26.2479V29.9027C5.24948 31.5479 6.01436 32.3705 7.54772 32.3705C9.08108 32.3705 9.82794 31.5479 9.82794 29.9027V29.2352C9.82794 27.4782 8.18995 25.4289 4.91397 23.0765C1.63799 20.7386 0 17.8955 0 14.5438V7.64547C0 2.5511 2.5111 0.00390625 7.52971 0.00390625C12.5483 0.00390625 15.0774 2.5511 15.0774 7.64547V12.5414H9.82794V7.64547C9.82794 6.01469 9.06665 5.19208 7.54772 5.17765H7.51165C6.00354 5.17765 5.24948 6.00026 5.24948 7.64547V14.4319C5.24948 16.0519 6.88747 18.0363 10.1635 20.385C13.4394 22.7229 15.0774 25.5227 15.0774 28.7878V29.8991C15.0774 35.0043 12.5663 37.5587 7.54772 37.5587C2.51469 37.5478 0 34.9934 0 29.8991V26.2442H5.24948V26.2479Z" fill="white"/>
<path d="M19.5295 0.58076H33.1422V5.7545H24.779V11.3359H31.9768V16.5277H24.779V31.7928H33.1422V36.9665H19.5295V0.577148V0.58076Z" fill="white"/>
<path d="M37.0387 36.9665V0.577148H42.2883V31.7892H50.6514V36.9629H37.0387V36.9665Z" fill="white"/>
<path d="M53.8048 36.9665V0.577148H59.0543V31.7892H67.4174V36.9629H53.8048V36.9665Z" fill="white"/>
<path d="M85.2765 26.3017V29.8988C85.2765 34.9931 82.7617 37.5475 77.7287 37.5583C72.7101 37.5583 70.199 35.0039 70.199 29.8988V7.64155C70.199 2.54718 72.7101 0 77.7287 0C82.7473 0 85.2765 2.54718 85.2765 7.64155V12.5375H80.0269V7.64155C80.0269 6.01078 79.2657 5.18817 77.7468 5.17374H77.7107C76.2026 5.17374 75.4485 5.99634 75.4485 7.64155V29.8988C75.4485 31.544 76.2098 32.3666 77.7287 32.3666C79.2476 32.3666 80.0269 31.544 80.0269 29.8988V26.3017H85.2765Z" fill="white"/>
<path d="M89.5447 0.58076H97.1863C101.848 0.591584 104.178 3.14599 104.178 8.24036V8.83205C104.178 12.0359 102.8 14.1429 100.044 15.1567L105.943 36.9665H100.192L95.4617 16.084L94.7943 16.1778V36.9665H89.5447V0.577148V0.58076ZM94.7906 5.7545V11.2999H95.9957C96.7245 11.2999 97.226 11.2494 97.4966 11.1519C98.4491 10.7695 98.9253 9.99741 98.9253 8.83205V8.24036C98.9253 6.58433 98.164 5.7545 96.6451 5.7545H94.7906Z" fill="white"/>
<path d="M107.905 0.58076H121.518V5.7545H113.155V11.3359H120.353V16.5277H113.155V31.7928H121.518V36.9665H107.905V0.577148V0.58076Z" fill="white"/>
<path d="M132.738 8.92586L129.03 36.9665H123.744L129.159 0.577148H136.357L141.755 36.9665H136.451L132.742 8.92586H132.738Z" fill="white"/>
<path d="M152.452 0.00341797C157.485 0.00341797 160 2.55061 160 7.64498V13.9696C160 16.3545 159.04 18.043 157.124 19.0315C159.04 20.0201 160 21.7086 160 24.0934V29.8986C160 34.9929 157.485 37.5401 152.452 37.5401C147.419 37.5401 144.904 34.9929 144.904 29.8986V24.0934C144.904 21.7086 145.864 20.0201 147.78 19.0315C145.864 18.043 144.904 16.3545 144.904 13.9696V7.64498C144.904 2.55061 147.419 0.00341797 152.452 0.00341797ZM152.954 16.3797C153.448 16.3797 153.82 16.304 154.065 16.156C154.523 15.8963 154.75 15.153 154.75 13.93V7.64137C154.75 6.01059 153.989 5.18799 152.47 5.17356H152.434C150.912 5.18438 150.154 6.00699 150.154 7.64137V13.93C150.154 15.153 150.381 15.8963 150.839 16.156C151.088 16.304 151.456 16.3797 151.951 16.3797H152.954ZM152.47 32.3664C153.993 32.3556 154.75 31.533 154.75 29.8986V24.0934C154.75 22.7693 154.473 21.9864 153.917 21.7375C153.621 21.6148 153.163 21.5535 152.546 21.5535H152.362C151.745 21.5535 151.287 21.6148 150.991 21.7375C150.435 21.9864 150.157 22.7693 150.157 24.0934V29.8986C150.157 31.5293 150.919 32.3519 152.438 32.3664H152.474H152.47Z" fill="white"/>
</svg>
